<svg width="170" height="140" viewBox="0 0 170 140" fill="none" xmlns="http://www.w3.org/2000/svg">
<g clip-path="url(#clip0_369_6971)">
<mask id="mask0_369_6971" style="mask-type:luminance" maskUnits="userSpaceOnUse" x="14" y="40" width="48" height="17">
<path d="M14.54 45.4602L14.59 56.7902C27.59 50.3102 48.64 50.3102 61.59 56.7902V45.4602C48.59 39.0002 27.53 39.0002 14.54 45.4602Z" fill="white"/>
</mask>
<g mask="url(#mask0_369_6971)">
<path d="M14.54 45.4603L14.59 56.7903C27.59 50.3103 48.64 50.3103 61.59 56.7903V45.4603C48.69 38.9703 27.59 38.9703 14.64 45.4603H14.54Z" fill="#A1A0A0"/>
</g>
<path d="M12.7202 46.3702L12.7702 57.7002L14.5902 56.7902L14.5402 45.4602L12.7202 46.3702Z" fill="#A1A0A0"/>
<path d="M61.4902 45.4602L61.5402 56.7902L80.0102 66.0802L79.9602 54.7402L61.4902 45.4602Z" fill="#A2A1A1"/>
<path d="M79.96 54.7402L80.01 66.0802L82.08 65.0402L82.03 53.7102L79.96 54.7402Z" fill="#8A8A8A"/>
<mask id="mask1_369_6971" style="mask-type:luminance" maskUnits="userSpaceOnUse" x="2" y="46" width="11" height="24">
<path d="M2.94003 58.2101C2.94003 63.5301 2.94003 64.2101 2.99003 69.5401C3.00003 65.2601 6.24003 61.0001 12.77 57.7001V46.3701C6.19003 49.6301 2.92003 53.9201 2.94003 58.2101Z" fill="white"/>
</mask>
<g mask="url(#mask1_369_6971)">
<path d="M2.93994 58.2101L2.99994 69.5401C2.99994 65.2601 6.23994 61.0001 12.7699 57.7001V46.3701C6.23994 49.6301 2.96994 53.9201 2.98994 58.2101H2.93994Z" fill="#A1A0A0"/>
</g>
<mask id="mask2_369_6971" style="mask-type:luminance" maskUnits="userSpaceOnUse" x="0" y="58" width="11" height="25">
<path d="M0 58.1301L0.05 69.4601C0.05 74.3001 3.75 78.8401 10.55 82.2601L10.5 70.9201C3.7 67.5101 0 63.0001 0 58.1301Z" fill="white"/>
</mask>
<g mask="url(#mask2_369_6971)">
<path d="M0 58.1301L0.05 69.4601C0.05 74.3001 3.75 78.8401 10.55 82.2601L10.5 70.9201C3.7 67.5101 0 63.0001 0 58.1301Z" fill="#A1A0A0"/>
</g>
<path d="M10.5 70.9202L10.55 82.2602L29.02 91.5402L28.97 80.2102L10.5 70.9202Z" fill="#A2A1A1"/>
<path d="M10.66 45.3301C3.82 48.7501 0 53.2901 0 58.1301C0 62.9701 3.7 67.5101 10.5 70.9201L29 80.2101L31.07 79.2101L12.57 69.8901C-0.33 63.4101 -0.259999 52.8901 12.72 46.3701L14.54 45.4601C27.54 38.9701 48.59 38.9701 61.54 45.4601L80 54.7401L82.07 53.7401L63.56 44.4201C56.76 41.0101 47.7 39.1201 38.05 39.1201C28.4 39.1201 19.32 41.0001 12.48 44.4201L10.66 45.3301Z" fill="#E2E1E1"/>
<path d="M28.9702 80.2102L29.0202 91.5402L31.0902 90.5102L31.0402 79.1702L28.9702 80.2102Z" fill="#8A8A8A"/>
<mask id="mask3_369_6971" style="mask-type:luminance" maskUnits="userSpaceOnUse" x="83" y="47" width="13" height="5">
<path d="M83.3501 50.6001L87.2301 48.6001C89.3501 47.5301 92.3001 47.6801 95.5501 49.3001L91.6701 51.3001C88.4201 49.6801 85.4801 49.5301 83.3501 50.6001Z" fill="white"/>
</mask>
<g mask="url(#mask3_369_6971)">
<path d="M83.3501 50.6001L87.2301 48.6001C89.3501 47.5301 92.3001 47.6801 95.5501 49.3001L91.6701 51.3001C88.4201 49.6801 85.4801 49.5301 83.3501 50.6001Z" fill="#E3E3E2"/>
</g>
<mask id="mask4_369_6971" style="mask-type:luminance" maskUnits="userSpaceOnUse" x="91" y="49" width="17" height="27">
<path d="M103.79 73.3001L99.9099 75.3001C102.01 74.2401 103.32 72.0001 103.32 68.8101C103.32 62.3901 98.1299 54.5801 91.6699 51.3501L95.5499 49.4001C102.01 52.6201 107.22 60.4001 107.2 66.8601C107.19 70.0001 105.89 72.2401 103.79 73.3001Z" fill="white"/>
</mask>
<g mask="url(#mask4_369_6971)">
<path d="M91.6699 51.3001L95.5499 49.3501C95.9899 49.5701 96.4199 49.8101 96.8499 50.0701L92.9999 52.0001C92.5699 51.7401 92.1299 51.5001 91.6899 51.2801L91.6699 51.3001Z" fill="#E3E3E2"/>
<path d="M93 52L96.87 50C98.3026 50.8837 99.6252 51.9344 100.81 53.13L96.93 55.08C95.746 53.902 94.4268 52.8682 93 52Z" fill="#E3E3E2"/>
<path d="M96.9102 55.1502L100.79 53.2002C104.61 57.0202 107.22 62.2702 107.2 66.8102C107.2 67.0802 107.2 67.3402 107.2 67.6002L103.33 69.6002C103.33 69.3502 103.33 69.0802 103.33 68.8102C103.33 64.2702 100.74 59.0202 96.9202 55.2002L96.9102 55.1502Z" fill="#F0F0F0"/>
<path d="M103.3 69.55L107.17 67.55C107.109 68.7683 106.766 69.956 106.17 71.02L102.29 73.02C102.886 71.956 103.229 70.7683 103.29 69.55H103.3Z" fill="#E3E3E2"/>
<path d="M102.28 73L106.16 71C105.603 71.9575 104.78 72.7323 103.79 73.23L99.9102 75.23C100.902 74.7352 101.726 73.9597 102.28 73Z" fill="#E3E3E2"/>
</g>
<path d="M91.67 51.3002C98.13 54.5302 103.35 62.3002 103.32 68.7602C103.29 75.2202 98.05 77.7602 91.6 74.5402C85.15 71.3202 79.92 63.5402 79.94 57.0802C79.96 50.6202 85.21 48.0702 91.67 51.3002Z" fill="#D5D5D4"/>
<mask id="mask5_369_6971" style="mask-type:luminance" maskUnits="userSpaceOnUse" x="72" y="46" width="18" height="6">
<path d="M72 50.4701L77.56 47.6701C80.56 46.1401 84.82 46.3601 89.48 48.6701L84 51.4801C79.3 49.1501 75.08 48.9401 72 50.4701Z" fill="white"/>
</mask>
<g mask="url(#mask5_369_6971)">
<path d="M72 50.4701L77.56 47.6701C80.56 46.1401 84.82 46.3601 89.48 48.6701L84 51.4801C79.35 49.1501 75.13 48.9401 72.08 50.4801L72 50.4701Z" fill="#952616"/>
</g>
<mask id="mask6_369_6971" style="mask-type:luminance" maskUnits="userSpaceOnUse" x="83" y="48" width="24" height="38">
<path d="M101.32 83.0002L95.7702 85.8002C98.7702 84.2802 100.64 81.0702 100.66 76.5002C100.66 67.3002 93.2102 56.1002 83.9502 51.5002L89.5102 48.7102C98.7602 53.3302 106.24 64.5302 106.21 73.7102C106.2 78.2802 104.33 81.4902 101.32 83.0002Z" fill="white"/>
</mask>
<g mask="url(#mask6_369_6971)">
<path d="M84 51.4802L89.56 48.6902C90.19 49.0002 90.82 49.3502 91.43 49.6902L85.88 52.4902C85.26 52.1102 84.64 51.7602 84 51.4902V51.4802Z" fill="#952616"/>
<path d="M85.8301 52.5202L91.3801 49.7202C93.4225 50.9881 95.3088 52.4918 97.0001 54.2002L91.4701 57.0002C89.7731 55.29 87.8799 53.7862 85.8301 52.5202Z" fill="#BA2E1B"/>
<path d="M91.4699 57.0002L96.9999 54.2002C102.47 59.6802 106.21 67.2002 106.19 73.7102C106.19 74.0902 106.19 74.4702 106.19 74.8402L100.63 77.6302C100.63 77.2602 100.63 76.8902 100.63 76.5002C100.63 69.9902 96.9099 62.5002 91.4399 57.0002H91.4699Z" fill="#DE371E"/>
<path d="M100.61 77.6301L106.17 74.8401C106.076 76.5958 105.58 78.3065 104.72 79.8401L99.1602 82.6001C100.025 81.0684 100.521 79.3567 100.61 77.6001V77.6301Z" fill="#BA2E1B"/>
<path d="M99.16 82.6003L104.72 79.8103C103.921 81.182 102.74 82.2907 101.32 83.0003L95.77 85.8003C97.1855 85.0836 98.363 83.9721 99.16 82.6003Z" fill="#952616"/>
</g>
<path d="M84.0002 51.48C93.2602 56.1 100.74 67.3001 100.71 76.4801C100.68 85.6601 93.1002 89.41 83.8502 84.78C74.6002 80.15 67.1202 69 67.1402 59.76C67.1602 50.52 74.7002 46.86 84.0002 51.48Z" fill="#7F1F13"/>
<path d="M66.6401 53.7L72.0001 51C74.9301 49.53 79.0001 49.74 83.4601 52L78.1001 54.67C73.6201 52.43 69.5701 52.23 66.6401 53.7Z" fill="#262626"/>
<mask id="mask7_369_6971" style="mask-type:luminance" maskUnits="userSpaceOnUse" x="66" y="50" width="18" height="5">
<path d="M66.6401 53.7L72.0001 51C74.9301 49.53 79.0001 49.74 83.4601 52L78.1001 54.67C73.6201 52.43 69.5701 52.23 66.6401 53.7Z" fill="white"/>
</mask>
<g mask="url(#mask7_369_6971)">
<path d="M66.6401 53.7L72.0001 51C74.9301 49.53 79.0001 49.74 83.4601 52L78.1001 54.67C73.6201 52.43 69.5701 52.23 66.6401 53.67V53.7Z" fill="#262626"/>
</g>
<path d="M94.8001 85L89.4601 87.68C92.3501 86.23 94.1401 83.14 94.1601 78.74C94.1601 69.9 87.0001 59.13 78.1001 54.74L83.4401 52C92.3401 56.43 99.5301 67.2 99.5001 76C99.4801 80.43 97.6901 83.52 94.8001 85Z" fill="#262626"/>
<mask id="mask8_369_6971" style="mask-type:luminance" maskUnits="userSpaceOnUse" x="78" y="52" width="22" height="36">
<path d="M94.8001 85L89.4601 87.68C92.3501 86.23 94.1401 83.14 94.1601 78.74C94.1601 69.9 87.0001 59.13 78.1001 54.74L83.4401 52C92.3401 56.43 99.5301 67.2 99.5001 76C99.4801 80.43 97.6901 83.52 94.8001 85Z" fill="white"/>
</mask>
<g mask="url(#mask8_369_6971)">
<path d="M78.1001 54.67L83.4401 52C84.0501 52.31 84.6501 52.64 85.2401 53L79.9001 55.67C79.3101 55.31 78.7101 54.97 78.1001 54.67Z" fill="#262626"/>
<path d="M79.8999 55.67L85.2399 53C87.2095 54.2189 89.0287 55.6655 90.6599 57.31L85.3199 60C83.6885 58.3586 81.8693 56.9153 79.8999 55.7V55.67Z" fill="#353535"/>
<path d="M85.3203 60.0001L90.6603 57.3201C95.9203 62.5501 99.5203 69.7801 99.5003 76.0001C99.5003 76.3701 99.5003 76.7301 99.5003 77.0901L94.1603 79.7701C94.1603 79.4201 94.1603 79.0601 94.1603 78.6801C94.1603 72.4201 90.5803 65.2001 85.3203 59.9301V60.0001Z" fill="#434342"/>
<path d="M94.1202 79.8099L99.4602 77.1299C99.3665 78.8064 98.8874 80.4387 98.0602 81.8999L92.7202 84.5899C93.543 83.1232 94.0217 81.4887 94.1202 79.8099Z" fill="#353535"/>
<path d="M92.72 84.5899L98.06 81.8999C97.299 83.2291 96.1658 84.3067 94.8 84.9999L89.46 87.6799C90.8223 86.9957 91.9553 85.9288 92.72 84.6099V84.5899Z" fill="#262626"/>
</g>
<path d="M78.1 54.67C87 59.11 94.19 69.88 94.16 78.67C94.13 87.46 86.89 91.08 78 86.67C69.11 82.26 61.91 71.48 61.94 62.63C61.97 53.78 69.21 50.23 78.1 54.67Z" fill="#262626"/>
<path d="M19.9302 79.03V80.28L68.6602 104.69L68.6502 103.44L19.9302 79.03Z" fill="#2675A9"/>
<path d="M68.6504 103.44L68.6604 104.69L101.83 88.1299L101.81 86.8799L68.6504 103.44Z" fill="#3C96D3"/>
<path d="M19.9302 79.03L68.6502 103.44L101.81 86.88L53.0902 62.47L19.9302 79.03Z" fill="#1A5276"/>
<path d="M98.0801 81.9701L101.38 80.6001V86.5101L98.0801 88.5701V81.9701Z" fill="#1A5276"/>
<path d="M22.8799 74.5498L22.8899 79.4698L68.6699 102.39L68.6599 97.4698L22.8799 74.5498Z" fill="#A8A8A8"/>
<path d="M99.1997 82.23V87.16L68.6697 102.39L68.6597 97.47L99.1997 82.23Z" fill="#EBEBEB"/>
<path d="M53.6599 59.1699L97.5399 81.1399V83.0399L68.6599 97.4699L22.8799 74.5499L53.6599 59.1699Z" fill="#DCDCDC"/>
<path d="M19.9302 71.8201V73.0701L68.6602 97.4801L68.6502 96.2301L19.9302 71.8201Z" fill="#2675A9"/>
<path d="M68.6504 96.2299L68.6604 97.4799L101.83 80.9199L101.81 79.6699L68.6504 96.2299Z" fill="#3C96D3"/>
<path d="M19.9302 71.82L68.6502 96.23L101.81 79.67L53.0902 55.26L19.9302 71.82Z" fill="#3EA2DB"/>
<path d="M29.5103 72.74L66.8303 91.4401L92.2402 78.75L54.9103 60.05L29.5103 72.74Z" fill="#1A5276"/>
<path d="M34.6304 73.2301L65.8604 88.8801L87.1104 78.2601L55.8804 62.6201L34.6304 73.2301Z" fill="#3EA2DB"/>
<path d="M56.4603 65.25L41.2603 72.83L55.9103 80.17L71.1103 72.58L56.4603 65.25Z" fill="#1A5276"/>
<path d="M58.6899 83.2199L64.8899 86.3299L82.0199 77.7699L75.8299 74.6699L58.6899 83.2199Z" fill="#1A5276"/>
<path d="M100.3 88.3199L101.83 87.6399V80.1699L100.3 80.9799V88.3199Z" fill="#3C96D3"/>
<path d="M25.1802 71.45V72.57L68.6902 94.36L68.6802 93.25L25.1802 71.45Z" fill="#E78103"/>
<path d="M68.6802 93.1699L68.6902 94.2899L98.3002 79.4999V78.3799L68.6802 93.1699Z" fill="#E89226"/>
<path d="M25.1802 71.4499L68.6802 93.2499L98.3002 78.4499L54.7902 56.6599L25.1802 71.4499Z" fill="#8B4E14"/>
<path d="M27.8198 67.4399L27.8298 71.8399L68.6998 92.3099L68.6898 87.9199L27.8198 67.4399Z" fill="#EBEBEB"/>
<path d="M95.9599 74.0198V78.6998L68.6999 92.3098L68.6899 87.6298L95.9599 74.0198Z" fill="white"/>
<path d="M55.2 53.6299L94.37 73.2499V74.9399L68.58 87.8299L27.71 67.3599L55.2 53.6299Z" fill="#DCDCDC"/>
<path d="M25.1802 65.01V72.5L68.6902 94.29L68.6802 86.81L25.1802 65.01Z" fill="#E78103"/>
<path d="M65.2901 85.1099L61.3101 83.1199V90.5899L65.2901 92.5899V85.1099Z" fill="#C66F14"/>
<path d="M68.6802 86.74L68.6902 87.85L98.3002 73.06V71.95L68.6802 86.74Z" fill="#E89226"/>
<path d="M25.1802 65.01L68.6802 86.81L98.3002 72.02L54.7902 50.22L25.1802 65.01Z" fill="#F8AB25"/>
<path d="M34.6104 65.9199L66.8904 82.0899L88.8604 71.1199L56.5804 54.9399L34.6104 65.9199Z" fill="#E78103"/>
<path d="M40.27 66.46L65.81 79.26L83.2 70.57L57.66 57.78L40.27 66.46Z" fill="#F8AB25"/>
<path d="M65.6701 63.8699L52.8101 70.2899L56.9501 72.3599L69.8001 65.9399L65.6701 63.8699Z" fill="#E78103"/>
<path d="M44.6704 65.9801L50.7404 69.0201L63.6004 62.5901L57.5304 59.5601L44.6704 65.9801Z" fill="#E78103"/>
<path d="M68.6802 93.3901L70.0502 92.7801V86.1201L68.6802 86.8401V93.3901Z" fill="#E89226"/>
<path d="M23.4702 72.18L28.8102 69.4899C31.7402 68.0199 35.8102 68.2299 40.2702 70.4899L34.9302 73.18C30.4502 70.91 26.4002 70.71 23.4702 72.18Z" fill="#262626"/>
<mask id="mask9_369_6971" style="mask-type:luminance" maskUnits="userSpaceOnUse" x="23" y="68" width="18" height="6">
<path d="M23.4702 72.18L28.8102 69.4899C31.7402 68.0199 35.8102 68.2299 40.2702 70.4899L34.9302 73.18C30.4502 70.91 26.4002 70.71 23.4702 72.18Z" fill="white"/>
</mask>
<g mask="url(#mask9_369_6971)">
<path d="M23.4702 72.18L28.8102 69.4899C31.7402 68.0199 35.8102 68.2299 40.2702 70.4899L34.9302 73.18C30.4502 70.94 26.4002 70.74 23.4702 72.18Z" fill="#262626"/>
</g>
<path d="M51.6302 103.45L46.2902 106.14C49.1802 104.69 50.9702 101.59 50.9902 97.2C50.9902 88.36 43.8302 77.59 34.9302 73.2L40.2702 70.51C49.1702 74.95 56.3602 85.73 56.3302 94.56C56.3102 98.91 54.5202 102 51.6302 103.45Z" fill="#262626"/>
<mask id="mask10_369_6971" style="mask-type:luminance" maskUnits="userSpaceOnUse" x="34" y="70" width="23" height="37">
<path d="M51.6302 103.45L46.2902 106.14C49.1802 104.69 50.9702 101.59 50.9902 97.2C50.9902 88.36 43.8302 77.59 34.9302 73.2L40.2702 70.51C49.1702 74.95 56.3602 85.73 56.3302 94.56C56.3102 98.91 54.5202 102 51.6302 103.45Z" fill="white"/>
</mask>
<g mask="url(#mask10_369_6971)">
<path d="M34.9302 73.15L40.2702 70.46C40.8802 70.77 41.4802 71.1 42.0702 71.46L36.7302 74.14C36.1402 73.79 35.5402 73.45 34.9302 73.14V73.15Z" fill="#262626"/>
<path d="M36.73 74.14L42.07 71.46C44.0419 72.6756 45.8614 74.1225 47.49 75.77L42.15 78.45C40.5188 76.8055 38.6996 75.3589 36.73 74.14Z" fill="#353535"/>
<path d="M42.1504 78.45L47.4904 75.77C52.7504 81.03 56.3504 88.26 56.3304 94.51C56.3304 94.89 56.3304 95.25 56.3304 95.6L51.0004 98.29C51.0004 97.93 51.0004 97.57 51.0004 97.2C51.0004 90.94 47.4204 83.72 42.1604 78.45H42.1504Z" fill="#434342"/>
<path d="M51.0001 98.2899L56.3401 95.5999C56.2479 97.2798 55.7688 98.9156 54.9401 100.38L49.6001 103.07C50.4261 101.605 50.905 99.9693 51.0001 98.2899Z" fill="#353535"/>
<path d="M49.55 103.07L54.89 100.38C54.1287 101.701 52.9948 102.769 51.63 103.45L46.29 106.14C47.6504 105.453 48.7827 104.387 49.55 103.07Z" fill="#262626"/>
</g>
<path d="M34.9301 73.1499C43.8301 77.5899 51.0001 88.3599 51.0001 97.1999C51.0001 106.04 43.7301 109.61 34.8401 105.2C25.9501 100.79 18.7501 89.9999 18.7701 81.1099C18.7901 72.2199 26.0001 68.6999 34.9301 73.1499Z" fill="#262626"/>
<mask id="mask11_369_6971" style="mask-type:luminance" maskUnits="userSpaceOnUse" x="18" y="70" width="19" height="5">
<path d="M18.8901 73.7799L24.4401 70.9999C27.4401 69.4699 31.7101 69.6899 36.3601 71.9999L30.8101 74.8C26.1501 72.46 21.9301 72.2499 18.8901 73.7799Z" fill="white"/>
</mask>
<g mask="url(#mask11_369_6971)">
<path d="M18.8901 73.7799L24.4401 70.9999C27.4401 69.4699 31.7101 69.6899 36.3601 71.9999L30.8101 74.8C26.1501 72.47 21.9301 72.26 18.8901 73.8V73.7799Z" fill="#952616"/>
</g>
<mask id="mask12_369_6971" style="mask-type:luminance" maskUnits="userSpaceOnUse" x="30" y="72" width="24" height="38">
<path d="M48.1801 106.31L42.6201 109.11C45.6201 107.59 47.5001 104.38 47.5101 99.81C47.5101 90.61 40.0601 79.41 30.8101 74.81L36.3601 72C45.6201 76.63 53.0901 87.83 53.0701 97C53.0501 101.59 51.1801 104.8 48.1801 106.31Z" fill="white"/>
</mask>
<g mask="url(#mask12_369_6971)">
<path d="M30.8101 74.79L36.3601 72C37.0001 72.32 37.6201 72.67 38.2401 73L32.6801 75.8C32.0701 75.42 31.4401 75.07 30.8101 74.8V74.79Z" fill="#952616"/>
<path d="M32.6802 75.83L38.2402 73C40.2896 74.2666 42.1827 75.7703 43.8802 77.48L38.3202 80.28C36.6252 78.5674 34.7318 77.0635 32.6802 75.8V75.83Z" fill="#BA2E1B"/>
<path d="M38.3198 80.31L43.8798 77.51C49.3398 83 53.0898 90.5 53.0698 97C53.0698 97.38 53.0698 97.76 53.0698 98.13L47.5198 100.92C47.5198 100.55 47.5198 100.18 47.5198 99.79C47.5198 93.28 43.7998 85.79 38.3298 80.29L38.3198 80.31Z" fill="#DE371E"/>
<path d="M47.47 100.94L53 98.1499C52.911 99.9065 52.4145 101.618 51.55 103.15L46 105.91C46.8615 104.377 47.3577 102.666 47.45 100.91L47.47 100.94Z" fill="#BA2E1B"/>
<path d="M46.0001 105.91L51.5501 103.12C50.7552 104.491 49.5769 105.6 48.1601 106.31L42.6001 109.11C44.0183 108.394 45.199 107.282 46.0001 105.91Z" fill="#952616"/>
</g>
<path d="M30.81 74.7899C40.06 79.4099 47.54 90.6099 47.51 99.7899C47.48 108.97 40 112.72 30.7 108.1C21.4 103.48 14 92.2699 14 83.0699C14 73.8699 21.56 70.1699 30.81 74.7899Z" fill="#7F1F13"/>
<mask id="mask13_369_6971" style="mask-type:luminance" maskUnits="userSpaceOnUse" x="18" y="77" width="13" height="4">
<path d="M18.7202 80.0901L22.6002 78.0901C24.7302 77.0201 27.6702 77.1701 30.9202 78.7901L27.0502 80.7901C23.7902 79.1701 20.8502 79.0001 18.7202 80.0901Z" fill="white"/>
</mask>
<g mask="url(#mask13_369_6971)">
<path d="M18.7202 80.0901L22.6002 78.0901C24.7302 77.0201 27.6702 77.1701 30.9202 78.7901L27.0502 80.7901C23.7902 79.1701 20.8502 79.0201 18.7202 80.0901Z" fill="#E3E3E2"/>
</g>
<mask id="mask14_369_6971" style="mask-type:luminance" maskUnits="userSpaceOnUse" x="27" y="78" width="16" height="27">
<path d="M39.1603 102.79L35.2903 104.74C37.3903 103.74 38.6903 101.45 38.7003 98.26C38.7003 91.84 33.5003 84.02 27.0503 80.79L30.9203 78.79C37.3803 82.02 42.6003 89.79 42.5803 96.26C42.5703 99.49 41.2703 101.74 39.1603 102.79Z" fill="white"/>
</mask>
<g mask="url(#mask14_369_6971)">
<path d="M27.0503 80.79L30.9203 78.79C31.3603 79.01 31.8003 79.26 32.2303 79.52L28.3503 81.52C27.9203 81.26 27.4903 81.02 27.0503 80.79Z" fill="#E3E3E2"/>
<path d="M28.3501 81.52L32.2301 79.52C33.6593 80.4003 34.9786 81.4477 36.1601 82.64L32.2901 84.64C31.1059 83.4438 29.7832 82.393 28.3501 81.51V81.52Z" fill="#E3E3E2"/>
<path d="M32.2905 84.6501L36.1605 82.6501C39.9805 86.4801 42.5905 91.7201 42.5805 96.2701C42.5805 96.5401 42.5805 96.8001 42.5805 97.0601L38.7005 99.0601C38.7005 98.8001 38.7005 98.5301 38.7005 98.2701C38.7005 93.7201 36.1005 88.4801 32.2905 84.6601V84.6501Z" fill="#F0F0F0"/>
<path d="M38.6704 99.05L42.5504 97.05C42.4844 98.2644 42.1424 99.4477 41.5504 100.51L37.6704 102.51C38.2624 101.448 38.6044 100.264 38.6704 99.05Z" fill="#E3E3E2"/>
<path d="M37.6605 102.51L41.5405 100.51C40.98 101.468 40.1531 102.243 39.1605 102.74L35.2905 104.69C36.2801 104.192 37.1036 103.417 37.6605 102.46V102.51Z" fill="#E3E3E2"/>
</g>
<path d="M27.0501 80.7901C33.5001 84.0001 38.7201 91.8401 38.7001 98.2601C38.6801 104.68 33.4301 107.26 26.9701 104.04C20.5101 100.82 15.2901 93.0001 15.3101 86.5801C15.3301 80.1601 20.5901 77.5701 27.0501 80.7901Z" fill="#D5D5D4"/>
<path d="M95.59 47.35C93.17 46.07 87 43.18 84 42.46H83.88C84.7472 42.3977 85.6054 42.2435 86.44 42C88.1258 41.2935 89.6226 40.2019 90.8104 38.8126C91.9982 37.4233 92.844 35.7751 93.28 34C95.03 27.64 91.85 21.1 87.53 15.93C85.32 13.28 81.87 11.67 77.97 10.86L77.91 10.64C77.8443 10.4155 77.7572 10.1979 77.65 9.99C77.59 9.9 77.54 9.8 77.47 9.71C76.61 8.42 73.64 7.34 70.38 7.24V4.69C70.6341 4.60917 70.8762 4.49483 71.1 4.35C71.2554 4.249 71.3996 4.13166 71.53 4L71.66 3.86C71.7392 3.75964 71.8094 3.65257 71.87 3.54C72.0581 3.20012 72.1578 2.81845 72.16 2.43C72.162 2.09119 72.0972 1.75531 71.9694 1.44154C71.8415 1.12777 71.6531 0.842244 71.415 0.601276C70.9339 0.114619 70.2793 -0.161017 69.595 -0.164995C68.9108 -0.168974 68.2529 0.0990317 67.7663 0.580063C67.2796 1.06109 67.004 1.71575 67 2.4C66.997 2.7253 67.0688 3.04693 67.21 3.34C67.4863 3.93338 67.9859 4.39348 68.6 4.62L68.79 4.69V7.22C66.6072 7.3063 64.5073 8.07974 62.79 9.43001C62.5066 9.66644 62.2516 9.93489 62.03 10.23C61.91 10.39 61.81 10.55 61.71 10.71C57.61 11.49 53.95 13.12 51.65 15.88C47.33 21.05 44.15 27.59 45.9 33.95C46.336 35.7251 47.1818 37.3733 48.3696 38.7626C49.5574 40.1519 51.0542 41.2435 52.74 41.95C53.5747 42.1935 54.4328 42.3477 55.3 42.41C54.4932 42.6109 53.6985 42.858 52.92 43.15L51.99 43.51C48.99 44.69 45.31 46.42 43.59 47.33C43.0788 47.5813 42.6152 47.9197 42.22 48.33L42.13 48.44L42.06 48.54L42 48.64C41.9734 48.6835 41.9532 48.7307 41.94 48.78C41.8812 48.9397 41.8573 49.1102 41.87 49.28C41.9116 49.5393 42.0163 49.7845 42.175 49.9938C42.3337 50.203 42.5415 50.37 42.78 50.48H42.84L43.02 50.56C43.2111 50.6299 43.4088 50.6801 43.61 50.71H43.71C43.95 50.71 44.19 50.71 44.44 50.76H44.92C47.5386 50.724 50.1515 50.5068 52.74 50.11C51.7691 53.3871 52.036 56.9068 53.49 60C54.2242 61.3672 55.2039 62.5876 56.38 63.6C57.2762 64.3866 58.2476 65.0833 59.28 65.68C59.3077 65.8774 59.3546 66.0717 59.42 66.26C59.4515 66.3568 59.4917 66.4505 59.54 66.54L59.68 66.82C59.7834 66.9893 59.9005 67.1498 60.03 67.3C61.1499 68.3722 62.5277 69.1369 64.03 69.52C65.65 70.03 71.55 70.59 75.03 69.52C76.5363 69.1469 77.9166 68.3809 79.03 67.3C79.3346 66.9527 79.5598 66.5432 79.69 66.1C79.7306 65.9659 79.7607 65.8288 79.78 65.69C82.2131 64.3842 84.222 62.4099 85.57 60C86.6336 57.8653 87.0705 55.4729 86.83 53.1C86.746 52.0873 86.5753 51.0836 86.32 50.1C88.9086 50.4968 91.5215 50.714 94.14 50.75H94.62C94.84 50.75 95.06 50.75 95.28 50.7C95.5503 50.676 95.816 50.6155 96.07 50.52C96.2295 50.4636 96.3809 50.3863 96.52 50.29C96.7184 50.1745 96.8881 50.0154 97.0163 49.8249C97.1444 49.6344 97.2278 49.4173 97.26 49.19C97.44 48.47 96.45 47.81 95.59 47.35Z" fill="#ECE3F2"/>
<path d="M86.5901 27.8499C86.5901 27.7899 86.5901 27.7299 86.5901 27.6799V27.3899C86.5948 27.3702 86.5948 27.3496 86.5901 27.3299C86.5901 27.1599 86.5901 26.9899 86.5301 26.8199C86.5301 26.6299 86.4701 26.4399 86.4301 26.2599C86.3901 26.0799 86.4301 26.1599 86.4301 26.0999C86.4301 26.0399 86.3701 25.8099 86.3301 25.6699C86.2901 25.5299 86.3301 25.6099 86.3301 25.5899C85.9601 24.2732 85.4295 23.007 84.7501 21.8199C84.5801 21.5299 84.4001 21.2399 84.2201 20.9499V20.8699L83.9801 20.5099L83.8801 20.3599L83.5201 19.9999L83.2701 19.6399L83.0401 19.3399C83.0382 19.3166 83.0382 19.2932 83.0401 19.2699C82.9601 19.1699 82.8901 19.0699 82.8101 18.9799L82.7501 18.8999C82.6501 18.7899 82.5601 18.6699 82.4701 18.5599V18.5099C82.431 18.4758 82.3942 18.439 82.3601 18.3999L82.2501 18.2899L82.1401 18.1799L82.0401 18.0899C82.0194 18.0641 81.9959 18.0406 81.9701 18.0199L81.8701 17.9299L81.7701 17.8499L81.6501 17.7499L81.5601 17.6799L81.4101 17.5699L81.2901 17.4799L81.0801 17.3399L80.9401 17.2499L80.8301 17.1799L80.7101 17.1099L80.5801 17.0399C80.4601 16.9699 80.3501 16.8999 80.2201 16.8399C78.9349 16.1809 77.5604 15.7126 76.1401 15.4499L75.5901 15.3499H75.4001H75.2101L74.4401 15.2399L73.9001 15.1899H73.6601H73.4701H73.2601H72.6801H72.1801H69.0001C64.2601 15.1099 59.4401 16.1899 56.9101 19.1899C55.8972 20.4027 55.0062 21.7124 54.2501 23.0999C54.1801 23.2199 54.1201 23.3499 54.0601 23.4699C54.0001 23.5899 53.9401 23.7099 53.8901 23.8299L53.8301 23.9599C53.8301 24.0499 53.7401 24.1499 53.6901 24.2399C53.5201 24.6199 53.3701 25.0099 53.2301 25.3899C53.0893 25.7689 52.9724 26.1563 52.8801 26.5499C52.7801 26.9399 52.7101 27.3399 52.6501 27.7299C52.4749 28.9062 52.5054 30.104 52.7401 31.2699C52.7353 31.3498 52.7353 31.43 52.7401 31.5099C52.7609 31.618 52.7876 31.7248 52.8201 31.8299V31.8999V31.9599C52.8201 31.9599 52.8201 32.0199 52.8201 32.0399L52.9001 32.2499V32.3099V32.3999V32.5099L52.9901 32.7299C52.9864 32.7598 52.9864 32.79 52.9901 32.8199C52.9901 32.8199 52.9901 32.8899 52.9901 32.9299L53.0701 33.1099C53.0647 33.1363 53.0647 33.1635 53.0701 33.1899V33.2399L53.1601 33.4099L53.2201 33.5199V33.5999C53.271 33.687 53.3278 33.7706 53.3901 33.8499V33.8999L53.4501 33.9699L53.5701 34.1299L53.6201 34.1899V34.2499L53.7101 34.3599V34.4099L53.7701 34.4799L53.8601 34.5599L53.9101 34.6199L53.9801 34.6799L54.0901 34.7899L54.2101 34.8899C54.2265 34.8941 54.2437 34.8941 54.2601 34.8899V34.9399L54.3701 35.0299L54.4601 35.0899L54.5401 35.1499H54.6701H54.7401H54.8001L54.9201 35.2199L55.0501 35.2899H55.1101H55.1901H55.2601L55.5601 35.4399L55.9901 35.6099C58.1693 36.0454 60.3879 36.2532 62.6101 36.2299H63.1901H69.5901C74.2801 36.2299 78.5901 35.9599 79.7401 35.5399C79.8935 35.4886 80.0437 35.4285 80.1901 35.3599L80.3401 35.2799L80.6201 35.1399L80.8001 35.0299L81.0301 34.8999L81.2301 34.7599L81.4201 34.6299L81.6301 34.4599L81.7901 34.3399L82.0101 34.1399L82.1401 34.0299L82.3601 33.7999L82.4701 33.6899L82.6901 33.4299L82.7701 33.3399C82.8522 33.2477 82.929 33.1509 83.0001 33.0499L83.0601 32.9699C83.1401 32.8699 83.2101 32.7599 83.2901 32.6499V32.5899L83.5101 32.2399C84.0813 32.6887 84.7752 32.9537 85.5001 32.9999C85.5701 32.8699 85.6301 32.7399 85.7001 32.5999C85.7701 32.4599 85.8301 32.3199 85.8901 32.1799C85.9501 32.0299 86.0101 31.8799 86.0601 31.7299C86.1101 31.5799 86.1301 31.5099 86.1601 31.4099V31.3099L86.2201 31.1199C86.3897 30.5022 86.4969 29.869 86.5401 29.2299V28.9999C86.5451 28.95 86.5451 28.8998 86.5401 28.8499C86.5401 28.7599 86.5401 28.6699 86.5401 28.5799V28.3999C86.6101 28.2199 86.6001 27.9999 86.5901 27.8499Z" fill="#4E54A0"/>
<path d="M78.8898 66.4201C72.8898 69.4201 63.0098 67.8201 60.2798 66.4201L59.2798 65.8701C59.3376 66.2725 59.4735 66.6598 59.6798 67.0101C59.7832 67.1794 59.9002 67.3399 60.0298 67.4901C61.1496 68.5623 62.5275 69.327 64.0298 69.7101C65.6498 70.2201 71.5498 70.7801 75.0298 69.7101C76.536 69.337 77.9163 68.571 79.0298 67.4901C79.3343 67.1428 79.5596 66.7333 79.6898 66.2901C79.7303 66.156 79.7604 66.0189 79.7798 65.8801C79.5598 66.0701 79.2298 66.2501 78.8898 66.4201Z" fill="#DB80B3"/>
<path d="M69.58 10.1699C72.3922 10.0429 75.2095 10.2578 77.97 10.8099C77.8974 10.5085 77.79 10.2165 77.65 9.93989C77.59 9.84989 77.54 9.74989 77.47 9.65989C76.61 8.36989 73.64 7.28989 70.38 7.18989C69.8504 7.16001 69.3195 7.16001 68.79 7.18989C66.6071 7.27619 64.5073 8.04963 62.79 9.39989C62.5066 9.63633 62.2516 9.90478 62.03 10.1999C61.91 10.3599 61.81 10.5199 61.71 10.6799C64.3063 10.2185 66.9458 10.0474 69.58 10.1699Z" fill="#DB80B3"/>
<path d="M68.79 4.68995C69.3079 4.85016 69.8621 4.85016 70.38 4.68995C70.8826 4.54889 71.3268 4.25032 71.6472 3.83813C71.9676 3.42594 72.1473 2.92186 72.16 2.39995C72.16 1.71569 71.8882 1.05945 71.4043 0.575611C70.9205 0.091767 70.2643 -0.180054 69.58 -0.180054C68.8957 -0.180054 68.2395 0.091767 67.7557 0.575611C67.2718 1.05945 67 1.71569 67 2.39995C67.0133 2.92315 67.1945 3.42821 67.5168 3.84056C67.8391 4.25291 68.2855 4.55069 68.79 4.68995Z" fill="#DB80B3"/>
<path d="M70.38 7.18994V4.68994C69.8621 4.85016 69.3079 4.85016 68.79 4.68994V7.21994C69.3191 7.18006 69.8499 7.17004 70.38 7.18994Z" fill="#4E54A0"/>
<path d="M84 43C85 45.61 86 48.5499 86.46 50.1699C86.46 50.1699 86.46 50.2299 86.46 50.2599C89.0485 50.6568 91.6615 50.874 94.28 50.91H94.76C94.98 50.91 95.2 50.91 95.42 50.86C95.6903 50.836 95.956 50.7754 96.21 50.68C96.3695 50.6236 96.5209 50.5462 96.66 50.45C87.91 50.24 85.97 46.26 84.03 42.45H83.91H83.75L84 43Z" fill="#E9D9EC"/>
<path d="M42.7099 50.5999H42.7699L42.9499 50.6799C43.141 50.7498 43.3387 50.8 43.5399 50.8299H43.6399C43.8799 50.8299 44.1199 50.8299 44.3699 50.8799H44.8499C47.4685 50.8439 50.0814 50.6267 52.6699 50.2299C52.6699 50.2299 52.6699 50.1699 52.6699 50.1399C53.0899 48.5499 54.0999 45.6899 55.0699 43.1399C55.1699 42.8899 55.2599 42.6399 55.3599 42.3999C53.1999 45.2399 50.8499 48.3999 47.3599 49.2399C43.8699 50.0799 42.5599 49.2899 42.1199 48.2899L42.0299 48.3999L41.9599 48.4999L41.8999 48.5999C41.8733 48.6434 41.8531 48.6906 41.8399 48.7399C41.7811 48.8996 41.7572 49.0701 41.7699 49.2399C41.7879 49.5307 41.885 49.811 42.0507 50.0507C42.2163 50.2904 42.4443 50.4803 42.7099 50.5999Z" fill="#E9D9EC"/>
<path d="M60.2798 66.4201L59.2798 65.8701C59.3376 66.2725 59.4735 66.6598 59.6798 67.0101C61.9009 67.9632 64.268 68.5313 66.6798 68.6901C69.3453 69.0007 72.0425 68.9063 74.6798 68.4101C76.5114 68.0336 78.2553 67.3143 79.8198 66.2901C79.8603 66.156 79.8904 66.0189 79.9098 65.8801C79.5798 66.0701 79.2498 66.2501 78.9098 66.4201C72.9398 69.4001 62.9998 67.8201 60.2798 66.4201Z" fill="#D160A0"/>
<path d="M79.9299 62.16C75.8399 64.51 70.9299 65.28 66.0999 65.16C62.8169 65.0832 59.5545 64.62 56.3799 63.78C57.2761 64.5666 58.2474 65.2633 59.2799 65.86L60.2799 66.41C63.0099 67.81 72.9399 69.41 78.8899 66.41C79.2299 66.24 79.5599 66.06 79.8899 65.87C82.3229 64.5642 84.3319 62.59 85.6799 60.18C86.7434 58.0453 87.1803 55.6529 86.9399 53.28C86.4299 55.1561 85.546 56.9097 84.3414 58.4357C83.1368 59.9616 81.6363 61.2284 79.9299 62.16Z" fill="#E9D9EC"/>
<path d="M70.3 45.2799C74.9421 45.0777 79.5425 44.3121 84 42.9999L83.77 42.4099C74.3589 43.0899 64.911 43.0899 55.5 42.4099C55.4 42.6499 55.31 42.8999 55.21 43.1499C60.0719 44.7575 65.183 45.479 70.3 45.2799Z" fill="#DBCCE5"/>
<path d="M69.5802 10.17C72.3924 10.043 75.2097 10.2579 77.9702 10.81C77.8976 10.5086 77.7902 10.2167 77.6502 9.94003C72.4718 8.9275 67.1375 9.02635 62.0002 10.23C61.8802 10.39 61.7802 10.55 61.6802 10.71C64.2852 10.2363 66.935 10.0552 69.5802 10.17Z" fill="#D160A0"/>
<path d="M82.7699 37.5501C84.0697 37.0413 85.2309 36.2327 86.1589 35.19C87.0869 34.1473 87.7554 32.9002 88.1099 31.5501C89.4799 26.8401 86.9999 22.0001 83.6199 18.1301C80.6999 14.8101 75.0299 13.6801 69.6199 13.8801C64.1799 13.6801 58.5099 14.8101 55.6199 18.1301C52.2499 21.9801 49.7599 26.8401 51.1299 31.5801C51.4845 32.9302 52.153 34.1773 53.0809 35.22C54.0089 36.2627 55.1701 37.0713 56.4699 37.5801C59.1799 38.5301 79.9999 38.5301 82.7699 37.5501ZM56.3199 36.0001H56.1899L55.9999 35.7401L55.9099 35.6801L55.7999 35.5901V35.5401C55.7835 35.5443 55.7663 35.5443 55.7499 35.5401L55.6299 35.4401L55.5199 35.3301L55.4499 35.2701L55.1199 35.0001L54.9999 34.9201V34.8501V34.8001L54.9099 34.6901V34.6301L54.8599 34.5701L54.7399 34.4101L54.6799 34.3401V34.2901C54.6176 34.2108 54.5608 34.1272 54.5099 34.0401V33.9601L54.4499 33.8501L54.3599 33.6801V33.6301C54.3545 33.6037 54.3545 33.5765 54.3599 33.5501L54.2799 33.3701C54.2799 33.3701 54.2799 33.3001 54.2799 33.2601C54.2761 33.2302 54.2761 33.2 54.2799 33.1701L53.2299 32.0001V31.8901V31.8001V31.7401L52.9999 31.5301C52.9999 31.5301 52.9999 31.4801 52.9999 31.4501V31.3901V31.3201C52.9674 31.215 52.9407 31.1082 52.9199 31.0001C52.9151 30.9202 52.9151 30.84 52.9199 30.7601C52.6054 29.5329 52.5206 28.2581 52.6699 27.0001C52.7299 26.6101 52.7999 26.2101 52.8999 25.8201C52.9922 25.4265 53.1091 25.0391 53.2499 24.6601C53.3899 24.2801 53.5399 23.8901 53.7099 23.5101C53.7599 23.4201 53.7999 23.3201 53.8499 23.2301L53.9099 23.1001C53.9099 22.9801 54.0199 22.8601 54.0799 22.7401C54.1399 22.6201 54.1999 22.4901 54.2699 22.3701C55.026 20.9826 55.917 19.6729 56.9299 18.4601C59.4599 15.4601 64.2799 14.3401 69.0199 14.4601H71.2999H71.7999H72.3799H72.5899H72.7799H73.0199L73.5599 14.5101L74.3299 14.6201H74.5199H74.7099L75.2599 14.7201C76.6802 14.9828 78.0546 15.4511 79.3399 16.1101C79.4699 16.1701 79.5799 16.2401 79.6999 16.3101L79.8299 16.3801L79.9499 16.4501L80.0599 16.5201L80.1999 16.6101L80.4099 16.7501L80.5299 16.8401L80.6799 16.9501L80.7699 17.0201L80.8899 17.1201L80.9899 17.2001L81.0899 17.2901C81.1157 17.3109 81.1392 17.3343 81.1599 17.3601L81.2599 17.4501L81.3699 17.5601L81.4799 17.6701C81.514 17.7092 81.5508 17.746 81.5899 17.7801L81.9999 18.0001C82.0899 18.1101 82.1799 18.2301 82.2799 18.3401L82.3399 18.4201C82.4199 18.5101 82.4899 18.6101 82.5699 18.7101C82.568 18.7334 82.568 18.7568 82.5699 18.7801L82.7999 19.0801L83.0499 19.4401L83.2299 19.7101L83.3299 19.8601L83.5699 20.2201V20.3001C83.7499 20.5901 83.9299 20.8801 84.0999 21.1701C84.7792 22.3572 85.3099 23.6234 85.6799 24.9401C85.6799 24.9401 85.6799 24.9901 85.6799 25.0201C85.6799 25.0501 85.7499 25.3101 85.7799 25.4501C85.8099 25.5901 85.7799 25.5601 85.7799 25.6101C85.8499 25.9701 85.9099 26.3401 85.9499 26.7101C85.9546 26.7298 85.9546 26.7504 85.9499 26.7701V27.0601C85.9499 27.1101 85.9499 27.1701 85.9499 27.2301C85.9749 27.6264 85.9749 28.0238 85.9499 28.4201V28.5501C85.9067 29.1892 85.7995 29.8224 85.6299 30.4401L85.5699 30.6301V30.7301C85.5699 30.8301 85.5099 30.9401 85.4699 31.0501C85.4299 31.1601 85.3599 31.3501 85.2999 31.5001C85.2399 31.6401 85.1799 31.7801 85.1099 31.9201C85.0399 32.0601 84.9799 32.1901 84.9099 32.3201C84.8476 32.4509 84.7775 32.5778 84.6999 32.7001L84.4799 33.0501V33.1101C84.3999 33.2201 84.3299 33.3301 84.2499 33.4301L84.1899 33.5101C84.1188 33.6111 84.042 33.7079 83.9599 33.8001L83.8799 33.8901L83.6599 34.1501L83.5499 34.2601L83.3299 34.4901L83.1999 34.6001L82.9799 34.8001L82.8199 34.9201L82.6099 35.0901L82.4199 35.2201L82.2199 35.3601L81.9899 35.4901L81.8099 35.6001L81.5299 35.7401L81.3799 35.8201C81.2335 35.8887 81.0832 35.9488 80.9299 36.0001C79.8099 36.4201 75.4699 36.6501 70.7799 36.6901H66.0899H65.5899H64.9099H64.3299C62.1077 36.7134 59.8891 36.5057 57.7099 36.0701L57.2799 35.9001L56.9799 35.7501H56.9099H56.8299H56.7699L56.6399 35.6801L56.5199 35.6101H56.4599L56.3199 36.0001Z" fill="#DBCCE5"/>
<path d="M75.4701 35.1601L71.3101 37.4001C76.0001 37.4001 80.3101 37.1301 81.4601 36.7101C81.6134 36.6587 81.7636 36.5986 81.9101 36.5301L82.0601 36.4501L82.3401 36.3101L82.5201 36.2001L82.7501 36.0701L82.9501 35.9301L83.1401 35.8001L83.3501 35.6301L83.5101 35.5101L83.7301 35.3101L83.8601 35.2001L84.0801 34.9701L84.1901 34.8601L84.4101 34.6001L84.4901 34.5101C84.5722 34.4178 84.649 34.321 84.7201 34.2201L84.7801 34.1401C84.8601 34.0401 84.9301 33.9301 85.0101 33.8201V33.7601L85.2301 33.4101C85.3293 33.2797 85.4195 33.1427 85.5001 33.0001C85.5701 32.8701 85.6301 32.7401 85.7001 32.6001C85.7701 32.4601 85.8301 32.3201 85.8901 32.1801C85.9501 32.0301 86.0101 31.8801 86.0601 31.7301C86.1101 31.5801 86.1301 31.5101 86.1601 31.4101V31.3101C83.5742 33.7851 80.1491 35.1924 76.5701 35.2501L75.4701 35.1601Z" fill="#353C8E"/>
<path d="M68.7998 34.42C66.5798 34.32 64.3798 34.63 62.1698 34.73C61.6298 34.73 61.0898 34.73 60.5498 34.73L57.2598 36.51L57.6898 36.68C59.869 37.1156 62.0876 37.3233 64.3098 37.3L69.6098 34.44L68.7998 34.42Z" fill="#353C8E"/>
<path d="M53.57 32.81V32.71C53.5646 32.7364 53.5646 32.7636 53.57 32.79V32.81Z" fill="#D2C7E3"/>
<path d="M53.3602 32.36V32.27C53.3565 32.2999 53.3565 32.3301 53.3602 32.36Z" fill="#D2C7E3"/>
<path d="M55.5902 35.4501L55.6602 35.5101L55.7702 35.6001L55.8602 35.6601H55.9202C55.7602 35.5501 55.6202 35.4301 55.4702 35.3101L55.5902 35.4501Z" fill="#6267AD"/>
<path d="M66.3998 23.14C66.1532 22.0801 65.5494 21.1373 64.6898 20.47L64.5498 20.38C64.1994 20.1463 63.7908 20.0147 63.3698 20C62.1098 20 61.0198 21.1 60.4598 22.71C60.188 23.5083 60.0528 24.3467 60.0598 25.19C60.0621 25.6185 60.0956 26.0463 60.1598 26.47C60.5198 28.71 61.8198 30.38 63.3698 30.38C63.7113 30.3704 64.0473 30.2909 64.3568 30.1464C64.6664 30.002 64.9431 29.7956 65.1698 29.54C66.2031 28.332 66.7424 26.7784 66.6798 25.19C66.682 24.4838 66.5878 23.7807 66.3998 23.1V23.14Z" fill="#70C5C7"/>
<path d="M79.0999 24.76C78.9399 22.11 77.5299 20 75.7999 20C75.3828 20.0028 74.9746 20.1204 74.6199 20.34C73.3699 21.08 72.4899 22.97 72.4899 25.19C72.4727 26.1512 72.6461 27.1062 72.9999 28C73.145 28.355 73.3331 28.6908 73.5599 29C73.6899 29.18 73.8299 29.35 73.9699 29.51C74.1993 29.765 74.4779 29.9708 74.789 30.1152C75.1001 30.2595 75.4372 30.3394 75.7799 30.35C77.6099 30.35 79.0899 28.02 79.0899 25.16C79.1099 25.07 79.0999 24.91 79.0999 24.76Z" fill="#70C5C7"/>
<path d="M66.4002 23.1399L60.1602 26.5099C60.5202 28.7499 61.8202 30.4199 63.3702 30.4199C63.7117 30.4103 64.0476 30.3308 64.3572 30.1863C64.6668 30.0419 64.9434 29.8355 65.1702 29.5799C66.2035 28.3719 66.7427 26.8183 66.6802 25.2299C66.6824 24.5237 66.5882 23.8206 66.4002 23.1399Z" fill="#81C3CD"/>
<path d="M72.9999 28L79.0799 24.73C78.9399 22.11 77.5299 20 75.7999 20C75.3828 20.0028 74.9746 20.1204 74.6199 20.34C73.3699 21.08 72.4899 22.97 72.4899 25.19C72.4727 26.1512 72.6461 27.1062 72.9999 28Z" fill="#81C3CD"/>
<path d="M55.6598 35.51V35.56L55.5898 35.5L55.6598 35.51Z" fill="#4E539E"/>
<path d="M79.1301 29.3599C78.8766 29.8532 78.5008 30.2731 78.0386 30.5795C77.5763 30.8859 77.0432 31.0686 76.4901 31.1099C76.3184 31.1097 76.1472 31.0896 75.9801 31.0499L69.6401 34.4699C71.6401 34.6399 73.5201 35.0499 75.4701 35.1599L78.7301 33.3999L86.5901 29.1699V28.9999C86.5951 28.9501 86.5951 28.8998 86.5901 28.8499C86.6087 28.5169 86.6087 28.183 86.5901 27.8499C86.5901 27.7899 86.5901 27.7299 86.5901 27.6799V27.3899C86.5948 27.3702 86.5948 27.3497 86.5901 27.3299C86.5901 27.1599 86.5901 26.9899 86.5301 26.8199C86.4701 26.6499 86.4601 26.4199 86.4201 26.2299C86.3801 26.0399 86.4201 26.1299 86.4201 26.0699C86.4201 26.0099 86.3601 25.7799 86.3201 25.6399C86.2801 25.4999 86.3201 25.5799 86.3201 25.5599L79.2401 29.3799L79.1301 29.3599Z" fill="#6267AD"/>
<path d="M79.12 29.3601L76 31.0501C76.1671 31.0898 76.3383 31.1099 76.51 31.1101C77.063 31.0687 77.5962 30.8861 78.0584 30.5797C78.5207 30.2733 78.8965 29.8534 79.15 29.3601H79.12Z" fill="#4E539E"/>
<path d="M60.1602 26.51C60.0959 26.0863 60.0625 25.6585 60.0602 25.23C60.0531 24.3867 60.1884 23.5483 60.4602 22.75L59.2202 23.43C59.0741 24.0562 59.0003 24.697 59.0002 25.34C58.9965 25.9106 59.0501 26.4801 59.1602 27.04L60.1602 26.51Z" fill="#353C8E"/>
<path d="M80.09 24.22L79.09 24.75C79.09 24.9 79.09 25.06 79.09 25.22C79.09 28.08 77.61 30.41 75.78 30.41C75.4431 30.3967 75.1121 30.3165 74.8065 30.174C74.5009 30.0315 74.2268 29.8295 74 29.58C74.4538 30.308 75.1697 30.8341 76 31.05L79.14 29.36C79.8317 28.1427 80.1775 26.7595 80.14 25.36C80.1422 24.9855 80.1188 24.6113 80.07 24.24L80.09 24.22Z" fill="#353C8E"/>
<path d="M54.0502 33.65L53.7602 33.16L53.8202 33.27V33.35C53.8711 33.4371 53.9279 33.5207 53.9902 33.6V33.65L54.1102 33.81L54.1602 33.87V33.94C53.9126 33.64 53.6823 33.3261 53.4702 33L54.0502 33.65Z" fill="#6267AD"/>
<path d="M55.6698 33.8C57.2119 34.4606 58.8721 34.8008 60.5498 34.8L69.9998 29.66L72.9998 28C72.6404 27.1107 72.4603 26.1592 72.4698 25.2C72.4698 22.98 73.3498 21.09 74.5998 20.35C75.098 19.8542 75.7671 19.5679 76.4698 19.55C78.2498 19.55 79.7398 21.55 80.0698 24.19L84.6098 21.74C84.4398 21.45 84.2598 21.16 84.0798 20.87V20.79L83.8398 20.43L83.7398 20.28L83.5198 20C83.4765 19.931 83.4298 19.8643 83.3798 19.8L83.2698 19.64L83.1198 19.44L83.0398 19.34C83.0379 19.3167 83.0379 19.2933 83.0398 19.27L82.8598 19.04V18.98L82.7998 18.9L82.5998 18.66L82.5198 18.56V18.51C82.4806 18.4759 82.4439 18.4391 82.4098 18.4L82.3098 18.3L82.1998 18.19L82.1098 18.11L82.0498 18.05L81.9498 17.96L81.8798 17.9L80.9998 17.15L80.9098 17.08L80.7598 16.97L80.6798 16.91L80.4698 16.77L80.3298 16.68L80.2198 16.61L80.0998 16.54L79.9698 16.47C79.8498 16.4 79.7398 16.33 79.6098 16.27L68.9998 21.73L66.3998 23.14C66.5878 23.8207 66.682 24.5239 66.6798 25.23C66.7423 26.8185 66.2031 28.372 65.1698 29.58C64.9125 30.0201 64.5507 30.39 64.1164 30.6569C63.682 30.9237 63.1886 31.0794 62.6798 31.11C61.0298 31.11 59.6798 29.4 59.1698 27.04L52.7598 30.49C52.7598 30.56 52.7598 30.63 52.7598 30.69C52.7805 30.7981 52.8073 30.9049 52.8398 31.01V31.08V31.14C52.8398 31.14 52.8398 31.2 52.8398 31.22L52.9198 31.43V31.48V31.57V31.68L53.0098 31.9V31.99C53.0137 32.0232 53.0137 32.0568 53.0098 32.09C52.9298 31.91 52.8498 31.72 52.7798 31.54C53.5288 32.5332 54.5253 33.3125 55.6698 33.8Z" fill="#6267AD"/>
<path d="M53.5001 32.6699V32.7699L53.5901 32.9399C53.5001 32.7699 53.4101 32.5899 53.3301 32.4099L53.5001 32.6699Z" fill="#6267AD"/>
<path d="M55.1699 35.0601L55.2799 35.1701L55.3999 35.2701L55.1699 35.0601Z" fill="#6267AD"/>
<path d="M54.7402 34.5901L54.8302 34.7001L54.9002 34.7801L54.9602 34.8501L55.0502 34.9301L54.7402 34.5901Z" fill="#6267AD"/>
<path d="M63.3702 30.42C61.8202 30.42 60.5202 28.75 60.1602 26.51L59.1602 27.04C59.6202 29.4 61.0202 31.11 62.6702 31.11C63.179 31.0794 63.6724 30.9237 64.1068 30.6568C64.5411 30.39 64.9029 30.0201 65.1602 29.58C64.9346 29.8344 64.6595 30.0401 64.3517 30.1845C64.044 30.3289 63.71 30.4091 63.3702 30.42Z" fill="#4E539E"/>
<path d="M79.0999 24.7501L80.0999 24.2201C79.7699 21.5701 78.2799 19.5801 76.4999 19.5801C75.7972 19.598 75.1281 19.8842 74.6299 20.3801C74.9775 20.1481 75.3823 20.0166 75.7999 20.0001C77.5299 20.0001 78.9399 22.1101 79.0999 24.7501Z" fill="#4E539E"/>
<path d="M56.4798 36.11L56.5998 36.18L56.7298 36.25H56.7898H56.8698L57.1698 36.4L60.4598 34.62C58.7822 34.6208 57.122 34.2805 55.5798 33.62C54.6219 33.1883 53.7715 32.5497 53.0898 31.75C53.1598 31.93 53.2398 32.12 53.3198 32.3C53.3998 32.48 53.4898 32.66 53.5798 32.83L53.8698 33.32C54.0819 33.6461 54.3123 33.96 54.5598 34.26L54.9298 34.67L54.9798 34.73L55.3798 35.1C55.5298 35.22 55.6698 35.34 55.8298 35.45H55.9598H56.0298H56.0898L56.4798 36.11Z" fill="#4E539E"/>
<path d="M62.6799 19.58C63.3826 19.5979 64.0517 19.8841 64.5499 20.38L64.6899 20.47L75.3299 14.74L74.7799 14.64H74.5899H74.3999L73.6299 14.53L73.0899 14.48H72.8499H72.6599H72.4499H71.8699H68.9999L54.2499 22.48C54.1799 22.6 54.1199 22.73 54.0599 22.85C53.9999 22.97 53.9399 23.09 53.8899 23.21L53.8299 23.34C53.8299 23.43 53.7399 23.53 53.6899 23.62C53.5199 24 53.3699 24.39 53.2299 24.77C53.0891 25.1489 52.9722 25.5364 52.8799 25.93C52.7799 26.32 52.7099 26.72 52.6499 27.11L59.1899 23.59C59.7199 21.18 61.0799 19.58 62.6799 19.58Z" fill="#6267AD"/>
<path d="M63.37 20C63.7871 20.0028 64.1953 20.1204 64.55 20.34C64.0518 19.8442 63.3826 19.5579 62.68 19.54C61.08 19.54 59.68 21.14 59.21 23.39L60.45 22.71C61 21.14 62.11 20 63.37 20Z" fill="#4E539E"/>
<path d="M60.46 22.75L64.69 20.47L64.55 20.38C64.1995 20.1463 63.7909 20.0147 63.37 20C62.11 20 61 21.14 60.46 22.75Z" fill="#81C3CD"/>
<path d="M69.6398 34.47L64.3398 37.33H64.9198H65.5998H66.0998H71.3198L75.4799 35.09C73.5199 35.05 71.5898 34.64 69.6398 34.47Z" fill="#4E539E"/>
<path d="M64.6202 49.8801C62.5602 48.3601 58.0302 47.7501 55.7802 49.4001C53.3002 51.2101 54.8602 55.9001 56.0502 57.9901C57.0166 59.688 58.3915 61.1178 60.0502 62.1501C61.8102 63.2301 64.1902 63.8501 66.0502 62.8401C67.9102 61.8301 68.4602 59.3101 68.2802 57.2001C68.2209 55.7908 67.8641 54.4101 67.2333 53.1485C66.6025 51.8869 65.712 50.7731 64.6202 49.8801Z" fill="#F3EFF8"/>
<path d="M85.1898 37.82C84.7998 38.19 84.4498 38.75 84.7198 39.21C84.8196 39.3475 84.9528 39.4572 85.1068 39.529C85.2607 39.6007 85.4304 39.632 85.5998 39.62C85.9485 39.5943 86.2885 39.4991 86.5998 39.34C87.4815 38.945 88.2923 38.4079 88.9998 37.75C90.2329 36.6269 91.1296 35.1832 91.5898 33.58C91.8398 32.8527 91.9682 32.0891 91.9698 31.32C91.9098 30.53 90.7198 30.6 90.1798 30.95C89.5795 31.381 89.1593 32.0184 88.9998 32.74C88.2898 35.28 86.2698 36.78 85.1898 37.82Z" fill="#F3EFF8"/>
<path d="M45.8101 48.87C46.1933 48.9103 46.5806 48.8589 46.9401 48.72C47.8383 48.4081 48.6456 47.8791 49.2901 47.18C49.3855 47.0938 49.4622 46.9891 49.5156 46.8721C49.5689 46.7551 49.5977 46.6285 49.6001 46.5C49.4001 44.97 46.2901 46.63 45.7101 47.03C45.3101 47.31 44.9001 47.72 44.9901 48.19C45.0488 48.3691 45.1569 48.5279 45.302 48.6483C45.4471 48.7686 45.6232 48.8454 45.8101 48.87Z" fill="#F3EFF8"/>
<path d="M92.05 49C92.4131 49.1383 92.8035 49.1896 93.19 49.15C93.3769 49.1255 93.553 49.0486 93.6981 48.9283C93.8432 48.808 93.9513 48.6491 94.01 48.47C94.1 48 93.69 47.59 93.28 47.31C92.7 46.91 89.59 45.25 89.4 46.78C89.3979 46.9093 89.4247 47.0374 89.4783 47.155C89.5319 47.2726 89.6111 47.3768 89.71 47.46C90.3509 48.1587 91.1548 48.6878 92.05 49Z" fill="#F3EFF8"/>
<path d="M70.38 4.68995C70.8826 4.54889 71.3268 4.25032 71.6472 3.83813C71.9676 3.42594 72.1473 2.92186 72.16 2.39995C72.16 1.71569 71.8882 1.05945 71.4043 0.575611C70.9205 0.091767 70.2643 -0.180054 69.58 -0.180054C68.8957 -0.180054 68.2395 0.091767 67.7557 0.575611C67.2718 1.05945 67 1.71569 67 2.39995C67.0127 2.92186 67.1924 3.42594 67.5128 3.83813C67.8332 4.25032 68.2774 4.54889 68.78 4.68995C69.2979 4.85016 69.8521 4.85016 70.37 4.68995H70.38ZM67.2 2.24995C67.2372 1.70377 67.4804 1.19211 67.8805 0.818403C68.2805 0.444697 68.8076 0.236831 69.355 0.236831C69.9024 0.236831 70.4295 0.444697 70.8295 0.818403C71.2296 1.19211 71.4728 1.70377 71.51 2.24995C71.4728 2.79612 71.2296 3.30778 70.8295 3.68149C70.4295 4.0552 69.9024 4.26306 69.355 4.26306C68.8076 4.26306 68.2805 4.0552 67.8805 3.68149C67.4804 3.30778 67.2372 2.79612 67.2 2.24995Z" fill="#D160A0"/>
<path d="M54.6899 114C54.6899 114.92 55.3899 115.85 56.7999 116.55L71.3599 123.82V121C71.3599 120.52 71.7199 120 72.3599 119.65L67.2699 117.11C66.7099 116.83 66.4299 116.46 66.4299 116.11V110.19C66.4299 109.83 66.7099 109.46 67.2599 109.19L123.81 80.77C124.442 80.4988 125.122 80.3589 125.81 80.3589C126.498 80.3589 127.178 80.4988 127.81 80.77L141.25 87.47C141.25 86.62 141.25 85.78 141.25 85.04C141.25 84.84 141.4 84.64 141.7 84.48C142.055 84.3268 142.438 84.2477 142.825 84.2477C143.212 84.2477 143.595 84.3268 143.95 84.48L153.56 89.27C153.87 89.43 154.03 89.64 154.03 89.84V93.84L161.03 97.33C161.59 97.62 161.87 97.98 161.87 98.33V101.87L167.87 98.87C169.25 98.18 169.94 97.26 169.94 96.35C169.94 98.35 169.94 100.35 169.94 102.27C169.94 103.18 169.25 104.1 167.87 104.79L99.8899 139C98.2911 139.693 96.5673 140.05 94.8249 140.05C93.0825 140.05 91.3587 139.693 89.7599 139L56.7599 122.53C55.3499 121.83 54.6499 120.9 54.6499 119.97C54.6799 118 54.6899 116 54.6899 114Z" fill="#0F2D43"/>
<path d="M67.33 109.11L123.88 80.69C124.512 80.4187 125.192 80.2788 125.88 80.2788C126.568 80.2788 127.248 80.4187 127.88 80.69L161.1 97.27C162.22 97.83 162.22 98.74 161.1 99.27L104.6 127.73C103.968 128.001 103.288 128.141 102.6 128.141C101.912 128.141 101.232 128.001 100.6 127.73L67.34 111.14C66.23 110.59 66.22 109.67 67.33 109.11Z" fill="#85D0F3"/>
<path d="M78.4301 119.5C77.5053 119.099 76.5081 118.893 75.5001 118.893C74.4922 118.893 73.495 119.099 72.5701 119.5C70.9601 120.31 70.9801 121.62 72.5701 122.43L78.5701 125.43C79.4933 125.83 80.4889 126.037 81.4951 126.037C82.5014 126.037 83.497 125.83 84.4201 125.43C86.0401 124.62 86.0201 123.31 84.4201 122.5L78.4301 119.5Z" fill="#F9FAFD"/>
<path d="M167.89 93.76C170.69 95.16 170.7 97.45 167.89 98.84L99.9099 133C98.3111 133.693 96.5873 134.05 94.8449 134.05C93.1025 134.05 91.3786 133.693 89.7799 133L56.7799 116.53C53.9799 115.14 53.9599 112.85 56.7799 111.45L124.78 77.26C126.382 76.5722 128.107 76.2175 129.85 76.2175C131.593 76.2175 133.318 76.5722 134.92 77.26L167.89 93.76ZM67.3299 109.11C66.2199 109.67 66.2299 110.59 67.3299 111.11L100.55 127.7C101.182 127.971 101.862 128.111 102.55 128.111C103.238 128.111 103.918 127.971 104.55 127.7L161.15 99.3C162.26 98.74 162.26 97.83 161.15 97.3L127.92 80.69C127.288 80.4187 126.608 80.2789 125.92 80.2789C125.232 80.2789 124.552 80.4187 123.92 80.69L67.3299 109.11ZM72.5999 122.43L78.5999 125.43C79.523 125.83 80.5186 126.037 81.5249 126.037C82.5311 126.037 83.5267 125.83 84.4499 125.43C86.0699 124.62 86.0499 123.31 84.4499 122.5L78.4499 119.5C77.525 119.099 76.5278 118.893 75.5199 118.893C74.5119 118.893 73.5147 119.099 72.5899 119.5C70.9799 120.31 70.9999 121.62 72.5899 122.43H72.5999ZM153.68 89.19L144.07 84.4C143.715 84.2467 143.332 84.1677 142.945 84.1677C142.558 84.1677 142.175 84.2467 141.82 84.4C141.21 84.71 141.21 85.22 141.82 85.53L151.42 90.32C151.778 90.4707 152.162 90.5484 152.55 90.5484C152.938 90.5484 153.322 90.4707 153.68 90.32C154.3 90 154.3 89.5 153.68 89.18V89.19Z" fill="#0F3757"/>
<path d="M144.07 84.4C143.715 84.2468 143.332 84.1677 142.945 84.1677C142.558 84.1677 142.175 84.2468 141.82 84.4C141.21 84.71 141.21 85.22 141.82 85.53L151.42 90.32C151.777 90.4708 152.162 90.5484 152.55 90.5484C152.938 90.5484 153.322 90.4708 153.68 90.32C154.3 90 154.3 89.5 153.68 89.18L144.07 84.4Z" fill="#F9FAFD"/>
<path d="M153.52 100.39L153.51 101.56L107.78 124.47L107.79 123.3L153.52 100.39Z" fill="#6E992E"/>
<path d="M107.79 123.3L107.78 124.47L76.6602 108.92L76.6702 107.75L107.79 123.3Z" fill="#455F26"/>
<path d="M153.52 100.39L107.79 123.3L76.6699 107.75L122.39 84.8401L153.52 100.39Z" fill="#3D5322"/>
<path d="M80.1801 103.14L77.0801 101.86V107.41L80.1801 109.34V103.14Z" fill="#3D5322"/>
<path d="M150.75 96.1799L150.74 100.79L107.78 122.31L107.79 117.69L150.75 96.1799Z" fill="#EBEBEB"/>
<path d="M79.1201 103.39V108.01L107.78 122.31L107.79 117.69L79.1201 103.39Z" fill="#A8A8A8"/>
<path d="M121.85 81.75L80.6802 102.37V104.16L107.79 117.69L150.75 96.18L121.85 81.75Z" fill="#DCDCDC"/>
<path d="M153.52 93.6201L153.51 94.7901L107.78 117.7L107.79 116.53L153.52 93.6201Z" fill="#6E992E"/>
<path d="M107.79 116.53L107.78 117.7L76.6602 102.16L76.6702 100.99L107.79 116.53Z" fill="#455F26"/>
<path d="M153.52 93.6201L107.79 116.53L76.6699 100.99L122.39 78.0801L153.52 93.6201Z" fill="#7EB034"/>
<path d="M146.32 94.3102L109.16 112.93L83.8604 100.3L121.03 81.6802L146.32 94.3102Z" fill="#5C812D"/>
<path d="M78.0901 109.1L76.6602 108.46V101.46L78.0901 102.22V109.1Z" fill="#455F26"/>
<path d="M145.03 90.9299V91.9499L105.2 111.9L105.21 110.88L145.03 90.9299Z" fill="#E78103"/>
<path d="M105.21 110.88L105.2 111.9L78.0898 98.3598L78.0998 97.3398L105.21 110.88Z" fill="#E78103"/>
<path d="M145.03 90.9299L105.21 110.88L78.0996 97.3399L117.93 77.3899L145.03 90.9299Z" fill="#8B4E14"/>
<path d="M81.16 93.33L78.46 92.22V97.05L81.16 98.73V93.33Z" fill="#8B4E14"/>
<path d="M142.62 87.27L142.61 91.28L105.19 110.03L105.2 106L142.62 87.27Z" fill="#EBEBEB"/>
<path d="M80.23 93.55V97.57L105.19 110.03L105.2 106L80.23 93.55Z" fill="#A8A8A8"/>
<path d="M117.46 74.7L81.5898 92.66V94.21L105.2 106L142.62 87.27L117.46 74.7Z" fill="#DCDCDC"/>
<path d="M145.03 85.04V86.06L105.2 106.01L105.21 104.99L145.03 85.04Z" fill="#E78103"/>
<path d="M105.21 104.99L105.2 106.01L78.0898 92.47L78.0998 91.45L105.21 104.99Z" fill="#E78103"/>
<path d="M145.03 85.04L105.21 104.99L78.0996 91.45L117.93 71.5L145.03 85.04Z" fill="#F8AB25"/>
<path d="M139.08 85.61L106.34 102.01L84.0601 90.88L116.8 74.48L139.08 85.61Z" fill="#FBCC00"/>
<path d="M79.3398 98.5201L78.0898 97.9701V91.8601L79.3398 92.5301V98.5201Z" fill="#E78103"/>
<path d="M88.52 82V82.86L121.77 99.51V98.66L88.52 82Z" fill="#2675A9"/>
<path d="M121.77 98.6599V99.5099L144.4 88.2099V87.3599L121.77 98.6599Z" fill="#3C96D3"/>
<path d="M88.52 82L121.77 98.66L144.4 87.36L111.14 70.7L88.52 82Z" fill="#1A5276"/>
<path d="M141.84 84.0101L144.1 83.0801V87.1101L141.84 88.5201V84.0101Z" fill="#1A5276"/>
<path d="M90.5298 78.9399L90.5398 82.2999L121.78 97.9399L121.77 94.5899L90.5298 78.9399Z" fill="#A8A8A8"/>
<path d="M142.61 84.1899V87.5499L121.78 97.9399L121.77 94.5899L142.61 84.1899Z" fill="#EBEBEB"/>
<path d="M111.54 68.45L141.48 83.45V84.74L121.77 94.59L90.5298 78.94L111.54 68.45Z" fill="#DCDCDC"/>
<path d="M88.52 77.0801V77.9401L121.77 94.5901V93.7401L88.52 77.0801Z" fill="#2675A9"/>
<path d="M121.77 93.7399V94.5899L144.4 83.2899V82.4399L121.77 93.7399Z" fill="#3C96D3"/>
<path d="M88.52 77.08L121.77 93.74L144.4 82.44L111.14 65.78L88.52 77.08Z" fill="#3EA2DB"/>
<path d="M95.0498 77.71L120.52 90.47L137.86 81.81L112.39 69.05L95.0498 77.71Z" fill="#1A5276"/>
<path d="M98.5498 78.05L119.86 88.72L134.36 81.48L113.05 70.8L98.5498 78.05Z" fill="#3EA2DB"/>
<path d="M113.45 72.6001L103.07 77.7801L113.07 82.7801L123.44 77.6101L113.45 72.6001Z" fill="#1A5276"/>
<path d="M114.97 84.87L119.2 86.99L130.89 81.15L126.66 79.03L114.97 84.87Z" fill="#1A5276"/>
<path d="M143.36 88.34L144.4 87.88V82.78L143.36 83.34V88.34Z" fill="#3C96D3"/>
</g>
<defs>
<clipPath id="clip0_369_6971">
<rect width="170" height="140" fill="white"/>
</clipPath>
</defs>
</svg>
