<svg width="170" height="140" viewBox="0 0 170 140" fill="none" xmlns="http://www.w3.org/2000/svg">
<g clip-path="url(#clip0_369_7888)">
<mask id="mask0_369_7888" style="mask-type:luminance" maskUnits="userSpaceOnUse" x="8" y="90" width="28" height="14">
<path d="M35.3502 90.83V94.08C35.295 95.4305 34.9142 96.7478 34.2404 97.9195C33.5666 99.0913 32.6197 100.083 31.4802 100.81C26.2902 104.55 17.8602 104.55 12.6402 100.81C11.4798 100.08 10.5146 99.0787 9.82814 97.8922C9.14166 96.7056 8.75452 95.3697 8.7002 94V90.73C8.75183 92.1005 9.13669 93.4378 9.82146 94.6262C10.5062 95.8145 11.4703 96.8181 12.6302 97.55C17.8502 101.3 26.2802 101.3 31.4702 97.55C32.6108 96.8256 33.5593 95.8362 34.2349 94.6661C34.9105 93.496 35.2931 92.1799 35.3502 90.83Z" fill="white"/>
</mask>
<g mask="url(#mask0_369_7888)">
<path d="M35.35 90.8301V94.0801C35.307 95.3114 34.9872 96.5172 34.4141 97.6079C33.8411 98.6986 33.0296 99.6461 32.04 100.38V97.1301C33.0312 96.3976 33.8438 95.4504 34.417 94.3594C34.9903 93.2684 35.3092 92.0618 35.35 90.8301Z" fill="#A5A6A8"/>
<path d="M32.0002 97.1299V100.38C31.8202 100.53 31.6402 100.67 31.4402 100.81C29.2897 102.296 26.8 103.218 24.2002 103.49V100.23C26.8021 99.9666 29.294 99.0442 31.4402 97.5499C31.6402 97.4199 31.8202 97.2699 32.0002 97.1299Z" fill="#D0CFD2"/>
<path d="M24.2402 100.23V103.49C20.1765 104.031 16.0545 103.079 12.6402 100.81C11.4798 100.08 10.5146 99.0787 9.82814 97.8922C9.14166 96.7056 8.75452 95.3697 8.7002 94V90.73C8.75183 92.1005 9.13669 93.4378 9.82146 94.6262C10.5062 95.8145 11.4703 96.8181 12.6302 97.55C16.0416 99.8259 20.1662 100.779 24.2302 100.23H24.2402Z" fill="#A5A6A8"/>
</g>
<path d="M31.4204 84.0001C36.6404 87.7401 36.6704 93.8001 31.4804 97.5401C26.2904 101.28 17.8604 101.29 12.6404 97.5401C7.42037 93.7901 7.39037 87.7501 12.5804 84.0001C17.7704 80.2501 26.2004 80.2701 31.4204 84.0001Z" fill="#F0EBEB"/>
<mask id="mask1_369_7888" style="mask-type:luminance" maskUnits="userSpaceOnUse" x="15" y="89" width="14" height="8">
<path d="M28.9997 89.1401V91.4401C28.9718 92.1398 28.7755 92.8225 28.4273 93.4302C28.0791 94.0378 27.5893 94.5523 26.9997 94.9301C25.5456 95.8846 23.8441 96.3932 22.1047 96.3932C20.3652 96.3932 18.6638 95.8846 17.2097 94.9301C16.6069 94.5501 16.1054 94.0294 15.7483 93.4128C15.3912 92.7962 15.1892 92.102 15.1597 91.3901V89.0901C15.1854 89.7971 15.3804 90.4877 15.7285 91.1037C16.0765 91.7197 16.5673 92.2432 17.1597 92.6301C18.6158 93.5843 20.3188 94.0926 22.0597 94.0926C23.8006 94.0926 25.5036 93.5843 26.9597 92.6301C27.5574 92.2575 28.0554 91.7451 28.4108 91.1371C28.7662 90.5291 28.9683 89.8437 28.9997 89.1401Z" fill="white"/>
</mask>
<g mask="url(#mask1_369_7888)">
<path d="M28.9998 89.1401V91.4401C28.9763 92.0792 28.8095 92.7048 28.5118 93.2708C28.2141 93.8368 27.793 94.3287 27.2798 94.7101V92.4101C27.7936 92.0292 28.215 91.5374 28.5127 90.9713C28.8105 90.4052 28.977 89.7794 28.9998 89.1401Z" fill="#AB3A2C"/>
<path d="M27.2399 92.4102V94.7102L26.9499 94.9302C25.8349 95.7051 24.5409 96.1834 23.1899 96.3202V94.0002C24.5564 93.8777 25.8684 93.406 26.9999 92.6301L27.2899 92.4102H27.2399Z" fill="#D54837"/>
<path d="M23.1799 94.0001V96.3001C21.0776 96.5773 18.9461 96.0835 17.1799 94.9101C16.5771 94.5301 16.0756 94.0094 15.7185 93.3928C15.3614 92.7762 15.1594 92.082 15.1299 91.3701V89.0701C15.1556 89.7771 15.3506 90.4677 15.6987 91.0837C16.0467 91.6997 16.5375 92.2232 17.1299 92.6101C18.895 93.7861 21.0275 94.2801 23.1299 94.0001H23.1799Z" fill="#AB3A2C"/>
</g>
<path d="M26.9098 85.59C29.6298 87.59 29.6398 90.69 26.9098 92.59C25.4537 93.5442 23.7507 94.0524 22.0098 94.0524C20.2689 94.0524 18.5659 93.5442 17.1098 92.59C14.3998 90.65 14.3798 87.5 17.1098 85.59C18.5687 84.6431 20.2706 84.1392 22.0098 84.1392C23.749 84.1392 25.451 84.6431 26.9098 85.59Z" fill="#E34C3B"/>
<path d="M5.66951 43L24.6695 88C24.6645 88.2506 24.6014 88.4967 24.4851 88.7188C24.3688 88.9409 24.2026 89.133 23.9995 89.28L4.99951 44.28C5.20552 44.1359 5.3739 43.9444 5.49049 43.7216C5.60709 43.4989 5.66848 43.2514 5.66951 43Z" fill="#929395"/>
<path d="M4.99947 44.24L23.9995 89.24L23.8895 89.32C23.4652 89.6145 22.9732 89.7968 22.4595 89.85L3.45947 44.85C3.97037 44.7978 4.45931 44.6153 4.87947 44.32L4.99947 44.24Z" fill="#B6B7BA"/>
<path d="M3.48969 44.86L22.4897 89.86C22.0944 89.9506 21.6836 89.95 21.2885 89.8582C20.8935 89.7663 20.5245 89.5857 20.2097 89.33C19.8481 88.7774 19.5337 88.1953 19.2697 87.59L0.429688 43C0.438135 43.2708 0.512722 43.5354 0.64694 43.7707C0.781158 44.006 0.970927 44.2049 1.19969 44.35C1.87608 44.7925 2.68766 44.9803 3.48969 44.88V44.86Z" fill="#929395"/>
<path d="M4.89977 41.66C5.1345 41.795 5.32949 41.9895 5.46508 42.2238C5.60067 42.4582 5.67207 42.7242 5.67207 42.995C5.67207 43.2658 5.60067 43.5317 5.46508 43.7661C5.32949 44.0005 5.1345 44.195 4.89977 44.33C4.34692 44.6869 3.70283 44.8768 3.04477 44.8768C2.38671 44.8768 1.74262 44.6869 1.18977 44.33C0.955043 44.195 0.760052 44.0005 0.624463 43.7661C0.488874 43.5317 0.41748 43.2658 0.41748 42.995C0.41748 42.7242 0.488874 42.4582 0.624463 42.2238C0.760052 41.9895 0.955043 41.795 1.18977 41.66C1.74081 41.2982 2.3856 41.1055 3.04477 41.1055C3.70395 41.1055 4.34874 41.2982 4.89977 41.66Z" fill="#C3C3C5"/>
<path d="M54.5199 28.9999C60.7899 33.4899 60.8199 40.7799 54.5899 45.2699C48.3599 49.7599 38.2299 49.7699 31.9599 45.2699C25.6899 40.7699 25.6599 33.5099 31.8899 28.9999C38.1199 24.4899 48.2499 24.5199 54.5199 28.9999Z" fill="#E34C3B"/>
<path d="M59.2402 37.15C59.0002 26.09 51.9302 17.22 43.2402 17.22C34.5502 17.22 27.4802 26.09 27.2402 37.15H59.2402Z" fill="#E34C3B"/>
<path d="M38.27 31.8799C37.41 34.8799 35.4 36.7199 33.78 35.9899C32.16 35.2599 31.56 32.2699 32.43 29.2699C33.3 26.2699 35.3 24.4399 36.92 25.1699C38.54 25.8999 39.14 28.8899 38.27 31.8799Z" fill="#E36A5F"/>
<mask id="mask2_369_7888" style="mask-type:luminance" maskUnits="userSpaceOnUse" x="2" y="39" width="4" height="2">
<path d="M3.93984 39.22L2.83984 40C3.0666 39.8687 3.33011 39.8152 3.59014 39.8477C3.85016 39.8802 4.0924 39.9969 4.27984 40.18L5.37984 39.38C5.1909 39.1986 4.94736 39.0845 4.687 39.0556C4.42664 39.0267 4.16401 39.0845 3.93984 39.22Z" fill="white"/>
</mask>
<g mask="url(#mask2_369_7888)">
<path d="M4.27971 40.1901L5.37971 39.3901C5.22833 39.2671 5.054 39.1755 4.86687 39.1206C4.67973 39.0656 4.48354 39.0485 4.28971 39.0701L3.19971 39.8601C3.39272 39.8383 3.58816 39.8564 3.77392 39.9131C3.95969 39.9699 4.13183 40.0642 4.27971 40.1901Z" fill="#BD3E31"/>
<path d="M3.19984 39.8601L4.28984 39.0701C4.1639 39.0948 4.04463 39.1459 3.93984 39.2201L2.83984 40.0001C2.94884 39.9269 3.07116 39.876 3.19984 39.8501V39.8601Z" fill="#983327"/>
</g>
<mask id="mask3_369_7888" style="mask-type:luminance" maskUnits="userSpaceOnUse" x="4" y="39" width="4" height="8">
<path d="M5.69955 46.1201L6.79955 45.3301C7.01111 45.1223 7.1738 44.87 7.27584 44.5916C7.37789 44.3131 7.41673 44.0155 7.38955 43.7201C7.37531 42.8991 7.19011 42.0899 6.84575 41.3444C6.5014 40.5989 6.00546 39.9333 5.38955 39.3901L4.28955 40.1901C4.90614 40.7306 5.40267 41.3942 5.74714 42.1383C6.09161 42.8823 6.27638 43.6903 6.28955 44.5101C6.32349 44.8059 6.28781 45.1055 6.18538 45.3851C6.08294 45.6646 5.91657 45.9163 5.69955 46.1201Z" fill="white"/>
</mask>
<g mask="url(#mask3_369_7888)">
<path d="M5.69971 46.1201L6.79971 45.3301C7.01127 45.1223 7.17396 44.87 7.276 44.5915C7.37804 44.3131 7.41688 44.0154 7.38971 43.7201C7.36547 43.0826 7.23361 42.4537 6.99971 41.8601L5.99971 42.6501C6.2169 43.2466 6.33185 43.8754 6.33971 44.5101C6.37365 44.8059 6.33797 45.1055 6.23553 45.385C6.13309 45.6646 5.96672 45.9163 5.74971 46.1201H5.69971Z" fill="#983327"/>
<path d="M5.99975 42.6501L6.99975 41.8601C6.69265 40.8957 6.11679 40.0388 5.33975 39.3901L4.23975 40.1901C5.05292 40.8218 5.66449 41.6766 5.99975 42.6501Z" fill="#BD3E31"/>
</g>
<path d="M4.27979 40.1901C3.15979 39.3901 2.27979 40.0301 2.27979 41.6201C2.29419 42.4397 2.47951 43.2473 2.8239 43.9912C3.16828 44.7351 3.66416 45.3989 4.27979 45.9401C5.39979 46.7401 6.27979 46.1001 6.27979 44.5101C6.26662 43.6903 6.08184 42.8823 5.73737 42.1383C5.3929 41.3942 4.89638 40.7306 4.27979 40.1901Z" fill="#AB382C"/>
<mask id="mask4_369_7888" style="mask-type:luminance" maskUnits="userSpaceOnUse" x="0" y="10" width="43" height="35">
<path d="M42.4801 10.1001L6.00014 42.5201C5.9884 42.8043 5.90873 43.0815 5.7678 43.3286C5.62687 43.5756 5.42878 43.7853 5.19014 43.9401C4.59576 44.3294 3.90067 44.5368 3.19014 44.5368C2.4796 44.5368 1.78451 44.3294 1.19014 43.9401C0.952383 43.7805 0.755897 43.5667 0.616825 43.3164C0.477752 43.066 0.400061 42.7863 0.390137 42.5001L36.8401 10.0801C36.8518 10.3707 36.9333 10.6542 37.0778 10.9066C37.2223 11.159 37.4255 11.3728 37.6701 11.5301C38.2645 11.9194 38.9596 12.1268 39.6701 12.1268C40.3807 12.1268 41.0758 11.9194 41.6701 11.5301C41.9084 11.3725 42.106 11.1609 42.2468 10.9123C42.3876 10.6638 42.4675 10.3854 42.4801 10.1001Z" fill="white"/>
</mask>
<g mask="url(#mask4_369_7888)">
<path d="M42.4801 10.1001L6.00006 42.5201C5.9921 42.7793 5.92595 43.0335 5.80651 43.2637C5.68708 43.4939 5.51741 43.6943 5.31006 43.8501L41.7801 11.4301C41.9898 11.2758 42.1618 11.076 42.283 10.8456C42.4043 10.6152 42.4716 10.3603 42.4801 10.1001Z" fill="#A5A6A8"/>
<path d="M40.1301 12.0901L3.68014 44.5101C2.81821 44.6233 1.94442 44.4209 1.22014 43.9401C0.976818 43.7838 0.774483 43.5715 0.630076 43.321C0.485668 43.0704 0.403392 42.7889 0.390137 42.5001L36.8401 10.0801C36.8518 10.3707 36.9333 10.6542 37.0778 10.9066C37.2223 11.159 37.4255 11.3728 37.6701 11.5301C38.3975 12.0032 39.2696 12.2018 40.1301 12.0901Z" fill="#A5A6A8"/>
</g>
<path d="M41.64 8.65996C41.8911 8.806 42.0995 9.0154 42.2444 9.26721C42.3892 9.51903 42.4655 9.80445 42.4655 10.095C42.4655 10.3855 42.3892 10.6709 42.2444 10.9227C42.0995 11.1745 41.8911 11.3839 41.64 11.53C41.0456 11.9193 40.3505 12.1267 39.64 12.1267C38.9294 12.1267 38.2343 11.9193 37.64 11.53C37.3888 11.3839 37.1804 11.1745 37.0356 10.9227C36.8907 10.6709 36.8145 10.3855 36.8145 10.095C36.8145 9.80445 36.8907 9.51903 37.0356 9.26721C37.1804 9.0154 37.3888 8.806 37.64 8.65996C38.2339 8.2694 38.9291 8.06128 39.64 8.06128C40.3508 8.06128 41.0461 8.2694 41.64 8.65996Z" fill="#DBDCDF"/>
<path d="M41.7802 11.4299L5.33018 43.8499L5.21018 43.9399C4.75518 44.2536 4.22948 44.4494 3.68018 44.5099L40.1302 12.0899C40.6787 12.0328 41.2044 11.8404 41.6602 11.5299L41.7802 11.4299Z" fill="#D0CFD2"/>
<mask id="mask5_369_7888" style="mask-type:luminance" maskUnits="userSpaceOnUse" x="0" y="40" width="4" height="2">
<path d="M1.67984 40.6301L0.589844 41.4201C0.81192 41.2931 1.06901 41.2411 1.32298 41.2717C1.57696 41.3023 1.81431 41.414 1.99984 41.5901L3.08984 40.8001C2.90431 40.624 2.66696 40.5123 2.41298 40.4817C2.15901 40.4511 1.90192 40.5031 1.67984 40.6301Z" fill="white"/>
</mask>
<g mask="url(#mask5_369_7888)">
<path d="M2.00016 41.5902L3.09016 40.8002C2.93907 40.6767 2.76477 40.5848 2.57756 40.5298C2.39034 40.4749 2.19401 40.458 2.00016 40.4802L0.910156 41.2702C1.10413 41.2438 1.3015 41.2586 1.48934 41.3138C1.67718 41.3689 1.85125 41.4631 2.00016 41.5902Z" fill="#BD3E31"/>
<path d="M0.940059 41.2702L2.00006 40.4802C1.87334 40.5024 1.75352 40.5538 1.65006 40.6302L0.560059 41.4202C0.663524 41.3438 0.783344 41.2924 0.910059 41.2702H0.940059Z" fill="#983327"/>
</g>
<mask id="mask6_369_7888" style="mask-type:luminance" maskUnits="userSpaceOnUse" x="2" y="40" width="4" height="8">
<path d="M3.45 47.5201L4.54 46.73C4.75831 46.5272 4.92555 46.2756 5.02809 45.9958C5.13063 45.716 5.16555 45.4159 5.13 45.12C5.11683 44.3002 4.93206 43.4923 4.58759 42.7482C4.24312 42.0041 3.74659 41.3405 3.13 40.8L2 41.59C2.61591 42.1332 3.11185 42.7988 3.4562 43.5443C3.80056 44.2899 3.98576 45.099 4 45.92C4.03082 46.2107 3.99754 46.5046 3.90252 46.7811C3.8075 47.0575 3.65303 47.3098 3.45 47.5201Z" fill="white"/>
</mask>
<g mask="url(#mask6_369_7888)">
<path d="M3.45016 47.52L4.54016 46.73C4.75846 46.5272 4.92571 46.2756 5.02824 45.9958C5.13078 45.716 5.1657 45.4159 5.13016 45.12C5.12233 44.4886 5.00736 43.863 4.79016 43.27L3.69016 44.06C3.89769 44.6581 4.00251 45.287 4.00016 45.92C4.02582 46.2137 3.98623 46.5094 3.88423 46.7861C3.78223 47.0627 3.62035 47.3133 3.41016 47.52H3.45016Z" fill="#983327"/>
<path d="M3.69 44.0601L4.79 43.2701C4.48584 42.3016 3.9054 41.4431 3.12 40.8L2 41.59C2.77914 42.2368 3.35546 43.0943 3.66 44.0601H3.69Z" fill="#BD3E31"/>
</g>
<path d="M2 41.59C0.88 40.79 0 41.43 0 43.02C0.0136287 43.8412 0.198558 44.6505 0.542952 45.3961C0.887345 46.1417 1.38362 46.8072 2 47.35C3.12 48.15 4 47.51 4 45.92C3.98576 45.0989 3.80056 44.2898 3.4562 43.5443C3.11185 42.7988 2.61591 42.1332 2 41.59Z" fill="#AB382C"/>
<mask id="mask7_369_7888" style="mask-type:luminance" maskUnits="userSpaceOnUse" x="36" y="5" width="14" height="20">
<path d="M49.8401 5.24019L49.7701 19.3202C49.7428 19.9851 49.5548 20.6336 49.2221 21.21C48.8895 21.7865 48.4222 22.2738 47.8601 22.6302C46.482 23.5356 44.8691 24.0181 43.2201 24.0181C41.5712 24.0181 39.9583 23.5356 38.5801 22.6302C38.0099 22.268 37.5356 21.7733 37.1978 21.1883C36.86 20.6032 36.6687 19.9452 36.6401 19.2702L36.7101 5.19019C36.7336 5.8663 36.9227 6.5263 37.261 7.11218C37.5993 7.69805 38.0763 8.19186 38.6501 8.55019C40.0283 9.45565 41.6412 9.93811 43.2901 9.93811C44.9391 9.93811 46.552 9.45565 47.9301 8.55019C48.4904 8.19188 48.9564 7.70416 49.2888 7.12812C49.6212 6.55208 49.8103 5.90458 49.8401 5.24019Z" fill="white"/>
</mask>
<g mask="url(#mask7_369_7888)">
<path d="M49.8401 5.24023L49.7701 19.3202C49.7514 19.9267 49.5949 20.521 49.3125 21.0581C49.0301 21.5952 48.6292 22.061 48.1401 22.4202L48.2001 8.34023C48.691 7.98203 49.0938 7.5167 49.378 6.97955C49.6622 6.44241 49.8202 5.84758 49.8401 5.24023Z" fill="#AB3A2C"/>
<path d="M48.2003 8.34033L48.1403 22.4203L47.8603 22.6303C46.8117 23.3866 45.5853 23.8586 44.3003 24.0003L44.3603 9.92033C45.6433 9.79156 46.8721 9.3372 47.9303 8.60033L48.2003 8.39033V8.34033Z" fill="#D54837"/>
<path d="M44.3601 9.87023L44.3001 24.0002C42.2964 24.2708 40.2627 23.8015 38.5801 22.6802C38.0099 22.3181 37.5356 21.8234 37.1978 21.2383C36.86 20.6533 36.6687 19.9952 36.6401 19.3202L36.7101 5.24023C36.7336 5.91635 36.9227 6.57635 37.261 7.16222C37.5993 7.7481 38.0763 8.24191 38.6501 8.60023C40.3289 9.72164 42.3595 10.1911 44.3601 9.92023V9.87023Z" fill="#AB3A2C"/>
</g>
<path d="M47.8999 1.8801C50.4699 3.7201 50.4799 6.7101 47.8999 8.5501C46.5218 9.45556 44.9089 9.93803 43.2599 9.93803C41.6109 9.93803 39.998 9.45556 38.6199 8.5501C36.0399 6.7101 36.0299 3.7201 38.6199 1.8801C39.9989 0.977087 41.6115 0.496094 43.2599 0.496094C44.9083 0.496094 46.5209 0.977087 47.8999 1.8801Z" fill="#E34C3B"/>
<mask id="mask8_369_7888" style="mask-type:luminance" maskUnits="userSpaceOnUse" x="39" y="2" width="8" height="6">
<path d="M46.9998 2.67993V4.98993C46.9832 5.36546 46.8764 5.73146 46.6884 6.05696C46.5004 6.38247 46.2367 6.6579 45.9198 6.85993C45.1407 7.36893 44.2303 7.63998 43.2998 7.63998C42.3692 7.63998 41.4588 7.36893 40.6798 6.85993C40.3496 6.66674 40.0709 6.39682 39.8673 6.07304C39.6636 5.74926 39.541 5.38117 39.5098 4.99993V2.68993C39.5252 3.07096 39.6323 3.44264 39.8221 3.77341C40.0119 4.10419 40.2786 4.38429 40.5998 4.58993C41.3808 5.09858 42.2927 5.36936 43.2248 5.36936C44.1568 5.36936 45.0688 5.09858 45.8498 4.58993C46.1852 4.39235 46.4661 4.11421 46.6669 3.78069C46.8677 3.44718 46.9821 3.06883 46.9998 2.67993Z" fill="white"/>
</mask>
<g mask="url(#mask8_369_7888)">
<path d="M47 2.67993V4.98993C46.9778 5.33858 46.8762 5.67754 46.7029 5.98087C46.5296 6.28419 46.2891 6.54384 46 6.73993V4.42993C46.2891 4.23384 46.5296 3.97419 46.7029 3.67087C46.8762 3.36754 46.9778 3.02858 47 2.67993Z" fill="#A5A6A8"/>
<path d="M45.9998 4.42993V6.73993L45.8398 6.85993C45.2475 7.27375 44.5589 7.52856 43.8398 7.59993V5.28993C44.5585 5.21682 45.2467 4.96217 45.8398 4.54993L45.9998 4.42993Z" fill="#D0CFD2"/>
<path d="M43.8698 5.28994V7.59994C42.7389 7.75545 41.5902 7.49228 40.6398 6.85994C40.3171 6.6621 40.0462 6.39015 39.8497 6.06667C39.6532 5.74318 39.5366 5.37749 39.5098 4.99994V2.68994C39.5252 3.07097 39.6323 3.44265 39.8221 3.77342C40.0119 4.1042 40.2786 4.3843 40.5998 4.58994C41.5502 5.22228 42.6989 5.48545 43.8298 5.32994L43.8698 5.28994Z" fill="#A5A6A8"/>
</g>
<path d="M45.8696 0.780025C46.1996 0.971751 46.4735 1.24676 46.6639 1.57756C46.8543 1.90836 46.9545 2.28335 46.9545 2.66503C46.9545 3.0467 46.8543 3.42169 46.6639 3.75249C46.4735 4.08329 46.1996 4.3583 45.8696 4.55003C45.0886 5.05867 44.1766 5.32946 43.2446 5.32946C42.3126 5.32946 41.4006 5.05867 40.6196 4.55003C40.2896 4.3583 40.0157 4.08329 39.8253 3.75249C39.6349 3.42169 39.5347 3.0467 39.5347 2.66503C39.5347 2.28335 39.6349 1.90836 39.8253 1.57756C40.0157 1.24676 40.2896 0.971751 40.6196 0.780025C41.3997 0.268946 42.312 -0.0032959 43.2446 -0.0032959C44.1772 -0.0032959 45.0895 0.268946 45.8696 0.780025Z" fill="#F0EBEB"/>
<path d="M2.6001 103.32L2.6101 107.04L48.3101 140L48.3001 136.28L2.6001 103.32Z" fill="#CB3333"/>
<path d="M48.3003 136.28L48.3103 140L83.6503 114.67V110.95L48.3003 136.28Z" fill="#CB3333"/>
<path d="M119 85.6199L83.6499 110.95V114.67L119 89.3299V85.6199Z" fill="#CB3333"/>
<path d="M119 85.6199L73.3001 52.6499L37.8101 78.0899L83.6501 110.95L119 85.6199Z" fill="#E84041"/>
<path d="M37.8101 78.0898L36.5101 79.0198L2.6001 103.32L48.3001 136.28L82.3601 111.88L83.6501 110.95L37.8101 78.0898Z" fill="#E84041"/>
<path d="M10.4698 92.0798L8.31982 102.85L49.5198 132.56L51.6698 121.81L10.4698 92.0798Z" fill="#C5C5C4"/>
<path d="M111.34 79.8099C106.48 76.3099 94 82.7199 81.45 92.0999C69.14 101.32 56.81 113.4 51.67 121.81L49.52 132.56L81.45 109.69L113.27 86.8799L111.34 79.8099Z" fill="#E2E1E1"/>
<path d="M111.34 79.81L70.1401 50.09C54.2701 49.19 40.1401 73.27 40.1401 73.27L82.8401 106.13C82.8401 106.13 96.0001 82.8 111.34 79.81Z" fill="#CDCFCD"/>
<path d="M107.17 78.89L63.4399 47.5C48.3099 52.65 40.1099 73.27 40.1099 73.27L82.8099 106.13C82.8099 106.13 89.1799 78.84 107.17 78.89Z" fill="white"/>
<path d="M58.88 71.5499C60.4963 69.0459 62.3807 66.7255 64.5 64.6299C64.99 64.1599 65.5 63.7099 66 63.2799C68.072 61.5093 70.4422 60.1211 73 59.1799C73.26 59.0899 73.51 58.9499 73.76 58.8399L68 54.6699C66.2193 55.7107 64.5447 56.9231 63 58.2899C59.9807 60.9775 57.3399 64.0623 55.15 67.4599C53.1684 70.4896 51.4456 73.6809 50 76.9999L54.28 80.0899C55.4574 77.4103 56.8346 74.823 58.4 72.3499L58.88 71.5499Z" fill="#DBDBDB"/>
<path d="M69.5899 78.8501C71.2109 76.2123 73.1747 73.8013 75.4299 71.6801C75.9399 71.2101 76.4299 70.7601 77.0099 70.3401C79.2064 68.616 81.7521 67.3909 84.4699 66.7501H84.6399L78.5099 62.3201C76.7714 63.2527 75.1358 64.3655 73.6299 65.6401C70.4979 68.3456 67.7998 71.5158 65.6299 75.0401C63.679 78.1363 62.0058 81.399 60.6299 84.7901L64.9999 87.8201C66.1343 84.9898 67.4988 82.2573 69.0799 79.6501C69.2499 79.3801 69.4199 79.1101 69.5899 78.8501Z" fill="#DBDBDB"/>
<path d="M80.1899 86.1401C81.8178 83.3709 83.8616 80.8683 86.2499 78.7201C86.7819 78.2498 87.3394 77.8091 87.9199 77.4001C90.1219 75.8017 92.6843 74.7712 95.3799 74.4001L88.9999 69.8101C87.2904 70.6456 85.6831 71.6758 84.2099 72.8801C80.9914 75.6035 78.2621 78.857 76.1399 82.5001C74.2426 85.648 72.6423 88.9656 71.3599 92.4101L75.6599 95.5201C76.7426 92.5626 78.081 89.7051 79.6599 86.9801C79.8499 86.7001 79.9999 86.4201 80.1899 86.1401Z" fill="#DBDBDB"/>
<path d="M40.1102 73.27C40.1102 73.27 25.4602 69.17 10.4702 92.08L51.6702 121.81C67.5102 103.32 82.8102 106.13 82.8102 106.13L40.1102 73.27Z" fill="#DBDBDB"/>
<path d="M86.7901 105.17C83.9642 105.825 81.5061 107.558 79.9401 110C78.5101 112.33 79.2501 114 81.6001 113.64C84.4213 112.981 86.8768 111.253 88.4501 108.82C89.8801 106.47 89.1401 104.84 86.7901 105.17Z" fill="#E84041"/>
<path d="M40.1099 73.27C40.1099 73.27 25.9999 68.35 9.3999 85.91L48.2999 114.38C64.1399 95.89 82.8099 106.13 82.8099 106.13L40.1099 73.27Z" fill="#F0EFED"/>
<path d="M38.2801 81.13L39.5001 81C41.7807 80.7319 44.0903 80.8536 46.3301 81.36L39.5701 76.49L38.7201 76.57L38.2001 76.63C34.6365 77.092 31.183 78.1823 28.0001 79.85C24.3523 81.7753 21.0039 84.2209 18.0601 87.11L21.5501 89.63C23.8615 87.5201 26.4242 85.7031 29.1801 84.22C32.0166 82.6823 35.0937 81.6375 38.2801 81.13Z" fill="#DBDBDB"/>
<path d="M48.7102 89.07C49.1302 89.07 49.5302 88.99 49.9302 88.97C52.5872 88.9303 55.2413 89.1649 57.8502 89.67L50.6802 84.5H49.6802H49.1302C45.4082 84.7675 41.7707 85.7379 38.4102 87.36C34.7108 89.1932 31.3336 91.6146 28.4102 94.53L31.8902 97.04C34.2075 94.9259 36.8012 93.1362 39.6002 91.72C42.4579 90.3092 45.5416 89.4122 48.7102 89.07Z" fill="#DBDBDB"/>
<path d="M60.0799 98C60.4899 98 60.8899 98 61.2899 97.95C64.3641 98.0506 67.4263 98.3849 70.4499 98.95L62.9999 93.54C62.5599 93.54 62.1199 93.54 61.6499 93.54C61.4599 93.54 61.2699 93.54 61.0699 93.54C57.2054 93.5942 53.3919 94.431 49.8599 96C46.1422 97.7296 42.7574 100.099 39.8599 103L43.3399 105.52C45.6194 103.422 48.2017 101.679 50.9999 100.35C53.8536 99.0076 56.9332 98.2106 60.0799 98Z" fill="#DBDBDB"/>
<path d="M85.9098 66.1399C88.0266 73.0109 90.8447 79.6459 94.3198 85.9399C94.6698 86.5599 95.0198 87.1699 95.3798 87.7799L95.6298 88.2099V88.2799C95.6298 88.3599 95.7198 88.4299 95.7698 88.5099C96.0698 89.0099 96.3698 89.5099 96.6798 89.9999C96.7398 90.0999 96.7998 90.1999 96.8698 90.2999C96.9398 90.3999 97.1298 90.7199 97.2698 90.9299L97.3298 91.0299C97.3998 91.1399 97.4798 91.2499 97.5498 91.3699L98.0298 92.0899L98.1498 92.2799L99.1498 93.7299C99.2007 93.817 99.2575 93.9006 99.3198 93.9799L99.5998 94.3699L99.8098 94.6599L100.04 94.9899L100.53 95.6499L100.73 95.9199C101.06 96.3599 101.4 96.7999 101.73 97.2299L101.86 97.3999L102.1 97.6899L102.36 98.0199L102.61 98.3399L103.1 98.9399L103.35 99.2399L103.66 99.6099L103.81 99.7799C104.21 100.24 104.61 100.71 105.02 101.16C105.12 101.26 105.21 101.37 105.3 101.47C105.39 101.57 105.63 101.83 105.8 102L106.1 102.32C106.646 102.913 107.206 103.483 107.78 104.03L108.1 104.35L108.59 104.81C108.7 104.92 108.81 105.03 108.93 105.13L109.41 105.58C109.52 105.69 109.64 105.79 109.76 105.89L110.6 106.63L110.97 106.96L111.44 107.35L111.82 107.67L112.29 108.04L112.72 108.38L113.44 108.93L113.9 109.28L114.32 109.59L114.7 109.86L114.8 109.93L115.19 110.2L115.52 110.43L115.71 110.55L116.2 110.88L116.36 110.98L116.57 111.11L116.86 111.3L117.24 111.54L117.4 111.63L117.75 111.84L118.16 112.08H118.23L118.68 112.34L119.05 112.55L119.87 112.98L120.23 113.17L120.77 113.44H120.84L121.15 113.59L121.6 113.8L121.78 113.88L122.05 114L122.46 114.18L122.69 114.28L122.9 114.37L123.19 114.48L123.34 114.54L123.53 114.62L123.8 114.72L124.16 114.86H124.23L124.61 114.99H124.73L125.07 115.1L125.24 115.16H125.31L125.91 115.35H126.08L126.29 115.41L126.85 115.57L127.18 115.66L127.75 115.8H127.91H128.1L128.61 115.91H128.86H129L129.51 116H129.7H129.88H130.18H130.29L130.73 116.06H131H131.31H131.57H131.79H132.01H132.21H132.39H132.68H133.1H135.21H135.83H136.09H136.29H136.81H136.98H137.27H137.62H137.91H138.16H138.43L138.74 116L139.04 115.94H139.16H139.24L139.55 115.87L139.91 115.78L140.13 115.72H140.35L140.81 115.59L141.03 115.52H141.15L141.65 115.36L141.94 115.26L145.94 113.9L147.6 113.32C147.88 113.23 148.15 113.13 148.42 113.02H148.51L148.72 112.93L149.22 112.72L149.39 112.65L149.59 112.56L150.02 112.36L150.27 112.24L150.42 112.17L150.81 111.97L151.08 111.83L151.22 111.76H151.31L151.64 111.58L151.84 111.47L152.01 111.36L152.26 111.21L152.58 111.01L152.74 110.91L153.01 110.74L153.27 110.57L153.47 110.42H153.55L153.76 110.27L153.98 110.11L154.21 109.93L154.5 109.72L154.63 109.61L154.85 109.43L155.15 109.19L155.38 109L155.54 108.86L155.87 108.58L156 108.46L156.12 108.35L156.19 108.29L156.59 107.92C156.65 107.86 156.72 107.8 156.78 107.73C157 107.52 157.22 107.3 157.43 107.08L157.53 106.99C157.558 106.949 157.591 106.912 157.63 106.88L158.08 106.39L158.32 106.12L158.73 105.66L158.88 105.48L158.94 105.4L159.37 104.87L159.55 104.65C159.75 104.4 159.94 104.15 160.13 103.89L160.31 103.64L160.53 103.33L160.59 103.25L160.69 103.1L160.92 102.77L161.19 102.36V102.29L161.42 101.95L161.68 101.54L161.74 101.43L161.79 101.36C161.79 101.27 161.9 101.18 161.96 101.09C162.05 100.94 162.13 100.79 162.22 100.65L162.27 100.57L162.45 100.25L162.66 99.8899L162.72 99.7799L162.83 99.5899L162.9 99.4599L162.96 99.3599C163.03 99.2199 163.1 99.0799 163.18 98.9499L163.45 98.4299L163.66 98.0199L163.75 97.8399C163.768 97.8076 163.785 97.7742 163.8 97.7399C163.85 97.6299 163.9 97.5299 163.96 97.4199L164.2 96.9199C164.3 96.6999 164.41 96.4699 164.51 96.2399L164.66 95.8999V95.8199L164.78 95.5199C164.817 95.4417 164.851 95.3616 164.88 95.2799C164.94 95.1199 165.01 94.9499 165.08 94.7899C165.15 94.6199 165.22 94.4499 165.28 94.2799C165.34 94.1199 165.41 93.9599 165.47 93.7899C165.55 93.5999 165.62 93.4099 165.69 93.2199C165.78 92.9499 165.88 92.6899 165.97 92.4199C166.03 92.2399 166.1 92.0699 166.16 91.8899C166.22 91.7099 166.28 91.5399 166.33 91.3599C166.33 91.1899 166.43 91.0299 166.49 90.8599C166.55 90.6899 166.6 90.4799 166.66 90.2899L166.82 89.7699C166.87 89.5799 166.93 89.3799 166.99 89.1899L167.13 88.6599C167.23 88.2999 167.32 87.9399 167.42 87.5799L167.54 87.0799L167.69 86.4499C167.69 86.2999 167.76 86.1499 167.8 85.9999C167.85 85.7799 167.9 85.5599 167.94 85.3399C167.944 85.28 167.944 85.2198 167.94 85.1599L168 84.8699C168 84.6499 168.09 84.4199 168.14 84.1899C168.135 84.1434 168.135 84.0965 168.14 84.0499V83.9699V83.8399C168.23 83.3799 168.32 82.8999 168.4 82.4299C168.4 82.2899 168.4 82.1599 168.47 82.0199L168.59 81.2899C168.585 81.2066 168.585 81.1232 168.59 81.0399V80.8399C168.59 80.5899 168.66 80.3399 168.69 80.0899V80.0299C168.69 79.9099 168.69 79.7799 168.69 79.6599C168.75 79.2299 168.8 78.7999 168.85 78.3699C168.9 77.9299 168.95 77.4799 168.99 77.0299C168.99 76.8999 168.99 76.7699 168.99 76.6299C168.99 76.3699 169.04 76.1099 169.06 75.8399V75.4199L169.12 74.5999V74.2099C169.12 73.7499 169.17 73.2899 169.19 72.8299C169.19 72.3499 169.19 71.8299 169.24 71.3899C169.24 71.2799 169.24 71.1599 169.24 71.0399C169.24 70.7599 169.24 70.4699 169.24 70.1799V69.9699C169.245 69.9033 169.245 69.8365 169.24 69.7699V67.8299V67.7699C169.24 67.2899 169.24 66.3099 169.24 66.2999C169.24 66.2899 169.24 66.1799 169.24 66.1199C169.24 65.6799 169.24 65.2399 169.24 64.7999C169.24 64.7999 169.24 64.5099 169.24 64.3899C169.24 64.0899 169.24 63.2099 169.18 63.0799C169.18 62.8499 169.18 62.6199 169.18 62.3899C169.185 62.3167 169.185 62.2432 169.18 62.1699C169.18 62.0899 169.1 61.0099 169.06 60.5899C169.065 60.5267 169.065 60.4631 169.06 60.3999C169.06 60.2099 169.01 59.7699 169.01 59.7399C169.01 59.7099 168.77 57.4299 168.72 57.0199C168.72 56.8499 168.57 55.8199 168.52 55.4699C168.47 55.1199 168.33 54.1099 168.29 53.8299C168.2 53.2699 167.99 51.9699 167.98 51.8299C167.92 51.4699 167.58 49.6399 167.52 49.3199C167.46 48.9999 167.44 48.9399 167.41 48.7499C167.38 48.5599 167.28 48.1499 167.22 47.8499C167.16 47.5499 167.13 47.4099 167.08 47.1899L166.9 46.3499C166.84 46.1099 166.79 45.8699 166.73 45.6299L166.55 44.8399L166.35 44.0399L166.17 43.3099C166.1 43.0199 166.02 42.7199 165.94 42.4299C165.86 42.1399 165.83 41.9899 165.77 41.7799C165.71 41.5699 165.58 41.0999 165.49 40.7799L165.34 40.2599L164.89 38.7099C164.81 38.4599 164.73 38.1999 164.66 37.9499C164.46 37.3099 164.26 36.6899 164.07 36.0699C164.01 35.8799 163.94 35.6999 163.88 35.5099C163.74 35.0699 163.59 34.6399 163.45 34.2099L163.25 33.6399C163.09 33.1599 162.92 32.6399 162.75 32.2199C162.75 32.1199 162.68 32.0099 162.64 31.8999C162.43 31.3299 162.22 30.7799 162.01 30.2399C162.01 30.0899 161.9 29.9499 161.84 29.7999C161.69 29.3999 161.53 28.9999 161.37 28.6099L161.16 28.0999C161 27.7132 160.84 27.3332 160.68 26.9599L160.51 26.5499C160.29 26.0499 160.07 25.5499 159.85 25.0899L159.73 24.8199C159.55 24.4266 159.37 24.0466 159.19 23.6799C159.11 23.5299 159.04 23.3799 158.97 23.2399C158.81 22.9099 158.65 22.5899 158.48 22.2399L158.28 21.8399C158.05 21.4099 157.83 20.9799 157.6 20.5699C157.37 20.1499 157.14 19.7499 156.91 19.3599L156.7 18.9899L156.2 18.1599C156.12 18.0399 156.04 17.9199 155.97 17.7999C155.78 17.4899 155.59 17.1999 155.4 16.9099L155.26 16.6899C155.02 16.3399 154.78 15.9899 154.54 15.6899C154.48 15.5899 154.41 15.4999 154.35 15.4099L153.81 14.6799L153.57 14.3599L153.03 13.6799C152.969 13.5891 152.902 13.5022 152.83 13.4199C152.59 13.1199 152.34 12.8299 152.1 12.5499C152.052 12.4885 151.998 12.4316 151.94 12.3799C151.75 12.1499 151.55 11.9299 151.35 11.7199L151.1 11.4499C150.93 11.2599 150.75 11.0799 150.58 10.9099C150.501 10.8217 150.418 10.7383 150.33 10.6599C150.1 10.4199 149.86 10.1899 149.62 9.96991L149.55 9.90991C149.31 9.68991 149.07 9.46991 148.83 9.26991L149.16 8.99991L148.63 8.56991L148.36 8.34991L147.77 7.89991L147.59 7.76991L146.83 7.23991L146.59 7.07991L146 6.73991L145.72 6.55991L145.18 6.24991L145 6.09991L144.24 5.70991L144 5.59991L143.43 5.32991L143.12 5.18991L142.6 4.99991L142.31 4.87991L141.65 4.62991L141.4 4.54991L140.75 4.32991L140.44 4.23991L140 4.07991L139.62 3.99991L139.09 3.86991L138.82 3.80991L138.07 3.65991L137.74 3.59991L137.27 3.52991H136.91L136.45 3.46991H136.1L135.37 3.40991H135.03H134.57H132.3H131.87H131.45H131.08H130.65H130.3C130.02 3.40991 129.73 3.40991 129.45 3.49991H129.19L128.71 3.56991H128.41L127.93 3.63991L127.65 3.68991C127.08 3.78991 126.51 3.88991 125.94 4.00991H125.76L125.22 4.12991H125.02L124.46 4.25991C122.83 4.64991 121.23 5.11991 119.65 5.60991L119.46 5.66991L117.81 6.20991L117.58 6.28991L115.88 6.86991L114 7.65991L112.24 8.27991L110.24 8.94991L108.16 9.65991L107.91 9.73991C91.9098 15.3099 73.1498 24.0699 85.7598 65.3399L85.9098 66.1399Z" fill="#D7D2EA"/>
<path d="M85.7098 52.9099L85.7698 53.0699C85.7698 53.1899 85.8498 53.3099 85.8998 53.4299C85.9498 53.5499 86.0198 53.7799 86.0898 53.9499L86.2298 54.3099C86.2998 54.4899 86.3698 54.6599 86.4498 54.8299C86.5298 54.9999 86.5398 55.0599 86.5898 55.1699L86.8598 55.7399L86.9798 56.0099C87.1198 56.2899 87.2498 56.5599 87.3998 56.8299L87.4898 56.9999C87.6098 57.2199 87.7198 57.4299 87.8398 57.6299C87.9598 57.8299 87.9598 57.8299 88.0098 57.9299L88.3198 58.4299L88.5198 58.7399L88.6698 58.9899C90.8521 62.3153 93.7017 65.1507 97.0379 67.3163C100.374 69.4819 104.124 70.9304 108.05 71.5699C112.968 72.267 117.981 71.7591 122.66 70.0899C123.971 69.6393 125.254 69.1083 126.5 68.4999L126.63 68.4299L127.63 67.9099L127.87 67.7799C128.23 67.5899 128.6 67.3899 128.95 67.1799L129.17 67.0499C129.5 66.8599 129.82 66.6599 130.17 66.4599L130.33 66.3599L131.38 65.6699L131.62 65.5099L132.62 64.7599H132.67H132.72H132.78H132.84L132.96 64.6699L133.07 64.5699H133.13H133.18H133.23L133.29 64.5199L134 63.9299C134.44 63.5599 134.87 63.1899 135.29 62.7999L135.36 62.7299C135.8 62.3199 136.22 61.9099 136.64 61.4899C137.35 60.7599 138.05 59.9999 138.71 59.2099C139 58.8699 139.27 58.5199 139.55 58.2099L139.79 57.8899C140 57.6299 140.2 57.3499 140.4 57.0799L140.64 56.7399C140.89 56.3899 141.14 56.0299 141.37 55.6699L141.42 55.5999C141.67 55.2199 141.91 54.8299 142.15 54.4399C142.21 54.3199 142.28 54.2099 142.35 54.0899C142.52 53.7999 142.69 53.4999 142.85 53.1999L143.05 52.8399C143.26 52.4299 143.47 52.0199 143.67 51.6099V51.5499V51.4899L143.72 51.3799V51.3199V51.2499V51.1899V51.1299V51.0699V51.0099L143.82 50.7699V50.6899V50.6099V50.5299C144.784 48.173 145.43 45.6978 145.74 43.1699V43.0899V42.9999C145.745 42.9133 145.745 42.8265 145.74 42.7399V42.2999C145.74 42.0599 145.74 41.8299 145.74 41.5899C143.09 41.7999 140.5 39.8399 138.89 37.4799C137.752 35.8636 137.018 33.9982 136.75 32.0399C136.715 31.594 136.715 31.1459 136.75 30.6999C136.783 29.2573 137.262 27.8602 138.12 26.6999C138.614 26.0473 139.224 25.4913 139.92 25.0599C139.018 24.1533 138.011 23.3577 136.92 22.6899C129.74 18.2499 120.6 20.2699 112.92 23.5199L112.69 23.6099L111.69 24.0499L111.13 24.2999L109.72 24.9199L109.46 25.0399L106.95 26.1799L106.11 26.5499L105.44 26.8499L104.44 27.2999L103.73 27.5999L102.73 28.0099L101.99 28.3099L100.99 28.6899L100.23 28.9699C99.8398 29.1099 99.4398 29.2599 99.0398 29.3899L98.3598 29.6099L98.1298 29.6699L97.6498 29.8099L97.3998 29.8799L96.9198 29.9999L96.6798 30.0599L96.0798 30.2099C93.7233 30.6547 91.432 31.3939 89.2598 32.4099C88.8464 32.5781 88.4454 32.7753 88.0598 32.9999C87.9331 33.1399 87.8131 33.2799 87.6998 33.4199C87.6699 33.4541 87.6431 33.491 87.6198 33.5299C87.5198 33.6499 87.4198 33.7799 87.3298 33.9099L87.2398 34.0399C87.1298 34.1799 87.0398 34.3299 86.9398 34.4799V34.5399L86.6298 35.0699C86.6102 35.112 86.5868 35.1522 86.5598 35.1899C86.4898 35.3299 86.4098 35.4699 86.3398 35.6199L86.2698 35.7699C86.1797 35.9384 86.0996 36.1121 86.0298 36.2899L85.7898 36.8699C85.7855 36.9198 85.7855 36.97 85.7898 37.0199C85.7298 37.1699 85.6698 37.3299 85.6198 37.4799C85.5987 37.5318 85.582 37.5853 85.5698 37.6399C85.4998 37.8399 85.4398 38.0399 85.3798 38.2399C85.3198 38.4499 85.2598 38.6499 85.2098 38.8599C85.205 38.9165 85.205 38.9734 85.2098 39.0299L85.0898 39.5099V39.6699C85.0898 39.8899 84.9998 40.0999 84.9598 40.3099C84.9598 40.5199 84.8898 40.7299 84.8598 40.9499V41.1299C84.8598 41.2899 84.8098 41.4499 84.7898 41.6199C84.7941 41.6765 84.7941 41.7334 84.7898 41.7899L84.7298 42.4299V42.4899C84.7298 42.6899 84.7298 42.8799 84.7298 43.0799C84.7298 43.2799 84.7298 43.2099 84.7298 43.2699C84.7298 43.3299 84.7298 43.5999 84.7298 43.7599C84.7248 43.8198 84.7248 43.88 84.7298 43.9399C84.7298 44.1499 84.7298 44.3599 84.7298 44.5799V45.2199C84.7348 45.2865 84.7348 45.3534 84.7298 45.4199C84.7298 45.5799 84.7298 45.7399 84.7298 45.8999V46.0699C84.7298 46.2699 84.7298 46.4799 84.7298 46.6899C84.7298 46.6899 84.7298 46.7699 84.7298 46.8099C84.7298 46.8499 84.7298 47.1499 84.7298 47.3199C84.7352 47.3832 84.7352 47.4467 84.7298 47.5099L84.7898 47.9799C84.7898 47.9799 84.7898 48.0799 84.7898 48.1299C84.7898 48.1799 84.7898 48.4999 84.8698 48.6799C84.9698 49.3699 85.0998 50.0299 85.2498 50.6799L85.3398 51.0299L85.4898 51.5899L85.5798 51.9299C85.5798 52.0499 85.6498 52.1799 85.6898 52.3099L85.7698 52.5399L85.7098 52.9099Z" fill="#574C89"/>
<path d="M99.22 58.0501C98.5277 56.9175 97.9833 55.7009 97.6 54.4301C97.3392 53.5805 97.1485 52.7109 97.03 51.8301C97.03 51.6701 97.03 51.5001 96.97 51.3401C96.9651 51.3036 96.9651 51.2666 96.97 51.2301C96.97 51.0701 96.97 50.9101 96.97 50.7601V50.7001C96.97 50.5601 96.97 50.4201 96.97 50.2801V49.6701C96.97 49.5401 96.97 49.4201 96.97 49.2901V49.2201C96.97 49.0801 96.97 48.9501 96.97 48.8201C96.97 48.6901 96.97 48.8201 96.97 48.7401L97.03 48.3701C97.03 48.2401 97.09 48.1201 97.11 48.0101V47.9301C97.11 47.8201 97.18 47.7001 97.21 47.6001C97.21 47.5001 97.28 47.4001 97.32 47.3001C97.3606 47.2038 97.4074 47.1103 97.46 47.0201L97.61 46.7901L97.79 46.5801L97.97 46.4101C98.0341 46.3522 98.1045 46.3019 98.18 46.2601L98.41 46.1601C99.57 45.7601 101 46.7901 102.21 48.6601L102.3 48.8001C102.43 49.0101 102.56 49.2301 102.68 49.4501L102.86 49.7901C102.897 49.8581 102.931 49.9282 102.96 50.0001C103.06 50.2001 103.16 50.4101 103.25 50.6201C103.34 50.8201 103.42 51.0201 103.5 51.2201L103.62 51.5401C103.62 51.6301 103.69 51.7301 103.72 51.8301L103.9 52.3601V52.4101L104.02 52.8601C104.08 53.0501 104.12 53.2501 104.17 53.4401V53.5701C104.731 55.5407 104.668 57.6366 103.99 59.5701C103.885 59.8292 103.73 60.0645 103.532 60.2621C103.334 60.4597 103.099 60.6155 102.84 60.7201C101.65 61.1301 100.18 60.0501 98.95 58.1001L99.22 58.0501Z" fill="#7ECACF"/>
<path d="M116.8 39.8399C118.59 39.2199 121.05 42.0199 122.3 46.0899C123.55 50.1599 123.1 53.9599 121.3 54.5799C119.5 55.1999 117.04 52.4099 115.79 48.3299C114.94 45.5599 114.88 42.9099 115.5 41.3299C115.592 41.0002 115.756 40.6952 115.981 40.4373C116.206 40.1795 116.486 39.9753 116.8 39.8399Z" fill="#7ECACF"/>
<path d="M170 66.22C170 65.75 170 65.22 170 64.79C170 65.23 170 65.67 170 66.11C169.995 66.1666 169.995 66.2235 170 66.28V66.22Z" fill="#C7BDDF"/>
<path d="M103.78 99.6801L103.47 99.3101C103.57 99.4301 103.68 99.5501 103.78 99.6801Z" fill="#C7BDDF"/>
<path d="M140.87 78.7099L140 76.9299C148.633 72.6882 156.86 67.6674 164.58 61.9299C164.63 62.4999 164.68 63.0799 164.72 63.6599C157.339 69.526 149.342 74.5724 140.87 78.7099Z" fill="#C7BDDF"/>
<path d="M110.9 87.78C105.854 88.4294 100.758 88.6001 95.6801 88.29C95.6834 88.2667 95.6834 88.2432 95.6801 88.22L95.4301 87.79C95.0701 87.18 94.7201 86.57 94.3701 85.95C99.7011 86.5872 105.089 86.5872 110.42 85.95C110.54 86.58 110.71 87.18 110.9 87.78Z" fill="#C7BDDF"/>
<path d="M155.94 108.62L155.61 108.9L155.79 108.74L155.94 108.62Z" fill="#BCADD5"/>
<path d="M155.22 109.23L154.92 109.47L155.05 109.37L155.22 109.23Z" fill="#BCADD5"/>
<path d="M161.42 102.22L161.65 101.87L161.85 101.55L161.91 101.46L161.65 101.87L161.42 102.21V102.22Z" fill="#BCADD5"/>
<path d="M162.45 100.57C162.36 100.71 162.28 100.86 162.19 101.01L162.41 100.63L162.45 100.57Z" fill="#BCADD5"/>
<path d="M162 101.29C162 101.23 162.07 101.17 162.11 101.12L162.01 101.28L161.96 101.35L162 101.29Z" fill="#BCADD5"/>
<path d="M162.68 100.17L162.5 100.49V100.43L162.68 100.17Z" fill="#BCADD5"/>
<path d="M157.18 107.45L157.53 107.09C157.32 107.31 157.1 107.53 156.88 107.74H156.93C157 107.62 157.09 107.53 157.18 107.45Z" fill="#BCADD5"/>
<path d="M156.68 107.94L156.28 108.31L156.51 108.1C156.561 108.042 156.618 107.988 156.68 107.94Z" fill="#BCADD5"/>
<path d="M166.23 92.3701L166.32 92.1101C166.23 92.3801 166.13 92.6401 166.04 92.9101L166.13 92.6601L166.23 92.3701Z" fill="#BCADD5"/>
<path d="M169.48 77.8201C169.48 78.2501 169.38 78.6801 169.32 79.1101C169.32 79.2301 169.32 79.3601 169.32 79.4801C169.32 79.3701 169.32 79.2501 169.32 79.1401C169.38 78.7001 169.43 78.2601 169.48 77.8201Z" fill="#BCADD5"/>
<path d="M169.26 79.55C169.26 79.8 169.19 80.05 169.16 80.3C169.16 80.05 169.23 79.8 169.26 79.55Z" fill="#BCADD5"/>
<path d="M169.13 80.51C169.125 80.5933 169.125 80.6767 169.13 80.76L169.01 81.49L169.13 80.74C169.125 80.6634 169.125 80.5866 169.13 80.51Z" fill="#BCADD5"/>
<path d="M168.6 83.5701C168.595 83.6166 168.595 83.6635 168.6 83.7101C168.55 83.9401 168.5 84.1701 168.46 84.3901L168.61 83.6801C168.61 83.6801 168.59 83.6101 168.6 83.5701Z" fill="#BCADD5"/>
<path d="M168.9 81.9399C168.82 82.4099 168.73 82.9399 168.64 83.3499V83.4799C168.74 82.9599 168.83 82.4799 168.92 81.9099L168.9 81.9399Z" fill="#BCADD5"/>
<path d="M168.37 84.7C168.375 84.7599 168.375 84.82 168.37 84.88C168.37 85.1 168.28 85.32 168.23 85.54L168.38 84.87L168.37 84.7Z" fill="#BCADD5"/>
<path d="M164.43 96.8L164.19 97.3L164.44 96.76L164.43 96.8Z" fill="#BCADD5"/>
<path d="M163.56 98.56L163.68 98.33L163.41 98.85L163.48 98.72L163.56 98.56Z" fill="#BCADD5"/>
<path d="M167 89.8901L167.15 89.3901C167.2 89.2201 167.26 89.0401 167.31 88.8601L167.16 89.3801L167 89.9001C166.94 90.0901 166.89 90.2801 166.83 90.4701C166.77 90.6601 166.72 90.8001 166.67 90.9701L166.82 90.4801C166.93 90.2801 167 90.0901 167 89.8901Z" fill="#BCADD5"/>
<path d="M128.76 116.28L128.25 116.17H128.18L128.76 116.28Z" fill="#BCADD5"/>
<path d="M164.93 95.67V95.59L165.05 95.3L164.93 95.6V95.68V95.67Z" fill="#BCADD5"/>
<path d="M127 115.86L126.44 115.7L127.06 115.88L127 115.86Z" fill="#BCADD5"/>
<path d="M126.06 115.59L125.46 115.4L126.22 115.64L126.06 115.59Z" fill="#BCADD5"/>
<path d="M164.81 96C164.848 95.9218 164.881 95.8417 164.91 95.76C164.88 95.79 164.85 95.87 164.81 96Z" fill="#BCADD5"/>
<path d="M129.66 116.45L129.15 116.36H129.02L129.66 116.45Z" fill="#BCADD5"/>
<path d="M130.33 116.55H130.03H129.85L130.44 116.64L130.33 116.55Z" fill="#BCADD5"/>
<path d="M131.27 116.68H130.96H130.88L131.53 116.75L131.27 116.68Z" fill="#BCADD5"/>
<path d="M167.8 87.1501L167.92 86.6801C167.953 86.5682 167.979 86.4547 168 86.3401C168 86.4501 167.95 86.5701 167.92 86.6801L167.8 87.1801C167.7 87.5401 167.61 87.9001 167.51 88.2601L167.37 88.7901C167.37 88.6301 167.46 88.4701 167.5 88.3001C167.6 87.9201 167.71 87.5401 167.8 87.1501Z" fill="#BCADD5"/>
<path d="M114.84 109.94L114.46 109.67L114.04 109.37L114.84 109.94Z" fill="#BCADD5"/>
<path d="M161.36 102.31L161.09 102.72C161.147 102.62 161.211 102.523 161.28 102.43L161.36 102.31Z" fill="#BCADD5"/>
<path d="M160.85 103.06L161.08 102.72L160.85 103.05L160.75 103.2C160.773 103.161 160.8 103.124 160.83 103.09L160.85 103.06Z" fill="#BCADD5"/>
<path d="M159.69 104.62L160.12 104.06L160.22 103.93L160.27 103.86C160.08 104.12 159.89 104.37 159.69 104.62Z" fill="#BCADD5"/>
<path d="M117.89 111.92L117.54 111.71C117.79 111.87 118.05 112.02 118.3 112.16L117.89 111.92Z" fill="#BCADD5"/>
<path d="M159 105.45L159.06 105.37L159.49 104.85L159.06 105.38L159 105.46V105.45Z" fill="#BCADD5"/>
<path d="M169.82 74C169.82 73.88 169.82 73.76 169.82 73.65C169.82 73.18 169.88 72.71 169.9 72.24C169.9 72.7 169.9 73.16 169.83 73.62V74.01L169.77 74.83V75.25V74.84L169.82 74Z" fill="#BCADD5"/>
<path d="M169.63 76.4V76.03C169.63 76.17 169.63 76.3 169.63 76.43C169.63 76.87 169.55 77.3 169.5 77.73C169.54 77.29 169.58 76.85 169.63 76.4Z" fill="#BCADD5"/>
<path d="M117 111.38L116.71 111.19L117.36 111.6L117 111.38Z" fill="#BCADD5"/>
<path d="M170 70.6799C170 71.1399 170 71.5999 169.95 72.0599C169.94 71.6199 170 71.1499 170 70.6799Z" fill="#BCADD5"/>
<path d="M125.22 115.32L124.88 115.21H124.76L125.39 115.43L125.22 115.32Z" fill="#BCADD5"/>
<path d="M124.31 115L123.95 114.86L123.68 114.76L124.38 115.02L124.31 115Z" fill="#BCADD5"/>
<path d="M120.08 113.14H120.01L119.19 112.71L118.82 112.5L118.37 112.24C118.94 112.53 119.51 112.84 120.08 113.14Z" fill="#BCADD5"/>
<path d="M122.61 114.33L122.2 114.15L121.99 114.06L122.61 114.33Z" fill="#BCADD5"/>
<path d="M121.75 114L121.3 113.79L121.12 113.71L121.75 114Z" fill="#BCADD5"/>
<path d="M116.5 111.06L116.34 110.96L115.87 110.65L116.5 111.06Z" fill="#BCADD5"/>
<path d="M115.66 110.51L115.33 110.28L115 110.05L115.66 110.51Z" fill="#BCADD5"/>
<path d="M123.34 114.63L123.05 114.52L122.84 114.43L123.49 114.69L123.34 114.63Z" fill="#BCADD5"/>
<path d="M120.91 113.56L120.37 113.29L120.21 113.2L120.91 113.56Z" fill="#BCADD5"/>
<path d="M110.9 87.7801V87.9501C111.898 91.0881 113.205 94.1195 114.8 97.0001C115.8 98.9201 116.99 101.07 118.92 101.92C123.75 104.03 133.37 99.9201 137.22 98.4901C141.07 97.0601 144.91 93.9301 145.07 89.6101C145.17 87.1201 144.01 84.7901 142.89 82.6101L140.89 78.6801C149.348 74.5369 157.332 69.4873 164.7 63.6201C164.8 65.0901 164.88 66.5601 164.91 68.0301C165.05 73.0173 164.745 78.007 164 82.9401C157.54 88.1301 155.54 97.7801 149.46 103.5C146.928 105.759 143.951 107.463 140.72 108.5C132.16 111.5 123 111.19 114.08 109.35L113.62 109L112.9 108.45L112.47 108.11L112 107.74L111.62 107.42L111.15 107.03L110.78 106.7L109.94 105.96C109.82 105.86 109.7 105.76 109.59 105.65L109.11 105.2C108.99 105.1 108.88 104.99 108.77 104.88L108.28 104.42L107.96 104.1C107.387 103.553 106.827 102.983 106.28 102.39L105.98 102.07C105.81 101.9 105.65 101.72 105.48 101.54C105.31 101.36 105.3 101.33 105.2 101.23C104.79 100.78 104.39 100.31 103.99 99.8501L103.84 99.6801C103.74 99.5501 103.63 99.4301 103.53 99.3101L103.28 99.0101L102.79 98.4101L102.54 98.0901L102.29 97.7701L102.05 97.4801L101.92 97.3101C101.58 96.8801 101.24 96.4401 100.92 96.0001L100.72 95.7301L100.1 95.0001L99.8699 94.6701L99.6699 94.3801L99.3799 94.0001C99.3176 93.9208 99.2608 93.8373 99.2099 93.7501L98.2099 92.3001L98.0899 92.1101L97.6099 91.3901C97.5399 91.2701 97.4599 91.1601 97.3899 91.0501L97.3299 90.9501L96.9299 90.3201C96.8599 90.2201 96.7999 90.1201 96.7399 90.0201C96.4299 89.5301 96.1299 89.0201 95.8299 88.5301C95.8299 88.4501 95.7299 88.3801 95.6899 88.3001C100.765 88.6064 105.858 88.4323 110.9 87.7801Z" fill="#BCADD5"/>
<path d="M89.9999 29.9199C83.2199 33.5399 82.3599 44.0999 83.9999 51.0699C86.7999 62.8599 97.2498 71.7399 108.59 73.4299C119.93 75.1199 131.65 70.2299 139.92 61.8199C145.23 56.4099 149.33 49.3499 150.28 41.6299C157.16 39.0399 153.92 28.6299 150.1 24.5299C149.416 23.7546 148.553 23.1593 147.585 22.7965C146.617 22.4338 145.575 22.3148 144.55 22.4499C143.499 21.3259 142.305 20.3443 141 19.5299C133.32 14.7799 123.55 16.9499 115.29 20.4199C110.29 22.4999 105.53 24.9899 100.44 26.6999C97.0599 27.8299 93.1699 28.2199 89.9999 29.9199ZM88.0598 32.9999C88.8038 32.1604 89.6909 31.4595 90.6799 30.9299C92.8521 29.9139 95.1434 29.1748 97.4999 28.7299L98.0999 28.5799L98.3398 28.5199L98.8199 28.3999L99.0699 28.3299L99.5499 28.1899L99.7799 28.1299L100.46 27.9099C100.86 27.7799 101.26 27.6299 101.65 27.4899L102.41 27.2099L103.41 26.8299L104.15 26.5299L105.15 26.1199L105.86 25.8199L106.86 25.3699L107.53 25.0699L108.37 24.6999L110.88 23.5599L111.14 23.4399L112.55 22.8199L113.11 22.5699L114.11 22.1299L114.34 22.0399C122.06 18.7899 131.2 16.7699 138.34 21.2099C139.431 21.8777 140.438 22.6733 141.34 23.5799C142.368 22.9504 143.566 22.6536 144.77 22.7299C146.229 22.8507 147.588 23.523 148.57 24.6099C151.57 27.8299 154.2 35.5199 150.45 38.8099C149.768 39.3807 148.964 39.7877 148.1 39.9999C147.809 40.0757 147.51 40.1226 147.21 40.1399C147.21 40.3799 147.21 40.6099 147.21 40.8499V41.2899C147.215 41.3765 147.215 41.4633 147.21 41.5499V41.6399V41.7199C146.9 44.2478 146.254 46.723 145.29 49.0799V49.1599V49.2399V49.3199L145.19 49.5599V49.6199V49.6799V49.7399V49.7999V49.8699V49.9299L145.14 50.0399V50.0999V50.1599C144.94 50.5699 144.73 50.9799 144.52 51.3899L144.32 51.7499C144.16 52.0499 143.99 52.3499 143.82 52.6399C143.75 52.7599 143.68 52.8699 143.62 52.9899C143.38 53.3799 143.14 53.7699 142.89 54.1499L142.84 54.2199C142.61 54.5799 142.36 54.9399 142.11 55.2899L141.87 55.6299C141.67 55.8999 141.47 56.1799 141.26 56.4399L141.02 56.7599C140.74 57.1099 140.47 57.4599 140.18 57.7599C139.52 58.5499 138.82 59.3099 138.11 60.0399C137.69 60.4599 137.27 60.8699 136.83 61.2799L136.76 61.3499C136.34 61.7399 135.91 62.1099 135.47 62.4799L134.76 63.0699L134.7 63.1199H134.65H134.6H134.54L134.43 63.2199L134.31 63.3099H134.25H134.19H134.14H134.09L133.09 64.0599L132.85 64.2199L131.8 64.9099L131.64 65.0099C131.32 65.2099 131 65.4099 130.64 65.5999L130.42 65.7299C130.07 65.9399 129.7 66.1399 129.34 66.3299L129.1 66.4599L128.1 66.9799L127.97 67.0499C126.724 67.6583 125.441 68.1893 124.13 68.6399C119.452 70.3091 114.438 70.817 109.52 70.1199C105.462 69.8559 101.506 68.7324 97.915 66.8239C94.3239 64.9154 91.1794 62.2656 88.6899 59.0499L88.5399 58.7999L88.3398 58.4899L87.9999 57.9999C87.9999 57.8999 87.8899 57.7999 87.8299 57.6999C87.7699 57.5999 87.5999 57.2899 87.4799 57.0699L87.3899 56.8999C87.2399 56.6299 87.1099 56.3599 86.9699 56.0799L86.8499 55.8099L86.5799 55.2399C86.5799 55.1299 86.4899 55.0099 86.4399 54.8999C86.3899 54.7899 86.2899 54.5599 86.2199 54.3799L86.0999 53.9999C86.0299 53.8299 85.9699 53.6499 85.9099 53.4799C85.8499 53.3099 85.8199 53.2399 85.7799 53.1199L85.7199 52.9999L85.5999 52.6299L85.5198 52.3999C85.5198 52.2699 85.4499 52.1399 85.4099 52.0199L85.3199 51.6799L85.1599 50.9999L85.0699 50.6499C84.9199 50.0099 84.7899 49.3499 84.6899 48.6499C84.6899 48.4699 84.6899 48.2799 84.6099 48.0999C84.5299 47.9199 84.6099 47.9999 84.6099 47.9499L84.5499 47.4799C84.5553 47.4167 84.5553 47.3532 84.5499 47.2899C84.5499 47.1199 84.5499 46.9499 84.5499 46.7799C84.5499 46.6099 84.5499 46.6999 84.5499 46.6599C84.5499 46.4499 84.5499 46.2399 84.5499 46.0399V45.8699C84.5499 45.7099 84.5499 45.5499 84.5499 45.3899C84.5548 45.3234 84.5548 45.2565 84.5499 45.1899V44.5499C84.5499 44.3299 84.5499 44.1199 84.5499 43.9099C84.5449 43.85 84.5449 43.7898 84.5499 43.7299C84.5499 43.5699 84.5499 43.4099 84.5499 43.2399C84.5499 43.0699 84.5499 43.1199 84.5499 43.0499C84.5499 42.9799 84.5499 42.6599 84.5499 42.4599V42.3999L84.6099 41.7599C84.6142 41.7034 84.6142 41.6465 84.6099 41.5899C84.6099 41.4199 84.6099 41.2599 84.6799 41.0999V40.9199C84.6799 40.6999 84.7399 40.4899 84.7799 40.2799C84.7799 40.0699 84.8599 39.8599 84.9099 39.6399V39.4799L85.0299 38.9999C85.025 38.9434 85.025 38.8865 85.0299 38.8299C85.0799 38.6199 85.1398 38.4199 85.1998 38.2099C85.2598 38.0099 85.3199 37.8099 85.3899 37.6099C85.402 37.5553 85.4187 37.5018 85.4399 37.4499C85.4399 37.2999 85.5499 37.1399 85.6099 36.9899C85.6056 36.94 85.6056 36.8898 85.6099 36.8399L85.9999 36.2999C86.0696 36.1221 86.1498 35.9484 86.2399 35.7799L86.3098 35.6299C86.3798 35.4799 86.4599 35.3399 86.5299 35.1999C86.5568 35.1622 86.5803 35.122 86.5999 35.0799L86.9099 34.5499V34.4899C87.0099 34.3399 87.0999 34.1899 87.2099 34.0499L87.2999 33.9199C87.3899 33.7899 87.4898 33.6599 87.5898 33.5399C87.6132 33.501 87.6399 33.4641 87.6699 33.4299C87.7832 33.2899 87.9032 33.1499 88.0299 33.0099L88.0598 32.9999Z" fill="#C7BDDF"/>
<path d="M142.89 82.6399C144.01 84.8299 145.17 87.1599 145.07 89.6399C144.91 93.9599 141.07 97.1299 137.22 98.5199C133.37 99.9099 123.75 104.06 118.92 101.95C116.99 101.1 115.85 98.9499 114.8 97.0299C113.24 94.1518 111.967 91.1273 111 87.9999C111.912 90.8637 113.098 93.6331 114.54 96.2699C115.54 98.0899 116.62 100.13 118.45 100.93C123.02 102.93 132.14 98.9999 135.79 97.6799C139.44 96.3599 143.08 93.3599 143.23 89.2699C143.32 86.9099 142.23 84.6999 141.16 82.6199C139.83 80.0399 138.51 77.4499 137.16 74.8599C136.902 74.1995 136.444 73.6364 135.85 73.2499C135.106 72.9937 134.29 73.0404 133.58 73.3799C129.58 74.6899 122.44 76.7999 117.07 78.6499C122.79 76.6499 130.58 74.3599 134.94 72.9399C135.688 72.5845 136.544 72.5308 137.33 72.7899C137.958 73.2031 138.444 73.8003 138.72 74.4999L140 76.9299L140.91 78.7099L142.89 82.6399Z" fill="#A58EC3"/>
<path d="M110.37 86L110.1 85C109.83 83.9 109.28 82.48 110.01 81.65C110.74 80.82 113.43 79.85 117.01 78.65C122.38 76.8 129.49 74.65 133.52 73.38C134.23 73.0405 135.046 72.9938 135.79 73.25C136.384 73.6365 136.843 74.1995 137.1 74.86C138.43 77.45 139.75 80.04 141.1 82.62C142.16 84.7 143.26 86.91 143.17 89.27C143.02 93.36 139.38 96.36 135.73 97.68C132.08 99 122.96 102.93 118.39 100.93C116.56 100.13 115.48 98.09 114.48 96.27C113.058 93.6308 111.893 90.8615 111 88V87.83C110.71 87.18 110.54 86.58 110.37 86Z" fill="#FBF5FA"/>
<path d="M130.16 78.07C130.22 78.6461 130.404 79.2022 130.7 79.7C131.068 80.4955 131.599 81.2043 132.26 81.78C132.582 82.055 132.97 82.2404 133.386 82.3176C133.802 82.3949 134.231 82.3612 134.63 82.22C135.159 81.975 135.577 81.5394 135.8 81V81.16C135.697 81.5452 135.495 81.8968 135.214 82.1796C134.933 82.4624 134.583 82.6666 134.199 82.7719C133.814 82.8771 133.409 82.8797 133.023 82.7793C132.637 82.679 132.284 82.4793 132 82.2C131.291 81.5955 130.722 80.845 130.33 80C130.018 79.4783 129.823 78.8947 129.76 78.29C129.755 77.8156 129.873 77.3479 130.103 76.9326C130.333 76.5173 130.666 76.1685 131.07 75.92C131.308 75.7667 131.563 75.6425 131.83 75.55C131.684 75.615 131.543 75.692 131.41 75.78C131.023 76.0229 130.705 76.361 130.486 76.762C130.267 77.1629 130.155 77.6133 130.16 78.07Z" fill="#EAE2E9"/>
<path d="M127.64 84.63C127.517 84.956 127.327 85.2526 127.083 85.5007C126.838 85.7487 126.544 85.9427 126.22 86.07C125.788 86.183 125.334 86.1796 124.903 86.0601C124.473 85.9407 124.082 85.7095 123.77 85.39L123.54 85.17C123.793 85.4472 124.115 85.6533 124.473 85.7676C124.83 85.8819 125.212 85.9006 125.579 85.8217C125.946 85.7428 126.286 85.5691 126.565 85.3179C126.844 85.0667 127.053 84.7468 127.17 84.39C127.416 83.7538 127.495 83.0654 127.4 82.39C127.19 80.39 126.11 78.69 124.4 78.72C126.32 78.44 127.59 80.35 127.83 82.54C127.942 83.2416 127.876 83.96 127.64 84.63Z" fill="#EAE2E9"/>
<path d="M113.6 82.92C113.569 83.5003 113.664 84.0804 113.88 84.62C114.114 85.4888 114.526 86.2993 115.09 87C115.364 87.3272 115.718 87.5776 116.118 87.7267C116.517 87.8757 116.949 87.9182 117.37 87.85C117.751 87.7488 118.097 87.5447 118.37 87.26C118.055 87.753 117.566 88.1098 117 88.26C116.56 88.3348 116.108 88.2918 115.69 88.1355C115.272 87.9792 114.903 87.7151 114.62 87.37C114.033 86.657 113.6 85.8295 113.35 84.94C113.118 84.3733 113.015 83.7616 113.05 83.15C113.111 82.6808 113.294 82.2357 113.58 81.8587C113.866 81.4816 114.245 81.1857 114.68 81C114.919 80.902 115.167 80.8283 115.42 80.78L115.18 80.86C114.759 81.0348 114.392 81.3172 114.115 81.6787C113.837 82.0403 113.66 82.4683 113.6 82.92Z" fill="#EAE2E9"/>
<path d="M115.46 91C115.573 91.172 115.733 91.3077 115.921 91.3911C116.109 91.4744 116.317 91.5018 116.52 91.47C124.191 90.4307 131.614 88.0297 138.44 84.38C138.669 84.2405 138.847 84.031 138.948 83.7825C139.049 83.534 139.067 83.2597 139 83C139 82.82 138.88 82.65 138.82 82.47C138.791 82.408 138.757 82.3479 138.72 82.29C138.852 82.3525 138.97 82.4403 139.068 82.5483C139.166 82.6564 139.241 82.7827 139.29 82.92C139.36 83.1 139.43 83.28 139.48 83.46C139.57 83.7441 139.561 84.0506 139.454 84.3288C139.347 84.607 139.148 84.8402 138.89 84.99C131.789 88.7832 124.068 91.279 116.09 92.36C115.878 92.3911 115.661 92.3617 115.464 92.275C115.268 92.1883 115.1 92.0479 114.98 91.87C114.809 91.5976 114.747 91.2713 114.804 90.955C114.861 90.6387 115.035 90.3552 115.29 90.16C115.242 90.4514 115.303 90.7502 115.46 91Z" fill="#EAE2E9"/>
<path d="M137.11 87.15C137.153 87.1443 137.197 87.1443 137.24 87.15C136.947 87.2874 136.713 87.5256 136.581 87.8212C136.448 88.1167 136.427 88.4499 136.52 88.76C136.563 88.9203 136.639 89.0703 136.742 89.2009C136.844 89.3315 136.972 89.4402 137.118 89.5204C137.263 89.6006 137.423 89.6508 137.589 89.6679C137.754 89.685 137.921 89.6687 138.08 89.62C138.279 89.5526 138.455 89.4314 138.59 89.27C138.462 89.4884 138.272 89.6636 138.044 89.7733C137.816 89.8829 137.56 89.922 137.31 89.8855C137.06 89.8489 136.826 89.7385 136.639 89.5682C136.452 89.398 136.32 89.1758 136.26 88.93C136.141 88.5811 136.163 88.1993 136.322 87.8666C136.481 87.5339 136.764 87.2766 137.11 87.15Z" fill="#EAE2E9"/>
<path d="M137.83 91.3701C137.696 91.6689 137.672 92.005 137.76 92.3201C137.802 92.4812 137.877 92.632 137.979 92.7634C138.082 92.8948 138.21 93.004 138.356 93.0844C138.502 93.1648 138.662 93.2148 138.828 93.2312C138.994 93.2477 139.161 93.2303 139.32 93.1801C139.514 93.1141 139.688 93.0023 139.829 92.8543C139.97 92.7064 140.073 92.5265 140.13 92.3301C140.124 92.6102 140.032 92.8816 139.868 93.1085C139.704 93.3353 139.474 93.5068 139.21 93.6001C139.043 93.6532 138.866 93.6716 138.692 93.6542C138.517 93.6367 138.347 93.5837 138.194 93.4985C138.04 93.4133 137.906 93.2977 137.799 93.1587C137.691 93.0197 137.614 92.8602 137.57 92.6901C137.503 92.4656 137.491 92.2279 137.536 91.9979C137.582 91.7678 137.683 91.5523 137.83 91.3701Z" fill="#EAE2E9"/>
<path d="M132.8 89.35C133.074 89.2499 133.375 89.2499 133.65 89.35C133.46 89.3005 133.26 89.3005 133.07 89.35C132.748 89.47 132.484 89.7092 132.333 90.0182C132.182 90.3271 132.156 90.6822 132.26 91.01C132.342 91.3186 132.542 91.5825 132.817 91.7452C133.092 91.9079 133.42 91.9563 133.73 91.88L133.6 91.95C133.275 92.0417 132.927 92.0046 132.629 91.8462C132.331 91.6878 132.106 91.4205 132 91.1C131.887 90.7612 131.906 90.3922 132.055 90.0673C132.203 89.7425 132.47 89.4861 132.8 89.35Z" fill="#EAE2E9"/>
<path d="M133.89 93.25C133.696 93.4227 133.556 93.6475 133.487 93.8976C133.418 94.1477 133.422 94.4124 133.5 94.66C133.543 94.8203 133.619 94.9703 133.722 95.1009C133.824 95.2315 133.952 95.3402 134.098 95.4204C134.243 95.5006 134.403 95.5508 134.569 95.5679C134.734 95.585 134.901 95.5687 135.06 95.52C135.356 95.4168 135.602 95.2062 135.75 94.93C135.689 95.1311 135.58 95.3148 135.434 95.466C135.288 95.6172 135.109 95.7317 134.91 95.8C134.742 95.8547 134.564 95.8743 134.388 95.8576C134.213 95.8409 134.042 95.7883 133.887 95.703C133.733 95.6177 133.597 95.5015 133.489 95.3616C133.381 95.2218 133.303 95.0613 133.26 94.89C133.166 94.5856 133.176 94.2583 133.291 93.9609C133.405 93.6634 133.616 93.413 133.89 93.25Z" fill="#EAE2E9"/>
<path d="M128.64 91.06C128.858 90.9953 129.091 90.9953 129.31 91.06C129.174 91.0355 129.035 91.0355 128.9 91.06C128.578 91.18 128.314 91.4192 128.163 91.7282C128.012 92.0371 127.986 92.3923 128.09 92.72C128.133 92.8804 128.209 93.0303 128.312 93.1609C128.414 93.2915 128.542 93.4002 128.688 93.4804C128.833 93.5606 128.993 93.6108 129.159 93.6279C129.324 93.645 129.491 93.6287 129.65 93.58H129.73C129.638 93.6469 129.537 93.7007 129.43 93.74C129.262 93.7918 129.085 93.8091 128.91 93.7911C128.735 93.7731 128.566 93.72 128.412 93.6351C128.258 93.5502 128.122 93.4352 128.014 93.2968C127.905 93.1585 127.826 92.9998 127.78 92.83C127.661 92.4812 127.685 92.0998 127.846 91.7684C128.007 91.4371 128.292 91.1826 128.64 91.06Z" fill="#EAE2E9"/>
<path d="M129.62 95C129.465 95.1741 129.357 95.3849 129.307 95.6124C129.256 95.8399 129.264 96.0765 129.33 96.3C129.372 96.4611 129.447 96.6119 129.55 96.7433C129.652 96.8747 129.78 96.9839 129.926 97.0643C130.072 97.1447 130.232 97.1946 130.398 97.2111C130.564 97.2276 130.731 97.2102 130.89 97.16C131.203 97.051 131.461 96.8252 131.61 96.53C131.564 96.7578 131.46 96.9698 131.307 97.1451C131.155 97.3204 130.959 97.4531 130.74 97.53C130.573 97.5834 130.396 97.6022 130.221 97.5855C130.047 97.5688 129.877 97.5168 129.723 97.4327C129.569 97.3486 129.433 97.2341 129.324 97.0961C129.216 96.9582 129.136 96.7996 129.09 96.63C128.992 96.3374 128.991 96.021 129.086 95.7276C129.182 95.4341 129.369 95.179 129.62 95Z" fill="#EAE2E9"/>
<path d="M125.37 94.5C124.988 95.0141 124.452 95.3925 123.84 95.58C122.7 96.01 120.25 96.58 118.84 96.03C118.596 95.9486 118.372 95.8177 118.181 95.6457C117.99 95.4736 117.836 95.264 117.73 95.03C117.94 95.2955 118.226 95.4908 118.55 95.59C120.175 95.9027 121.854 95.7714 123.41 95.21C124.011 95.049 124.544 94.6983 124.93 94.21C125.12 93.9574 125.211 93.6436 125.185 93.3284C125.16 93.0131 125.019 92.7183 124.79 92.5C124.697 92.4334 124.592 92.3858 124.48 92.36C124.724 92.3394 124.967 92.4029 125.17 92.54C125.436 92.7864 125.603 93.1214 125.64 93.4822C125.677 93.8431 125.581 94.205 125.37 94.5Z" fill="#EAE2E9"/>
<path d="M119.69 99.5701C121.315 99.8827 122.994 99.7515 124.55 99.1901C125.152 99.0318 125.686 98.6806 126.07 98.1901C126.236 97.9548 126.32 97.6709 126.307 97.3831C126.294 97.0953 126.186 96.8199 126 96.6001C126.127 96.6284 126.246 96.6829 126.35 96.7601C126.595 97.0037 126.746 97.3255 126.777 97.6692C126.808 98.0129 126.717 98.3566 126.52 98.6401C126.124 99.1398 125.571 99.4919 124.95 99.6401C123.78 100.05 121.29 100.51 119.86 99.9601C119.561 99.847 119.292 99.6677 119.072 99.4356C118.852 99.2036 118.687 98.9248 118.59 98.6201C118.525 98.4953 118.471 98.3648 118.43 98.2301L118.49 98.3401C118.579 98.6254 118.734 98.8856 118.942 99.0994C119.151 99.3132 119.407 99.4745 119.69 99.5701Z" fill="#EAE2E9"/>
<path d="M136 78.7199C136.141 79.3828 136.113 80.0703 135.92 80.7199C135.898 80.7915 135.871 80.8616 135.84 80.9299C135.628 81.488 135.209 81.9429 134.67 82.1999C134.271 82.3411 133.842 82.3747 133.426 82.2975C133.01 82.2202 132.622 82.0348 132.3 81.7599C131.639 81.1842 131.108 80.4754 130.74 79.6799C130.444 79.182 130.26 78.6259 130.2 78.0499C130.199 77.5965 130.313 77.1502 130.531 76.7531C130.75 76.3559 131.066 76.021 131.45 75.7799C131.584 75.6918 131.724 75.6149 131.87 75.5499C133.94 74.5599 135.53 76.4299 136 78.7199Z" fill="#70C5C7"/>
<path d="M127.4 82.3801C127.495 83.0555 127.416 83.7439 127.17 84.3801C127.053 84.7369 126.845 85.0568 126.565 85.308C126.286 85.5592 125.946 85.7329 125.579 85.8118C125.212 85.8907 124.83 85.872 124.473 85.7577C124.115 85.6434 123.793 85.4373 123.54 85.1601H123.48C122.869 84.5317 122.395 83.7823 122.09 82.9601C121.83 82.4367 121.683 81.8642 121.66 81.2801C121.693 80.83 121.84 80.3958 122.089 80.0193C122.338 79.6428 122.679 79.3365 123.08 79.1301C123.499 78.8933 123.969 78.7628 124.45 78.7501C126.11 78.6801 127.19 80.4101 127.4 82.3801Z" fill="#F49537"/>
<path d="M118.83 86.56C118.709 86.8005 118.55 87.02 118.36 87.21C118.087 87.4947 117.741 87.6988 117.36 87.8C116.939 87.8682 116.507 87.8257 116.107 87.6767C115.708 87.5277 115.353 87.2772 115.08 86.95C114.522 86.2641 114.11 85.4711 113.87 84.62C113.654 84.0804 113.559 83.5003 113.59 82.92C113.659 82.4791 113.841 82.0634 114.118 81.7131C114.395 81.3629 114.757 81.0897 115.17 80.92L115.41 80.84C117.78 80.02 119.14 82.2 119.21 84.6C119.248 85.2748 119.117 85.9484 118.83 86.56Z" fill="#70C5C7"/>
<path d="M139 82.9999C139.086 83.2718 139.076 83.5648 138.972 83.8303C138.869 84.0959 138.677 84.318 138.43 84.4599C131.604 88.1096 124.181 90.5106 116.51 91.5499C116.307 91.5817 116.099 91.5543 115.911 91.4709C115.723 91.3876 115.563 91.2518 115.45 91.0799C115.365 90.9441 115.309 90.7928 115.283 90.6349C115.257 90.477 115.263 90.3155 115.3 90.1599C115.345 89.9288 115.457 89.7161 115.622 89.5488C115.788 89.3815 115.999 89.267 116.23 89.2199C123.579 87.9393 130.671 85.4738 137.23 81.9199C137.481 81.7817 137.777 81.7473 138.053 81.8239C138.33 81.9005 138.566 82.082 138.71 82.3299C138.747 82.3877 138.781 82.4478 138.81 82.5099C138.92 82.6199 139 82.7899 139 82.9999Z" fill="#EA4F72"/>
<path d="M136.52 88.7301C136.427 88.42 136.448 88.0868 136.581 87.7912C136.713 87.4957 136.947 87.2575 137.24 87.1201L137.33 87.0701C137.489 87.0199 137.656 87.0025 137.822 87.019C137.987 87.0354 138.148 87.0854 138.294 87.1658C138.44 87.2462 138.568 87.3554 138.67 87.4868C138.773 87.6182 138.847 87.769 138.89 87.9301C138.957 88.1557 138.965 88.3951 138.913 88.6247C138.86 88.8543 138.749 89.0664 138.59 89.2401C138.455 89.4015 138.279 89.5226 138.08 89.5901C137.921 89.6388 137.754 89.655 137.589 89.6379C137.423 89.6208 137.263 89.5707 137.118 89.4905C136.972 89.4102 136.844 89.3016 136.741 89.171C136.639 89.0403 136.563 88.8904 136.52 88.7301Z" fill="#F49537"/>
<path d="M139.32 93.1801C139.161 93.2303 138.994 93.2477 138.828 93.2312C138.662 93.2148 138.502 93.1648 138.356 93.0844C138.21 93.004 138.082 92.8948 137.98 92.7634C137.877 92.632 137.802 92.4812 137.76 92.3201C137.672 92.005 137.696 91.6689 137.83 91.3701C137.925 91.1316 138.093 90.9294 138.31 90.7928C138.527 90.6561 138.783 90.592 139.039 90.6099C139.295 90.6277 139.538 90.7264 139.735 90.8918C139.931 91.0573 140.069 91.2808 140.13 91.5301C140.205 91.7915 140.205 92.0687 140.13 92.3301C140.073 92.5265 139.97 92.7064 139.829 92.8544C139.688 93.0023 139.514 93.1141 139.32 93.1801Z" fill="#F49537"/>
<path d="M132.26 91.07C132.156 90.7422 132.183 90.3871 132.333 90.0781C132.484 89.7691 132.748 89.5299 133.07 89.41C133.26 89.3604 133.46 89.3604 133.65 89.41C133.884 89.4524 134.101 89.559 134.278 89.718C134.455 89.8769 134.583 90.0819 134.65 90.31C134.751 90.6364 134.723 90.989 134.573 91.2957C134.422 91.6024 134.16 91.84 133.84 91.96H133.75C133.594 92.0004 133.431 92.0093 133.271 91.9864C133.112 91.9634 132.958 91.9089 132.819 91.8262C132.681 91.7434 132.56 91.6339 132.464 91.5041C132.368 91.3743 132.299 91.2267 132.26 91.07Z" fill="#EA4F72"/>
<path d="M133.5 94.66C133.423 94.4124 133.418 94.1477 133.487 93.8976C133.557 93.6476 133.696 93.4227 133.89 93.25C134.012 93.1403 134.155 93.0554 134.31 93C134.469 92.9513 134.636 92.935 134.801 92.9521C134.966 92.9693 135.126 93.0194 135.272 93.0996C135.418 93.1799 135.545 93.2885 135.648 93.4191C135.751 93.5498 135.826 93.6997 135.87 93.86C135.973 94.2185 135.93 94.6033 135.75 94.93C135.602 95.2062 135.356 95.4168 135.06 95.52C134.901 95.5687 134.734 95.585 134.569 95.5679C134.403 95.5508 134.243 95.5006 134.098 95.4204C133.952 95.3402 133.824 95.2316 133.722 95.1009C133.619 94.9703 133.543 94.8204 133.5 94.66Z" fill="#EA4F72"/>
<path d="M128.09 92.7399C127.986 92.4122 128.012 92.0571 128.163 91.7481C128.314 91.4391 128.578 91.1999 128.9 91.0799C129.035 91.0554 129.174 91.0554 129.31 91.0799C129.573 91.0911 129.826 91.1852 130.032 91.3486C130.239 91.512 130.388 91.7365 130.46 91.9899C130.557 92.3025 130.536 92.6399 130.402 92.9383C130.267 93.2368 130.028 93.4757 129.73 93.6099H129.65C129.49 93.6585 129.323 93.6744 129.157 93.6566C128.991 93.6389 128.83 93.5879 128.685 93.5066C128.539 93.4254 128.411 93.3157 128.309 93.1839C128.207 93.0522 128.132 92.9012 128.09 92.7399Z" fill="#F49537"/>
<path d="M129.33 96.3299C129.264 96.1065 129.256 95.8698 129.306 95.6423C129.357 95.4148 129.465 95.204 129.62 95.0299C129.758 94.8681 129.938 94.7471 130.14 94.6799C130.299 94.6298 130.466 94.6124 130.632 94.6288C130.798 94.6453 130.958 94.6952 131.104 94.7756C131.25 94.8561 131.378 94.9653 131.48 95.0966C131.583 95.228 131.658 95.3788 131.7 95.5399C131.792 95.8732 131.76 96.2284 131.61 96.5399C131.46 96.8351 131.202 97.0609 130.89 97.1699C130.732 97.2204 130.566 97.2386 130.402 97.2234C130.237 97.2083 130.077 97.16 129.931 97.0816C129.786 97.0032 129.657 96.8962 129.554 96.767C129.451 96.6379 129.374 96.4892 129.33 96.3299Z" fill="#F49537"/>
<path d="M124.76 92.5899C124.989 92.8082 125.13 93.103 125.156 93.4183C125.182 93.7336 125.091 94.0473 124.9 94.2999C124.514 94.7882 123.981 95.139 123.38 95.2999C121.824 95.8613 120.145 95.9926 118.52 95.6799C118.196 95.5807 117.91 95.3854 117.7 95.1199C117.554 94.9189 117.427 94.7046 117.32 94.4799C117.19 94.2786 117.137 94.0373 117.17 93.7999C117.31 93.2599 118.27 93.6899 118.59 93.7199C119.262 93.7719 119.937 93.7145 120.59 93.5499C121.524 93.3043 122.442 93.0038 123.34 92.6499C123.699 92.4954 124.093 92.4402 124.48 92.4899C124.579 92.507 124.673 92.5408 124.76 92.5899Z" fill="#70C5C7"/>
<path d="M119.76 97.61C120.431 97.662 121.107 97.6046 121.76 97.44C122.693 97.1944 123.612 96.8939 124.51 96.54C124.736 96.4265 124.986 96.3674 125.24 96.3674C125.493 96.3674 125.743 96.4265 125.97 96.54C125.998 96.5618 126.022 96.589 126.04 96.62C126.234 96.8441 126.346 97.1279 126.357 97.4245C126.368 97.721 126.277 98.0123 126.1 98.25C125.716 98.7405 125.182 99.0917 124.58 99.25C123.023 99.8114 121.345 99.9427 119.72 99.63C119.442 99.5361 119.19 99.3787 118.983 99.1705C118.777 98.9622 118.621 98.7087 118.53 98.43L118.47 98.32C118.373 98.1467 118.338 97.9459 118.37 97.75C118.49 97.15 119.44 97.58 119.76 97.61Z" fill="#70C5C7"/>
<path d="M158.88 105.61L159.02 105.45L158.91 105.58L158.88 105.61Z" fill="#B09BCA"/>
<path d="M157.72 106.9C157.731 106.879 157.749 106.861 157.77 106.85C157.731 106.882 157.698 106.919 157.67 106.96C157.685 106.939 157.702 106.919 157.72 106.9Z" fill="#B09BCA"/>
<path d="M155.47 109L155.79 108.72L155.61 108.88L155.45 109.02L155.47 109Z" fill="#B09BCA"/>
<path d="M162.53 100.43V100.49L162.48 100.57V100.63L162.53 100.43Z" fill="#B09BCA"/>
<path d="M156.51 108.1L156.28 108.31L156.21 108.37C156.3 108.29 156.4 108.19 156.51 108.1Z" fill="#B09BCA"/>
<path d="M155.05 109.37L154.92 109.47L154.7 109.65C154.81 109.57 154.93 109.47 155.05 109.37Z" fill="#B09BCA"/>
<path d="M161.42 102.22V102.29L161.34 102.41C161.32 102.36 161.37 102.29 161.42 102.22Z" fill="#B09BCA"/>
<path d="M162 101.34L161.94 101.45L161.88 101.54L162 101.34Z" fill="#B09BCA"/>
<path d="M140.67 108.51C143.901 107.473 146.878 105.769 149.41 103.51C155.49 97.79 157.49 88.14 163.95 82.95C163.65 84.8433 163.276 86.72 162.83 88.58C162.031 91.9073 160.919 95.1518 159.51 98.27C158.129 101.361 156.347 104.255 154.21 106.88L153.66 107.53C150.69 110.611 147.174 113.113 143.29 114.91C142.92 115.05 142.54 115.2 142.16 115.33L140.16 116.06C140.626 115.94 141.096 115.8 141.57 115.64L141.07 115.8H140.95H140.81L140.27 115.96H140.05H139.97L139.47 116.09L139.16 116.16L138.66 116.26L138.35 116.32L137.83 116.4H137.54L136.92 116.48H136.75L135.94 116.56H135.77C135.56 116.56 135.34 116.56 135.12 116.56H133.12H132.58H132.29H131.69H131.47L130.82 116.49L130.38 116.43L129.79 116.34H129.6L128.96 116.22H128.71L128.13 116.09H128.01H127.85L127.27 115.94L127.01 115.88L126.39 115.7L126.18 115.64L125.42 115.4H125.35L124.72 115.18L124.34 115.05L123.64 114.79L123.45 114.71L122.8 114.45L122.57 114.35L121.95 114.08H121.89L121.71 114L121.08 113.71L120.95 113.64H120.88L120.18 113.28L120.05 113.22C119.48 112.92 118.91 112.61 118.34 112.28H118.27C118.02 112.14 117.76 111.99 117.51 111.83L117.35 111.74L116.7 111.33L116.49 111.2L115.86 110.79L115.67 110.67L115.01 110.21H114.95L114.85 110.14L114.05 109.57C123 111.2 132.11 111.49 140.67 108.51Z" fill="#B09BCA"/>
<path d="M107.82 9.78001L107.85 9.77001L107.86 9.76001L107.83 9.78001H107.82Z" fill="#B7ACD5"/>
<path d="M169.59 59.6299C168.43 60.6299 167.26 61.5799 166.08 62.5299C165.95 60.8599 165.78 59.1899 165.57 57.5299C165.139 54.0547 164.531 50.6036 163.75 47.1899C163.57 46.3299 163.34 45.4899 163.13 44.6399C162.92 43.7899 162.7 42.9499 162.45 42.1099C162.2 41.2699 161.97 40.4299 161.72 39.5999C161.47 38.7699 161.19 37.9399 160.92 37.1099C159.858 33.7943 158.623 30.5365 157.22 27.3499C155.821 24.1675 154.165 21.1041 152.27 18.1899C150.411 15.2783 148.149 12.6453 145.55 10.3699L144.55 9.53993C144.21 9.27993 143.86 9.03993 143.55 8.78993C143.24 8.53993 142.87 8.26993 142.5 8.05993L141.4 7.40993C141.222 7.29369 141.039 7.18688 140.85 7.08993L140.28 6.80993L139.14 6.24993L137.96 5.79993L137.37 5.56993L136.76 5.38993L135.53 4.99993L134.3 4.73993L133.69 4.61993L133.07 4.53993L131.83 4.37993C130.99 4.37993 130.16 4.24993 129.33 4.27993C128.93 4.27993 128.52 4.27993 128.12 4.27993C126.901 4.20953 125.679 4.20953 124.46 4.27993L125.02 4.14993H125.22L125.76 4.02993H125.94C126.51 3.90993 127.08 3.80993 127.65 3.70993L127.93 3.65993L128.41 3.58993H128.71L129.19 3.51993H129.45C129.73 3.51993 130.02 3.44993 130.3 3.42993H130.65H131.08H131.45H131.87H132.3H134.57H135.03H135.37L136.1 3.48993H136.45L136.91 3.54993H137.27L137.74 3.61993L138.07 3.67993L138.82 3.82993L139.09 3.88993L139.62 4.01993L139.95 4.10993L140.44 4.24993L140.75 4.33993L141.4 4.55993L141.65 4.63993L142.31 4.88993L142.6 5.00993L143.11 5.21993L143.42 5.35993L143.99 5.62993L144.21 5.73993L144.97 6.12993L145.22 6.27993L145.76 6.58993L146.04 6.76993L146.59 7.10993L146.83 7.26993L147.59 7.79993L147.77 7.92993L148.36 8.37993L148.63 8.59993L149.16 9.02993L149.41 9.24993C149.65 9.44993 149.89 9.66993 150.13 9.88993L150.2 9.94993C150.44 10.1699 150.68 10.3999 150.91 10.6399C150.998 10.7183 151.082 10.8018 151.16 10.8899C151.33 11.0599 151.51 11.2399 151.68 11.4299L151.93 11.6999C152.13 11.9099 152.33 12.1299 152.52 12.3599C152.578 12.4116 152.632 12.4685 152.68 12.5299C152.92 12.8099 153.17 13.0999 153.41 13.3999C153.482 13.4822 153.549 13.5691 153.61 13.6599L154.15 14.3399L154.39 14.6599L154.93 15.3899C154.99 15.4799 155.06 15.5699 155.12 15.6699C155.36 15.9999 155.6 16.3499 155.84 16.6699L155.98 16.8899C156.17 17.1799 156.36 17.4699 156.55 17.7799C156.62 17.8999 156.7 18.0199 156.78 18.1399L157.28 18.9699L157.49 19.3399C157.72 19.7299 157.95 20.1299 158.18 20.5499C158.41 20.9599 158.63 21.3899 158.86 21.8199L159.06 22.2199C159.23 22.5399 159.39 22.8599 159.55 23.2199C159.62 23.3599 159.69 23.5099 159.77 23.6599C159.95 24.0266 160.13 24.4066 160.31 24.7999L160.43 25.0699C160.65 25.5499 160.87 26.0699 161.09 26.5299L161.26 26.9399C161.42 27.3066 161.58 27.6866 161.74 28.0799L161.95 28.5899C162.11 28.9799 162.27 29.3799 162.42 29.7799C162.48 29.9299 162.54 30.0699 162.59 30.2199C162.8 30.7599 163.01 31.3099 163.22 31.8799C163.22 31.9899 163.29 32.0999 163.33 32.1999C163.5 32.6699 163.67 33.1399 163.83 33.6199L164.03 34.1899C164.17 34.6199 164.32 35.0499 164.46 35.4899C164.52 35.6799 164.59 35.8599 164.65 36.0499C164.84 36.6699 165.04 37.2899 165.24 37.9299C165.31 38.1799 165.39 38.4399 165.47 38.6899L165.92 40.2399L166.07 40.7599C166.16 41.1099 166.26 41.4499 166.35 41.7599C166.44 42.0699 166.46 42.1899 166.52 42.4099C166.58 42.6299 166.68 42.9999 166.75 43.2899L166.93 44.0199L167.13 44.8199L167.31 45.6099C167.37 45.8499 167.42 46.0899 167.48 46.3299L167.66 47.1699C167.71 47.3899 167.76 47.6099 167.8 47.8299C167.84 48.0499 167.93 48.4299 167.99 48.7299C168.05 49.0299 168.06 49.1099 168.1 49.2999C168.14 49.4899 168.22 49.9499 168.29 50.2999C168.29 50.4499 168.29 50.5999 168.37 50.7399C168.43 51.1099 168.5 51.4699 168.56 51.8299C168.56 51.9199 168.56 51.9999 168.56 52.0799L168.83 53.7799L168.95 54.5999C168.95 54.8799 169.02 55.1499 169.06 55.4199C169.1 55.6899 169.15 56.1199 169.2 56.4699L169.26 56.9699C169.31 57.3799 169.35 57.7999 169.4 58.2099C169.5 58.6799 169.55 59.1599 169.59 59.6299Z" fill="#B7ACD5"/>
<path d="M145.58 113.89L145.03 114.17C144.84 114.26 144.65 114.33 144.46 114.41L143.29 114.9C147.174 113.103 150.69 110.601 153.66 107.52C151.659 109.823 149.295 111.782 146.66 113.32L145.58 113.89Z" fill="#A28BC1"/>
<path d="M154.76 107.41C157.019 104.785 158.915 101.869 160.4 98.7401C161.922 95.5869 163.128 92.2908 164 88.9001C165.712 82.0698 166.496 75.0398 166.33 68.0001C166.33 66.1601 166.22 64.3301 166.08 62.5001C167.26 61.5001 168.43 60.5901 169.59 59.6001V59.9301C169.65 60.5701 169.7 61.2001 169.74 61.8401C169.74 61.9201 169.74 62.0001 169.74 62.0801L169.8 63.0201C169.8 63.1501 169.8 63.2801 169.8 63.4101C169.8 63.7101 169.8 64.0201 169.8 64.3301C169.8 64.4501 169.8 64.5701 169.8 64.6901C169.8 65.1801 169.8 65.6901 169.8 66.1601V66.2201V66.2901C169.8 66.7801 169.8 67.2901 169.8 67.7501V69.0001C169.805 69.0633 169.805 69.1269 169.8 69.1901V69.4001C169.8 69.6901 169.8 69.9801 169.8 70.2801C169.8 70.3901 169.8 70.5001 169.8 70.6101C169.8 71.0801 169.8 71.5501 169.75 72.0101V72.0701C169.75 72.5401 169.75 73.0101 169.67 73.4801C169.67 73.5901 169.67 73.7101 169.67 73.8301L169.61 74.6701V75.0801C169.61 75.3501 169.61 75.6101 169.54 75.8701V76.2401C169.54 76.6901 169.45 77.1301 169.4 77.5701C169.4 78.0101 169.3 78.4501 169.24 78.8901C169.24 79.0001 169.24 79.1201 169.24 79.2301V79.2901C169.24 79.5401 169.17 79.7901 169.14 80.0401V80.2401C169.135 80.32 169.135 80.4002 169.14 80.4801L169.02 81.2301C169.02 81.3701 169.02 81.5001 168.95 81.6401C168.86 82.1701 168.77 82.6401 168.67 83.2101V83.2901C168.67 83.2901 168.67 83.3801 168.67 83.4201L168.52 84.1301L168.46 84.4201V84.5901L168.31 85.2601C168.31 85.4101 168.24 85.5601 168.2 85.7101C168.2 85.8101 168.2 85.9101 168.13 86.0001C168.109 86.1147 168.083 86.2282 168.05 86.3401L167.93 86.8101C167.84 87.2001 167.73 87.5801 167.63 87.9601C167.63 88.1301 167.54 88.2901 167.5 88.4501V88.5101C167.5 88.6901 167.39 88.8701 167.34 89.0401L167.19 89.5401C167.19 89.7401 167.08 89.9301 167.01 90.1301L166.86 90.6201C166.81 90.8001 166.75 90.9701 166.69 91.1501C166.63 91.3301 166.56 91.5001 166.5 91.6801L166.41 91.9401L166.29 92.2801L166 93.0001C165.93 93.1901 165.86 93.3801 165.78 93.5701C165.72 93.7401 165.65 93.9001 165.59 94.0601C165.53 94.2301 165.46 94.4001 165.39 94.5701C165.32 94.7301 165.25 94.9001 165.19 95.0601C165.161 95.1418 165.128 95.2219 165.09 95.3001L164.97 95.5901V95.6701C164.941 95.7518 164.908 95.8319 164.87 95.9101V96.0001C164.77 96.2301 164.66 96.4601 164.56 96.6801L164.31 97.2201C164.25 97.3301 164.2 97.4301 164.15 97.5401C164.135 97.5744 164.119 97.6078 164.1 97.6401L164.01 97.8201L163.95 97.9401L163.8 98.2301L163.68 98.4601L163.6 98.6201L163.53 98.7501V98.8301C163.48 98.9401 163.42 99.0501 163.36 99.1601L163.3 99.2601L163.23 99.3901L163.12 99.5801L163.06 99.6901L162.98 99.8201L162.85 100.05L162.7 100.31L162.58 100.51L162.36 100.89L162.29 101C162.29 101 162.22 101.11 162.18 101.17L162.05 101.38L161.85 101.7L161.62 102.05C161.62 102.12 161.52 102.19 161.48 102.26C161.411 102.353 161.348 102.45 161.29 102.55L161.06 102.89C161.03 102.924 161.003 102.961 160.98 103L160.92 103.08L160.7 103.39L160.52 103.63L160.47 103.7L160.37 103.83L159.94 104.39L159.86 104.49L159.78 104.59L159.35 105.11L159.29 105.19L159.15 105.35L158.74 105.81C158.696 105.869 158.65 105.926 158.6 105.98L158.54 106.04L158.12 106.5C158.099 106.511 158.081 106.529 158.07 106.55C158.032 106.582 157.998 106.619 157.97 106.66L157.89 106.73L157.54 107.09C157.45 107.17 157.37 107.26 157.29 107.34H157.24C157.18 107.41 157.11 107.47 157.05 107.53C156.989 107.578 156.932 107.632 156.88 107.69C156.77 107.78 156.67 107.88 156.57 107.98L156.45 108.09L156.32 108.21L156.17 108.33L155.85 108.61L155.64 108.78L155.47 108.92C155.35 109.02 155.23 109.12 155.1 109.21L155.01 109.28L154.8 109.43L154.41 109.73L154.27 109.83L154.1 109.95L153.7 110.22L153.6 110.29L153.33 110.46L152.9 110.73H152.83L152.65 110.84H152.58H152.52L152.07 111.1L151.88 111.2H151.82H151.71C151.56 111.29 151.4 111.37 151.24 111.45L151.02 111.56H150.92L150.78 111.62L150.34 111.83L150.19 111.9H150.12L149.91 111.99L149.41 112.2H149.32L149.1 112.29L148.24 112.6L146.58 113.18L147.58 112.7C150.235 111.323 152.658 109.538 154.76 107.41Z" fill="#A28BC1"/>
<path d="M140.2 116.05L142.2 115.32C142.58 115.19 142.96 115.04 143.33 114.9L144.5 114.41C144.69 114.33 144.88 114.26 145.07 114.17L145.62 113.89L146.71 113.32C149.345 111.782 151.71 109.823 153.71 107.52L154.26 106.87C156.398 104.246 158.18 101.351 159.56 98.2601C160.97 95.1419 162.081 91.8975 162.88 88.5701C163.327 86.7101 163.7 84.8334 164 82.9401C164.754 78.0177 165.068 73.0381 164.94 68.0601C164.94 66.5901 164.83 65.1201 164.73 63.6501C164.73 63.0701 164.64 62.4901 164.59 61.9201C164.47 60.5201 164.32 59.1301 164.14 57.7501C163.706 54.3275 163.095 50.9296 162.31 47.5701C162.14 46.7301 161.91 45.9001 161.71 45.0601C161.51 44.2201 161.29 43.3901 161.05 42.5701C160.81 41.7501 160.59 40.9101 160.34 40.0901C160.09 39.2701 159.82 38.4501 159.56 37.6301C158.56 34.3401 157.3 31.1401 155.96 28.0001C154.623 24.8783 153.038 21.8687 151.22 19.0001C149.449 16.1701 147.303 13.5932 144.84 11.3401L143.91 10.5301C143.6 10.2701 143.26 10.0401 142.91 9.79009C142.56 9.54009 142.27 9.28009 141.91 9.07009L140.91 8.43009C140.74 8.32009 140.57 8.21009 140.39 8.11009L139.85 7.84009L138.77 7.28009L137.65 6.82009L137 6.60009L136.43 6.41009L135.3 6.00009L134.12 5.72009L133.53 5.59009L132.94 5.49009L131.74 5.31009C130.133 5.13664 128.514 5.09317 126.9 5.18009C125.273 5.26574 123.653 5.45613 122.05 5.75009C120.45 6.03009 118.85 6.41009 117.27 6.84009C114.1 7.70009 110.97 8.75009 107.83 9.74009L108.11 9.64009L110.24 9.00009L112.24 8.33009L114 7.66009L115.8 7.00009L117.5 6.42009L117.73 6.34009L119.38 5.80009L119.57 5.74009C120.33 5.54009 121.1 5.35009 121.87 5.19009C123.485 4.82815 125.122 4.57094 126.77 4.42009L128.01 4.34009C128.41 4.34009 128.82 4.34009 129.22 4.34009C130.05 4.34009 130.88 4.40009 131.72 4.44009L132.96 4.60009L133.58 4.68009L134.19 4.80009L135.42 5.06009L136.63 5.41009L137.24 5.59009L137.83 5.82009L139.01 6.27009L140.15 6.83009L140.72 7.11009C140.909 7.20703 141.092 7.31385 141.27 7.43009L142.37 8.08009C142.74 8.29009 143.07 8.57009 143.42 8.81009C143.77 9.05009 144.12 9.30009 144.42 9.56009L145.42 10.3901C148.019 12.6655 150.282 15.2984 152.14 18.2101C154.036 21.1243 155.691 24.1877 157.09 27.3701C158.493 30.5567 159.728 33.8145 160.79 37.1301C161.06 37.9601 161.34 38.7801 161.59 39.6201C161.84 40.4601 162.08 41.2901 162.32 42.1301C162.56 42.9701 162.79 43.8101 163 44.6601C163.21 45.5101 163.44 46.3501 163.62 47.2101C164.401 50.6238 165.009 54.0749 165.44 57.5501C165.65 59.2101 165.82 60.8801 165.95 62.5501C166.09 64.3801 166.18 66.2101 166.2 68.0501C166.404 75.0673 165.664 82.08 164 88.9001C163.134 92.2901 161.935 95.5861 160.42 98.7401C158.935 101.869 157.039 104.785 154.78 107.41C152.541 109.959 149.866 112.089 146.88 113.7L145.88 114.18L141.88 115.54C141.789 115.576 141.695 115.606 141.6 115.63C141.133 115.79 140.667 115.93 140.2 116.05Z" fill="#9074B2"/>
<path d="M88.07 33C86.0901 35.4375 84.8851 38.4118 84.61 41.54V41.63V42V42.1C84.61 42.44 84.55 42.78 84.52 43.1C84.52 43.2 84.52 43.3 84.52 43.41C84.52 43.52 84.52 43.9 84.52 44.15C84.52 44.25 84.52 44.36 84.52 44.46C84.52 44.78 84.52 45.1 84.52 45.46V45.51C84.52 45.84 84.52 46.18 84.52 46.51C84.52 46.62 84.52 46.71 84.52 46.82C84.52 46.93 84.52 47.29 84.59 47.53V47.83C84.59 48.12 84.66 48.42 84.7 48.7C84.6953 48.7197 84.6953 48.7403 84.7 48.76C84.7 48.58 84.7 48.39 84.62 48.21C84.54 48.03 84.62 48.11 84.62 48.06L84.56 47.59C84.5655 47.5268 84.5655 47.4632 84.56 47.4C84.56 47.23 84.56 47.06 84.56 46.89C84.56 46.72 84.56 46.81 84.56 46.77C84.56 46.56 84.56 46.35 84.56 46.15V45.98C84.56 45.82 84.56 45.66 84.56 45.5C84.565 45.4334 84.565 45.3666 84.56 45.3V44.66C84.56 44.44 84.56 44.23 84.56 44.02C84.5551 43.9601 84.5551 43.8999 84.56 43.84C84.56 43.68 84.56 43.52 84.56 43.35C84.56 43.18 84.56 43.23 84.56 43.16C84.56 43.09 84.56 42.77 84.56 42.57V42.51L84.62 41.87C84.6244 41.8134 84.6244 41.7566 84.62 41.7C84.62 41.53 84.62 41.37 84.69 41.21V41.03C84.69 40.81 84.75 40.6 84.79 40.39C84.79 40.18 84.87 39.97 84.92 39.75V39.59L85.04 39.11C85.0352 39.0534 85.0352 38.9966 85.04 38.94C85.09 38.73 85.15 38.53 85.21 38.32C85.27 38.12 85.33 37.92 85.4 37.72C85.4122 37.6654 85.4289 37.6118 85.45 37.56C85.45 37.41 85.56 37.25 85.62 37.1C85.6158 37.0501 85.6158 36.9999 85.62 36.95L86 36.3C86.0698 36.1221 86.15 35.9485 86.24 35.78L86.31 35.63C86.38 35.48 86.46 35.34 86.53 35.2C86.557 35.1623 86.5805 35.1221 86.6 35.08L86.91 34.55V34.49C87.01 34.34 87.1 34.19 87.21 34.05L87.3 33.92C87.39 33.79 87.49 33.66 87.59 33.54C87.6133 33.501 87.6401 33.4642 87.67 33.43C87.7834 33.29 87.9034 33.15 88.03 33.01L88.07 33Z" fill="#685CA5"/>
<path d="M137.47 36.3101C130.441 36.918 123.384 37.1517 116.33 37.0101C107.218 36.8553 98.156 35.6302 89.33 33.3601C88.5676 34.3825 87.914 35.4818 87.38 36.6401C85.6394 40.5118 85.0593 44.8053 85.71 49.0001C89.4834 50.0134 93.2467 50.9568 97 51.8301C97 51.6701 97 51.5001 96.94 51.3401C96.9351 51.3036 96.9351 51.2666 96.94 51.2301C96.94 51.0701 96.94 50.9101 96.94 50.7601V50.7001C96.94 50.5601 96.94 50.4201 96.94 50.2801V49.6701C96.94 49.5401 96.94 49.4201 96.94 49.2901V49.2201C96.94 49.0801 96.94 48.9501 96.94 48.8201C96.94 48.6901 96.94 48.8201 96.94 48.7401L97 48.3701C97 48.2401 97.06 48.1201 97.08 48.0101V47.9301C97.08 47.8201 97.15 47.7001 97.18 47.6001C97.18 47.5001 97.25 47.4001 97.29 47.3001C97.3307 47.2039 97.3774 47.1103 97.43 47.0201L97.58 46.7901L97.76 46.5801L97.94 46.4101C98.0041 46.3523 98.0745 46.3019 98.15 46.2601L98.38 46.1601C99.54 45.7601 100.97 46.7901 102.18 48.6601L102.27 48.8001C102.4 49.0101 102.53 49.2301 102.65 49.4501L102.83 49.7901C102.97 50.0601 103.09 50.3401 103.22 50.6201C103.31 50.8201 103.39 51.0201 103.47 51.2201L103.59 51.5401C103.59 51.6301 103.66 51.7301 103.69 51.8301L103.87 52.3601V52.4101L103.99 52.8601C104.05 53.0501 104.09 53.2501 104.14 53.4401V53.5701C114.01 55.5613 123.977 57.0399 134 58.0001C134.44 57.5101 134.87 57.0001 135.28 56.4901C137.461 53.7646 138.841 50.4858 139.265 47.0208C139.689 43.5557 139.14 40.041 137.68 36.8701C137.62 36.6601 137.54 36.4901 137.47 36.3101ZM122.3 46.0901C123.54 50.1601 123.1 53.9601 121.3 54.5801C119.5 55.2001 117.04 52.4101 115.79 48.3301C114.94 45.5601 114.88 42.9101 115.5 41.3301C115.593 41.005 115.757 40.7046 115.98 40.4505C116.203 40.1963 116.48 39.9947 116.79 39.8601C118.59 39.2201 121.05 42.0001 122.3 46.0901Z" fill="#685CA5"/>
<path d="M116.8 39.8401C118.59 39.2201 121.05 42.0201 122.3 46.0901C121.05 42.0001 118.59 39.2201 116.8 39.8401Z" fill="#A3D8E2"/>
<path d="M121.31 54.5801C119.51 55.2001 117.05 52.4101 115.8 48.3301C114.95 45.5601 114.89 42.9101 115.51 41.3301C114.89 42.9301 114.95 45.5801 115.8 48.3301C117.05 52.4001 119.51 55.2001 121.3 54.5801C123.09 53.9601 123.54 50.1601 122.3 46.0901C123.54 50.1601 123.1 54.0001 121.31 54.5801Z" fill="#A3D8E2"/>
<path d="M137.26 25.2899C136.556 27.0325 136.215 28.9008 136.26 30.7799C123.295 32.211 110.183 31.5186 97.4399 28.7299H97.5199L98.1199 28.5799L98.3599 28.5199L98.8399 28.3999L99.0899 28.3299L99.5699 28.1899L99.7999 28.1299L100.48 27.9099L100.91 27.7699L101.67 27.4899L102.43 27.2099L103.43 26.8299L104.17 26.5299L105.17 26.1199L105.88 25.8199L106.88 25.3699L107.55 25.0699L108.39 24.6999L110.9 23.5599L111.16 23.4399L112.57 22.8199L113.13 22.5699L114.13 22.1299C121.656 24.2995 129.458 25.3573 137.29 25.2699L137.26 25.2899Z" fill="#685CA5"/>
<path d="M99.2301 58.0699C100.46 60.0199 101.93 61.0699 103.12 60.6899C103.379 60.5853 103.615 60.4296 103.812 60.232C104.01 60.0344 104.165 59.799 104.27 59.5399C112.072 61.7076 120.099 62.9594 128.19 63.2699H128.14C125.483 65.1968 122.559 66.7262 119.46 67.8099C110.77 66.7199 99.6001 64.4599 90.1701 59.7499C89.9901 59.5299 89.8301 59.2899 89.6601 59.0599C88.4533 57.3247 87.494 55.4298 86.8101 53.4299C90.8644 55.2052 95.0141 56.7543 99.2401 58.0699H99.2301Z" fill="#685CA5"/>
<path d="M104.26 59.5301C104.156 59.7892 104 60.0245 103.802 60.2221C103.605 60.4197 103.369 60.5754 103.11 60.6801C101.92 61.0901 100.45 60.0101 99.2202 58.0601C100.8 58.5601 102.467 59.0501 104.22 59.5301H104.26Z" fill="#A3D8E2"/>
<path d="M104.44 53.49C101.973 52.9767 99.5067 52.4367 97.04 51.87C96.63 48.87 97.21 46.46 98.61 45.97C100.01 45.48 102.11 47.35 103.44 50.4C103.53 50.6 103.61 50.8 103.69 51L103.81 51.32C103.81 51.41 103.88 51.51 103.91 51.61L104.09 52.14V52.19V52.24L104.21 52.69C104.27 52.88 104.31 53.08 104.36 53.27V53.4L104.44 53.49Z" fill="#A3D8E2"/>
<path d="M84.7002 48.72L85.7002 49C85.9206 50.4997 86.2788 51.976 86.7702 53.41C86.3402 53.22 85.9802 53.06 85.7002 52.92V52.87L85.5802 52.5L85.5002 52.27C85.5002 52.14 85.4302 52.01 85.3902 51.89L85.3002 51.55L85.1602 51C85.1602 50.89 85.1602 50.79 85.0802 50.68C84.9302 50.08 84.8002 49.41 84.7002 48.72Z" fill="#4B407D"/>
<path d="M108.93 69.45C112.482 69.5782 116.027 69.0389 119.38 67.8601C122.03 68.1901 124.45 68.41 126.52 68.56C125.274 69.1684 123.991 69.6994 122.68 70.1501C118.002 71.8192 112.988 72.3271 108.07 71.63C104.144 70.9905 100.394 69.542 97.0581 67.3764C93.7219 65.2108 90.8722 62.3754 88.6899 59.05L90.1899 59.82C92.4272 62.6894 95.2625 65.0372 98.4987 66.7002C101.735 68.3632 105.294 69.3016 108.93 69.45Z" fill="#4B407D"/>
<path d="M84.7001 48.6899C84.6954 48.6702 84.6954 48.6496 84.7001 48.6299C84.6944 48.6562 84.6944 48.6835 84.7001 48.7099V48.6899Z" fill="#4B407D"/>
<path d="M88.0698 33.0001C88.8094 32.1694 89.6895 31.4755 90.6698 30.9501H90.7298C91.3549 30.6327 91.9995 30.3555 92.6598 30.1201C91.374 31.0256 90.2399 32.1293 89.2998 33.3901L88.0698 33.0001Z" fill="#4B407D"/>
<path d="M87.3701 36.64C85.6329 40.5127 85.0562 44.8062 85.7101 49L84.7101 48.72C84.7045 48.6936 84.7045 48.6664 84.7101 48.64C84.7101 48.36 84.6301 48.06 84.6001 47.77V47.47C84.6001 47.23 84.6001 46.99 84.5301 46.76C84.4601 46.53 84.5301 46.56 84.5301 46.45C84.5301 46.13 84.5301 45.79 84.5301 45.45V45.4C84.5301 45.08 84.5301 44.76 84.5301 44.4C84.5301 44.3 84.5301 44.19 84.5301 44.09C84.5301 43.84 84.5301 43.59 84.5301 43.35C84.5301 43.11 84.5301 43.14 84.5301 43.04C84.5301 42.7 84.5801 42.36 84.6201 42.04V42V41.86V41.77C84.8468 38.5628 86.0509 35.502 88.0701 33L89.3201 33.35C88.5571 34.3756 87.9035 35.4783 87.3701 36.64Z" fill="#56488C"/>
<path d="M137.28 25.2499C137.789 24.0197 138.521 22.8941 139.44 21.9299C140.108 22.4276 140.736 22.9759 141.32 23.5699C140.624 24.0013 140.014 24.5573 139.52 25.2099C138.77 25.2099 138.02 25.2799 137.26 25.2899L137.28 25.2499Z" fill="#4B407D"/>
<path d="M140.34 36.0001L137.45 36.2601C137.038 35.3151 136.727 34.3298 136.52 33.3201C136.347 32.4872 136.25 31.6404 136.23 30.7901L138.23 30.5601C138.489 32.5157 139.213 34.3809 140.34 36.0001Z" fill="#4B407D"/>
<path d="M128.18 63.26C128.7 62.88 129.18 62.49 129.72 62.09C131.257 60.8465 132.688 59.4785 134 58C135.82 58.18 137.63 58.35 139.45 58.5C138.79 59.29 138.09 60.05 137.38 60.78C136.96 61.2 136.54 61.61 136.1 62.02L136.03 62.09C135.61 62.48 135.18 62.85 134.74 63.22C132.53 63.35 130.32 63.37 128.14 63.3L128.18 63.26Z" fill="#4B407D"/>
<path d="M134 58.0001C134.44 57.5101 134.87 57.0001 135.28 56.4901C137.461 53.7646 138.841 50.4858 139.265 47.0207C139.689 43.5557 139.14 40.041 137.68 36.8701C137.6 36.7001 137.52 36.5301 137.45 36.3501L140.34 36.0901C141.95 38.4501 144.54 40.4101 147.19 40.2001C147.19 40.4401 147.19 40.6701 147.19 40.9101V41.3501C147.195 41.4367 147.195 41.5235 147.19 41.6101V41.7001V41.7801C146.88 44.3079 146.235 46.7831 145.27 49.1401V49.2201V49.3001V49.3801L145.17 49.6201V49.6801V49.7401V49.8001V49.8601V49.9301V49.9901L145.12 50.1001V50.1601V50.2201C144.92 50.6301 144.71 51.0401 144.5 51.4501L144.3 51.8101C144.14 52.1101 143.97 52.4101 143.8 52.7001C143.73 52.8201 143.66 52.9301 143.6 53.0501C143.36 53.4401 143.12 53.8301 142.87 54.2101L142.82 54.2801C142.59 54.6401 142.34 55.0001 142.09 55.3501L141.85 55.6901C141.65 55.9601 141.45 56.2401 141.24 56.5001L141 56.8201C140.72 57.1701 140.45 57.5201 140.16 57.8201C138.34 57.6701 136.53 57.5001 134.71 57.3201L134 58.0001Z" fill="#56488C"/>
<path d="M139.52 25.21C138.662 26.3702 138.183 27.7673 138.15 29.21C138.115 29.6559 138.115 30.104 138.15 30.55L136.15 30.78C136.105 28.9009 136.446 27.0326 137.15 25.29C138 25.28 138.77 25.25 139.52 25.21Z" fill="#56488C"/>
<path d="M119.4 67.85C122.498 66.7663 125.422 65.2369 128.08 63.31C130.26 63.38 132.47 63.36 134.68 63.23L133.97 63.82L133.91 63.87H133.86H133.81H133.75L133.64 63.97L133.52 64.06H133.46H133.4H133.35H133.3L132.3 64.81L132.06 64.97L131.01 65.66L130.85 65.76C130.53 65.96 130.21 66.16 129.85 66.35L129.63 66.48C129.28 66.69 128.91 66.89 128.55 67.08L128.31 67.21L127.31 67.73L127.18 67.8C125.11 67.65 122.69 67.43 120.04 67.1L119.4 67.85Z" fill="#56488C"/>
<path d="M86.8002 53.45C87.4842 55.4499 88.4434 57.3448 89.6502 59.08C89.8202 59.31 89.9802 59.55 90.1602 59.77L88.6602 59L88.5102 58.75L88.3102 58.44L88.0002 58C88.0002 57.9 87.8902 57.8 87.8302 57.7C87.7702 57.6 87.6002 57.29 87.4802 57.07L87.3902 56.9C87.2402 56.63 87.1102 56.36 86.9702 56.08L86.8502 55.81L86.5802 55.24C86.5802 55.13 86.4902 55.01 86.4402 54.9C86.3902 54.79 86.2902 54.56 86.2202 54.38L86.1002 54C86.0302 53.83 85.9702 53.65 85.9102 53.48C85.8502 53.31 85.8202 53.24 85.7802 53.12L85.7202 53C86.0002 53.1 86.3702 53.26 86.8002 53.45Z" fill="#56488C"/>
<path d="M147.21 40.16C147.51 40.1427 147.808 40.0958 148.1 40.02C148.967 39.796 149.771 39.3751 150.45 38.79C154.2 35.5 151.59 27.79 148.57 24.59C147.588 23.503 146.229 22.8308 144.77 22.71C143.566 22.6336 142.368 22.9305 141.34 23.56C140.644 23.9914 140.034 24.5474 139.54 25.2C138.682 26.3603 138.203 27.7573 138.17 29.2C138.135 29.646 138.135 30.094 138.17 30.54C138.444 32.5079 139.188 34.3807 140.34 36C142 38.41 144.56 40.37 147.21 40.16ZM141.53 30.64C140.83 27.73 142.4 25.18 145.08 25.21C147.22 25.21 149 28.3 149.55 30.34C149.9 31.5179 149.9 32.7721 149.55 33.95C149.397 34.4967 149.101 34.9922 148.691 35.3846C148.281 35.777 147.773 36.0518 147.22 36.18C146.564 36.1922 145.915 36.0533 145.322 35.7741C144.729 35.4949 144.208 35.0829 143.8 34.57C142.701 33.49 141.916 32.1315 141.53 30.64Z" fill="#EFE7F4"/>
<path d="M145.08 25.21C147.22 25.21 149 28.3 149.55 30.34C149.9 31.5179 149.9 32.7721 149.55 33.95C149.398 34.4967 149.101 34.9922 148.691 35.3846C148.281 35.777 147.773 36.0517 147.22 36.18C146.565 36.1921 145.915 36.0532 145.322 35.774C144.729 35.4948 144.208 35.0828 143.8 34.57C142.69 33.4935 141.895 32.1348 141.5 30.64C140.83 27.73 142.4 25.18 145.08 25.21Z" fill="#FDF6FA"/>
</g>
<defs>
<clipPath id="clip0_369_7888">
<rect width="170" height="140" fill="white"/>
</clipPath>
</defs>
</svg>
