<svg width="170" height="140" viewBox="0 0 170 140" fill="none" xmlns="http://www.w3.org/2000/svg">
<g clip-path="url(#clip0_369_7686)">
<path d="M103.79 107.075C103.768 107.337 103.678 107.588 103.529 107.802C103.381 108.016 103.179 108.187 102.944 108.295L101.452 109.168V107.237L98.4675 105.474L95.5397 107.208L97.2136 108.203L98.4732 107.457L99.7839 108.237L98.5243 108.977L95.5397 107.208V107.312L94.1099 106.468C93.996 106.038 93.8241 105.625 93.5992 105.243L94.5524 104.665V102.687L91.5736 100.953L90.8984 101.346V100.537L87.9195 98.7677L87.2499 99.1608V98.3745L84.2597 96.6055L81.3319 98.3399V98.8197L80.9291 98.5769L77.9956 100.311V100.791L77.5871 100.548L74.6592 102.283V102.763L74.2507 102.52L71.3172 104.254V104.734L70.9144 104.491L67.9809 106.226V106.7L67.5724 106.463L64.6389 108.197V108.677L64.236 108.434L61.3025 110.168V110.654L60.894 110.411L57.9662 112.146V112.625L57.5577 112.383L54.6299 114.117V114.603L54.2157 114.36L51.2879 116.094V116.574L50.8793 116.331L47.9458 118.066V118.54L47.5487 118.303L44.6095 120.037V120.517L44.201 120.274L41.2732 122.008V122.494L40.8703 122.251L37.9368 123.986V125.755L36.4332 124.864L33.4941 126.599V128.408L32.1039 127.587C31.8729 127.479 31.6738 127.311 31.5264 127.1C31.3791 126.889 31.2886 126.643 31.2642 126.385V128.362C31.2864 128.621 31.3759 128.868 31.5235 129.08C31.6712 129.291 31.8715 129.459 32.1039 129.565L49.1261 139.653C49.7611 139.98 50.4628 140.151 51.1744 140.151C51.886 140.151 52.5877 139.98 53.2227 139.653L102.91 110.417C103.145 110.31 103.347 110.141 103.497 109.927C103.647 109.714 103.738 109.464 103.761 109.203C103.795 108.394 103.795 107.734 103.79 107.075Z" fill="#ADBFCF"/>
<path d="M102.95 105.879L85.9275 95.7904C85.2932 95.4641 84.5925 95.2942 83.882 95.2942C83.1714 95.2942 82.4708 95.4641 81.8365 95.7904L32.1319 125.021C30.9971 125.686 30.9971 126.755 32.1319 127.437L49.154 137.526C49.7868 137.854 50.4867 138.025 51.1967 138.025C51.9066 138.025 52.6065 137.854 53.2393 137.526L102.938 108.295C104.073 107.631 104.073 106.544 102.95 105.879Z" fill="#F9FAFD"/>
<path d="M84.2369 96.6055L87.2271 98.3745L84.2993 100.097L81.3091 98.3283L84.2369 96.6055Z" fill="#114369"/>
<path d="M80.9061 98.5654L83.8907 100.335L80.9572 102.057L77.9727 100.294L80.9061 98.5654Z" fill="#114369"/>
<path d="M77.564 100.531L80.5543 102.294L77.6265 104.023L74.6362 102.254L77.564 100.531Z" fill="#114369"/>
<path d="M84.5604 100.733L87.5393 102.497L84.6115 104.22L81.627 102.456L84.5604 100.733Z" fill="#114369"/>
<path d="M91.5507 100.936L94.5295 102.699L91.6017 104.422L88.6172 102.659L91.5507 100.936Z" fill="#114369"/>
<path d="M74.2333 102.491L77.2178 104.26L74.2843 105.983L71.2998 104.214L74.2333 102.491Z" fill="#114369"/>
<path d="M88.2142 102.896L91.1931 104.659L88.2653 106.387L85.2808 104.618L88.2142 102.896Z" fill="#114369"/>
<path d="M70.8973 104.451L73.8876 106.22L70.9484 107.948L67.9639 106.179L70.8973 104.451Z" fill="#114369"/>
<path d="M84.8778 104.861L87.8624 106.625L84.9289 108.347L81.9443 106.584L84.8778 104.861Z" fill="#114369"/>
<path d="M67.5609 106.417L70.5455 108.186L67.612 109.908L64.6274 108.139L67.5609 106.417Z" fill="#114369"/>
<path d="M76.4632 105.491L79.4478 107.261L71.2601 112.071L68.2812 110.307L76.4632 105.491Z" fill="#114369"/>
<path d="M60.8883 110.342L63.8728 112.111L60.945 113.834L57.9604 112.065L60.8883 110.342Z" fill="#114369"/>
<path d="M67.8785 110.544L70.863 112.307L67.9296 114.036L64.9507 112.267L67.8785 110.544Z" fill="#114369"/>
<path d="M80.3841 107.815L83.8396 109.862L85.8256 111.036L86.8242 111.631L81.8821 114.533L78.8919 112.77L80.4125 111.874L76.957 109.827L80.3841 107.815Z" fill="#114369"/>
<path d="M57.5518 112.302L60.5364 114.071L57.6086 115.799L54.624 114.025L57.5518 112.302Z" fill="#114369"/>
<path d="M64.5421 112.504L67.5209 114.273L64.5988 115.996L61.6143 114.227L64.5421 112.504Z" fill="#114369"/>
<path d="M69.2857 114.03L72.2703 115.799L69.3368 117.522L66.3579 115.753L69.2857 114.03Z" fill="#114369"/>
<path d="M54.21 114.267L57.2003 116.036L54.2724 117.759L51.2822 115.99L54.21 114.267Z" fill="#114369"/>
<path d="M61.2061 114.47L64.1907 116.233L61.2572 117.956L58.2783 116.193L61.2061 114.47Z" fill="#114369"/>
<path d="M65.9891 115.967L68.9737 117.736L66.0345 119.459L63.0557 117.696L65.9891 115.967Z" fill="#114369"/>
<path d="M50.8793 116.227L53.8695 117.996L50.936 119.725L47.9458 117.956L50.8793 116.227Z" fill="#114369"/>
<path d="M57.8697 116.43L60.8486 118.199L57.9208 119.922L54.9419 118.153L57.8697 116.43Z" fill="#114369"/>
<path d="M80.4918 116.083L83.4763 117.846L77.6491 121.274L74.6646 119.511L80.4918 116.083Z" fill="#114369"/>
<path d="M62.6925 117.91L65.677 119.673L62.7435 121.402L59.7646 119.632L62.6925 117.91Z" fill="#114369"/>
<path d="M47.5485 118.193L50.5331 119.956L47.5996 121.685L44.6094 119.916L47.5485 118.193Z" fill="#114369"/>
<path d="M54.5388 118.389L57.5176 120.158L54.5842 121.887L51.5996 120.118L54.5388 118.389Z" fill="#114369"/>
<path d="M59.3902 119.852L62.3691 121.615L59.4413 123.338L56.4624 121.575L59.3902 119.852Z" fill="#114369"/>
<path d="M44.2066 120.153L47.1912 121.922L44.2634 123.645L41.2788 121.876L44.2066 120.153Z" fill="#114369"/>
<path d="M51.1969 120.355L54.1814 122.119L51.2479 123.847L48.269 122.078L51.1969 120.355Z" fill="#114369"/>
<path d="M56.0993 121.789L59.0782 123.552L56.1447 125.281L53.1602 123.512L56.0993 121.789Z" fill="#114369"/>
<path d="M40.8759 122.118L43.8604 123.887L40.9326 125.605L37.9424 123.841L40.8759 122.118Z" fill="#114369"/>
<path d="M47.8604 122.315L50.845 124.084L47.9172 125.807L44.9326 124.044L47.8604 122.315Z" fill="#114369"/>
<path d="M52.7969 123.731L55.7815 125.495L52.8537 127.218L49.8691 125.454L52.7969 123.731Z" fill="#114369"/>
<path d="M36.4445 124.72L39.4291 126.489L36.4956 128.218L33.5054 126.449L36.4445 124.72Z" fill="#114369"/>
<path d="M49.5006 125.668L52.4851 127.437L49.5516 129.16L46.5728 127.391L49.5006 125.668Z" fill="#114369"/>
<path d="M74.3016 119.725L77.2804 121.494L62.9592 129.918L59.9746 128.154L74.3016 119.725Z" fill="#114369"/>
<path d="M44.3822 124.362L47.3668 126.131L40.1437 130.38L37.1592 128.611L44.3822 124.362Z" fill="#114369"/>
<path d="M46.1922 127.616L49.171 129.38L43.7977 132.542L40.8188 130.779L46.1922 127.616Z" fill="#114369"/>
<path d="M59.5208 128.42L62.4997 130.189L57.5576 133.097L54.5674 131.328L59.5208 128.42Z" fill="#114369"/>
<path d="M53.9656 131.687L56.9502 133.456L51.1229 136.878L48.144 135.115L53.9656 131.687Z" fill="#114369"/>
<path d="M87.8966 98.7678L90.8754 100.537L87.9476 102.26L84.9688 100.491L87.8966 98.7678Z" fill="#114369"/>
<path d="M81.224 102.693L84.2029 104.462L81.2751 106.185L78.2905 104.416L81.224 102.693Z" fill="#114369"/>
<path d="M98.4561 105.474L101.441 107.237L98.5129 108.966L95.5283 107.197L98.4561 105.474Z" fill="#114369"/>
<path d="M95.1366 107.422L95.5395 107.665L98.1211 109.191L95.1933 110.914L92.2031 109.145L92.5038 108.972L95.1366 107.422Z" fill="#114369"/>
<path d="M91.9139 105.474L92.3111 105.705L94.8985 107.237L91.965 108.966L88.9805 107.197L89.2812 107.018L91.9139 105.474Z" fill="#114369"/>
<path d="M64.2247 108.376L67.2149 110.145L64.2814 111.868L61.2969 110.099L64.2247 108.376Z" fill="#114369"/>
<path d="M91.9139 109.319L94.8985 111.088L91.965 112.816L88.9805 111.047L91.9139 109.319Z" fill="#114369"/>
<path d="M75.879 110.151L78.8635 111.914L75.9357 113.637L72.9512 111.874L75.879 110.151Z" fill="#114369"/>
<path d="M72.5826 112.088L75.5671 113.857L72.6393 115.58L69.6548 113.811L72.5826 112.088Z" fill="#114369"/>
<path d="M87.142 112.169L90.1265 113.938L84.078 117.493L81.0991 115.73L87.142 112.169Z" fill="#114369"/>
<path d="M55.0214 126.726L58.0059 128.495L55.0781 130.224L52.0879 128.455L55.0214 126.726Z" fill="#114369"/>
<path d="M55.3501 126.535L58.2779 124.812L61.2681 126.582L58.3403 128.304L55.3501 126.535Z" fill="#114369"/>
<path d="M58.647 124.599L61.5805 122.87L64.565 124.639L61.6315 126.368L58.647 124.599Z" fill="#114369"/>
<path d="M61.9097 122.679L64.8431 120.956L67.8277 122.72L64.8942 124.448L61.9097 122.679Z" fill="#114369"/>
<path d="M65.314 120.679L68.2418 118.95L71.232 120.719L68.3042 122.442L65.314 120.679Z" fill="#114369"/>
<path d="M68.5767 118.754L71.5045 117.037L74.4947 118.8L71.5669 120.523L68.5767 118.754Z" fill="#114369"/>
<path d="M71.873 116.817L74.8065 115.094L77.7911 116.858L74.8576 118.586L71.873 116.817Z" fill="#114369"/>
<path d="M75.1357 114.898L78.0636 113.175L81.0538 114.944L78.126 116.667L75.1357 114.898Z" fill="#114369"/>
<path d="M44.4673 132.935L51.6847 128.692L54.6749 130.461L47.4518 134.704L44.4673 132.935Z" fill="#114369"/>
<mask id="mask0_369_7686" style="mask-type:luminance" maskUnits="userSpaceOnUse" x="65" y="95" width="2" height="5">
<path d="M66.4655 98.3745V95.7729C66.4369 96.0958 66.3239 96.405 66.1383 96.6683C65.9527 96.9316 65.7013 97.1395 65.4102 97.2703V99.8661C65.7005 99.7358 65.9514 99.5288 66.1369 99.2665C66.3224 99.0043 66.4359 98.6964 66.4655 98.3745Z" fill="white"/>
</mask>
<g mask="url(#mask0_369_7686)">
<path d="M65.4043 97.2703V99.8661C65.6946 99.7358 65.9455 99.5288 66.131 99.2665C66.3166 99.0043 66.43 98.6964 66.4597 98.3745V95.7729C66.431 96.0958 66.318 96.405 66.1324 96.6683C65.9468 96.9316 65.6954 97.1395 65.4043 97.2703Z" fill="#9A9B9D"/>
</g>
<mask id="mask1_369_7686" style="mask-type:luminance" maskUnits="userSpaceOnUse" x="22" y="103" width="2" height="5">
<path d="M22.2593 103.029V105.63C22.2885 105.947 22.3995 106.25 22.5808 106.509C22.7622 106.768 23.0075 106.973 23.292 107.104V104.503C23.0061 104.374 22.7595 104.169 22.5779 103.909C22.3963 103.65 22.2862 103.346 22.2593 103.029Z" fill="white"/>
</mask>
<g mask="url(#mask1_369_7686)">
<path d="M22.2816 103.271V105.867C22.3692 106.26 22.5928 106.607 22.9114 106.844V104.243C22.5926 104.007 22.3672 103.662 22.2759 103.271H22.2816Z" fill="#C0C0C3"/>
<path d="M22.9175 104.243V106.844C23.0363 106.94 23.1615 107.027 23.292 107.104V104.503C23.1594 104.428 23.034 104.341 22.9175 104.243Z" fill="#E7E8EB"/>
</g>
<path d="M23.292 104.503L23.2977 107.104L35.6557 114.418L35.6501 111.822L23.292 104.503Z" fill="#D6D7DA"/>
<path d="M40.6714 111.822L40.6771 114.418L65.4102 99.8718L65.4045 97.2703L40.6714 111.822Z" fill="#7F8182"/>
<mask id="mask2_369_7686" style="mask-type:luminance" maskUnits="userSpaceOnUse" x="35" y="111" width="6" height="5">
<path d="M35.6445 111.822V114.418C36.4219 114.822 37.2824 115.033 38.1553 115.033C39.0282 115.033 39.8887 114.822 40.6661 114.418V111.822C39.8876 112.223 39.0275 112.432 38.1553 112.432C37.283 112.432 36.423 112.223 35.6445 111.822Z" fill="white"/>
</mask>
<g mask="url(#mask2_369_7686)">
<path d="M35.6443 111.822V114.418C36.1179 114.687 36.6347 114.869 37.1707 114.955V112.354C36.6329 112.271 36.1139 112.091 35.6387 111.822H35.6443Z" fill="#E7E8EB"/>
<path d="M37.1763 112.354V114.955C37.7709 115.042 38.3746 115.042 38.9693 114.955V112.36C38.3767 112.449 37.7745 112.449 37.1819 112.36L37.1763 112.354Z" fill="#C0C0C3"/>
<path d="M38.9639 112.383V114.978C39.5627 114.9 40.1408 114.704 40.6661 114.4V111.804C40.1405 112.107 39.5625 112.303 38.9639 112.383Z" fill="#9A9B9D"/>
</g>
<path d="M23.3088 101.537C21.9129 102.358 21.9073 103.682 23.3088 104.503L35.6611 111.822C36.4404 112.224 37.3014 112.433 38.1747 112.433C39.0481 112.433 39.9091 112.224 40.6883 111.822L65.4215 97.2703C66.8173 96.4494 66.823 95.1197 65.4215 94.3045L53.0691 86.9854C52.2903 86.5822 51.4291 86.3721 50.5555 86.3721C49.6819 86.3721 48.8207 86.5822 48.0419 86.9854L23.3088 101.537Z" fill="#EDF1F4"/>
<path d="M34.1349 103.896L28.9262 100.814L28.8184 60.6287L34.0215 65.4214L34.1349 103.896Z" fill="#0F0F0F"/>
<path d="M34.0215 65.4213L28.8184 60.6286L46.4136 50.28L51.6167 55.0727L34.0215 65.4213Z" fill="#122E48"/>
<path d="M51.6167 55.0728L51.7245 93.5473L34.135 103.896L34.0215 65.4213L51.6167 55.0728Z" fill="#232324"/>
<path d="M66.6928 19.6563L70.5115 21.9168C70.1695 21.7551 69.7913 21.6896 69.4161 21.7273C69.0409 21.7649 68.6825 21.9042 68.378 22.1307L64.5537 19.876C64.8582 19.6475 65.2174 19.5065 65.5938 19.4679C65.9701 19.4292 66.3497 19.4943 66.6928 19.6563Z" fill="#4F4F50"/>
<mask id="mask3_369_7686" style="mask-type:luminance" maskUnits="userSpaceOnUse" x="64" y="19" width="7" height="4">
<path d="M66.6928 19.6563L70.5115 21.9168C70.1695 21.7551 69.7913 21.6896 69.4161 21.7273C69.0409 21.7649 68.6825 21.9042 68.378 22.1307L64.5537 19.876C64.8582 19.6475 65.2174 19.5065 65.5938 19.4679C65.9701 19.4292 66.3497 19.4943 66.6928 19.6563Z" fill="white"/>
</mask>
<g mask="url(#mask3_369_7686)">
<path d="M68.378 22.1019L64.5537 19.8472C64.8582 19.6187 65.2174 19.4777 65.5938 19.4391C65.9701 19.4004 66.3497 19.4655 66.6928 19.6275L70.5115 21.888C70.1695 21.7263 69.7913 21.6608 69.4161 21.6985C69.0409 21.7361 68.6825 21.8754 68.378 22.1019Z" fill="#232324"/>
</g>
<path d="M4.80596 107.653L0.987325 105.393C0.684482 105.174 0.443699 104.877 0.289283 104.533C0.134866 104.189 0.0722821 103.81 0.107848 103.433L3.92648 105.694C3.88973 106.07 3.95178 106.45 4.1063 106.795C4.26081 107.139 4.50225 107.435 4.80596 107.653Z" fill="#232324"/>
<mask id="mask4_369_7686" style="mask-type:luminance" maskUnits="userSpaceOnUse" x="0" y="103" width="5" height="5">
<path d="M4.80596 107.653L0.987325 105.393C0.684482 105.174 0.443699 104.877 0.289283 104.533C0.134866 104.189 0.0722821 103.81 0.107848 103.433L3.92648 105.694C3.88973 106.07 3.95178 106.45 4.1063 106.795C4.26081 107.139 4.50225 107.435 4.80596 107.653Z" fill="white"/>
</mask>
<g mask="url(#mask4_369_7686)">
<path d="M4.80596 107.653L0.987325 105.393C0.684482 105.174 0.443699 104.877 0.289283 104.533C0.134866 104.189 0.0722821 103.81 0.107848 103.433L3.92648 105.694C3.88973 106.07 3.95178 106.45 4.1063 106.795C4.26081 107.139 4.50225 107.435 4.80596 107.653Z" fill="#232324"/>
</g>
<path d="M3.92644 105.694L0.113481 103.433L0 61.3279L3.81296 63.5884L3.92644 105.694Z" fill="#232324"/>
<path d="M6.80887 58.3102L2.99023 56.0497L64.5536 19.8472L68.3722 22.1019L6.80887 58.3102Z" fill="#232324"/>
<mask id="mask5_369_7686" style="mask-type:luminance" maskUnits="userSpaceOnUse" x="0" y="56" width="7" height="8">
<path d="M3.81296 63.5943L0 61.328C0.0582286 60.2751 0.359348 59.251 0.878906 58.3389C1.39846 57.4268 2.12181 56.6524 2.99022 56.0786L6.80885 58.3102C5.93648 58.8885 5.21045 59.6685 4.68986 60.5867C4.16926 61.5049 3.86881 62.5354 3.81296 63.5943Z" fill="white"/>
</mask>
<g mask="url(#mask5_369_7686)">
<path d="M3.81296 63.5943L0 61.328C0.0582286 60.2751 0.359348 59.251 0.878906 58.3389C1.39846 57.4268 2.12181 56.6524 2.99022 56.0786L6.80885 58.3102C5.93648 58.8885 5.21045 59.6685 4.68986 60.5867C4.16926 61.5049 3.86881 62.5354 3.81296 63.5943Z" fill="#232324"/>
</g>
<path d="M68.3779 22.1019C70.0347 21.1307 71.3795 21.9112 71.3852 23.8363L71.4987 65.9415C71.4435 66.9991 71.1438 68.0285 70.6242 68.9457C70.1046 69.863 69.3796 70.6422 68.5084 71.2199L6.93939 107.44C5.28257 108.417 3.93214 107.631 3.92647 105.705L3.81299 63.5943C3.86884 62.5354 4.16929 61.505 4.68989 60.5867C5.21048 59.6685 5.93651 58.8885 6.80888 58.3102L68.3779 22.1019Z" fill="#383738"/>
<path d="M6.76367 63.5941C6.82125 63.0665 6.98623 62.557 7.24807 62.0981C7.50991 61.6392 7.86284 61.241 8.28432 60.9289L68.4292 25.5474L68.5427 65.976C68.4852 66.5044 68.3202 67.0148 68.0584 67.4747C67.7966 67.9345 67.4436 68.3338 67.022 68.647L6.87715 104.029L6.76367 63.5941Z" fill="#85D0F3"/>
<path d="M16.9031 93.7783L15.7058 93.0788L15.6094 58.5239L16.8066 59.2235L16.9031 93.7783Z" fill="#832021"/>
<path d="M16.8066 59.2236L15.6094 58.524L62.8288 30.7449L64.026 31.4502L16.8066 59.2236Z" fill="#942625"/>
<path d="M41.6421 44.6604C42.9641 44.724 43.4578 45.6895 42.7428 46.8284C42.3214 47.4231 41.7684 47.9084 41.1286 48.2449C40.4889 48.5814 39.7803 48.7596 39.0604 48.7651C37.7383 48.7015 37.2447 47.7303 37.9596 46.5971C38.3811 46.0024 38.9341 45.5171 39.5738 45.1806C40.2136 44.8442 40.9221 44.6659 41.6421 44.6604Z" fill="#E84344"/>
<path d="M16.8066 59.2235L16.9031 93.7783L42.0221 79.0013V44.3887L16.8066 59.2235Z" fill="#E84344"/>
<path d="M64.0259 31.4502L42.022 44.3887V79.0014L64.1224 66.005L64.0259 31.4502Z" fill="#E84344"/>
<path d="M62.8456 33.387L62.9307 64.606C62.9307 64.606 60.0199 77.1572 42.629 77.77L41.9878 48.5629L42.368 45.9729C50.9074 42.7816 62.8456 33.387 62.8456 33.387Z" fill="#BABBBD"/>
<path d="M42.1127 79.8223L40.0871 78.6256L40.0076 49.7769V48.9155L40.002 47.395L42.0162 48.5802L42.0276 48.5917L42.1127 79.8223Z" fill="#717374"/>
<path d="M38.2205 48.4415L42.0278 46.7881L42.1129 77.5388C42.1129 77.5388 34.7367 90.5641 18.7529 91.1769L18.6621 59.9579C37.6929 52.1474 38.2205 48.4415 38.2205 48.4415Z" fill="#BABBBD"/>
<path d="M20.7725 92.3736L18.7526 91.1769L18.6675 59.9463L20.6874 61.143L20.7725 92.3736Z" fill="#717374"/>
<path d="M62.8516 36.0002L62.931 67.6008C62.931 67.6008 59.7138 79.412 42.1129 79.8225L42.0278 48.6035C55.7817 43.7645 62.8516 36.0002 62.8516 36.0002Z" fill="#F2F2F2"/>
<path d="M64.6843 41.3364L65.0815 74.4864C65.0815 74.4864 58.5733 82.0946 42.1073 79.8226L42.0278 48.6035C57.3931 47.4068 64.6843 41.3364 64.6843 41.3364Z" fill="white"/>
<path d="M63.0386 69.3408C62.1308 70.0089 61.1639 70.5896 60.1506 71.0752C59.8044 71.2486 59.4413 71.4163 59.0498 71.584C57.0345 72.4469 54.9261 73.064 52.7686 73.4224L52.519 73.4629C49.3699 73.9302 46.177 74.0098 43.0093 73.6999V75.6887C44.7075 75.8341 46.4122 75.8862 48.1159 75.8448C49.6905 75.7969 51.2611 75.656 52.8197 75.4228C55.183 75.0847 57.4953 74.4457 59.7023 73.5207C60.869 73.0053 61.9908 72.3903 63.0557 71.6822L63.0386 69.3408Z" fill="#E7E6E6"/>
<path d="M63.0386 63.6289C62.0366 64.3827 60.9648 65.0353 59.8385 65.5772C59.498 65.7391 59.1349 65.901 58.7547 66.0686C56.744 66.8983 54.6515 67.505 52.5133 67.8782L52.2636 67.9186C49.1915 68.4368 46.0718 68.5997 42.9639 68.4043V70.3872C44.6649 70.4777 46.3694 70.4777 48.0705 70.3872C49.6373 70.2968 51.1981 70.1192 52.7459 69.8554C54.9277 69.505 57.0634 68.9037 59.1122 68.0632C60.4028 67.4847 61.6489 66.8083 62.84 66.0397L63.033 65.9299L63.0386 63.6289Z" fill="#E7E6E6"/>
<path d="M63.0386 57.9287C61.9318 58.7434 60.752 59.4499 59.515 60.0389C59.1689 60.2008 58.8114 60.3569 58.4313 60.5187C56.4559 61.337 54.4048 61.951 52.309 62.3514L52.0707 62.3977C49.0775 62.9614 46.0351 63.2075 42.9922 63.1319V65.1091C44.7568 65.1091 46.4477 65.0686 48.0478 64.9356C49.6478 64.8027 51.2366 64.5599 52.6891 64.2881C54.6884 63.9238 56.6478 63.3603 58.5391 62.6058C59.7306 62.0856 60.8885 61.489 62.0059 60.8194C62.3804 60.617 62.7265 60.4147 63.0443 60.2412L63.0386 57.9287Z" fill="#E7E6E6"/>
<path d="M63.0384 52.2976C61.8137 53.1433 60.5233 53.8858 59.18 54.5176C58.8453 54.6737 58.4935 54.8298 58.119 54.9859C56.1638 55.785 54.1437 56.4079 52.0818 56.8475C52.0024 56.8475 51.9229 56.8822 51.8435 56.8995C48.9272 57.5028 45.9619 57.826 42.9863 57.865V59.848C44.7453 59.8075 46.4248 59.6919 48.0079 59.5127C49.5909 59.3335 51.1796 59.0502 52.6152 58.7438C54.4332 58.3757 56.2174 57.8516 57.9488 57.177C59.0437 56.719 60.1138 56.2018 61.1546 55.6276C61.8695 55.2576 62.4994 54.9165 63.0384 54.6043V52.2976Z" fill="#E7E6E6"/>
<path d="M63.0384 46.8286L62.8909 46.9153C61.6058 47.7441 60.2653 48.4801 58.8793 49.118C58.5446 49.2683 58.1928 49.4186 57.8296 49.5689C55.8964 50.3531 53.9064 50.9833 51.8776 51.4537L51.6506 51.5115C48.8003 52.1568 45.9022 52.5591 42.9863 52.714V54.697C44.7566 54.5987 46.4305 54.4252 48.0022 54.1998C49.5739 53.9743 51.1626 53.6216 52.5755 53.321C54.2107 52.9432 55.8199 52.4565 57.3927 51.8641C58.5275 51.419 59.5262 50.9391 60.3375 50.5518C61.4099 50.0372 62.3064 49.5516 63.0384 49.1296V46.8286Z" fill="#E7E6E6"/>
<path d="M42.5554 48.2853L42.3512 48.4125C42.2812 48.4598 42.2071 48.5004 42.1299 48.5339L41.988 48.5628C41.3534 48.8261 40.6689 48.9407 39.9851 48.8981C39.3613 48.8833 38.7495 48.721 38.1978 48.4241L40.0021 47.4066L42.3909 46.0017C43.4235 46.6261 43.4746 47.6089 42.5554 48.2853Z" fill="#4F4F50"/>
<path d="M42.0276 48.5918L42.1127 79.8108C42.1127 79.8108 38.1409 91.7492 20.7726 92.362L20.6875 61.143C37.4146 55.8473 42.0276 48.5918 42.0276 48.5918Z" fill="#D5D5D4"/>
<path d="M42.0276 48.5918L42.1127 79.8108C42.1127 79.8108 38.2827 92.5297 21.7939 93.1541V61.4552C37.6586 56.1595 42.0276 48.5918 42.0276 48.5918Z" fill="#F8F7F7"/>
<path d="M41.1255 74.4863C40.3468 76.3092 39.2705 77.9844 37.9424 79.4409C37.7041 79.7126 37.4488 79.9843 37.1764 80.2619C35.7037 81.7561 34.0209 83.0187 32.1832 84.0081C31.6158 84.3261 30.986 84.621 30.3505 84.8985C28.2605 85.7804 26.0703 86.3922 23.8311 86.7196V88.6043C26.7656 88.2144 29.6232 87.3641 32.3024 86.0836C34.6964 84.9174 36.8751 83.3391 38.7424 81.4181C39.6187 80.507 40.416 79.5206 41.1255 78.4696V74.4863Z" fill="#CFCFCF"/>
<path d="M41.1255 69.2139C40.2768 71.0083 39.1374 72.6442 37.7552 74.0528C37.5055 74.313 37.2445 74.5789 36.9665 74.8449C35.4601 76.2914 33.7692 77.5243 31.9393 78.5102C31.3719 78.8282 30.7477 79.1288 30.1179 79.4063C28.0969 80.2821 25.9891 80.9333 23.8311 81.3488V83.2509C26.7631 82.7334 29.6103 81.8034 32.2911 80.4874C34.6371 79.3176 36.7875 77.7782 38.663 75.926C39.5601 75.0327 40.3837 74.0659 41.1255 73.0353V69.2139Z" fill="#CFCFCF"/>
<path d="M41.1255 63.9644C40.2049 65.719 39.0068 67.307 37.5793 68.6646C37.3239 68.9131 37.0572 69.1675 36.7735 69.4277C35.2308 70.824 33.5298 72.0273 31.7066 73.0121C31.1392 73.3243 30.5208 73.6249 29.8909 73.914C27.9375 74.7887 25.9089 75.4777 23.8311 75.9721V77.851C26.7606 77.2071 29.6003 76.1953 32.2854 74.839C34.582 73.6658 36.7028 72.1649 38.5836 70.3816C39.5015 69.5133 40.3478 68.5697 41.1142 67.5603L41.1255 63.9644Z" fill="#CFCFCF"/>
<path d="M41.1255 58.7207C40.1334 60.4266 38.8786 61.959 37.409 63.259C37.148 63.5018 36.8757 63.7504 36.5863 63.999C35.0082 65.3345 33.2965 66.4972 31.4797 67.4678C30.9123 67.7858 30.2995 68.0864 29.6753 68.3813C27.7862 69.2655 25.8321 69.9981 23.8311 70.5724V72.4802C26.7581 71.7077 29.5932 70.6104 32.2854 69.208C34.5364 68.0286 36.6333 66.5661 38.5268 64.8547C39.4549 64.0119 40.318 63.0977 41.1085 62.1201L41.1255 58.7207Z" fill="#CFCFCF"/>
<path d="M41.1255 53.4829C40.0641 55.1341 38.7566 56.6067 37.2502 57.8478C36.9835 58.0848 36.6828 58.3161 36.4104 58.5589C34.7995 59.8535 33.077 60.9971 31.2641 61.9756C30.6966 62.2878 30.0952 62.5942 29.4654 62.9007C27.6352 63.7711 25.7534 64.5241 23.8311 65.1554V67.121C26.7547 66.2169 29.5889 65.0362 32.2967 63.5944C34.5069 62.4107 36.5845 60.9859 38.4928 59.3451C39.4316 58.5323 40.3115 57.6512 41.1255 56.7089V53.4829Z" fill="#CFCFCF"/>
<path d="M73.6775 110.244C73.2939 107.559 73.846 104.821 75.2378 102.508L74.9655 102.56C74.5574 102.639 74.1353 102.552 73.7895 102.317C73.4438 102.083 73.2019 101.72 73.1157 101.306L72.9852 100.687C72.9797 100.616 72.9797 100.544 72.9852 100.473C72.9493 100.063 73.0693 99.6541 73.3206 99.3313C73.5719 99.0085 73.9353 98.7964 74.3357 98.7388L75.0109 98.6405C74.5172 96.4899 74.0746 94.1947 73.6831 91.8012C73.598 91.2751 73.5072 90.749 73.4278 90.2114C71.7256 78.5967 71.9185 68.5199 73.7456 64.9297C73.5702 61.0135 73.6707 57.0895 74.0463 53.1879C74.0973 52.6618 74.1598 52.1357 74.2222 51.6096C74.3016 50.9852 74.381 50.3609 74.4718 49.7365C74.4718 49.6382 74.5002 49.5399 74.5116 49.4416C74.6023 48.8115 74.6988 48.1813 74.8009 47.5569C74.9031 46.9326 74.9938 46.4296 75.096 45.8688C75.1331 45.6903 75.2087 45.5225 75.3173 45.3774C75.3173 45.3774 75.3513 45.3138 75.374 45.2849C75.4572 45.1916 75.5505 45.1082 75.652 45.0363C75.3343 37.2431 76.4577 30.0685 78.8295 24.2236L78.7103 24.1138L78.6252 24.0502C78.5628 23.9981 78.5004 23.9461 78.4323 23.8998L78.3359 23.8363L78.1259 23.7091L78.0408 23.657L77.7287 23.5067C77.0695 23.2128 76.3542 23.0726 75.635 23.0962H75.4818C73.9221 23.2764 72.4237 23.8183 71.1014 24.6803C69.7452 25.5774 68.2974 26.3217 66.7835 26.9003C65.7622 27.2241 64.5536 27.3166 63.7025 26.6575C63.6147 26.59 63.533 26.5145 63.4585 26.4321L63.4245 26.3916C63.363 26.3243 63.3061 26.2529 63.2543 26.1777V26.1372L63.1805 26.01L63.1408 25.9406C63.1067 25.8713 63.0727 25.8019 63.0443 25.7325L62.9252 25.4377C62.9252 25.3567 62.8798 25.2758 62.8627 25.1949C62.7054 24.372 62.7782 23.5206 63.0727 22.7378C63.588 21.441 64.4037 20.2904 65.45 19.3844C66.4963 18.4783 67.7423 17.8437 69.0815 17.5346C71.7867 16.9518 74.6065 17.3377 77.0649 18.6273C78.2637 19.2371 79.3907 19.9838 80.4239 20.8531C83.2609 15.6499 87.2952 11.8227 92.3394 10.1519L96.5212 8.77018C101.668 7.07626 107.239 7.78158 112.63 10.4063V10.3485C112.812 9.60506 113.037 8.87339 113.305 8.15736C113.544 7.54173 113.818 6.94132 114.128 6.35938C115.37 3.84205 117.429 1.84025 119.955 0.693701C121.214 0.137607 122.586 -0.10024 123.954 0.000423052C125.322 0.101086 126.646 0.537276 127.814 1.27183C128.503 1.72913 129.054 2.37397 129.402 3.13341C129.436 3.21435 129.465 3.29529 129.493 3.37622C129.521 3.45555 129.544 3.53666 129.561 3.61904C129.582 3.69882 129.597 3.77995 129.607 3.86185C129.607 3.94279 129.607 4.02373 129.607 4.11045C129.612 4.21443 129.612 4.31866 129.607 4.42264C129.607 4.42264 129.607 4.46311 129.607 4.48045C129.592 4.58999 129.569 4.69823 129.538 4.80421C129.226 5.85062 128.199 6.49813 127.189 6.85079C125.631 7.28704 124.031 7.55065 122.417 7.63704C120.85 7.73346 119.325 8.19214 117.958 8.97831L117.827 9.05924L117.623 9.20956C117.115 9.60158 116.688 10.0905 116.363 10.6491L116.204 10.9555L116.165 11.048C116.131 11.1232 116.097 11.2041 116.068 11.2793C116.04 11.3544 116.068 11.3544 116.029 11.3891C115.989 11.4238 115.977 11.5452 115.955 11.6261C115.943 11.66 115.933 11.6948 115.926 11.7302C115.898 11.8387 115.875 11.9487 115.858 12.0597C115.856 12.1059 115.856 12.1523 115.858 12.1985C121.039 15.5054 125.975 20.564 130.134 26.9408C130.307 26.9303 130.481 26.955 130.645 27.0136C130.808 27.0721 130.959 27.1634 131.087 27.2819C131.695 27.86 132.29 28.4382 132.886 29.0625L133.907 30.1205L134.146 30.3691C134.458 30.6987 134.764 31.034 135.071 31.3693L135.116 31.4155C135.473 31.8029 135.825 32.196 136.171 32.5718C138.73 35.4988 141.081 38.6073 143.207 41.8739C143.765 42.1734 144.29 42.5319 144.773 42.9435L144.836 42.9955L145.221 43.3308L145.329 43.4233L145.704 43.776L145.823 43.9378C145.982 44.0882 146.141 44.25 146.305 44.4177L146.356 44.4697L146.753 44.886L146.861 45.0016C146.98 45.1288 147.094 45.2618 147.213 45.3947L147.349 45.5508C147.463 45.6722 147.571 45.7994 147.684 45.9266L147.843 46.1174L148.161 46.499L148.331 46.7071C148.437 46.8343 148.545 46.9672 148.654 47.106L148.824 47.3199L149.171 47.7651L149.324 47.9616C149.488 48.1755 149.659 48.401 149.823 48.6265C151.828 51.3815 153.67 54.256 155.338 57.2348C156.246 58.8189 157.145 60.482 158.033 62.2241C158.402 62.9583 158.76 63.6868 159.112 64.4094C160.031 66.3173 160.87 68.1904 161.619 69.9884L162.215 69.6704C162.571 69.4756 162.986 69.427 163.375 69.5346C163.765 69.6421 164.099 69.8976 164.309 70.2485L164.417 70.4335L164.666 71.0117C164.835 71.3987 164.848 71.8375 164.703 72.2341C164.557 72.6307 164.265 72.9536 163.889 73.1334L163.639 73.2548C166.099 74.2919 168.125 76.1737 169.365 78.5736C169.557 78.9263 169.722 79.2847 169.875 79.6432C170.029 80.0201 170.039 80.4417 169.905 80.8262C169.771 81.2107 169.501 81.5307 169.149 81.7244L169.024 81.788C168.689 81.9721 168.301 82.0307 167.928 81.9536C167.555 81.8765 167.22 81.6686 166.981 81.366C164.893 78.7702 161.92 77.6544 159.736 78.8627C157.551 80.071 156.859 83.2218 157.863 86.4188C157.969 86.7435 157.974 87.0937 157.877 87.4212C157.779 87.7487 157.585 88.0374 157.319 88.2473C157.054 88.4573 156.732 88.5782 156.396 88.5935C156.061 88.6087 155.729 88.5175 155.446 88.3324C155.364 88.2791 155.288 88.2171 155.219 88.1475C155.14 88.0708 155.07 87.9855 155.009 87.8931C154.794 87.5693 154.595 87.234 154.402 86.8813C153.674 85.5717 153.207 84.1281 153.029 82.6338C152.851 81.1395 152.964 79.624 153.364 78.1747L152.479 78.5967C152.139 78.7591 151.753 78.7936 151.391 78.6942C151.028 78.5947 150.712 78.3677 150.498 78.0533V78.0186C150.376 77.8318 150.294 77.6211 150.257 77.4C150.219 77.179 150.228 76.9524 150.281 76.7347C150.334 76.5171 150.432 76.3132 150.567 76.1361C150.702 75.959 150.872 75.8125 151.066 75.7061L152.132 75.128L151.713 74.4284C150.436 72.3009 149.159 69.9999 147.922 67.5602C142.566 57.0441 139.581 47.4066 140.24 43.4291C139.188 41.8334 138.08 40.2802 136.915 38.7694L136.62 38.3878C136.251 37.9137 135.882 37.4397 135.485 36.9714C135.973 38.0872 136.432 39.2319 136.875 40.3939C136.932 40.55 136.994 40.7119 137.051 40.8737L137.102 41.0009C137.295 41.5155 137.476 42.0358 137.669 42.5619L137.72 42.6949L138.101 43.8511C138.101 43.9205 138.146 43.9841 138.169 44.0535L138.339 44.5969C141.59 54.7951 142.038 62.2068 140.739 67.7221C140.281 70.2197 139.619 72.6738 138.759 75.0586C137.609 78.199 136.085 81.1834 134.22 83.9444C134.048 84.9764 133.819 85.9975 133.533 87.0028C133.471 87.2224 133.402 87.4364 133.34 87.6503C133.272 87.8699 133.204 88.0839 133.13 88.2978C131.428 93.2755 128.358 96.935 124.205 98.3052L121.578 99.1782C116.307 100.913 110.337 98.6405 105.219 93.605C102.073 92.4766 99.0773 90.9541 96.2999 89.0725C95.4885 88.4943 94.6828 87.9162 93.8941 87.2976C92.306 86.0606 90.808 84.7081 89.4116 83.2507C87.4905 81.2873 85.8308 79.0754 84.4752 76.6716C82.5102 73.1833 80.8926 69.5035 79.6466 65.6871C79.4763 65.1841 79.3061 64.6754 79.1416 64.1551L79.0565 63.8833L78.9713 63.6116V63.5538C78.8352 63.126 78.7047 62.6982 78.5798 62.2646V62.2241C78.5798 62.1547 78.5401 62.0911 78.5231 62.0218C78.4664 61.8367 78.4153 61.6575 78.3642 61.4783L78.2564 61.091V61.0563C78.16 60.7036 78.0635 60.3452 77.9727 59.9925V59.9578V59.9058C77.6606 58.7033 77.4053 57.5008 77.133 56.3098C77.0705 57.2869 77.0252 58.2639 77.0025 59.2467C76.9514 60.9811 76.9627 62.6635 77.0025 64.369C79.8054 67.1729 82.9716 76.7756 84.7135 88.4654C85.122 91.1826 85.4171 93.8073 85.61 96.2875C85.61 96.565 85.6554 96.8367 85.6724 97.1085L86.8696 96.935C87.0886 96.9042 87.3115 96.9204 87.524 96.9823C87.7365 97.0443 87.934 97.1508 88.1039 97.295C88.2737 97.4392 88.4121 97.618 88.5103 97.8198C88.6084 98.0216 88.6642 98.2421 88.674 98.4671V98.5018C88.682 98.8854 88.5566 99.2596 88.3198 99.558C88.083 99.8564 87.7502 100.06 87.3803 100.132L86.4214 100.323C86.6846 100.522 86.9365 100.736 87.176 100.965C87.2895 101.069 87.3973 101.179 87.5051 101.288C89.2167 103.122 90.3013 105.47 90.5975 107.983C90.6485 108.382 90.6826 108.781 90.6939 109.168C90.7054 109.278 90.7054 109.388 90.6939 109.498C90.6761 109.595 90.6495 109.689 90.6145 109.781C90.4953 110.102 90.2805 110.378 90.0001 110.569C89.7197 110.759 89.3879 110.856 89.0509 110.845C88.7139 110.835 88.3886 110.717 88.1206 110.508C87.8526 110.3 87.6553 110.011 87.5562 109.683C86.5178 106.492 84.1517 104.364 81.6779 104.694C79.204 105.023 77.4564 107.706 77.2635 111.053C77.2444 111.441 77.0927 111.81 76.8347 112.096C76.5767 112.382 76.2285 112.568 75.8506 112.62H75.7144C75.3183 112.675 74.9159 112.579 74.5856 112.349C74.2552 112.12 74.0205 111.773 73.9271 111.377C73.7966 111.03 73.7285 110.642 73.6775 110.244Z" fill="#9179B6"/>
<path d="M115.75 12.1695C114.783 11.5551 113.784 10.9916 112.76 10.4814C112.725 10.4475 112.693 10.4108 112.664 10.3715C112.846 9.62812 113.071 8.89645 113.339 8.18042C113.628 8.33804 113.897 8.53229 114.139 8.75855L115.989 10.3773C116.085 10.464 116.25 10.5681 116.386 10.6895L116.227 10.9959L116.187 11.0884C116.153 11.1636 116.119 11.2445 116.091 11.3197C116.062 11.3948 116.091 11.3948 116.051 11.4295C116.011 11.4642 116 11.5856 115.977 11.6665C115.965 11.7004 115.956 11.7352 115.949 11.7706C115.92 11.8791 115.897 11.9891 115.881 12.1001L115.75 12.1695Z" fill="#765AA2"/>
<path d="M117.453 8.48703C117.583 6.97233 119.955 5.52123 121.084 4.86216C123.575 3.41105 126.531 2.3126 129.289 3.12777L129.385 3.15667C129.419 3.23761 129.448 3.31855 129.476 3.39949C129.504 3.47881 129.527 3.55992 129.544 3.6423C129.565 3.72208 129.58 3.80321 129.59 3.88512C129.59 3.96605 129.59 4.04699 129.59 4.13371C129.332 3.99541 129.063 3.8831 128.784 3.7984C126.253 3.04105 123.535 4.04699 121.243 5.38825C120.205 5.96639 118.032 7.31921 117.907 8.7125C117.898 8.80865 117.898 8.90542 117.907 9.00157L117.776 9.08251L117.572 9.23282C117.458 9.00261 117.416 8.7422 117.453 8.48703Z" fill="#765AA2"/>
<path d="M121.288 5.41125C123.558 4.06999 126.299 3.06404 128.829 3.82139C129.108 3.9061 129.378 4.01841 129.635 4.15671C129.641 4.26069 129.641 4.36492 129.635 4.4689C129.635 4.4689 129.635 4.50937 129.635 4.52671C129.62 4.63625 129.598 4.74449 129.567 4.85047C129.255 5.89688 128.228 6.54439 127.218 6.89705C125.66 7.3333 124.06 7.59691 122.446 7.6833C120.879 7.77972 119.354 8.2384 117.986 9.02457C117.977 8.92842 117.977 8.83165 117.986 8.7355C118.077 7.34221 120.25 6.01251 121.288 5.41125Z" fill="#61478A"/>
<path d="M77.8877 22.9865C78.0806 22.1829 78.2679 21.3736 78.4551 20.57C78.5187 20.2416 78.6236 19.9229 78.7672 19.6218C79.3409 20.0056 79.894 20.4205 80.424 20.8648C79.8461 21.9468 79.3271 23.0605 78.8693 24.2006L78.7502 24.0908L78.6651 24.0272C78.6026 23.9751 78.5402 23.9231 78.4721 23.8769L78.3757 23.8133L78.1657 23.6861L78.0806 23.6341L77.7686 23.4837C77.7913 23.2987 77.8593 23.1253 77.8877 22.9865Z" fill="#765AA2"/>
<path d="M70.5568 21.599C71.8505 21.4544 74.6024 21.2058 75.584 22.3505C75.762 22.5513 75.8732 22.8042 75.9017 23.0732H75.6521H75.4989C75.4532 22.9894 75.4 22.9101 75.34 22.8362C74.4378 21.7782 71.9356 22.0094 70.7213 22.1424C68.0943 22.4315 65.314 23.2409 63.7025 25.3742C63.5231 25.6059 63.3708 25.8581 63.2486 26.1257V26.0853L63.1749 25.9581L63.1351 25.8887C63.1011 25.8193 63.0671 25.7499 63.0387 25.6806L62.9252 25.4377C62.9252 25.3568 62.8798 25.2759 62.8628 25.1949L62.9252 25.1082C64.6842 22.7957 67.7028 21.9112 70.5568 21.599Z" fill="#765AA2"/>
<path d="M63.7027 25.3858C65.3141 23.2525 68.0944 22.4431 70.7215 22.154C71.9074 22.021 74.438 21.7898 75.3402 22.8478C75.4001 22.9217 75.4533 23.001 75.499 23.0848C73.9393 23.265 72.4409 23.8069 71.1187 24.6689C69.7625 25.5659 68.3147 26.3103 66.8007 26.8889C65.7794 27.2126 64.5708 27.3051 63.7197 26.6461C63.6319 26.5786 63.5502 26.5031 63.4758 26.4206L63.4417 26.3801C63.3802 26.3129 63.3233 26.2414 63.2715 26.1662C63.3845 25.8897 63.5293 25.6277 63.7027 25.3858Z" fill="#61478A"/>
<path d="M155.196 79.0014C154.398 80.7252 154.072 82.6371 154.254 84.5341C154.428 85.8583 154.832 87.1405 155.446 88.3209C155.364 88.2675 155.288 88.2055 155.219 88.1359C155.14 88.0592 155.07 87.9739 155.009 87.8815C154.793 87.5577 154.595 87.2224 154.402 86.8698C153.673 85.5601 153.207 84.1165 153.029 82.6222C152.85 81.1279 152.964 79.6124 153.363 78.1631L156.802 76.5212C156.166 77.2751 155.626 78.1086 155.196 79.0014Z" fill="#765AA2"/>
<path d="M164.718 75.9259C165.422 75.9196 166.107 76.1697 166.647 76.6312C167.198 77.0104 167.659 77.5101 167.997 78.0939C168.196 78.4639 168.735 80.5567 167.696 80.0364C167.519 79.9233 167.36 79.7829 167.225 79.6201C166.363 78.7587 165.035 78.5101 164.19 77.6314C164.036 77.4984 163.919 77.326 163.853 77.1319C163.786 76.9378 163.771 76.729 163.81 76.5271C163.89 76.3503 164.018 76.2002 164.179 76.0939C164.339 75.9875 164.526 75.9293 164.718 75.9259Z" fill="#B69BCA"/>
<path d="M130.123 26.9872C130.296 26.9767 130.47 27.0014 130.633 27.06C130.797 27.1185 130.948 27.2098 131.076 27.3283C131.683 27.9065 132.279 28.4846 132.875 29.109L133.896 30.167L134.135 30.4155C134.447 30.7451 134.753 31.0804 135.059 31.4157L135.105 31.462C136.143 33.867 137.193 36.9484 137.301 39.2725C137.176 39.0991 137.045 38.9372 136.915 38.7695L136.62 38.388C136.251 37.9139 135.882 37.4398 135.485 36.9715C133.973 33.4977 132.179 30.1581 130.123 26.9872Z" fill="#765AA2"/>
<path d="M155.338 57.2349C156.246 58.8189 157.145 60.482 158.034 62.2241C157.148 60.4666 156.25 58.8035 155.338 57.2349Z" fill="#765AA2"/>
<path d="M149.795 48.6324C149.63 48.4069 149.46 48.1814 149.295 47.9675C149.466 48.1814 149.636 48.4069 149.795 48.6324Z" fill="#765AA2"/>
<path d="M142.646 41.7063C142.84 41.7682 143.03 41.8455 143.213 41.9376C144.361 42.5998 145.402 43.4383 146.3 44.4235C144.887 42.9955 143.644 42.0532 142.646 41.7063Z" fill="#765AA2"/>
<path d="M147.661 45.9324C147.548 45.8052 147.44 45.678 147.327 45.5566C147.44 45.6723 147.525 45.8052 147.661 45.9324Z" fill="#765AA2"/>
<path d="M148.66 47.1118C148.55 46.973 148.442 46.8401 148.336 46.7129C148.423 46.8401 148.531 46.973 148.66 47.1118Z" fill="#765AA2"/>
<path d="M146.731 44.8918L146.333 44.4756C146.464 44.6086 146.6 44.7473 146.731 44.8918Z" fill="#765AA2"/>
<path d="M140.37 42.8625C140.312 43.0514 140.268 43.2447 140.24 43.4407C139.587 47.3893 142.566 57.0556 147.9 67.5545C149.137 69.9942 150.413 72.2952 151.69 74.4227C152.124 74.1598 152.522 73.8411 152.876 73.4745C154.238 72.0048 155.185 70.1869 155.616 68.2136V68.1673C156.195 65.66 155.915 63.0263 154.822 60.7036C153.789 58.4547 152.371 55.5005 151.327 53.6794C149.538 50.4797 147.219 47.62 144.473 45.2271C143.28 44.1595 141.883 43.3545 140.37 42.8625ZM144.983 55.882C144.872 55.4985 144.894 55.0875 145.046 54.7188C145.198 54.35 145.471 54.0462 145.817 53.8586C146.895 53.2226 147.644 53.7256 148.234 54.7084C150.362 58.2408 152.524 61.8657 153.341 65.9242C153.5 66.6757 153.545 67.6123 152.933 68.069C152.689 68.2166 152.409 68.2877 152.126 68.2733C151.844 68.2589 151.571 68.1597 151.344 67.9881C150.898 67.6356 150.529 67.1927 150.26 66.6873C149.488 65.4443 148.751 64.1782 148.059 62.8832C146.958 60.7499 145.477 58.2755 144.983 55.882Z" fill="#765AA2"/>
<path d="M155.616 68.2194V68.1731C156.197 65.664 155.916 63.028 154.822 60.7037C153.789 58.4548 152.371 55.5005 151.327 53.6794C149.538 50.4798 147.219 47.6201 144.472 45.2272C143.279 44.1596 141.883 43.3546 140.37 42.8626C140.424 42.6236 140.525 42.3981 140.666 42.1995C140.808 42.0008 140.987 41.8332 141.193 41.7064C141.422 41.6055 141.669 41.5535 141.919 41.5535C142.169 41.5535 142.416 41.6055 142.645 41.7064C143.644 42.0532 144.887 42.9956 146.282 44.4236L146.334 44.4756L146.731 44.8919L146.839 45.0075C146.958 45.1347 147.071 45.2676 147.19 45.4006L147.326 45.5567C147.44 45.6781 147.548 45.8053 147.661 45.9325L147.82 46.1233L148.138 46.5048L148.308 46.713C148.414 46.8402 148.522 46.9731 148.632 47.1119L148.802 47.3258L149.148 47.7709L149.301 47.9675C149.466 48.1814 149.636 48.4069 149.8 48.6324C151.813 51.3849 153.662 54.2575 155.338 57.2349C156.246 58.819 157.144 60.4821 158.033 62.2242C158.402 62.9584 158.76 63.6869 159.111 64.4095C160.031 66.3174 160.87 68.1905 161.619 69.9885L152.11 75.1338L151.69 74.4343C152.123 74.1714 152.522 73.8528 152.876 73.4862C154.239 72.0148 155.186 70.1948 155.616 68.2194Z" fill="#61478A"/>
<path d="M162.215 69.6474C162.571 69.4526 162.986 69.404 163.375 69.5115C163.765 69.6191 164.099 69.8746 164.309 70.2255C164.083 70.11 163.833 70.0499 163.58 70.0499C163.327 70.0499 163.077 70.11 162.851 70.2255L151.327 76.4924C151.059 76.6374 150.837 76.8554 150.685 77.1219C150.533 77.3885 150.456 77.693 150.464 78.0014C150.342 77.8145 150.26 77.6038 150.223 77.3828C150.185 77.1617 150.194 76.9351 150.247 76.7175C150.3 76.4999 150.398 76.296 150.533 76.1188C150.668 75.9417 150.838 75.7953 151.032 75.6888L152.098 75.1107L161.608 69.9653L162.215 69.6474Z" fill="#DBCCE5"/>
<path d="M151.327 76.4923L162.845 70.2601C163.071 70.1446 163.321 70.0845 163.574 70.0845C163.827 70.0845 164.077 70.1446 164.303 70.2601L164.411 70.4451L164.661 71.0232C164.829 71.4102 164.842 71.849 164.697 72.2456C164.552 72.6423 164.26 72.9651 163.883 73.1449L163.634 73.2664L156.78 76.5386L153.341 78.1805L152.456 78.6025C152.116 78.7649 151.731 78.7994 151.368 78.6999C151.006 78.6005 150.69 78.3734 150.476 78.0591V78.0244C150.462 77.7134 150.535 77.4048 150.685 77.1338C150.836 76.8629 151.058 76.6406 151.327 76.4923Z" fill="#ECE3F2"/>
<path d="M145.823 53.8587C146.901 53.2227 147.65 53.7257 148.24 54.7085C150.368 58.2409 152.53 61.8658 153.347 65.9243C153.506 66.6758 153.551 67.6124 152.938 68.0691C152.695 68.2167 152.415 68.2878 152.132 68.2734C151.849 68.259 151.577 68.1597 151.35 67.9882C150.904 67.6357 150.535 67.1928 150.266 66.6874C149.494 65.4444 148.756 64.1783 148.064 62.8833C146.929 60.75 145.46 58.2582 144.966 55.8821C144.857 55.4959 144.882 55.083 145.039 54.7139C145.195 54.3449 145.472 54.0425 145.823 53.8587Z" fill="#9F85BD"/>
<path d="M89.3494 106.023C88.3967 104.377 87.0241 103.025 85.3775 102.109C84.5195 101.64 83.6061 101.285 82.6597 101.051L86.3932 100.323C86.6564 100.522 86.9084 100.736 87.1478 100.965C87.2613 101.069 87.3691 101.179 87.4769 101.288C89.1885 103.122 90.2731 105.471 90.5693 107.983C90.6204 108.382 90.6544 108.781 90.6657 109.168C90.6772 109.278 90.6772 109.388 90.6657 109.498C90.6479 109.595 90.6213 109.689 90.5863 109.781C90.3947 108.464 89.9759 107.192 89.3494 106.023Z" fill="#765AA2"/>
<path d="M74.7614 107.052C74.9264 106.356 75.3285 105.741 75.8962 105.318C76.053 105.205 76.238 105.139 76.4299 105.129C76.6217 105.119 76.8124 105.164 76.9799 105.26C77.1288 105.401 77.2378 105.58 77.2957 105.778C77.3536 105.976 77.3582 106.187 77.309 106.387C77.1331 107.601 76.2026 108.596 76.004 109.81C75.9892 110.021 75.9413 110.228 75.8622 110.423C75.2948 111.469 74.5458 109.451 74.4947 109.035C74.4416 108.362 74.5326 107.686 74.7614 107.052Z" fill="#B69BCA"/>
<path d="M74.2222 51.6153C74.2959 50.9852 74.381 50.355 74.4718 49.7249C74.4718 49.6266 74.5002 49.5283 74.5115 49.43C74.6023 48.7998 74.6988 48.1697 74.8009 47.5453C74.9031 46.9209 74.9938 46.418 75.096 45.8572C75.1331 45.6787 75.2087 45.5108 75.3173 45.3658C75.3173 45.3658 75.3513 45.3022 75.374 45.2733C75.4572 45.18 75.5505 45.0966 75.652 45.0247C75.8134 48.8256 76.286 52.6063 77.0649 56.3271C77.0025 57.3041 76.9571 58.2812 76.9344 59.264C75.6974 57.3099 74.7669 54.188 74.2222 51.6153Z" fill="#765AA2"/>
<path d="M84.0723 96.2413C84.5714 96.3221 85.0784 96.3395 85.5816 96.2933C85.3887 93.8131 85.0937 91.1884 84.6851 88.4712C82.9432 76.7814 79.7771 67.1787 76.9741 64.3747C76.8373 64.2374 76.6913 64.11 76.5372 63.9932C75.5992 65.2982 74.9348 66.7859 74.5853 68.3638C73.7419 71.9448 73.5153 75.6478 73.9158 79.3078C74.1087 81.3833 74.6818 84.644 75.1414 87.0779C75.5932 89.6099 76.8805 91.9087 78.7898 93.5934L78.8239 93.6223C80.3098 94.9612 82.1232 95.8661 84.0723 96.2413ZM82.2737 89.2054C82.3495 89.7766 82.307 90.3576 82.1488 90.9109C82.0637 91.1851 81.9008 91.4275 81.6807 91.6076C81.4606 91.7876 81.1931 91.8972 80.9119 91.9226C80.1516 91.9226 79.6466 91.1364 79.3402 90.4311C77.6777 86.6501 77.3429 82.4182 77.0252 78.2903C76.9344 77.1341 77.2465 76.29 78.4891 76.157C78.8795 76.1032 79.2761 76.1891 79.6114 76.3999C79.9466 76.6108 80.1997 76.9336 80.3275 77.3133C81.3091 79.5506 81.5587 82.424 81.8651 84.829C82.0354 86.2685 82.1715 87.737 82.2737 89.2054Z" fill="#765AA2"/>
<path d="M73.6603 91.807C73.5751 91.2809 73.4843 90.7548 73.4049 90.2172C71.7027 78.6025 71.8956 68.5257 73.7227 64.9355C74.1369 64.1262 74.6305 63.6405 75.2036 63.5538C75.4434 63.5321 75.6851 63.5598 75.9142 63.6353C76.1433 63.7108 76.3551 63.8325 76.537 63.9932C75.5989 65.2982 74.9345 66.7859 74.5851 68.3639C73.7416 71.9448 73.5151 75.6479 73.9156 79.3079C74.1085 81.3833 74.6816 84.644 75.1412 87.0779C75.593 89.61 76.8802 91.9087 78.7896 93.5935L78.8236 93.6224C80.3096 94.9612 82.123 95.8661 84.0721 96.2413C84.5712 96.3221 85.0781 96.3396 85.5814 96.2933C85.5814 96.5708 85.6268 96.8425 85.6438 97.1143L74.988 98.6463C74.4943 96.4957 74.0518 94.2005 73.6603 91.807Z" fill="#61478A"/>
<path d="M87.0737 97.7618L74.1595 99.6234C73.9087 99.66 73.6698 99.7559 73.4619 99.9035C73.254 100.051 73.0829 100.246 72.9623 100.473C72.9263 100.063 73.0464 99.6541 73.2977 99.3314C73.549 99.0086 73.9124 98.7965 74.3127 98.7389L74.988 98.6406L85.6438 97.1259L86.841 96.9524C87.06 96.9217 87.2829 96.9378 87.4954 96.9998C87.708 97.0618 87.9054 97.1683 88.0753 97.3124C88.2451 97.4566 88.3835 97.6354 88.4817 97.8372C88.5799 98.039 88.6356 98.2595 88.6454 98.4845C88.4765 98.2257 88.2395 98.0207 87.9615 97.8929C87.6835 97.765 87.3758 97.7196 87.0737 97.7618Z" fill="#DBCCE5"/>
<path d="M82.6707 101.051L75.2377 102.508L74.9654 102.56C74.5573 102.639 74.1352 102.552 73.7894 102.317C73.4437 102.083 73.2018 101.72 73.1156 101.306L72.9851 100.687C72.9796 100.616 72.9796 100.545 72.9851 100.473C73.1057 100.246 73.2768 100.051 73.4847 99.9036C73.6926 99.756 73.9315 99.6601 74.1824 99.6235L87.0965 97.7619C87.3975 97.7185 87.7045 97.7622 87.9824 97.8879C88.2603 98.0136 88.4979 98.2164 88.6682 98.473V98.5077C88.6752 98.8895 88.5499 99.2617 88.3143 99.5588C88.0788 99.8559 87.748 100.059 87.3802 100.132L86.4213 100.323L82.6707 101.051Z" fill="#ECE3F2"/>
<path d="M80.9004 91.9226C80.1401 91.9226 79.6351 91.1364 79.3287 90.431C77.6662 86.6501 77.3314 82.4182 77.0137 78.2903C76.9229 77.1341 77.235 76.29 78.4776 76.157C78.868 76.1032 79.2646 76.189 79.5999 76.3999C79.9351 76.6107 80.1882 76.9336 80.316 77.3133C81.2976 79.5506 81.5472 82.4239 81.8536 84.829C82.0352 86.2859 82.1714 87.7543 82.2622 89.2228C82.338 89.7939 82.2955 90.3749 82.1373 90.9282C82.0494 91.1992 81.8853 91.4379 81.6654 91.6147C81.4455 91.7915 81.1795 91.8985 80.9004 91.9226Z" fill="#9F85BD"/>
<path d="M134.253 83.8982C134.082 84.9301 133.853 85.9512 133.567 86.9565C133.85 85.9525 134.079 84.9335 134.253 83.904V83.8982Z" fill="#61478A"/>
<path d="M107.007 95.2064C111.109 96.8582 115.589 97.2834 119.921 96.4321C121.947 96.0218 123.909 95.3333 125.754 94.3855C128.589 92.8803 131.098 90.8078 133.13 88.292C131.428 93.2697 128.358 96.9293 124.205 98.2994L121.578 99.1724C116.306 100.907 110.337 98.6347 105.219 93.5992C105.826 94.1716 106.411 94.7092 107.007 95.2064Z" fill="#61478A"/>
<path d="M119.921 96.4321C115.59 97.2834 111.11 96.8582 107.007 95.2065C106.411 94.7093 105.827 94.1716 105.248 93.6051C110.565 95.5187 116.539 96.3454 121.51 94.478C121.969 94.3454 122.422 94.1891 122.866 94.0098C127.405 92.2233 131.332 88.2285 134.254 83.9041C134.08 84.9335 133.85 85.9525 133.567 86.9566C133.505 87.1763 133.437 87.3902 133.374 87.6041C133.306 87.8238 133.238 88.0377 133.164 88.2516C131.133 90.7674 128.624 92.8399 125.788 94.3451C123.935 95.3099 121.961 96.0121 119.921 96.4321Z" fill="#44286F"/>
<path d="M111.484 62.9238C123.711 58.8769 133.221 51.1588 137.732 42.6892L138.112 43.8455C132.988 53.6348 124.677 61.2988 114.607 65.5194C104.537 69.74 93.3387 70.2531 82.9377 66.9707C82.2001 66.7394 81.4624 66.4793 80.7362 66.1902C84.3369 74.5063 90.2408 81.5713 97.7242 86.519C105.208 91.4666 113.945 94.082 122.866 94.0445C122.422 94.2239 121.969 94.3802 121.51 94.5128C116.539 96.3802 110.565 95.5534 105.248 93.6398C102.102 92.5114 99.1058 90.9889 96.3284 89.1073C95.5171 88.5292 94.7113 87.951 93.9226 87.3324C92.3333 86.097 90.8351 84.7444 89.4402 83.2855C87.5177 81.3255 85.8579 79.1153 84.5037 76.7122C82.5387 73.2239 80.9212 69.5441 79.6751 65.7277C79.5049 65.2247 79.3347 64.716 79.1701 64.1957L79.085 63.9239L78.9999 63.6522V63.5944C78.8637 63.1666 78.7332 62.7388 78.6084 62.3052C87.1024 66.4215 99.2506 66.9765 111.484 62.9238Z" fill="#8568AB"/>
<path d="M137.125 40.9951C137.317 41.5097 137.499 42.03 137.692 42.5561C137.51 42.03 137.329 41.5154 137.125 41.0009V40.9951Z" fill="#8568AB"/>
<path d="M78.228 61.0621C78.1316 60.7094 78.0351 60.351 77.9443 59.9983C78.0351 60.3567 78.1316 60.7036 78.228 61.0621Z" fill="#8568AB"/>
<path d="M77.9443 59.9984C77.9443 59.9984 77.9443 59.9406 77.9443 59.9117C86.0469 64.5368 98.4333 65.323 110.95 61.1778C123.467 57.0326 133.017 48.9793 136.915 40.394C136.971 40.5501 137.034 40.712 137.091 40.8739L137.142 41.0069C137.335 41.5214 137.516 42.0359 137.709 42.562L137.76 42.695C133.221 51.1646 123.74 58.8826 111.512 62.9296C99.2844 66.9765 87.1136 66.3983 78.6025 62.2763V62.2358C78.6025 62.1664 78.5628 62.1028 78.5458 62.0335C78.489 61.8485 78.438 61.6692 78.3869 61.49L78.2791 61.1027V61.068C78.1316 60.7038 78.0351 60.3569 77.9443 59.9984Z" fill="#61478A"/>
<path d="M102.598 15.3204C100.992 14.7422 99.1196 13.9329 101.412 12.5049C103.188 11.4064 106.048 11.7822 108.017 11.973C110.623 12.1611 113.135 13.0379 115.308 14.5168C116.386 15.2973 117.413 16.5287 117.129 17.8468C116.994 18.304 116.742 18.7163 116.399 19.0415C116.056 19.3666 115.634 19.5928 115.177 19.6968C113.313 18.9138 111.291 18.5966 109.282 18.7718C107.018 17.7081 104.896 16.1876 102.598 15.3204Z" fill="#A48BC0"/>
<path d="M91.2328 19.5408C95.5022 18.1296 100.123 18.2975 104.283 20.0149C102.74 20.6283 101.302 21.4868 100.022 22.5587C99.3035 23.1497 98.4031 23.463 97.48 23.4432C94.3259 23.3085 91.1932 24.0286 88.4015 25.5303C84.9971 27.4208 82.2905 31.0456 81.3089 35.8672C80.8551 38.3103 80.8744 40.8202 81.3657 43.2557C81.4661 43.9135 81.6275 44.5601 81.848 45.1867C82.4482 47.2696 83.46 49.2055 84.8212 50.8755C87.4199 53.9801 90.9321 55.1594 93.9734 54.7432C97.0147 54.3269 99.6474 52.5116 102.019 50.361L102.484 49.9331C103.173 49.253 103.814 48.5247 104.402 47.7536C104.883 47.1632 105.519 46.7241 106.235 46.4877C106.951 46.2513 107.719 46.2271 108.448 46.4181C109.379 46.6769 110.327 46.8701 111.285 46.9962L111.909 47.0656C112.613 47.135 113.316 47.187 114.014 47.2044C112.541 50.0144 110.413 52.4132 107.818 54.1903C105.223 55.9674 102.239 57.0684 99.1289 57.3969C96.0187 57.7254 92.8769 57.2713 89.9791 56.0744C87.0813 54.8775 84.5161 52.9743 82.5083 50.5319C80.5006 48.0895 79.1117 45.1824 78.4635 42.0657C77.8153 38.949 77.9276 35.7178 78.7905 32.6555C79.6535 29.5933 81.2407 26.7936 83.413 24.5021C85.5852 22.2105 88.2762 20.497 91.2499 19.5119L91.2328 19.5408Z" fill="#A48BC0"/>
<path d="M111.892 47.0946C112.596 47.164 113.299 47.216 113.997 47.2334C116.39 47.3917 118.781 46.9052 120.931 45.8227C123.626 44.3311 125.788 41.2786 126.1 37.2086C126.231 35.0486 125.926 32.8842 125.203 30.8491C125.02 30.2102 124.777 29.5907 124.477 28.9991C123.483 26.7321 122.06 24.687 120.29 22.9808C118.797 21.5798 117.067 20.4671 115.183 19.697C113.318 18.914 111.297 18.5968 109.288 18.772C109.044 18.772 108.805 18.824 108.567 18.8645C107.113 19.0963 105.686 19.4839 104.312 20.0208C102.768 20.6342 101.33 21.4927 100.05 22.5645C99.3319 23.1556 98.4316 23.4689 97.5084 23.4491C94.3543 23.3143 91.2216 24.0345 88.4299 25.5361C85.0255 27.4266 82.319 31.0515 81.3373 35.8731C80.8835 38.3162 80.9028 40.8261 81.3941 43.2616C81.4945 43.9194 81.656 44.5659 81.8764 45.1926C82.4688 47.2711 83.4708 49.2048 84.8212 50.8756C87.4199 53.9801 90.9321 55.1595 93.9734 54.7433C97.0147 54.327 99.6475 52.5117 102.019 50.361L102.484 49.9332C103.173 49.2531 103.814 48.5248 104.402 47.7537C104.883 47.1633 105.519 46.7242 106.235 46.4878C106.951 46.2513 107.719 46.2272 108.448 46.4182C109.379 46.677 110.327 46.8701 111.285 46.9963L111.892 47.0946ZM110.973 45.7649L110.405 45.7013C109.542 45.5721 108.688 45.3789 107.852 45.1232C107.189 44.9502 106.491 44.973 105.84 45.189C105.189 45.405 104.612 45.8053 104.175 46.343L103.835 46.8287C103.406 47.3729 102.942 47.8867 102.445 48.3665C102.303 48.4937 102.167 48.6267 102.019 48.7538C100.853 49.852 99.5568 50.7978 98.1609 51.5693C97.0901 52.1571 95.9262 52.5485 94.7224 52.7256C93.1588 52.8957 91.5783 52.663 90.126 52.0488C88.6736 51.4347 87.3958 50.4587 86.4099 49.2106C85.1811 47.6915 84.2698 45.9328 83.7318 44.0421C83.5347 43.4791 83.3903 42.8984 83.3006 42.3077C82.8502 40.0956 82.8328 37.8146 83.2495 35.5956C84.1006 31.2191 86.5688 27.8891 89.6498 26.1721C90.6118 25.6425 91.6279 25.2218 92.6798 24.9175L92.833 24.8771L93.145 24.7961C94.7047 24.3999 96.3102 24.2228 97.9169 24.27C98.2796 24.2804 98.6417 24.2316 98.9893 24.1255L99.1084 24.0908L99.1822 24.0619C99.5506 23.9256 99.8954 23.7305 100.204 23.4838C101.849 22.1425 103.999 20.7839 107.943 20.1248C110.813 19.7321 113.726 20.4008 116.153 22.0095H116.187C117.043 22.5456 117.846 23.1631 118.587 23.8538C119.19 24.4117 119.744 25.0209 120.244 25.6749H120.216C121.079 26.7982 121.81 28.0206 122.395 29.3171C122.667 29.8529 122.887 30.4144 123.053 30.9937C123.229 31.5024 123.371 32.017 123.495 32.5315H123.524C123.864 33.9156 123.989 35.3457 123.893 36.7692C123.895 36.8135 123.895 36.8579 123.893 36.9022C123.793 38.4865 123.308 40.0206 122.48 41.366C121.653 42.7114 120.51 43.8258 119.155 44.6086C116.732 45.9615 113.838 46.054 110.973 45.7649Z" fill="#765AA2"/>
<path d="M83.2667 42.2786C82.8163 40.0665 82.799 37.7855 83.2156 35.5665C84.1008 31.219 86.569 27.889 89.65 26.1719C90.612 25.6423 91.6281 25.2216 92.6799 24.9174L92.8332 24.8769L93.1452 24.796C94.7049 24.3997 96.3104 24.2227 97.9171 24.2699C98.2798 24.2802 98.6419 24.2314 98.9895 24.1253L99.1086 24.0906L99.1824 24.0617C99.5508 23.9255 99.8956 23.7303 100.204 23.4836C101.849 22.1423 104 20.7837 107.943 20.1247C110.813 19.7319 113.726 20.4006 116.153 22.0094H116.188C117.043 22.5454 117.847 23.163 118.588 23.8536C119.19 24.4115 119.744 25.0208 120.244 25.6747H120.216C121.079 26.7981 121.811 28.0204 122.395 29.3169C122.667 29.8527 122.888 30.4142 123.053 30.9935C123.229 31.5023 123.371 32.0168 123.496 32.5313H123.524C123.864 33.9155 123.989 35.3455 123.893 36.769C123.896 36.8133 123.896 36.8577 123.893 36.902C123.793 38.4863 123.308 40.0204 122.481 41.3658C121.653 42.7112 120.511 43.8256 119.155 44.6085C116.71 45.9613 113.816 46.0538 110.95 45.7647L110.383 45.7012C109.519 45.5719 108.666 45.3787 107.83 45.123C107.166 44.95 106.468 44.9728 105.817 45.1888C105.166 45.4048 104.589 45.8051 104.153 46.3429L103.835 46.8285C103.407 47.3727 102.942 47.8865 102.445 48.3663C102.303 48.4935 102.167 48.6265 102.019 48.7537C100.853 49.8518 99.557 50.7976 98.1611 51.5692C97.0903 52.1569 95.9264 52.5483 94.7226 52.7254C93.159 52.8955 91.5785 52.6628 90.1262 52.0487C88.6738 51.4345 87.396 50.4586 86.4101 49.2104C85.1813 47.6914 84.2699 45.9326 83.732 44.0419C83.5216 43.4708 83.3657 42.8803 83.2667 42.2786Z" fill="#9ECEF0"/>
<path d="M94.5068 32.2075C98.6659 32.6296 103.296 32.7857 107.773 32.855H107.807C107.903 33.2771 108.022 33.7107 108.164 34.1443C108.721 36.0335 109.673 37.7772 110.956 39.2549C106.711 39.6612 102.447 39.8214 98.1836 39.7348C98.0518 39.0207 97.8755 38.3159 97.6559 37.6246C97.0589 35.5827 95.9774 33.7222 94.5068 32.2075Z" fill="#CFDFF4"/>
<path d="M90.7848 39.4054C87.7038 39.1799 85.0256 38.8793 82.9546 38.6018C82.9548 37.5785 83.0556 36.5579 83.2553 35.5551C83.6089 33.7632 84.2779 32.0513 85.2299 30.5022C87.1482 31.0864 89.1077 31.5194 91.0912 31.7972C89.9961 33.0518 89.8372 36.1043 90.7848 39.4054Z" fill="#CFDFF4"/>
<path d="M115.104 32.8204C118.298 32.7568 121.192 32.647 123.501 32.5371H123.529C123.87 33.9212 123.994 35.3513 123.898 36.7748C123.901 36.8191 123.901 36.8635 123.898 36.9078C121.099 37.6821 118.257 38.2845 115.387 38.7115C115.75 37.2604 115.711 35.1214 115.104 32.8204Z" fill="#CFDFF4"/>
<path d="M90.7849 39.4053C89.826 36.1042 89.9849 33.0459 91.0913 31.7798C91.2986 31.5382 91.5648 31.3567 91.863 31.2537C92.6517 30.9935 93.5652 31.3635 94.4674 32.2018H94.5071C95.9668 33.7235 97.0367 35.5879 97.6221 37.6304C97.8417 38.3217 98.018 39.0265 98.1498 39.7406C98.7172 42.6949 98.2917 45.2039 97.0831 46.0365C96.9564 46.1222 96.819 46.1903 96.6746 46.2388C96.2824 46.3284 95.8747 46.3189 95.487 46.2111C95.0993 46.1033 94.7434 45.9004 94.4503 45.6202H94.4106C93.0772 44.5738 91.7438 42.4752 90.9154 39.8389C90.8587 39.7059 90.8133 39.5556 90.7849 39.4053Z" fill="#3A2561"/>
<path d="M107.807 32.8608H107.779C107.211 30.3691 107.251 28.1028 107.892 26.7558C108.002 26.4808 108.166 26.2317 108.373 26.0239C108.581 25.816 108.829 25.6539 109.101 25.5475C109.969 25.2642 110.996 25.7383 111.977 26.7558H111.943C113.269 28.2506 114.25 30.0283 114.814 31.9589C114.905 32.2538 114.99 32.5371 115.064 32.8377H115.093C115.7 35.1502 115.756 37.2777 115.325 38.7346H115.297C115.222 39.1361 115.052 39.5129 114.802 39.8323C114.552 40.1517 114.229 40.404 113.861 40.5673C112.97 40.8621 111.915 40.3476 110.911 39.2839C109.628 37.8062 108.676 36.0625 108.119 34.1732C108.017 33.7165 107.898 33.2829 107.807 32.8608Z" fill="#3A2561"/>
<path d="M108.159 34.1503C108.017 33.7167 107.898 33.2831 107.801 32.861C110.309 32.861 112.772 32.861 115.075 32.8206H115.104C115.711 35.1331 115.768 37.2606 115.336 38.7175H115.308C113.855 38.9372 112.397 39.1164 110.95 39.2609C109.668 37.7832 108.715 36.0395 108.159 34.1503Z" fill="#8F779F"/>
<path d="M91.1026 31.7971C92.1806 31.959 93.3022 32.0997 94.4673 32.2192H94.507C95.9668 33.7409 97.0366 35.6052 97.6221 37.6478C97.8417 38.3391 98.0179 39.0439 98.1497 39.758C95.534 39.7117 93.0431 39.5845 90.8189 39.4169C89.8373 36.1042 89.9961 33.0517 91.1026 31.7971Z" fill="#8F779F"/>
<path d="M109.112 25.5418C108.84 25.6482 108.593 25.8103 108.385 26.0182C108.177 26.226 108.013 26.4751 107.903 26.7501C102.798 26.5346 97.7163 25.9219 92.7026 24.9174L92.8558 24.8769L93.1679 24.796C94.7275 24.3997 96.333 24.2227 97.9398 24.2699C98.3025 24.2803 98.6645 24.2315 99.0122 24.1254H99.1086L99.1824 24.0965C99.5596 23.9644 99.9125 23.769 100.226 23.5183C100.538 23.264 100.868 23.0096 101.225 22.761C106.723 23.4085 112.358 22.761 116.153 22.0557H116.188C117.041 22.5771 117.845 23.179 118.588 23.8536C119.19 24.4116 119.744 25.0208 120.244 25.6748H120.216C117.516 26.3255 114.757 26.684 111.983 26.7443C111.007 25.7326 109.98 25.2585 109.112 25.5418Z" fill="#CFDFF4"/>
<path d="M109.112 25.5419C109.98 25.2586 111.007 25.7326 111.989 26.7502H111.955C110.61 26.7964 109.254 26.7906 107.903 26.7502C108.013 26.4752 108.177 26.2261 108.385 26.0182C108.592 25.8104 108.84 25.6483 109.112 25.5419Z" fill="#8F779F"/>
<path d="M83.7264 44.0247C83.6527 43.8166 83.5846 43.6084 83.5278 43.3945C86.3195 44.0536 90.2232 44.915 94.405 45.6203H94.4447C94.7367 45.9026 95.0921 46.1076 95.4798 46.2174C95.8676 46.3273 96.2759 46.3386 96.6689 46.2505C96.8133 46.2019 96.9507 46.1339 97.0774 46.0482C99.3471 46.3835 101.617 46.6263 103.818 46.8055C103.39 47.3497 102.925 47.8635 102.428 48.3433C102.286 48.4705 102.15 48.6035 102.003 48.7307C100.843 49.8358 99.5524 50.7893 98.1612 51.5693C94.2858 50.916 89.9622 50.0777 86.3478 49.0891C85.1532 47.5947 84.2621 45.8732 83.7264 44.0247Z" fill="#CFDFF4"/>
<path d="M94.4443 45.626C95.3068 45.7705 96.1806 45.9093 97.0601 46.0422C96.9334 46.128 96.796 46.196 96.6515 46.2446C96.262 46.3312 95.8576 46.3202 95.4731 46.2125C95.0886 46.1047 94.7356 45.9035 94.4443 45.626Z" fill="#8F779F"/>
<path d="M122.275 73.8329C121.828 72.4193 121.802 70.9024 122.201 69.4738C122.599 68.0451 123.404 66.7687 124.514 65.8058C125.623 64.8428 126.988 64.2365 128.436 64.0633C129.884 63.89 131.349 64.1577 132.648 64.8326C133.946 65.5074 135.019 66.5591 135.732 67.8548C136.444 69.1506 136.764 70.6324 136.65 72.113C136.536 73.5937 135.995 75.0069 135.094 76.1742C134.193 77.3416 132.972 78.2107 131.587 78.6719C130.663 78.9791 129.69 79.0976 128.722 79.0205C127.753 78.9435 126.81 78.6723 125.945 78.2228C125.08 77.7732 124.31 77.1539 123.68 76.4006C123.051 75.6473 122.573 74.7747 122.275 73.8329Z" fill="#A48BC0"/>
</g>
<defs>
<clipPath id="clip0_369_7686">
<rect width="170" height="140" fill="white"/>
</clipPath>
</defs>
</svg>
