<svg width="110" height="150" viewBox="0 0 110 150" fill="none" xmlns="http://www.w3.org/2000/svg">
<g clip-path="url(#clip0_369_8144)">
<path d="M95.3701 100.69C97.9622 100.727 100.526 100.148 102.85 98.9999C104.464 98.2121 105.894 97.0923 107.045 95.7136C108.196 94.335 109.043 92.7286 109.53 90.9999C112.53 80.0999 100.16 72.2799 92.3601 69.3799L88.8501 78.5899C93.2101 80.2299 100.94 84.7899 99.9401 88.3999C99.8294 88.8132 99.6297 89.1974 99.355 89.5256C99.0804 89.8537 98.7375 90.118 98.3501 90.2999C96.2701 91.2999 92.4701 90.9599 87.9301 89.2399L84.3901 98.4399C87.8866 99.839 91.6052 100.601 95.3701 100.69Z" fill="#A6CACF"/>
<path d="M79.4798 96.5099C79.3789 96.8559 79.3471 97.2185 79.3865 97.5768C79.4259 97.9351 79.5356 98.2821 79.7093 98.598C79.883 98.9138 80.1173 99.1923 80.3988 99.4174C80.6804 99.6425 81.0035 99.8099 81.3498 99.9099C82.0228 100.2 82.7829 100.214 83.4659 99.948C84.1488 99.6823 84.6998 99.1585 84.9998 98.4899L88.3798 89.2899C88.4824 88.9445 88.5156 88.5823 88.4774 88.2241C88.4393 87.8658 88.3307 87.5187 88.1578 87.2026C87.9849 86.8865 87.7511 86.6078 87.47 86.3825C87.1889 86.1572 86.866 85.9898 86.5198 85.8899C85.8495 85.5996 85.0919 85.5847 84.4107 85.8486C83.7296 86.1124 83.1796 86.6338 82.8798 87.2999L79.4798 96.5099Z" fill="#D1E6E8"/>
<path d="M91.6401 90.3501L92.2001 90.4701C92.6001 92.2601 93.7201 98.0401 92.3201 100.47L91.7501 100.4C93.3001 98.2001 92.0001 91.7601 91.6401 90.3501Z" fill="#D9EEF1"/>
<path d="M98.1001 90.3701L98.3501 90.2601C98.4419 90.2116 98.5289 90.1547 98.6101 90.0901C99.6101 90.9001 101.98 93.3901 102.07 99.3901C101.9 99.4701 101.73 99.5301 101.55 99.6001C101.51 93.2601 98.8601 90.9101 98.1001 90.3701Z" fill="#D9EEF1"/>
<path d="M99.9102 88.43C99.9141 88.4069 99.9141 88.3832 99.9102 88.36C99.9562 88.1936 99.9831 88.0225 99.9902 87.85C101.91 87.26 106.52 86.32 109.78 89.69C109.78 89.9 109.7 90.11 109.66 90.32C106.45 86.65 101.56 87.88 99.9102 88.43Z" fill="#D9EEF1"/>
<path d="M98.3502 84.43C98.2302 84.3 98.1002 84.18 97.9702 84.05C99.2502 82.38 102.7 78.44 106.58 78.89L107.06 79.51C103.23 78.64 99.5902 82.81 98.3502 84.43Z" fill="#D9EEF1"/>
<path d="M93.2302 80.6401L92.7402 80.3701C92.994 78.6783 93.6095 77.0612 94.5448 75.6288C95.4802 74.1965 96.7133 72.9827 98.1602 72.0701L98.6702 72.3601C97.1994 73.2426 95.9465 74.4453 95.0047 75.8788C94.0628 77.3124 93.4563 78.9398 93.2302 80.6401Z" fill="#D9EEF1"/>
<path d="M83.7099 80.35C83.6408 80.8224 83.6661 81.3039 83.7844 81.7665C83.9027 82.2292 84.1116 82.6637 84.3989 83.045C84.6863 83.4264 85.0465 83.7469 85.4586 83.988C85.8708 84.2292 86.3266 84.3862 86.7999 84.45C87.2768 84.5268 87.7642 84.5084 88.234 84.396C88.7038 84.2835 89.1467 84.0792 89.5372 83.7947C89.9276 83.5102 90.2579 83.1513 90.5089 82.7386C90.76 82.3258 90.9268 81.8675 90.9999 81.39L92.9999 67.68C93.0676 67.2064 93.041 66.724 92.9216 66.2608C92.8023 65.7975 92.5925 65.3623 92.3045 64.9804C92.0164 64.5984 91.6556 64.2772 91.243 64.0351C90.8303 63.7931 90.3738 63.635 89.8999 63.57C88.9439 63.4265 87.9701 63.6681 87.1921 64.2418C86.4141 64.8155 85.8954 65.6743 85.7499 66.63L83.7099 80.35Z" fill="#D1E6E8"/>
<path d="M57.6501 125C52.2048 125.046 46.7635 124.692 41.3701 123.94C35.7001 123.06 33.3701 121.94 33.3701 119.94C33.3701 117.94 35.6701 116.79 41.3701 115.94C46.765 115.209 52.2063 114.875 57.6501 114.94C63.0939 114.875 68.5352 115.209 73.9301 115.94C79.5901 116.83 81.9301 118 81.9301 119.94C81.9301 121.88 79.6201 123.1 73.9301 123.94C68.5367 124.692 63.0954 125.046 57.6501 125ZM37.4701 119.9C40.0701 120.79 46.8401 121.9 57.6501 121.9C68.4601 121.9 75.2201 120.8 77.8301 119.9C75.2201 119.02 68.4501 117.9 57.6501 117.9C46.8501 117.9 40.0701 119 37.4701 119.87V119.9Z" fill="#68C4D4"/>
<path d="M57.6501 135.15C54.0346 135.18 50.4216 134.947 46.8401 134.45C43.8401 133.99 41.1401 133.28 41.1401 131.27C41.1401 129.26 43.8801 128.55 46.8401 128.08C50.4216 127.584 54.0346 127.35 57.6501 127.38C61.2657 127.35 64.8787 127.584 68.4601 128.08C71.4601 128.55 74.1601 129.25 74.1601 131.27C74.1601 133.29 71.4201 133.99 68.4601 134.45C64.8787 134.947 61.2657 135.18 57.6501 135.15ZM46.6501 131.27C50.2888 131.834 53.9684 132.091 57.6501 132.04C61.3319 132.091 65.0114 131.834 68.6501 131.27C65.0119 130.702 61.3322 130.441 57.6501 130.49C53.9714 130.441 50.2951 130.702 46.6601 131.27H46.6501Z" fill="#68C4D4"/>
<path d="M57.6502 143.61C55.3725 143.628 53.0966 143.481 50.8402 143.17C48.9502 142.87 47.2002 142.42 47.2002 141.11C47.2002 139.8 48.9502 139.34 50.8402 139.05C53.0958 138.73 55.3721 138.58 57.6502 138.6C59.9282 138.58 62.2045 138.731 64.4602 139.05C66.3502 139.34 68.1002 139.8 68.1002 141.11C68.1002 142.42 66.3502 142.87 64.4602 143.17C62.2037 143.48 59.9278 143.627 57.6502 143.61ZM51.0802 141.11C53.2562 141.419 55.4525 141.563 57.6502 141.54C59.8479 141.562 62.0441 141.418 64.2202 141.11C62.0447 140.796 59.848 140.653 57.6502 140.68C55.4523 140.652 53.2557 140.796 51.0802 141.11Z" fill="#68C4D4"/>
<path d="M55.9001 147.84C55.8942 147.405 56.0178 146.979 56.2552 146.614C56.4926 146.25 56.8332 145.965 57.2333 145.795C57.6335 145.625 58.0753 145.577 58.5024 145.659C58.9294 145.741 59.3224 145.948 59.6313 146.254C59.9402 146.56 60.151 146.952 60.2368 147.378C60.3226 147.804 60.2796 148.246 60.1133 148.648C59.9469 149.05 59.6647 149.393 59.3026 149.634C58.9405 149.875 58.5149 150.002 58.0801 150C57.7951 150.001 57.5127 149.947 57.2489 149.839C56.9851 149.731 56.7452 149.572 56.5428 149.372C56.3403 149.171 56.1794 148.933 56.0691 148.67C55.9588 148.407 55.9014 148.125 55.9001 147.84Z" fill="#68C4D4"/>
<path d="M18.2501 100.69C15.6582 100.726 13.0947 100.147 10.7701 98.9999C9.15597 98.2121 7.72651 97.0923 6.57533 95.7136C5.42415 94.335 4.57724 92.7286 4.09008 90.9999C1.09008 80.0999 13.4601 72.2799 21.2701 69.3799L24.7701 78.5899C20.4101 80.2299 12.6801 84.7899 13.6801 88.3999C13.7909 88.8132 13.9905 89.1974 14.2652 89.5256C14.5398 89.8537 14.8828 90.118 15.2701 90.2999C17.3501 91.2999 21.1501 90.9599 25.6901 89.2399L29.2401 98.4399C25.7402 99.8391 22.0183 100.601 18.2501 100.69Z" fill="#A6CACF"/>
<path d="M34.1399 96.5101C34.2408 96.8561 34.2725 97.2187 34.2332 97.577C34.1938 97.9353 34.0841 98.2823 33.9104 98.5982C33.7367 98.914 33.5024 99.1925 33.2208 99.4176C32.9393 99.6427 32.6162 99.8101 32.2699 99.9101C31.5998 100.199 30.8425 100.213 30.1628 99.9466C29.4831 99.6807 28.9358 99.1573 28.6399 98.4901L25.2499 89.2901C25.1489 88.9441 25.1172 88.5815 25.1565 88.2232C25.1959 87.8649 25.3056 87.5179 25.4793 87.2021C25.653 86.8862 25.8873 86.6078 26.1689 86.3826C26.4504 86.1575 26.7735 85.9901 27.1199 85.8901C27.7887 85.6002 28.5449 85.5856 29.2244 85.8496C29.904 86.1135 30.4521 86.6347 30.7499 87.3001L34.1399 96.5101Z" fill="#D1E6E8"/>
<path d="M22.0001 90.3501L21.4401 90.4701C21.0401 92.2601 19.9201 98.0401 21.3201 100.47L21.8901 100.4C20.3201 98.2001 21.6601 91.7601 22.0001 90.3501Z" fill="#D9EEF1"/>
<path d="M15.5198 90.3701L15.2698 90.2601C15.178 90.2116 15.091 90.1547 15.0098 90.0901C14.0098 90.9001 11.6398 93.3901 11.5498 99.3901C11.7198 99.4701 11.8898 99.5301 12.0698 99.6001C12.1098 93.2601 14.7598 90.9101 15.5198 90.3701Z" fill="#D9EEF1"/>
<path d="M13.7098 88.43C13.7059 88.4069 13.7059 88.3832 13.7098 88.36C13.6638 88.1936 13.6369 88.0225 13.6298 87.85C11.7098 87.26 7.09984 86.32 3.83984 89.69C3.83984 89.9 3.91984 90.11 3.96984 90.32C7.16984 86.65 12.0598 87.88 13.7098 88.43Z" fill="#D9EEF1"/>
<path d="M15.2801 84.43L15.6501 84.05C14.3801 82.38 10.9201 78.44 7.05006 78.89C6.88006 79.09 6.72006 79.3 6.56006 79.51C10.3901 78.64 14.0001 82.81 15.2801 84.43Z" fill="#D9EEF1"/>
<path d="M20.39 80.6401L20.88 80.3701C20.6281 78.6777 20.0134 77.0598 19.0779 75.6272C18.1424 74.1946 16.9082 72.9812 15.46 72.0701L14.96 72.3601C16.4279 73.2448 17.6782 74.4483 18.6181 75.8816C19.558 77.3148 20.1636 78.9411 20.39 80.6401Z" fill="#D9EEF1"/>
<path d="M29.9202 80.35C29.9879 80.823 29.9612 81.3047 29.8417 81.7674C29.7223 82.2301 29.5124 82.6645 29.2242 83.0457C28.936 83.4268 28.5752 83.7471 28.1626 83.9882C27.75 84.2292 27.2938 84.3861 26.8202 84.45C25.8631 84.5935 24.8881 84.3522 24.1085 83.7788C23.3289 83.2053 22.8082 82.3464 22.6602 81.39L20.6602 67.68C20.5939 67.2065 20.6214 66.7247 20.7413 66.2619C20.8612 65.7992 21.0711 65.3645 21.3589 64.9829C21.6468 64.6012 22.007 64.28 22.4191 64.0376C22.8311 63.7952 23.2868 63.6363 23.7602 63.57C24.7162 63.4265 25.69 63.6681 26.468 64.2418C27.246 64.8155 27.7647 65.6743 27.9102 66.63L29.9202 80.35Z" fill="#D1E6E8"/>
<path d="M88 74.2401C88.1203 71.2269 87.9158 68.2095 87.39 65.2401C84.91 46.2301 72.9 30.6501 57.2 30.4301C40.94 30.2001 25.14 43.8801 25.31 70.3301C25.48 96.3301 44.2 119.57 57.21 120.63C65.73 121.32 85.86 105 88 74.2401Z" fill="#98D3D9"/>
<path opacity="0.2" d="M87.9298 69.4001C87.1349 69.5151 86.333 69.5752 85.5298 69.5801C84.2698 69.6601 82.3898 69.8801 81.1998 69.1401C74.5698 72.2701 64.1298 76.6801 57.0998 77.1401C48.9998 77.7001 37.6898 72.5901 30.9998 69.1001L30.8098 69.2001C30.812 69.2391 30.8015 69.2777 30.7799 69.3101C30.7582 69.3426 30.7266 69.3672 30.6898 69.3801L29.4798 69.7701L29.3698 69.8301C29.3277 69.8446 29.2819 69.8446 29.2398 69.8301C27.9591 70.2069 26.6472 70.468 25.3198 70.6101C25.6198 96.4501 44.2498 119.56 57.2098 120.61C65.7298 121.3 85.8598 105.01 88.0298 74.2201C88.1324 72.6135 88.099 71.0011 87.9298 69.4001Z" fill="#413861"/>
<path d="M82.2501 58.5C79.5201 45.93 67.5901 37.72 55.0001 38.8C49.3297 39.036 43.901 41.1613 39.5775 44.8379C35.254 48.5144 32.2841 53.5311 31.1401 59.09C29.3001 68.6 31.8101 76.25 37.0001 77.5C42.1901 78.75 47.6101 71.5 48.0001 70.75C49.5701 67.97 53.5101 64.28 57.7401 64.85C61.1301 65.39 64.1401 68.26 65.4901 70.53C65.9401 71.3 71.3601 78.44 76.6901 77.05C82.0201 75.66 84.3001 68 82.2501 58.5Z" fill="#3E4545"/>
<path d="M43.0802 76.9701C45.201 76.9701 46.9202 73.8584 46.9202 70.0201C46.9202 66.1817 45.201 63.0701 43.0802 63.0701C40.9595 63.0701 39.2402 66.1817 39.2402 70.0201C39.2402 73.8584 40.9595 76.9701 43.0802 76.9701Z" fill="#8FCFCF"/>
<path d="M70.6501 76.9701C72.7708 76.9701 74.4901 73.8584 74.4901 70.0201C74.4901 66.1817 72.7708 63.0701 70.6501 63.0701C68.5293 63.0701 66.8101 66.1817 66.8101 70.0201C66.8101 73.8584 68.5293 76.9701 70.6501 76.9701Z" fill="#8FCFCF"/>
<path d="M25.7202 70.7501C25.7202 70.7501 45.7202 65.9201 56.4302 83.1801L52.3302 83.8801L25.7202 70.7501Z" fill="#F4E191"/>
<path d="M25.7202 70.75L52.3302 82.92L55.3802 112.88L32.2702 99.91L25.7202 70.75Z" fill="#DD4C21"/>
<path d="M29.87 90.5C29.87 90.5 30.26 96.33 38.57 96.5L38.64 100.32C38.64 100.32 28.63 101.12 29.87 90.5Z" fill="#789FA1"/>
<path d="M26 72.75L27.9 76.18C27.9 76.18 27.7 82.4 29.73 85.51L27.93 87C27.93 87 24.59 75.93 26 72.75Z" fill="#678E8E"/>
<path d="M88.2799 70.7401C88.2799 70.7401 67.1299 65.9201 56.3999 83.1801L60.4999 83.8801L88.2799 70.7401Z" fill="#F4E191"/>
<path d="M88.2299 70.74L61.1099 82.98L59.4199 112.73L81.4199 99.61L88.2299 70.74Z" fill="#DD4C21"/>
<path d="M11.31 32.4699L4.08 22.1299L0.66 23.4999L0 21.8899L4.73 19.9899L9.84 27.2999L10.61 14.0999L22.59 7.42993L23.46 8.95993L12.31 15.1499L11.31 32.4699Z" fill="#3958A4"/>
<path d="M17.6298 26.4401C17.1515 26.4388 16.6749 26.3817 16.2098 26.2701L16.6198 24.5701C17.1686 24.7362 17.7507 24.759 18.3109 24.6365C18.871 24.5139 19.3904 24.2501 19.8198 23.8701C19.9511 23.5884 20.015 23.2799 20.0063 22.9692C19.9976 22.6585 19.9166 22.3541 19.7698 22.0801C19.2898 21.5101 18.0398 21.5401 17.6398 21.6001L16.4698 21.7601L17.0898 17.7601L15.2798 19.0001L14.2798 17.5801L19.5098 13.8601L18.5798 19.7901C19.0619 19.8148 19.5345 19.9344 19.9703 20.142C20.4062 20.3497 20.7968 20.6413 21.1198 21.0001C21.492 21.5255 21.7179 22.1404 21.7741 22.7818C21.8303 23.4232 21.7149 24.068 21.4398 24.6501L21.3898 24.8101L21.2898 24.9301C20.8172 25.4211 20.248 25.8088 19.618 26.0687C18.9881 26.3286 18.3111 26.455 17.6298 26.4401Z" fill="#3958A4"/>
<path d="M24.7901 22.24L23.8101 20.8L35.9301 12.73L36.9101 14.18L24.7901 22.24Z" fill="#3958A4"/>
<path d="M6.95008 39.5901L4.08008 34.6901L5.61008 33.8101L8.47008 38.7201L6.95008 39.5901Z" fill="#3958A4"/>
<path d="M4.42992 39.0301L3.41992 37.5901L8.12992 34.3701L9.13992 35.8101L4.42992 39.0301Z" fill="#3958A4"/>
<path d="M35.8898 32.1001L27.7598 25.4201L28.8898 24.0801L37.0098 30.7601L35.8898 32.1001Z" fill="#3958A4"/>
<path d="M30.0799 32.8701L28.6299 31.8601L34.6999 23.3101L36.1399 24.3201L30.0799 32.8701Z" fill="#3958A4"/>
<path d="M39.5501 30.5099C39.2401 30.5099 38.9201 30.5099 38.5501 30.4599L38.7201 28.7199C40.1601 28.8599 41.1801 28.6499 41.6401 28.1199C41.8047 27.9145 41.9222 27.6756 41.9844 27.4199C42.0466 27.1642 42.052 26.8979 42.0001 26.6399C41.6601 25.4699 39.4001 25.6899 39.3701 25.6899L38.4501 25.7999L38.1401 20.9199L42.6301 20.6599L42.7401 22.3999L40.0001 22.5599L40.0901 23.9199C41.4701 23.9199 43.2001 24.4799 43.6901 26.1799C43.818 26.7087 43.8222 27.2598 43.7026 27.7905C43.5829 28.3212 43.3425 28.8172 43.0001 29.2399C42.5523 29.6901 42.0115 30.037 41.4155 30.2563C40.8196 30.4757 40.183 30.5622 39.5501 30.5099Z" fill="#3958A4"/>
<path d="M11.2699 7.67002L9.10986 3.00002L10.7199 2.27002L12.0799 5.23002L15.4399 3.40002L16.2899 4.92002L11.2699 7.67002Z" fill="#3958A4"/>
<path d="M16.5999 8L13.3999 0.69L15.0199 0L18.2099 7.3L16.5999 8Z" fill="#3958A4"/>
<path d="M23.3098 19.6199L22.1398 17.6199L22.3498 17.1999C22.6274 16.6414 22.7867 16.0316 22.8176 15.4087C22.8486 14.7858 22.7506 14.1632 22.5298 13.5799C22.382 13.4555 22.1928 13.3913 21.9998 13.3999C21.7498 13.4699 21.5298 13.8699 21.4598 14.0499L19.7998 13.4699C19.9372 13.0724 20.1609 12.7102 20.4548 12.4094C20.7488 12.1086 21.1056 11.8765 21.4998 11.7299C21.9019 11.6255 22.3236 11.6229 22.727 11.7225C23.1303 11.822 23.5024 12.0204 23.8098 12.2999L23.9698 12.4199L24.0598 12.5999C24.6259 13.8541 24.763 15.2599 24.4498 16.5999L26.5698 14.9999L27.6298 16.3899L23.3098 19.6199Z" fill="#3958A4"/>
<path d="M59.4899 113.1L61.4899 82.73H52.1499L54.9999 113.1H59.4899Z" fill="#922614"/>
<path d="M30.08 93.8001C30.08 93.8001 31.78 88.8801 38.85 87.9801C38.85 87.9801 39.76 82.7301 36.49 81.8901C34.6839 81.5728 32.8237 81.8995 31.2338 82.8133C29.6439 83.727 28.4252 85.1698 27.79 86.8901L30 94.0601L30.08 93.8001Z" fill="#789FA1"/>
<path d="M84.06 90.8899C84.06 90.8899 83.48 96.6999 75.17 96.5699L75 100.39C75 100.39 85 101.54 84.06 90.8899Z" fill="#789FA1"/>
<path d="M87.6201 74L85.7201 77.43C85.7201 77.43 85.9201 83.64 83.8901 86.75L85.6601 88.24C85.6601 88.24 89.0001 77.12 87.6201 74Z" fill="#678E8E"/>
<path d="M83.4801 94.82C83.4801 94.82 81.7801 89.9 74.7101 89C74.7101 89 73.7901 83.75 77.0701 82.91C78.8761 82.5948 80.7354 82.9224 82.3248 83.8358C83.9143 84.7493 85.1333 86.1909 85.7701 87.91L83.6101 95.09L83.4801 94.82Z" fill="#789FA1"/>
<g opacity="0.3">
<path d="M25.5599 76.41C25.3348 74.308 25.2546 72.193 25.3199 70.08H21.1399L20.9099 69.48C20.9099 69.48 15.0799 71.76 12.3799 74C15.0499 76 17.5699 78.54 18.7299 81.63C19.2699 81.28 19.8299 80.94 20.3899 80.63L20.8799 80.36C21.3899 80.08 21.8799 79.81 22.3999 79.57L22.6599 81.38C22.8078 82.3364 23.3286 83.1953 24.1082 83.7688C24.8878 84.3422 25.8628 84.5836 26.8199 84.44C26.9399 84.44 27.2099 84.44 27.1799 84.27C26.9999 83.14 25.8899 79.3 25.5599 76.41Z" fill="#413861"/>
<path d="M25.25 89.29V89.36C24.1695 89.7546 23.0678 90.0885 21.95 90.36L21.39 90.48L20.95 90.56C21.16 94.38 18.61 98.1 15.21 100.46C16.2022 100.617 17.2053 100.698 18.21 100.7C19.2304 100.694 20.2492 100.62 21.26 100.48L21.83 100.41C24.0494 100.053 26.2294 99.4838 28.34 98.71C28.34 98.71 24.76 88 25.25 89.29Z" fill="#413861"/>
</g>
<g opacity="0.3">
<path d="M92.6902 69.5701C91.1456 69.2583 89.5758 69.0876 88.0002 69.0601C88.1103 71.3572 88.0166 73.6595 87.7202 75.9401C87.3902 78.8401 86.9302 83.2201 86.7202 84.3601C86.7202 84.4901 86.7202 84.4401 86.8802 84.4501C87.8315 84.5849 88.7975 84.3392 89.5688 83.7664C90.3401 83.1935 90.8544 82.3397 91.0002 81.3901L91.2702 79.5801C91.7602 79.8201 92.2702 80.0901 92.7902 80.3701L93.2802 80.6401C93.8402 80.9601 94.3902 81.3001 94.9302 81.6401C96.1002 78.5501 98.6202 76.0401 101.28 74.0101C98.6273 72.1543 95.7384 70.6611 92.6902 69.5701Z" fill="#413861"/>
<path d="M88.4 89.3601C89.4771 89.7547 90.5755 90.0886 91.69 90.3601L92.26 90.4801L92.7 90.5601C92.49 94.3801 95.04 98.1001 98.44 100.46C97.4476 100.617 96.4447 100.697 95.44 100.7C94.4363 100.692 93.4342 100.618 92.44 100.48L91.87 100.41C89.5305 100.037 87.2306 99.4482 85 98.6501L88.4 89.3601Z" fill="#413861"/>
</g>
</g>
<defs>
<clipPath id="clip0_369_8144">
<rect width="110" height="150" fill="white"/>
</clipPath>
</defs>
</svg>
