<svg width="55" height="55" viewBox="0 0 55 55" fill="none" xmlns="http://www.w3.org/2000/svg">
<g clip-path="url(#clip0_369_6857)">
<path d="M6.24979 48.09C1.03979 48.09 0.249794 47.24 0.169794 46.41C0.0697942 45.41 1.16979 44.7 3.88979 43.96C6.51931 43.3124 9.19335 42.8611 11.8898 42.61C14.0498 42.39 16.1698 42.27 18.0098 42.27C23.2098 42.27 24.0098 43.12 24.0798 43.96C24.1798 44.96 23.0798 45.67 20.3598 46.4C17.7309 47.0529 15.0567 47.5075 12.3598 47.76C10.1998 48 8.08979 48.09 6.24979 48.09ZM2.18979 46.2C3.52756 46.4533 4.88887 46.5606 6.24979 46.52C8.03979 46.52 10.0998 46.4 12.2498 46.19C17.5598 45.64 20.8298 44.75 22.0698 44.19C20.7304 43.9226 19.365 43.8086 17.9998 43.85C15.9955 43.8582 13.9929 43.9683 11.9998 44.18C6.70979 44.72 3.43979 45.62 2.18979 46.2Z" fill="#68C4D4"/>
<path d="M8.20985 51.9301C6.02985 51.9301 5.54985 51.5801 5.48985 51.0501C5.42985 50.5201 6.26985 50.0501 7.17985 49.8301C8.27373 49.5557 9.38697 49.3651 10.5098 49.2601C11.4198 49.1701 12.2998 49.1201 13.0698 49.1201C15.2498 49.1201 15.7298 49.4701 15.7798 50.0001C15.8298 50.5301 14.9998 51.0001 14.0998 51.2201C13.0027 51.4953 11.8861 51.6859 10.7598 51.7901C9.85985 51.8801 8.99985 51.9301 8.20985 51.9301ZM7.39985 50.8601H8.20985C9.02834 50.8544 9.84603 50.8077 10.6598 50.7201C11.743 50.6244 12.8166 50.4404 13.8698 50.1701H13.0698C12.2513 50.1755 11.4336 50.2223 10.6198 50.3101C9.53287 50.4019 8.45566 50.5859 7.39985 50.8601Z" fill="#68C4D4"/>
<path d="M10.1198 54.0001C10.105 53.7882 10.1531 53.5766 10.2579 53.3919C10.3628 53.2071 10.5198 53.0574 10.7093 52.9614C10.8988 52.8655 11.1125 52.8275 11.3234 52.8524C11.5344 52.8772 11.7334 52.9637 11.8954 53.101C12.0575 53.2384 12.1755 53.4205 12.2346 53.6245C12.2937 53.8286 12.2913 54.0455 12.2277 54.2482C12.1641 54.4509 12.0422 54.6303 11.8771 54.7641C11.7121 54.8978 11.5113 54.9799 11.2998 55.0001C11.156 55.0152 11.0107 55.001 10.8726 54.9584C10.7344 54.9158 10.6064 54.8457 10.4961 54.7523C10.3858 54.6588 10.2956 54.544 10.231 54.4147C10.1663 54.2854 10.1285 54.1444 10.1198 54.0001Z" fill="#68C4D4"/>
<path opacity="0.1" d="M26.7 31.77L27.99 31.92C29.0341 29.9869 29.8978 27.9616 30.57 25.87C30.8468 24.999 31.0476 24.1056 31.17 23.2C31.08 23.28 30.95 23.34 30.91 23.45C30.3773 25.2801 29.3739 26.9386 28 28.26C26.4583 29.5957 24.7827 30.7686 23 31.76C24.37 33 24.9 31.53 26.7 31.77Z" fill="#413861"/>
<path d="M4.16005 25.25C4.1057 24.0347 4.53499 22.8473 5.35398 21.9477C6.17297 21.0482 7.31496 20.5096 8.53005 20.45C9.41501 20.4543 10.2747 20.7456 10.9801 21.28C11.0501 21.28 11.1501 21.03 11.0801 20.67C11.0577 20.5407 11.0243 20.4136 10.9801 20.29C10.7107 19.7346 10.2855 19.2696 9.75629 18.9518C9.22713 18.6339 8.6169 18.477 8.00005 18.5C6.71948 18.5622 5.5159 19.1299 4.65348 20.0786C3.79105 21.0273 3.34027 22.2793 3.40005 23.56C3.35628 24.3051 3.55255 25.0447 3.96005 25.67L4.16005 25.25Z" fill="#D1E6E8"/>
<path d="M11 21.4999C11.1055 21.2918 11.1635 21.063 11.17 20.8299C9.50003 19.3799 7.17003 20.0899 6.09003 20.7299C5.29139 21.2277 4.65335 21.9453 4.25248 22.7967C3.8516 23.6482 3.70492 24.5972 3.83003 25.5299C4.12751 25.8397 4.44129 26.1335 4.77003 26.4099C4.44886 25.5038 4.44513 24.5154 4.75947 23.6069C5.07381 22.6985 5.68755 21.9237 6.50003 21.4099C6.50003 21.4099 9.25003 19.8199 10.92 21.6899C10.9421 21.6247 10.9688 21.5612 11 21.4999Z" fill="#769899"/>
<path d="M30.4299 25.8701C30.8607 24.4099 31.1356 22.9082 31.2499 21.3901C32.3999 11.7001 28.5699 2.55006 21.0699 0.490061C13.2999 -1.63994 3.99995 3.12006 0.849948 16.1601C-2.28005 29.0001 3.81995 42.7301 9.91995 44.8701C13.9199 46.2701 25.5899 40.7501 30.4299 25.8701Z" fill="#E5EFEF"/>
<path d="M29.87 9.16999C27.0895 8.62563 24.2066 9.03661 21.689 10.3363C19.1713 11.6359 17.1666 13.748 16 16.33C14 20.8 14.27 24.87 16.63 26.11C18.99 27.35 22.44 24.44 22.75 24.11C23.83 22.93 26.17 21.58 28.13 22.36C29.2303 22.8984 30.1229 23.784 30.67 24.88C30.9223 23.729 31.1027 22.5634 31.21 21.39C31.7645 17.2683 31.3045 13.0736 29.87 9.16999Z" fill="#3E4545"/>
<path d="M24.33 13.9999C23.57 13.7799 22.69 14.4499 22.07 15.5799C21.21 14.6799 20.21 14.2799 19.54 14.6699C18.64 15.2099 18.63 16.6699 19.6 18.3199C19.9672 18.9406 20.4588 19.4787 21.0439 19.9003C21.629 20.322 22.295 20.618 23 20.7699C24.0561 20.0148 24.8442 18.943 25.25 17.7099C25.73 15.8299 25.34 14.2499 24.33 13.9999Z" fill="#8FCFCF"/>
<path d="M31.2998 15.18C31.2406 15.2699 31.1871 15.3634 31.1398 15.46C30.2698 14.55 29.2698 14.15 28.6098 14.54C27.6998 15.08 27.7498 16.88 28.7198 18.54C28.9764 19.0655 29.339 19.5322 29.7847 19.9109C30.2305 20.2895 30.7497 20.5718 31.3098 20.74C31.4946 18.8911 31.4912 17.0282 31.2998 15.18Z" fill="#8FCFCF"/>
<path d="M50.4298 43.6399C50.8319 43.5085 51.1681 43.2277 51.3691 42.8555C51.5701 42.4833 51.6205 42.0482 51.5098 41.6399L49.5598 35.1699C49.5001 34.967 49.401 34.7778 49.2682 34.6132C49.1354 34.4485 48.9714 34.3117 48.7857 34.2105C48.5999 34.1093 48.3961 34.0456 48.1857 34.0232C47.9754 34.0008 47.7627 34.0201 47.5598 34.0799C47.1481 34.2134 46.8047 34.5024 46.603 34.8853C46.4012 35.2683 46.357 35.7149 46.4798 36.1299L48.4198 42.5899C48.4795 42.7928 48.5786 42.982 48.7114 43.1467C48.8442 43.3113 49.0082 43.4481 49.1939 43.5493C49.3797 43.6506 49.5835 43.7142 49.7939 43.7366C50.0042 43.759 50.2169 43.7397 50.4198 43.6799L50.4298 43.6399Z" fill="#2F2F38"/>
<path d="M32.2 35.2999C31.8747 35.0174 31.672 34.6196 31.6347 34.1904C31.5973 33.7612 31.7283 33.3343 32 32.9999L36.25 27.7999C36.3852 27.6354 36.5517 27.4993 36.7398 27.3996C36.928 27.2999 37.1341 27.2385 37.3461 27.2189C37.5582 27.1994 37.772 27.2221 37.9752 27.2858C38.1784 27.3495 38.367 27.4529 38.53 27.5899C38.8596 27.8713 39.0661 28.2705 39.1054 28.7021C39.1446 29.1338 39.0135 29.5637 38.74 29.8999L34.49 35.0999C34.3548 35.2644 34.1883 35.4005 34.0001 35.5002C33.8119 35.5999 33.6059 35.6613 33.3938 35.6809C33.1818 35.7004 32.9679 35.6777 32.7647 35.614C32.5615 35.5503 32.373 35.447 32.21 35.3099L32.2 35.2999Z" fill="#2F2F38"/>
<path d="M39.1198 16.45L33.2998 19.88C34.9498 18.88 37.2198 19.05 39.7398 20.52L45.5498 17.09C42.9998 15.62 40.7598 15.48 39.1198 16.45Z" fill="#416DB4"/>
<mask id="mask0_369_6857" style="mask-type:luminance" maskUnits="userSpaceOnUse" x="33" y="15" width="13" height="6">
<path d="M39.1198 16.45L33.2998 19.88C34.9498 18.88 37.2198 19.05 39.7398 20.52L45.5498 17.09C42.9998 15.62 40.7598 15.48 39.1198 16.45Z" fill="white"/>
</mask>
<g mask="url(#mask0_369_6857)">
<path d="M39.7396 20.5199L45.5496 17.0899C45.0948 16.8206 44.6201 16.5866 44.1296 16.3899L38.3096 19.8199C38.8015 20.0206 39.2793 20.2544 39.7396 20.5199Z" fill="#416DB4"/>
<path d="M38.3098 19.82L44.1298 16.39C43.3489 16.0111 42.4906 15.8193 41.6227 15.8297C40.7549 15.8402 39.9014 16.0525 39.1298 16.45L33.2998 19.88C34.0716 19.4833 34.925 19.2713 35.7927 19.2609C36.6605 19.2505 37.5187 19.4419 38.2998 19.82H38.3098Z" fill="#325EA9"/>
</g>
<path d="M46.11 42.2601L51.93 38.8301C53.55 37.8301 54.55 35.8301 54.56 32.9401C54.56 27.1201 50.56 20.0201 45.56 17.0901L39.75 20.5201C44.75 23.4501 48.75 30.5201 48.75 36.3701C48.74 39.2701 47.73 41.3001 46.11 42.2601Z" fill="#416DB4"/>
<mask id="mask1_369_6857" style="mask-type:luminance" maskUnits="userSpaceOnUse" x="39" y="17" width="16" height="26">
<path d="M46.11 42.2601L51.93 38.8301C53.55 37.8301 54.55 35.8301 54.56 32.9401C54.56 27.1201 50.56 20.0201 45.56 17.0901L39.75 20.5201C44.75 23.4501 48.75 30.5201 48.75 36.3701C48.74 39.2701 47.73 41.3001 46.11 42.2601Z" fill="white"/>
</mask>
<g mask="url(#mask1_369_6857)">
<path d="M46.1104 42.2602L51.9304 38.8302C53.5504 37.8302 54.5504 35.8302 54.5604 32.9402C54.5628 32.0135 54.4723 31.0888 54.2904 30.1802L48.4804 33.6102C48.6569 34.5196 48.7473 35.4437 48.7504 36.3702C48.7504 39.2702 47.7504 41.3002 46.1104 42.2602Z" fill="#325EA9"/>
<path d="M48.4802 33.6101L54.2902 30.1801C53.2902 25.0301 49.7802 19.5701 45.5502 17.0901L39.7402 20.5201C44.0002 23.0001 47.5002 28.4601 48.4802 33.6101Z" fill="#416DB4"/>
</g>
<path d="M39.7399 20.5201C34.7399 17.6001 30.6799 19.9501 30.6699 25.7701C30.6599 31.5901 34.6699 38.6901 39.6699 41.6201C44.6699 44.5501 48.6699 42.2001 48.7399 36.3701C48.8099 30.5401 44.7299 23.4501 39.7399 20.5201Z" fill="#1F4B9B"/>
<path d="M31.5801 26.3101C31.5801 31.5501 35.1901 37.9301 39.6801 40.5601C42.2601 42.0701 44.5601 42.0201 46.0501 40.7101L46.1701 40.6001C46.7554 39.9606 47.2052 39.2091 47.4922 38.391C47.7792 37.5729 47.8975 36.7052 47.8401 35.8401C47.8401 30.6001 44.2201 24.2201 39.7301 21.5901C37.6601 20.3701 35.7301 20.1701 34.3201 20.8201C34.1817 20.8799 34.0479 20.9501 33.9201 21.0301C32.4801 21.9001 31.5801 23.7201 31.5801 26.3101Z" fill="#E0DDE1"/>
<path d="M32.5402 25.6901C32.5402 30.9301 36.1502 37.3101 40.6402 39.9401C42.7202 41.1601 44.6402 41.3601 46.0502 40.7101L46.1702 40.6001C46.7555 39.9606 47.2053 39.2091 47.4923 38.391C47.7793 37.5729 47.8976 36.7052 47.8402 35.8401C47.8402 30.6001 44.2202 24.2201 39.7302 21.5901C37.6602 20.3701 35.7302 20.1701 34.3202 20.8201C33.6939 21.4583 33.2111 22.223 32.9041 23.0628C32.5971 23.9027 32.4731 24.7984 32.5402 25.6901Z" fill="#F1F1F1"/>
<path d="M34.9999 12.8399C36.0948 12.2043 37.3901 12.0077 38.6243 12.2898C39.8586 12.5719 40.9398 13.3117 41.6499 14.3599L41.7499 14.5399C41.8512 14.6856 41.9257 14.8481 41.9699 15.0199C42.0175 15.3461 41.9976 15.6786 41.9116 15.9968C41.8256 16.315 41.6753 16.6122 41.4699 16.8699C40.7359 17.819 39.8074 18.6 38.7466 19.1606C37.6859 19.7211 36.5175 20.0482 35.3199 20.1199C34.6297 20.1757 33.943 19.9764 33.3899 19.5599C33.2463 19.4393 33.1304 19.2892 33.0499 19.1199L32.9499 18.9599C32.6577 18.4313 32.4775 17.8482 32.4205 17.2469C32.3635 16.6456 32.4309 16.039 32.6185 15.4649C32.8062 14.8907 33.11 14.3614 33.5111 13.9098C33.9121 13.4582 34.4019 13.094 34.9499 12.8399H34.9999Z" fill="#C9CCD7"/>
<path d="M36.1199 18.15C35.4461 18.0561 34.8107 17.7802 34.2821 17.352C33.7535 16.9238 33.3517 16.3595 33.1199 15.72C33.0299 15.44 32.9599 15.15 32.8999 14.87C33.3814 14.0097 34.1093 13.3131 34.9899 12.87C36.0848 12.2343 37.3801 12.0377 38.6144 12.3198C39.8486 12.6019 40.9299 13.3417 41.6399 14.39L41.7399 14.57C41.8412 14.7156 41.9157 14.8781 41.9599 15.05C42.0075 15.3761 41.9877 15.7086 41.9017 16.0268C41.8157 16.345 41.6653 16.6422 41.4599 16.9C41.3291 17.0928 41.1855 17.2765 41.0299 17.45C39.5295 18.2398 37.8055 18.4971 36.1399 18.18L36.1199 18.15Z" fill="#C9CCD7"/>
<path d="M32.8799 14.8701C32.9399 15.1501 33.0099 15.4401 33.0999 15.7201C33.3317 16.3597 33.7335 16.924 34.2621 17.3521C34.7908 17.7803 35.4262 18.0562 36.0999 18.1501C37.7688 18.4696 39.4967 18.2122 40.9999 17.4201C39.5013 19.0083 37.4586 19.9726 35.2799 20.1201C34.5897 20.1758 33.9031 19.9766 33.3499 19.5601C33.2064 19.4395 33.0905 19.2894 33.0099 19.1201L32.9099 18.9601C32.5419 18.3415 32.3477 17.635 32.3477 16.9151C32.3477 16.1953 32.5419 15.4888 32.9099 14.8701H32.8799Z" fill="#9FA6C0"/>
<path d="M41.2698 14.92C41.3215 15.056 41.3429 15.2016 41.3325 15.3467C41.3221 15.4917 41.2803 15.6328 41.2098 15.76C41.122 15.8659 41.012 15.9513 40.8876 16.01C40.7631 16.0688 40.6274 16.0995 40.4898 16.1C40.1654 16.1181 39.8412 16.0607 39.5427 15.9323C39.2443 15.8039 38.9797 15.608 38.7698 15.36C38.3571 14.8817 38.0899 14.2953 37.9998 13.67C37.8098 12.53 38.9998 12.76 39.6898 13.12C40.0571 13.2987 40.384 13.5506 40.6505 13.8601C40.917 14.1696 41.1176 14.5303 41.2398 14.92H41.2698Z" fill="#E4E6F0"/>
<path d="M46.2001 21.0901C46.344 20.8711 46.5312 20.684 46.7501 20.5401C47.6497 19.7528 48.8047 19.3193 50.0001 19.3201C51.1872 19.3375 52.3307 19.7693 53.233 20.5408C54.1353 21.3122 54.7396 22.3748 54.9413 23.5447C55.143 24.7146 54.9295 25.9182 54.3376 26.9472C53.7457 27.9763 52.8128 28.7661 51.7001 29.1801C51.4511 29.3159 51.1737 29.3912 50.8901 29.4001C50.3125 29.3966 49.7475 29.2302 49.2601 28.9201C48.2437 28.2413 47.3998 27.3346 46.7956 26.2721C46.1914 25.2096 45.8437 24.0207 45.7801 22.8001C45.7601 22.2023 45.9055 21.6106 46.2001 21.0901Z" fill="#C9CCD7"/>
<path d="M46.2002 21.0901C46.3441 20.8711 46.5312 20.684 46.7502 20.5401C47.6498 19.7528 48.8048 19.3193 50.0002 19.3201C50.3025 19.3193 50.604 19.3495 50.9002 19.4101C50.2642 19.7077 49.7177 20.1675 49.3157 20.7433C48.9137 21.319 48.6704 21.9905 48.6102 22.6901C48.4869 25.0268 49.0762 27.3458 50.3002 29.3401C49.9473 29.2521 49.61 29.1105 49.3002 28.9201C48.2837 28.2413 47.4398 27.3346 46.8356 26.2721C46.2315 25.2096 45.8837 24.0207 45.8202 22.8001C45.8002 22.2023 45.9455 21.6106 46.2402 21.0901H46.2002Z" fill="#9FA6C0"/>
<path d="M52.57 27.6701C52.4367 27.7478 52.2883 27.796 52.1348 27.8116C51.9812 27.8271 51.8262 27.8095 51.68 27.7601C51.557 27.6889 51.4505 27.5924 51.3678 27.4768C51.285 27.3613 51.2278 27.2295 51.2 27.0901C51.1338 26.7641 51.1446 26.4271 51.2313 26.106C51.3181 25.7849 51.4786 25.4884 51.7 25.2401C52.1541 24.7644 52.7273 24.4191 53.36 24.2401C54.53 23.8501 54.48 25.0801 54.22 25.8401C54.0834 26.2435 53.8668 26.6152 53.5833 26.9331C53.2998 27.2509 52.9552 27.5084 52.57 27.6901V27.6701Z" fill="#E4E6F0"/>
<path d="M52.86 22.6099L53.23 22.3899L50.06 16.7999C49.6476 16.0645 49.0559 15.4453 48.34 14.9999L41.27 10.8799C41.0035 10.6912 40.6911 10.5778 40.3656 10.5514C40.0401 10.525 39.7135 10.5866 39.42 10.7299L36.25 12.6299L36.47 12.9999L39.64 11.0999C39.8692 10.9966 40.1221 10.9569 40.372 10.9851C40.6218 11.0133 40.8595 11.1082 41.06 11.2599L48.13 15.3699C48.7773 15.7753 49.3134 16.3355 49.69 16.9999L52.86 22.6099Z" fill="#8B95C0"/>
<path d="M52.28 20.5701H52.21L52.05 20.6701C51.8833 20.8535 51.7907 21.0923 51.79 21.3401C51.789 21.7821 51.877 22.2197 52.0488 22.6269C52.2206 23.0341 52.4727 23.4025 52.79 23.7101C52.8774 23.795 52.9807 23.8616 53.094 23.9063C53.2073 23.9509 53.3283 23.9726 53.45 23.9701L53.63 23.9201H53.7C54.0988 23.7035 54.3977 23.3405 54.5339 22.9076C54.6701 22.4748 54.6329 22.006 54.43 21.6001C54.2726 21.1815 53.9565 20.8418 53.5504 20.6546C53.1442 20.4674 52.6806 20.4478 52.26 20.6001L52.28 20.5701Z" fill="#9FA6C0"/>
<path d="M51.79 21.3701C51.7907 21.1222 51.8833 20.8835 52.05 20.7001C52.0999 20.6642 52.1535 20.634 52.21 20.6101H52.28C52.4654 20.5261 52.6665 20.4827 52.87 20.4827C53.0735 20.4827 53.2747 20.5261 53.46 20.6101C53.0785 20.863 52.788 21.2316 52.6315 21.6618C52.4749 22.092 52.4603 22.561 52.59 23.0001C52.7337 23.3577 52.9255 23.6942 53.16 24.0001C53.0334 23.9482 52.9154 23.8774 52.81 23.7901C52.4927 23.4824 52.2406 23.114 52.0688 22.7068C51.897 22.2996 51.809 21.862 51.81 21.4201L51.79 21.3701Z" fill="#8B95C0"/>
<path d="M34.1598 14.0001C34.1908 14.0509 34.2277 14.0979 34.2698 14.1401C34.3608 14.2026 34.4635 14.2463 34.5717 14.2686C34.6798 14.291 34.7914 14.2915 34.8998 14.2701C35.3178 14.2125 35.7197 14.0702 36.0808 13.8518C36.4419 13.6334 36.7546 13.3436 36.9998 13.0001C37.1351 12.8197 37.1959 12.5941 37.1698 12.3701L37.0998 12.2101V12.1601C36.9784 11.9965 36.8259 11.8584 36.6511 11.7538C36.4763 11.6492 36.2826 11.58 36.0811 11.5503C35.8796 11.5206 35.6741 11.5309 35.4766 11.5806C35.279 11.6303 35.0932 11.7185 34.9298 11.8401C34.5605 12.0306 34.2806 12.3581 34.1497 12.7524C34.0189 13.1468 34.0476 13.5767 34.2298 13.9501L34.1598 14.0001Z" fill="#9FA6C0"/>
<path d="M34.4302 12.2C34.5559 12.632 34.8237 13.0089 35.1902 13.27C35.4207 13.4201 35.69 13.5001 35.9652 13.5001C36.2403 13.5001 36.5096 13.4201 36.7402 13.27C36.2675 13.7987 35.6294 14.1513 34.9302 14.27C34.8218 14.2913 34.7102 14.2908 34.6021 14.2685C34.4939 14.2461 34.3912 14.2025 34.3002 14.14C34.2581 14.0978 34.2212 14.0508 34.1902 14C34.0397 13.7166 33.9847 13.3923 34.0333 13.0752C34.082 12.7581 34.2317 12.4652 34.4602 12.24L34.4302 12.2Z" fill="#8B95C0"/>
<path d="M39.97 30.4499L40.25 30.2899L39.3 30.1699L39.02 30.3299L39.97 30.4499Z" fill="#2F2F38"/>
<path d="M40.6602 30.55L40.9302 30.38L40.2502 30.29L39.9702 30.45L40.6602 30.55Z" fill="#2F2F38"/>
<path d="M40.6598 30.55L40.9298 30.38L36.0998 22.26L35.8198 22.42L40.6598 30.55Z" fill="#2F2F38"/>
<path d="M41.1898 31.4399L41.4698 31.2799L40.7798 31.1899L40.5098 31.3499L41.1898 31.4399Z" fill="#2F2F38"/>
<path d="M41.6999 32.3L41.9799 32.14L41.4699 31.28L41.1899 31.44L41.6999 32.3Z" fill="#2F2F38"/>
<path d="M43.82 30.9601L40.66 30.5501L39.97 30.4501L39.02 30.3301L39.26 31.1801L40.51 31.3501L41.19 31.4401L44.05 31.8201L43.82 30.9601Z" fill="#2F2F38"/>
<path d="M35.8201 22.4199L35.3701 22.7199L39.9701 30.4499L40.6601 30.5499L35.8201 22.4199Z" fill="#2F2F38"/>
<path d="M41.25 32.5999L41.53 32.4399L41.98 32.1399L41.7 32.2999L41.25 32.5999Z" fill="#2F2F38"/>
<path d="M41.6998 32.3001L41.1898 31.4401L40.5098 31.3501L41.2498 32.6001L41.6998 32.3001Z" fill="#2F2F38"/>
<path d="M44.0498 31.82L44.3298 31.66L44.0998 30.8L43.8198 30.96L44.0498 31.82Z" fill="#2F2F38"/>
<path d="M43.8202 30.9599L44.1002 30.7999L40.9302 30.3799L40.6602 30.5499L43.8202 30.9599Z" fill="#2F2F38"/>
<path d="M40.54 23.6899L40.68 23.6099V22.4299L40.55 22.5199L40.54 23.6899Z" fill="#2F2F38"/>
<path d="M40.5499 22.52L40.6799 22.43L40.2899 22.2L40.1499 22.29L40.5499 22.52Z" fill="#2F2F38"/>
<path d="M40.1499 22.29V23.46L40.5399 23.69L40.5499 22.52L40.1499 22.29Z" fill="#2F2F38"/>
<path d="M40.5 38.7099L40.64 38.63V37.45L40.5 37.5299V38.7099Z" fill="#2F2F38"/>
<path d="M40.4999 37.53L40.6399 37.45L40.2499 37.22L40.1099 37.3L40.4999 37.53Z" fill="#2F2F38"/>
<path d="M40.1099 37.3V38.48L40.4999 38.71V37.53L40.1099 37.3Z" fill="#2F2F38"/>
<path d="M34.3901 27.24L34.5301 27.16V26.71L34.3901 26.79V27.24Z" fill="#2F2F38"/>
<path d="M34.3901 26.7901L34.5301 26.7101L33.5201 26.1201L33.3901 26.2001L34.3901 26.7901Z" fill="#2F2F38"/>
<path d="M33.3899 26.2L33.3799 26.65L34.3899 27.24V26.79L33.3899 26.2Z" fill="#2F2F38"/>
<path d="M47.27 34.79L47.41 34.71V34.26L47.27 34.34V34.79Z" fill="#2F2F38"/>
<path d="M47.2698 34.3399L47.4098 34.2599L46.3998 33.6699L46.2598 33.7499L47.2698 34.3399Z" fill="#2F2F38"/>
<path d="M46.2598 33.75V34.2L47.2698 34.79V34.34L46.2598 33.75Z" fill="#2F2F38"/>
<path d="M40.2599 30.4099L40.1699 30.4599C40.211 30.4362 40.2575 30.4237 40.3049 30.4237C40.3523 30.4237 40.3989 30.4362 40.4399 30.4599H40.5199C40.4816 30.4337 40.4363 30.4196 40.3899 30.4196C40.3435 30.4196 40.2982 30.4337 40.2599 30.4599V30.4099Z" fill="#2F2F38"/>
<path d="M40.4401 30.4801C40.2301 30.3601 40.0601 30.4801 40.0601 30.7001C40.0661 30.8324 40.1038 30.9614 40.1699 31.0762C40.236 31.1911 40.3286 31.2884 40.4401 31.3601C40.6501 31.4901 40.8201 31.3601 40.8201 31.1501C40.8132 31.0166 40.7752 30.8865 40.7093 30.7702C40.6433 30.6539 40.5511 30.5545 40.4401 30.4801Z" fill="#2F2F36"/>
<mask id="mask2_369_6857" style="mask-type:luminance" maskUnits="userSpaceOnUse" x="40" y="30" width="1" height="1">
<path d="M40.5199 30.44H40.4399C40.3989 30.4163 40.3523 30.4038 40.3049 30.4038C40.2575 30.4038 40.211 30.4163 40.1699 30.44L40.2599 30.39C40.2891 30.3801 40.3207 30.3801 40.3499 30.39C40.4115 30.3914 40.4711 30.4124 40.5199 30.45V30.44Z" fill="white"/>
</mask>
<g mask="url(#mask2_369_6857)">
<path d="M40.4397 30.4799H40.5197C40.4888 30.4562 40.4532 30.4394 40.4152 30.4308C40.3772 30.4222 40.3378 30.4218 40.2997 30.4299L40.2197 30.4799C40.2906 30.453 40.3689 30.453 40.4397 30.4799Z" fill="#2F2F38"/>
<path d="M40.22 30.4399L40.3 30.3899L40.21 30.4399H40.22Z" fill="#2F2F38"/>
</g>
<path d="M40.7099 31.3899L40.7899 31.3399C40.8288 31.3142 40.8598 31.2781 40.8792 31.2356C40.8986 31.1932 40.9058 31.1462 40.8999 31.0999C40.8939 30.9676 40.8562 30.8386 40.7901 30.7238C40.724 30.609 40.6314 30.5116 40.5199 30.4399H40.4399C40.551 30.5144 40.6432 30.6137 40.7091 30.73C40.7751 30.8463 40.813 30.9764 40.8199 31.1099C40.8258 31.1562 40.8186 31.2032 40.7992 31.2456C40.7798 31.2881 40.7488 31.3242 40.7099 31.3499V31.3899Z" fill="#2F2F38"/>
<mask id="mask3_369_6857" style="mask-type:luminance" maskUnits="userSpaceOnUse" x="40" y="30" width="1" height="2">
<path d="M40.8999 31.1C40.9058 31.1463 40.8986 31.1933 40.8792 31.2357C40.8598 31.2781 40.8288 31.3142 40.7899 31.34L40.7099 31.39C40.7488 31.3642 40.7798 31.3281 40.7992 31.2857C40.8186 31.2433 40.8258 31.1963 40.8199 31.15C40.813 31.0164 40.7751 30.8864 40.7091 30.7701C40.6432 30.6538 40.551 30.5544 40.4399 30.48H40.5199C40.6314 30.5517 40.724 30.649 40.7901 30.7638C40.8562 30.8786 40.8939 31.0076 40.8999 31.14V31.1Z" fill="white"/>
</mask>
<g mask="url(#mask3_369_6857)">
<path d="M40.71 31.39L40.79 31.34C40.8289 31.3142 40.8598 31.2781 40.8792 31.2357C40.8987 31.1933 40.9058 31.1463 40.9 31.1C40.8963 30.9737 40.862 30.8501 40.8 30.74L40.72 30.79C40.782 30.9001 40.8163 31.0237 40.82 31.15C40.8258 31.1963 40.8187 31.2433 40.7992 31.2857C40.7798 31.3281 40.7489 31.3642 40.71 31.39Z" fill="#2F2F38"/>
<path d="M40.7199 30.7899L40.7999 30.7399C40.7368 30.6155 40.6397 30.5115 40.5199 30.4399H40.4399C40.5579 30.518 40.6542 30.6247 40.7199 30.7499V30.7899Z" fill="#2F2F38"/>
</g>
<path d="M34.8899 39.2801C12 38.4901 4.69995 26.2801 4.16995 25.6001C4.16995 25.6001 3.66995 21.6001 4.70995 20.5101C6.27995 18.8501 10.28 20.9301 10.28 20.9301C13.4517 24.6881 17.4009 27.7133 21.8551 29.7971C26.3093 31.8809 31.1625 32.9737 36.08 33.0001L35.49 39.2401L34.8899 39.2801Z" fill="#A6CACF"/>
<path d="M30.1301 32.4799L29.6901 32.3999C30.2833 34.5332 30.088 36.8088 29.1401 38.8099H29.5501C30.4614 36.8282 30.6661 34.5942 30.1301 32.4799Z" fill="#D9EEF1"/>
<path d="M16.4298 26.6299L16.0898 26.3799C14.9198 27.1499 12.0898 29.3799 12.2098 33.0999L12.6098 33.3499C12.3398 29.5599 15.3998 27.2799 16.4298 26.6299Z" fill="#D9EEF1"/>
<path d="M12.6699 23.52L12.3699 23.23C11.2099 23.83 7.66992 25.89 7.16992 29.17L7.51992 29.5C7.83992 26.11 11.6899 24 12.6699 23.52Z" fill="#D9EEF1"/>
<path d="M20.3299 29.0601L19.9999 28.8701C18.5721 30.9351 17.7574 33.3618 17.6499 35.8701L17.9999 36.0001C17.8899 33.2301 19.5099 30.3301 20.3299 29.0601Z" fill="#D9EEF1"/>
<path d="M25.21 31.1901L24.84 31.0601C24.0265 33.2176 23.6525 35.5159 23.74 37.8201L24.14 37.9101C24.0331 35.6204 24.3973 33.3333 25.21 31.1901Z" fill="#D9EEF1"/>
<path d="M34.6901 33.4599C34.6901 33.4599 33.7501 31.3199 34.3601 30.0699L37.0001 29.9099C37.0001 29.9099 38.0001 30.7899 36.6401 33.6199L34.6901 33.4599Z" fill="#789FA1"/>
<path d="M36.9999 34.15L39.0999 33.47C39.0999 33.47 40.8799 32.86 41.0399 31.71C41.3491 32.1386 41.5443 32.6387 41.6073 33.1635C41.6703 33.6882 41.5989 34.2204 41.3999 34.71C40.7507 35.6132 39.8003 36.2551 38.7199 36.52L36.6499 36.69L36.9999 34.15Z" fill="#789FA1"/>
<path d="M36.66 37.3401L38.66 39.2001C38.053 39.7388 37.3464 40.1532 36.58 40.4201L35 39.1501L36.66 37.3401Z" fill="#789FA1"/>
<path d="M36.7101 38.7799C36.6809 38.9581 36.6169 39.1287 36.5217 39.282C36.4264 39.4353 36.3018 39.5683 36.1549 39.6733C36.0081 39.7783 35.842 39.8533 35.6661 39.8939C35.4902 39.9345 35.308 39.9399 35.1301 39.9099C34.7657 39.8842 34.4259 39.7171 34.183 39.4444C33.9402 39.1716 33.8135 38.8148 33.8301 38.4499L34.3901 33.4499C34.4648 33.0962 34.6753 32.786 34.9764 32.5859C35.2775 32.3858 35.645 32.3118 36.0001 32.3799C36.3645 32.4031 36.7049 32.5697 36.9467 32.8434C37.1885 33.117 37.312 33.4754 37.2901 33.8399L36.7101 38.7799Z" fill="#D1E6E8"/>
<path opacity="0.2" d="M38 38.6201C35.8607 38.2557 33.7491 37.7445 31.68 37.0901C29.04 36.2701 26.41 35.4701 23.8 34.5901C21.3612 33.7837 19.0148 32.7211 16.8 31.4201C14.4833 29.914 12.3374 28.1604 10.4 26.1901C9.46 25.3001 8.48 24.4401 7.6 23.4901C7.02153 22.7922 6.40738 22.1246 5.76 21.4901C5.38 21.1501 4.5 19.8601 4.05 20.5901C3.4652 21.9394 3.25449 23.4213 3.44 24.8801C4.39 29.0001 10 32.5401 10.4 36.8101C10.4 36.8701 10.68 39.6401 4.87 36.0501C3.21727 34.926 1.88396 33.3928 1 31.6001C2.27 36.6001 4.55 40.7501 7.1 43.1001C7.70871 43.653 8.37993 44.1329 9.1 44.5301C9.34812 44.6619 9.60546 44.7755 9.87 44.8701C10.3815 45.0117 10.9093 45.0856 11.44 45.0901C11.82 45.0901 12.95 44.8801 12.95 44.8801C15.1309 44.3289 17.1873 43.3685 19.01 42.0501C20.7369 40.8291 22.3144 39.4093 23.71 37.8201H23.92C25.06 38.0901 26.26 38.3301 27.53 38.5301L27.66 39.4101C26.8992 40.4039 26.2987 41.5106 25.88 42.6901C25.2577 44.7629 25.1888 46.9624 25.68 49.0701C25.7668 48.388 25.9278 47.7174 26.16 47.0701C26.0779 45.6872 26.2335 44.3005 26.62 42.9701C27.0326 41.8309 27.6233 40.7643 28.37 39.8101L28.47 39.6701L28.33 38.6701L29.09 38.7701H29.5C30.92 38.9501 32.41 39.0801 33.98 39.1501C34.1026 39.336 34.2648 39.4925 34.455 39.6083C34.6452 39.7241 34.8586 39.7965 35.08 39.8201C35.327 39.8472 35.577 39.8164 35.81 39.7301L36.54 40.3301C37.3064 40.0633 38.013 39.6488 38.62 39.1101L38 38.6201Z" fill="#413861"/>
<path d="M37.25 34.04L37.38 34.01L37.25 34.05V34.04Z" fill="#3E4545"/>
</g>
<defs>
<clipPath id="clip0_369_6857">
<rect width="55" height="55" fill="white"/>
</clipPath>
</defs>
</svg>
