<svg width="85" height="55" viewBox="0 0 85 55" fill="none" xmlns="http://www.w3.org/2000/svg">
<g clip-path="url(#clip0_369_6261)">
<path d="M12.19 19.3701L11 19.0701C10.91 19.0701 10.88 19.1201 10.86 19.1501C10.84 19.1801 10.86 19.2101 10.86 19.2301C10.86 19.2501 10.86 19.3101 10.86 19.3201L11.68 20.0801C11.687 20.0679 11.6907 20.0541 11.6907 20.0401C11.6907 20.026 11.687 20.0122 11.68 20.0001C11.6744 19.9536 11.6744 19.9066 11.68 19.8601V19.8101C11.6744 19.777 11.6744 19.7432 11.68 19.7101V19.6501L11.75 19.5601L11.88 19.4601H12.01L12.19 19.3701Z" fill="#2A292A"/>
<path d="M12.19 19.3699L16.26 20.3699C16.1331 20.3138 15.9941 20.2908 15.856 20.3031C15.7178 20.3153 15.585 20.3624 15.47 20.4399L12 19.3899C12.0286 19.3738 12.0602 19.3636 12.0929 19.3602C12.1256 19.3568 12.1586 19.3601 12.19 19.3699Z" fill="#8B95C0"/>
<mask id="mask0_369_6261" style="mask-type:luminance" maskUnits="userSpaceOnUse" x="12" y="19" width="5" height="2">
<path d="M12.19 19.3699L16.26 20.3699C16.1331 20.3138 15.9941 20.2908 15.856 20.3031C15.7178 20.3153 15.585 20.3624 15.47 20.4399L12 19.3899C12.0286 19.3738 12.0602 19.3636 12.0929 19.3602C12.1256 19.3568 12.1586 19.3601 12.19 19.3699Z" fill="white"/>
</mask>
<g mask="url(#mask0_369_6261)">
<path d="M15.47 20.4499L12 19.3899L15.54 20.3899L15.47 20.4499Z" fill="#EADCD4"/>
<path d="M15.5002 20.4299L11.9702 19.4299C12.0066 19.4231 12.0439 19.4231 12.0802 19.4299L15.8802 20.4299C15.7488 20.4529 15.621 20.4933 15.5002 20.5499V20.4299Z" fill="#8B95C0"/>
<path d="M15.8801 20.3098L12.0801 19.3098H12.1701L16.1701 20.3098C16.0779 20.2891 15.9823 20.2891 15.8901 20.3098H15.8801Z" fill="#8B95C0"/>
<path d="M16.1602 20.3398L12.1602 19.3398L16.2502 20.3398H16.1502H16.1602Z" fill="#8B95C0"/>
</g>
<path d="M14.6998 22.8999L11.6998 20.1299C11.6675 20.1078 11.6414 20.0779 11.6239 20.0429C11.6064 20.0079 11.5981 19.969 11.5998 19.9299C11.6078 19.8201 11.6419 19.7138 11.6993 19.6198C11.7567 19.5259 11.8357 19.447 11.9298 19.3899L15.4398 20.4499C15.1277 20.6387 14.8656 20.9 14.6759 21.2116C14.4862 21.5232 14.3743 21.8759 14.3498 22.2399C14.3411 22.3716 14.3692 22.5031 14.431 22.6196C14.4928 22.7362 14.5859 22.8333 14.6998 22.8999Z" fill="#8B95C0"/>
<mask id="mask1_369_6261" style="mask-type:luminance" maskUnits="userSpaceOnUse" x="11" y="19" width="5" height="4">
<path d="M14.6998 22.8999L11.6998 20.1299C11.6675 20.1078 11.6414 20.0779 11.6239 20.0429C11.6064 20.0079 11.5981 19.969 11.5998 19.9299C11.6078 19.8201 11.6419 19.7138 11.6993 19.6198C11.7567 19.5259 11.8357 19.447 11.9298 19.3899L15.4398 20.4499C15.1277 20.6387 14.8656 20.9 14.6759 21.2116C14.4862 21.5232 14.3743 21.8759 14.3498 22.2399C14.3411 22.3716 14.3692 22.5031 14.431 22.6196C14.4928 22.7362 14.5859 22.8333 14.6998 22.8999Z" fill="white"/>
</mask>
<g mask="url(#mask1_369_6261)">
<path d="M14.6998 22.8998L11.6998 20.1298C11.6675 20.1078 11.6414 20.0778 11.6239 20.0428C11.6064 20.0078 11.5981 19.9689 11.5998 19.9298C11.5998 19.9298 11.5998 19.8598 11.5998 19.8298L14.3698 21.9198C14.3599 22.0263 14.3599 22.1334 14.3698 22.2398C14.358 22.3686 14.3816 22.498 14.438 22.6144C14.4944 22.7307 14.5815 22.8294 14.6898 22.8998H14.6998Z" fill="#8B95C0"/>
<path d="M14.4099 21.92L11.6399 19.83C11.6356 19.7901 11.6356 19.7498 11.6399 19.71L14.4999 21.52C14.4431 21.6485 14.3996 21.7826 14.3699 21.92H14.4099Z" fill="#EADCD4"/>
<path d="M14.5397 21.5198L11.6797 19.7098C11.6993 19.6678 11.7227 19.6276 11.7497 19.5898L14.7497 21.0998C14.653 21.2296 14.5724 21.3706 14.5097 21.5198H14.5397Z" fill="#F6EBE4"/>
<path d="M14.7798 21.0999L11.7798 19.5899C11.8314 19.5062 11.9037 19.4373 11.9898 19.3899L15.4998 20.4499C15.2239 20.612 14.988 20.8341 14.8098 21.0999H14.7798Z" fill="#EADCD4"/>
</g>
<path d="M15.4699 20.45C16.0799 20.12 16.5799 20.38 16.5799 21.04C16.556 21.4054 16.4433 21.7594 16.2516 22.0713C16.0599 22.3832 15.795 22.6437 15.4799 22.83C14.8799 23.16 14.3799 22.89 14.3799 22.24C14.4044 21.876 14.5162 21.5233 14.7059 21.2117C14.8957 20.9001 15.1577 20.6388 15.4699 20.45Z" fill="#EADCD4"/>
<path d="M16.2497 20.3701L44.1097 35.6401C43.984 35.5867 43.847 35.5651 43.7109 35.5773C43.5749 35.5895 43.4439 35.6351 43.3297 35.7101L15.4697 20.4501C15.5831 20.3735 15.7136 20.3262 15.8497 20.3122C15.9858 20.2982 16.1232 20.3181 16.2497 20.3701Z" fill="#62525D"/>
<mask id="mask2_369_6261" style="mask-type:luminance" maskUnits="userSpaceOnUse" x="15" y="20" width="30" height="16">
<path d="M16.2497 20.3701L44.1097 35.6401C43.984 35.5867 43.847 35.5651 43.7109 35.5773C43.5749 35.5895 43.4439 35.6351 43.3297 35.7101L15.4697 20.4501C15.5831 20.3735 15.7136 20.3262 15.8497 20.3122C15.9858 20.2982 16.1232 20.3181 16.2497 20.3701Z" fill="white"/>
</mask>
<g mask="url(#mask2_369_6261)">
<path d="M43.3297 35.7102L15.4697 20.4502L43.3597 35.7002L43.3297 35.7102Z" fill="#8F757E"/>
<path d="M43.3595 35.7001L15.4995 20.4301C15.6131 20.3647 15.7392 20.3238 15.8695 20.3101L43.7295 35.5801C43.5995 35.5955 43.4738 35.6362 43.3595 35.7001Z" fill="#62525D"/>
<path d="M43.7296 35.5801L15.8696 20.3101C15.9623 20.2944 16.057 20.2944 16.1496 20.3101L43.9996 35.6001C43.904 35.5798 43.8052 35.5798 43.7096 35.6001L43.7296 35.5801Z" fill="#62525D"/>
<path d="M43.9999 35.6001L16.1499 20.3301H16.2499L44.1099 35.6401H44.0199L43.9999 35.6001Z" fill="#62525D"/>
</g>
<path d="M42.5598 38.1702L14.6998 22.9002C14.5911 22.8294 14.5032 22.731 14.4452 22.615C14.3872 22.499 14.3612 22.3696 14.3698 22.2402C14.3936 21.8748 14.5063 21.5209 14.698 21.2089C14.8897 20.897 15.1546 20.6365 15.4698 20.4502L43.3298 35.7102C43.0165 35.8977 42.7535 36.1587 42.5636 36.4705C42.3737 36.7824 42.2626 37.1358 42.2398 37.5002C42.2261 37.6305 42.2487 37.7621 42.3052 37.8804C42.3617 37.9986 42.4498 38.0989 42.5598 38.1702Z" fill="#62525D"/>
<mask id="mask3_369_6261" style="mask-type:luminance" maskUnits="userSpaceOnUse" x="14" y="20" width="30" height="19">
<path d="M42.5598 38.1702L14.6998 22.9002C14.5911 22.8294 14.5032 22.731 14.4452 22.615C14.3872 22.499 14.3612 22.3696 14.3698 22.2402C14.3936 21.8748 14.5063 21.5209 14.698 21.2089C14.8897 20.897 15.1546 20.6365 15.4698 20.4502L43.3298 35.7102C43.0165 35.8977 42.7535 36.1587 42.5636 36.4705C42.3737 36.7824 42.2626 37.1358 42.2398 37.5002C42.2261 37.6305 42.2487 37.7621 42.3052 37.8804C42.3617 37.9986 42.4498 38.0989 42.5598 38.1702Z" fill="white"/>
</mask>
<g mask="url(#mask3_369_6261)">
<path d="M42.5596 38.1702L14.6996 22.9002C14.591 22.8294 14.5031 22.7309 14.4451 22.6149C14.3871 22.4989 14.3611 22.3696 14.3696 22.2402C14.3599 22.1337 14.3599 22.0266 14.3696 21.9202L42.2696 37.1902C42.2598 37.2933 42.2598 37.3971 42.2696 37.5002C42.2559 37.6305 42.2786 37.7621 42.3351 37.8803C42.3916 37.9986 42.4797 38.0989 42.5896 38.1702H42.5596Z" fill="#4B3D47"/>
<path d="M42.2697 37.1903L14.4097 21.9203C14.4393 21.7829 14.4829 21.6488 14.5397 21.5203L42.3997 36.7903C42.3414 36.9183 42.2978 37.0525 42.2697 37.1903Z" fill="#4B3D47"/>
<path d="M42.3996 36.7901L14.5396 21.5201C14.6002 21.3719 14.6773 21.231 14.7696 21.1001L42.6296 36.3701C42.5373 36.501 42.4602 36.6419 42.3996 36.7901Z" fill="#62525D"/>
<path d="M42.6295 36.3702L14.7695 21.1002C14.9487 20.8317 15.1885 20.609 15.4695 20.4502L43.3295 35.7102C43.0502 35.8756 42.8111 36.101 42.6295 36.3702Z" fill="#8F757E"/>
</g>
<path d="M43.3297 35.7102C43.9397 35.3802 44.4297 35.6502 44.4297 36.3102C44.4044 36.674 44.2923 37.0264 44.1026 37.3378C43.9129 37.6493 43.6513 37.9107 43.3397 38.1002C42.7297 38.4302 42.2397 38.1602 42.2397 37.5002C42.2626 37.1358 42.3737 36.7824 42.5636 36.4705C42.7535 36.1587 43.0165 35.8977 43.3297 35.7102Z" fill="#8F757E"/>
<path d="M44.1196 35.6399L47.5196 37.5099C47.3945 37.4537 47.257 37.4307 47.1204 37.4429C46.9838 37.4552 46.8527 37.5024 46.7396 37.5799L43.3296 35.7199C43.4437 35.6408 43.5761 35.5919 43.7143 35.5779C43.8524 35.5639 43.9919 35.5852 44.1196 35.6399Z" fill="#4B3D47"/>
<mask id="mask4_369_6261" style="mask-type:luminance" maskUnits="userSpaceOnUse" x="43" y="35" width="5" height="3">
<path d="M44.1196 35.6399L47.5196 37.5099C47.3945 37.4537 47.257 37.4307 47.1204 37.4429C46.9838 37.4552 46.8527 37.5024 46.7396 37.5799L43.3296 35.7199C43.4437 35.6408 43.5761 35.5919 43.7143 35.5779C43.8524 35.5639 43.9919 35.5852 44.1196 35.6399Z" fill="white"/>
</mask>
<g mask="url(#mask4_369_6261)">
<path d="M46.7396 37.58L43.3296 35.72L46.7596 37.57L46.7396 37.58Z" fill="#4B3D47"/>
<path d="M46.7594 37.5698L43.3594 35.6998C43.4767 35.6347 43.6059 35.5939 43.7394 35.5798L47.1394 37.4398C47.0068 37.4635 46.8787 37.5074 46.7594 37.5698Z" fill="#2A292A"/>
<path d="M47.1397 37.44L43.7397 35.58C43.8319 35.5593 43.9276 35.5593 44.0197 35.58L47.4297 37.45C47.3341 37.4297 47.2354 37.4297 47.1397 37.45V37.44Z" fill="#2A292A"/>
<path d="M47.4295 37.4699L43.9995 35.5999H44.0995L47.4995 37.4699H47.4095H47.4295Z" fill="#4B3D47"/>
</g>
<path d="M45.9998 39.9999L42.5998 38.1399C42.4898 38.0687 42.4017 37.9684 42.3452 37.8501C42.2887 37.7319 42.2661 37.6003 42.2798 37.4699C42.3033 37.1071 42.4149 36.7554 42.6048 36.4452C42.7947 36.1351 43.0572 35.8759 43.3698 35.6899L46.7798 37.5499C46.4646 37.7363 46.1997 37.9967 46.008 38.3087C45.8163 38.6206 45.7036 38.9746 45.6798 39.3399C45.6668 39.4688 45.6899 39.5987 45.7464 39.7152C45.8029 39.8317 45.8906 39.9303 45.9998 39.9999Z" fill="#4B3D47"/>
<mask id="mask5_369_6261" style="mask-type:luminance" maskUnits="userSpaceOnUse" x="42" y="35" width="5" height="5">
<path d="M45.9998 39.9999L42.5998 38.1399C42.4898 38.0687 42.4017 37.9684 42.3452 37.8501C42.2887 37.7319 42.2661 37.6003 42.2798 37.4699C42.3033 37.1071 42.4149 36.7554 42.6048 36.4452C42.7947 36.1351 43.0572 35.8759 43.3698 35.6899L46.7798 37.5499C46.4646 37.7363 46.1997 37.9967 46.008 38.3087C45.8163 38.6206 45.7036 38.9746 45.6798 39.3399C45.6668 39.4688 45.6899 39.5987 45.7464 39.7152C45.8029 39.8317 45.8906 39.9303 45.9998 39.9999Z" fill="white"/>
</mask>
<g mask="url(#mask5_369_6261)">
<path d="M45.9995 39.9999L42.5995 38.1399C42.4895 38.0686 42.4014 37.9683 42.3449 37.8501C42.2885 37.7318 42.2658 37.6002 42.2795 37.4699C42.2701 37.3668 42.2701 37.263 42.2795 37.1599L45.6895 39.0199C45.6755 39.1261 45.6755 39.2337 45.6895 39.3399C45.6755 39.4678 45.6971 39.597 45.7518 39.7135C45.8065 39.8299 45.8922 39.929 45.9995 39.9999Z" fill="#2A292A"/>
<path d="M45.6795 39.05L42.2695 37.19C42.2992 37.0526 42.3427 36.9186 42.3995 36.79L45.7995 38.66C45.7459 38.7855 45.7057 38.9162 45.6795 39.05Z" fill="#2A292A"/>
<path d="M45.7994 38.6599L42.3994 36.7899C42.4601 36.6417 42.5372 36.5008 42.6294 36.3699L45.9994 38.2399C45.9077 38.3728 45.8274 38.5133 45.7594 38.6599H45.7994Z" fill="#62525D"/>
<path d="M45.9994 38.24L42.5894 36.37C42.771 36.1036 43.0102 35.8814 43.2894 35.72L46.6994 37.58C46.4179 37.7425 46.1782 37.9685 45.9994 38.24Z" fill="#62525D"/>
</g>
<path d="M46.7397 37.5799C47.3497 37.2499 47.8396 37.5099 47.8396 38.1699C47.8222 38.5422 47.7125 38.9043 47.5205 39.2237C47.3285 39.5431 47.0602 39.8098 46.7397 39.9999C46.1397 40.3299 45.6396 40.0699 45.6396 39.4099C45.6571 39.0376 45.7668 38.6755 45.9588 38.3561C46.1508 38.0367 46.4191 37.77 46.7397 37.5799Z" fill="#4B3D47"/>
<path d="M47.5596 37.71L48.7596 38.37C48.6469 38.3221 48.5242 38.3025 48.4022 38.3129C48.2801 38.3234 48.1625 38.3636 48.0596 38.43L46.8696 37.78C46.9691 37.7103 47.0847 37.6672 47.2055 37.655C47.3263 37.6427 47.4482 37.6617 47.5596 37.71Z" fill="#F29395"/>
<mask id="mask6_369_6261" style="mask-type:luminance" maskUnits="userSpaceOnUse" x="46" y="37" width="3" height="2">
<path d="M47.5596 37.71L48.7596 38.37C48.6469 38.3221 48.5242 38.3025 48.4022 38.3129C48.2801 38.3234 48.1625 38.3636 48.0596 38.43L46.8696 37.78C46.9691 37.7103 47.0847 37.6672 47.2055 37.655C47.3263 37.6427 47.4482 37.6617 47.5596 37.71Z" fill="white"/>
</mask>
<g mask="url(#mask6_369_6261)">
<path d="M48.0596 38.43L46.8696 37.78L48.0896 38.42L48.0596 38.43Z" fill="#F29395"/>
<path d="M48.0896 38.4202L46.8896 37.7602C46.993 37.708 47.1047 37.6741 47.2197 37.6602L48.4196 38.3102C48.3037 38.3255 48.1917 38.3628 48.0896 38.4202Z" fill="#F29395"/>
<path d="M48.4197 38.3101L47.2197 37.6601C47.3045 37.6345 47.3949 37.6345 47.4797 37.6601L48.6697 38.3101C48.5871 38.2944 48.5023 38.2944 48.4197 38.3101Z" fill="#F29395"/>
<path d="M48.6695 38.3302L47.4795 37.6802H47.5595L48.7595 38.3402H48.6695V38.3302Z" fill="#F29395"/>
</g>
<path d="M47.3698 40.6101L46.1799 40.0001C46.0829 39.9375 46.0053 39.8492 45.9559 39.7449C45.9064 39.6407 45.887 39.5247 45.8999 39.4101C45.9252 39.0852 46.0295 38.7714 46.2038 38.496C46.3781 38.2206 46.6171 37.992 46.8999 37.8301L48.0899 38.4801C47.8057 38.643 47.5659 38.8731 47.3916 39.1504C47.2172 39.4276 47.1136 39.7434 47.0899 40.0701C47.0881 40.1762 47.1127 40.2812 47.1616 40.3755C47.2105 40.4697 47.282 40.5504 47.3698 40.6101Z" fill="#F29395"/>
<mask id="mask7_369_6261" style="mask-type:luminance" maskUnits="userSpaceOnUse" x="45" y="37" width="4" height="4">
<path d="M47.3698 40.6101L46.1799 40.0001C46.0829 39.9375 46.0053 39.8492 45.9559 39.7449C45.9064 39.6407 45.887 39.5247 45.8999 39.4101C45.9252 39.0852 46.0295 38.7714 46.2038 38.496C46.3781 38.2206 46.6171 37.992 46.8999 37.8301L48.0899 38.4801C47.8057 38.643 47.5659 38.8731 47.3916 39.1504C47.2172 39.4276 47.1136 39.7434 47.0899 40.0701C47.0881 40.1762 47.1127 40.2812 47.1616 40.3755C47.2105 40.4697 47.282 40.5504 47.3698 40.6101Z" fill="white"/>
</mask>
<g mask="url(#mask7_369_6261)">
<path d="M47.37 40.6101L46.18 40.0001C46.0831 39.9376 46.0055 39.8492 45.9561 39.745C45.9066 39.6407 45.8872 39.5248 45.9 39.4101C45.8907 39.317 45.8907 39.2232 45.9 39.1301L47.09 39.7901C47.0802 39.8832 47.0802 39.9771 47.09 40.0701C47.0794 40.1845 47.0998 40.2997 47.1491 40.4035C47.1984 40.5073 47.2747 40.596 47.37 40.6601V40.6101Z" fill="#F29395"/>
<path d="M47.1202 39.74L45.9302 39.08C45.953 38.9594 45.99 38.8419 46.0402 38.73L47.2302 39.39C47.1829 39.503 47.146 39.6202 47.1202 39.74Z" fill="#F29395"/>
<path d="M47.23 39.3901L46 38.7301C46.0502 38.5965 46.121 38.4717 46.21 38.3601L47.4 39.0101C47.3203 39.1312 47.2501 39.2582 47.19 39.3901H47.23Z" fill="#F6B1B4"/>
<path d="M47.44 39L46.25 38.35C46.4018 38.1053 46.6157 37.9052 46.87 37.77L48.06 38.42C47.8142 38.5668 47.6028 38.7645 47.44 39Z" fill="#F6B1B4"/>
</g>
<path d="M48.0601 38.4299C48.6001 38.1399 49.0601 38.3699 49.0601 38.9599C49.0347 39.2848 48.9304 39.5986 48.7561 39.874C48.5818 40.1494 48.3429 40.378 48.0601 40.5399C47.5201 40.8299 47.0601 40.5999 47.0601 40.0199C47.0838 39.6933 47.1874 39.3775 47.3618 39.1002C47.5362 38.823 47.7759 38.5928 48.0601 38.4299Z" fill="#ED6F72"/>
<path d="M35.23 41.77L35.45 42.07L24.48 35.79L24.27 35.49L35.23 41.77Z" fill="#656471"/>
<mask id="mask8_369_6261" style="mask-type:luminance" maskUnits="userSpaceOnUse" x="35" y="41" width="4" height="5">
<path d="M38.65 44.83L38.86 45.13C37.9595 43.8741 36.7958 42.8298 35.45 42.07L35.23 41.77C36.5809 42.5264 37.7486 43.5712 38.65 44.83Z" fill="white"/>
</mask>
<g mask="url(#mask8_369_6261)">
<path d="M38.65 44.83L38.86 45.13C37.9595 43.8741 36.7958 42.8298 35.45 42.07L35.23 41.77C36.5809 42.5264 37.7486 43.5712 38.65 44.83Z" fill="#656471"/>
</g>
<path d="M25.77 33.6599L36.23 40.8499C38.4179 42.1921 40.1177 44.2004 41.08 46.5799L39.84 47.1099C38.9936 44.8346 37.3574 42.9394 35.23 41.7699L24.23 35.4899L25.77 33.6599Z" fill="#938FA3"/>
<mask id="mask9_369_6261" style="mask-type:luminance" maskUnits="userSpaceOnUse" x="39" y="44" width="3" height="3">
<path d="M39.8599 44.27L40.0699 44.57C40.5818 45.2833 40.9924 46.064 41.2899 46.89L41.0799 46.58C40.7782 45.759 40.3679 44.9821 39.8599 44.27Z" fill="white"/>
</mask>
<g mask="url(#mask9_369_6261)">
<path d="M39.8599 44.27L40.0699 44.57C40.4297 45.0763 40.7411 45.6154 40.9999 46.18L40.7899 45.88C40.5294 45.3162 40.2181 44.7773 39.8599 44.27Z" fill="#656471"/>
<path d="M40.79 45.8801L41 46.1801C41.1112 46.4106 41.2081 46.6477 41.29 46.8901L41.08 46.5801C40.99 46.3401 40.89 46.1101 40.79 45.8801Z" fill="#656471"/>
</g>
<path d="M41.0798 46.5798L41.2898 46.8898L40.0598 47.4198L39.8398 47.1098L41.0798 46.5798Z" fill="#7A7B7B"/>
<path d="M41.0801 46.5798L41.2901 46.8898L44.4901 53.5898L44.2701 53.2798L41.0801 46.5798Z" fill="#201F25"/>
<mask id="mask10_369_6261" style="mask-type:luminance" maskUnits="userSpaceOnUse" x="42" y="53" width="3" height="2">
<path d="M42.5498 54.67L42.3398 54.37C42.3993 54.4542 42.4782 54.5228 42.5698 54.57C42.7254 54.6467 42.8964 54.6866 43.0698 54.6866C43.2433 54.6866 43.4143 54.6467 43.5698 54.57C43.7027 54.531 43.8266 54.4662 43.9343 54.3791C44.0421 54.292 44.1315 54.1845 44.1975 54.0628C44.2635 53.941 44.3047 53.8074 44.3189 53.6696C44.333 53.5318 44.3197 53.3926 44.2798 53.26L44.4998 53.57C44.5774 53.8365 44.5462 54.1229 44.4131 54.3665C44.2801 54.6102 44.056 54.7912 43.7898 54.87C43.6343 54.9467 43.4633 54.9867 43.2898 54.9867C43.1164 54.9867 42.9454 54.9467 42.7898 54.87C42.695 54.8235 42.6127 54.7549 42.5498 54.67Z" fill="white"/>
</mask>
<g mask="url(#mask10_369_6261)">
<path d="M44.2695 53.28L44.4895 53.59V53.6L44.2795 53.29L44.2695 53.28Z" fill="#1F1F23"/>
<path d="M44.2795 53.29L44.4895 53.6C44.5558 53.7887 44.5595 53.9937 44.5 54.1847C44.4406 54.3756 44.3212 54.5423 44.1595 54.66L43.9995 54.35C44.1531 54.2257 44.2664 54.0587 44.3251 53.87C44.3839 53.6814 44.3854 53.4796 44.3295 53.29H44.2795Z" fill="#2F2F36"/>
<path d="M43.9996 54.3501L44.2096 54.6601C44.0943 54.754 43.9664 54.8315 43.8297 54.8901C43.6741 54.9668 43.5031 55.0067 43.3297 55.0067C43.1562 55.0067 42.9852 54.9668 42.8297 54.8901C42.7373 54.8394 42.6585 54.7674 42.5996 54.6801L42.3896 54.3801C42.4491 54.4643 42.528 54.5329 42.6196 54.5801C42.7752 54.6568 42.9462 54.6967 43.1196 54.6967C43.2931 54.6967 43.4641 54.6568 43.6196 54.5801C43.763 54.5242 43.8951 54.4429 44.0096 54.3401L43.9996 54.3501Z" fill="#1F1F23"/>
</g>
<path d="M41.0801 46.5798L44.2701 53.2798C44.31 53.4125 44.3232 53.5517 44.3091 53.6894C44.295 53.8272 44.2537 53.9608 44.1877 54.0826C44.1217 54.2044 44.0323 54.3119 43.9246 54.3989C43.8169 54.486 43.693 54.5509 43.5601 54.5898C43.4046 54.6666 43.2335 54.7065 43.0601 54.7065C42.8867 54.7065 42.7156 54.6666 42.5601 54.5898C42.4093 54.5129 42.2945 54.3801 42.2401 54.2198L39.8301 47.1298L41.0801 46.5798Z" fill="#2F2F36"/>
<mask id="mask11_369_6261" style="mask-type:luminance" maskUnits="userSpaceOnUse" x="21" y="42" width="1" height="1">
<path d="M21.25 42.6201L21 42.3101C21.06 42.4001 21.1428 42.4726 21.24 42.5201C21.4051 42.61 21.5923 42.6516 21.78 42.6401L22 42.9401C21.8101 42.9534 21.6201 42.9154 21.45 42.8301C21.3728 42.7709 21.3053 42.7001 21.25 42.6201Z" fill="white"/>
</mask>
<g mask="url(#mask11_369_6261)">
<path d="M21.81 42.6401L22.03 42.9401C21.8401 42.9534 21.6501 42.9154 21.48 42.8301C21.3921 42.7735 21.3143 42.7025 21.25 42.6201L21 42.3101C21.06 42.4001 21.1428 42.4726 21.24 42.5201C21.4051 42.61 21.5923 42.6516 21.78 42.6401H21.81Z" fill="#1F1F23"/>
</g>
<path d="M30.9501 42.1599L31.1701 42.4699L22.0301 42.9399L21.8101 42.6399L30.9501 42.1599Z" fill="#19191D"/>
<path d="M31.1702 41.05L31.3902 41.3601L31.1702 42.4701L30.9502 42.16L31.1702 41.05Z" fill="#2F2F36"/>
<path d="M31.17 41.05L31 42.16L21.86 42.64C21.6723 42.6516 21.4852 42.61 21.32 42.52C21.188 42.4507 21.0828 42.3393 21.0212 42.2034C20.9596 42.0675 20.9451 41.915 20.98 41.77C21.0488 41.4793 21.2157 41.2212 21.4524 41.0391C21.6892 40.857 21.9814 40.762 22.28 40.77L31.17 41.05Z" fill="#2F2F36"/>
<mask id="mask12_369_6261" style="mask-type:luminance" maskUnits="userSpaceOnUse" x="30" y="42" width="9" height="3">
<path d="M38.7502 43.92L38.9602 44.23C36.5786 42.9272 33.8809 42.3143 31.1702 42.46L30.9502 42.16C33.6632 42.0109 36.3641 42.6204 38.7502 43.92Z" fill="white"/>
</mask>
<g mask="url(#mask12_369_6261)">
<path d="M38.7502 43.92L38.9602 44.23C36.5786 42.9272 33.8809 42.3143 31.1702 42.46L30.9502 42.16C33.6632 42.0109 36.3641 42.6204 38.7502 43.92Z" fill="#656471"/>
</g>
<path d="M49.72 50.1999L49.93 50.5099L38.97 44.2299L38.75 43.9199L49.72 50.1999Z" fill="#656471"/>
<path d="M51.3802 48.47L51.5902 48.77L49.9302 50.51L49.7202 50.2L51.3802 48.47Z" fill="#919292"/>
<path d="M51.38 48.4701L49.72 50.2001L38.72 43.9201C36.3574 42.635 33.6862 42.026 31 42.1601L31.22 41.0501C34.1078 40.9569 36.9735 41.5823 39.56 42.8701L51.38 48.4701Z" fill="#938FA3"/>
<g opacity="0.7">
<path d="M37.6802 48.8L37.4502 48.48C37.631 48.733 37.8669 48.9416 38.1402 49.09L38.3602 49.41C38.0919 49.2585 37.8598 49.0503 37.6802 48.8Z" fill="#8ACFDF"/>
<mask id="mask13_369_6261" style="mask-type:luminance" maskUnits="userSpaceOnUse" x="37" y="48" width="2" height="2">
<path d="M37.6802 48.8L37.4502 48.48C37.631 48.733 37.8669 48.9416 38.1402 49.09L38.3602 49.41C38.0919 49.2585 37.8598 49.0503 37.6802 48.8Z" fill="white"/>
</mask>
<g mask="url(#mask13_369_6261)">
<path d="M38.1402 49.09L38.3602 49.41C38.0919 49.2585 37.8598 49.0503 37.6802 48.8L37.4502 48.48C37.631 48.733 37.8669 48.9416 38.1402 49.09Z" fill="#8ACFDF"/>
</g>
<path d="M44.3301 52.6401L44.5601 52.9601L38.3601 49.4101L38.1401 49.0901L44.3301 52.6401Z" fill="#8ACFDF"/>
<path d="M52.1502 46.4199L52.3802 46.7399C52.5399 47.0082 52.6031 47.323 52.5595 47.6322C52.5158 47.9413 52.3679 48.2263 52.1402 48.4399L51.9102 48.1199C52.1428 47.9095 52.2943 47.6241 52.3382 47.3134C52.382 47.0028 52.3155 46.6866 52.1502 46.4199Z" fill="#8ACFDF"/>
<mask id="mask14_369_6261" style="mask-type:luminance" maskUnits="userSpaceOnUse" x="51" y="46" width="2" height="3">
<path d="M52.1502 46.4199L52.3802 46.7399C52.5399 47.0082 52.6031 47.323 52.5595 47.6322C52.5158 47.9413 52.3679 48.2263 52.1402 48.4399L51.9102 48.1199C52.1428 47.9095 52.2943 47.6241 52.3382 47.3134C52.382 47.0028 52.3155 46.6866 52.1502 46.4199Z" fill="white"/>
</mask>
<g mask="url(#mask14_369_6261)">
<path d="M52.1504 46.4199L52.3804 46.7399C52.4175 46.7977 52.4509 46.8579 52.4804 46.9199L52.2504 46.5999C52.2248 46.5359 52.1912 46.4754 52.1504 46.4199Z" fill="#8ACFDF"/>
<path d="M52.2502 46.5999L52.4802 46.9199C52.5777 47.1788 52.5976 47.4606 52.5372 47.7306C52.4768 48.0007 52.3388 48.2472 52.1402 48.4399L51.9102 48.1199C52.111 47.9286 52.2505 47.6821 52.3111 47.4115C52.3716 47.1409 52.3504 46.8584 52.2502 46.5999Z" fill="#8ACFDF"/>
</g>
<path d="M51.9101 48.1199L52.1401 48.4499L49.0301 51.9399L48.8101 51.6199L51.9101 48.1199Z" fill="#8ACFDF"/>
<path d="M48.8101 51.6099L49.0301 51.9399C48.4942 52.5687 47.7684 53.0062 46.9621 53.1866C46.1559 53.367 45.3128 53.2804 44.5601 52.9399L44.3301 52.6199C45.0851 52.9617 45.9309 53.048 46.7394 52.8657C47.5478 52.6834 48.2748 52.2425 48.8101 51.6099Z" fill="#8ACFDF"/>
<mask id="mask15_369_6261" style="mask-type:luminance" maskUnits="userSpaceOnUse" x="44" y="51" width="6" height="3">
<path d="M48.8101 51.6099L49.0301 51.9399C48.4942 52.5687 47.7684 53.0062 46.9621 53.1866C46.1559 53.367 45.3128 53.2804 44.5601 52.9399L44.3301 52.6199C45.0851 52.9617 45.9309 53.048 46.7394 52.8657C47.5478 52.6834 48.2748 52.2425 48.8101 51.6099Z" fill="white"/>
</mask>
<g mask="url(#mask15_369_6261)">
<path d="M48.8099 51.6099L49.0299 51.9399C48.9233 52.0599 48.8033 52.1799 48.6699 52.2999L48.4399 51.9999C48.5706 51.8876 48.6942 51.7674 48.8099 51.6399V51.6099Z" fill="#8ACFDF"/>
<path d="M48.4401 51.9998L48.6701 52.3298C48.1268 52.8334 47.4465 53.1649 46.7151 53.2824C45.9836 53.3999 45.2337 53.298 44.5601 52.9898L44.3301 52.6698C45.0044 52.9781 45.7551 53.079 46.4869 52.9597C47.2188 52.8404 47.8986 52.5063 48.4401 51.9998Z" fill="#8ACFDF"/>
</g>
<path d="M47.2002 42.91C48.896 43.8637 50.5025 44.9681 52.0002 46.21C52.1333 46.3309 52.2397 46.4783 52.3125 46.6428C52.3853 46.8073 52.423 46.9851 52.423 47.165C52.423 47.3448 52.3853 47.5227 52.3125 47.6872C52.2397 47.8516 52.1333 47.9991 52.0002 48.12L48.9002 51.61C48.3636 52.241 47.6361 52.6799 46.8277 52.8604C46.0193 53.0408 45.1741 52.9529 44.4202 52.61L38.2302 49.06C37.748 48.7865 37.3922 48.335 37.2389 47.8022C37.0856 47.2695 37.1471 46.6979 37.4102 46.21C38.0202 44.86 38.8702 43.02 39.6802 41.5C39.9229 41.0706 40.3053 40.7373 40.7637 40.5554C41.2222 40.3735 41.7291 40.3539 42.2002 40.5C43.9264 41.1734 45.598 41.9792 47.2002 42.91Z" fill="#8ACFDF"/>
<path d="M37.09 47.0901C37.0385 47.4851 37.1062 47.8865 37.2844 48.2429C37.4626 48.5992 37.7431 48.8942 38.09 49.0901L44.28 52.6401C45.034 52.983 45.8791 53.0709 46.6875 52.8905C47.4959 52.71 48.2234 52.2711 48.76 51.6401L51.86 48.1501C52.1393 47.8636 52.2969 47.4802 52.3 47.0801C47.26 47.1501 42.16 47.2601 37.09 47.0901Z" fill="#D4CED8"/>
<path d="M52.0001 46.21C50.5183 44.9706 48.9287 43.8662 47.2501 42.91C45.6187 41.9784 43.9168 41.176 42.1601 40.51C41.689 40.3639 41.1821 40.3835 40.7237 40.5654C40.2653 40.7473 39.8829 41.0806 39.6401 41.51C38.8301 43.03 37.9801 44.87 37.3701 46.22C37.2521 46.4905 37.1746 46.7769 37.1401 47.07C42.2101 47.24 47.3101 47.13 52.4001 47.07C52.4048 46.9054 52.3711 46.742 52.3017 46.5928C52.2323 46.4435 52.129 46.3124 52.0001 46.21Z" fill="#E9E9E9"/>
</g>
<g opacity="0.7">
<path d="M22.6699 39.9999L22.4399 39.6899C22.6223 39.9378 22.8538 40.1455 23.1199 40.2999L23.3499 40.6199C23.0812 40.4648 22.8492 40.2533 22.6699 39.9999Z" fill="#8ACFDF"/>
<mask id="mask16_369_6261" style="mask-type:luminance" maskUnits="userSpaceOnUse" x="22" y="39" width="2" height="2">
<path d="M22.6699 39.9999L22.4399 39.6899C22.6223 39.9378 22.8538 40.1455 23.1199 40.2999L23.3499 40.6199C23.0812 40.4648 22.8492 40.2533 22.6699 39.9999Z" fill="white"/>
</mask>
<g mask="url(#mask16_369_6261)">
<path d="M23.1199 40.2699L23.3499 40.5899C23.0812 40.4347 22.8492 40.2232 22.6699 39.9699L22.4399 39.6599C22.6223 39.9078 22.8538 40.1154 23.1199 40.2699Z" fill="#8ACFDF"/>
</g>
<path d="M29.3001 43.8L29.5201 44.12L23.3501 40.59L23.1201 40.27L29.3001 43.8Z" fill="#8ACFDF"/>
<path d="M38.3103 38.24L38.5303 38.56C38.7131 38.9043 38.7537 39.3065 38.6434 39.6804C38.5331 40.0543 38.2807 40.3701 37.9403 40.56C36.4103 41.67 34.5303 42.91 33.1403 43.8C32.619 44.169 32.0087 44.3923 31.3724 44.4467C30.7361 44.5012 30.0967 44.385 29.5203 44.11L29.3003 43.79C29.8752 44.0641 30.5128 44.1799 31.1474 44.1254C31.782 44.0709 32.3905 43.8481 32.9103 43.48C34.3003 42.59 36.1803 41.35 37.7103 40.24C38.0544 40.0537 38.3107 39.7386 38.4231 39.3638C38.5356 38.989 38.495 38.585 38.3103 38.24Z" fill="#8ACFDF"/>
<mask id="mask17_369_6261" style="mask-type:luminance" maskUnits="userSpaceOnUse" x="29" y="38" width="10" height="7">
<path d="M38.3103 38.24L38.5303 38.56C38.7131 38.9043 38.7537 39.3065 38.6434 39.6804C38.5331 40.0543 38.2807 40.3701 37.9403 40.56C36.4103 41.67 34.5303 42.91 33.1403 43.8C32.619 44.169 32.0087 44.3923 31.3724 44.4467C30.7361 44.5012 30.0967 44.385 29.5203 44.11L29.3003 43.79C29.8752 44.0641 30.5128 44.1799 31.1474 44.1254C31.782 44.0709 32.3905 43.8481 32.9103 43.48C34.3003 42.59 36.1803 41.35 37.7103 40.24C38.0544 40.0537 38.3107 39.7386 38.4231 39.3638C38.5356 38.989 38.495 38.585 38.3103 38.24Z" fill="white"/>
</mask>
<g mask="url(#mask17_369_6261)">
<path d="M38.3101 38.24L38.5301 38.56C38.5709 38.6155 38.6045 38.676 38.6301 38.74L38.4101 38.42C38.3806 38.3579 38.3472 38.2978 38.3101 38.24Z" fill="#8ACFDF"/>
<path d="M38.4104 38.4199L38.6304 38.7399C38.7392 39.0439 38.7464 39.375 38.6508 39.6834C38.5552 39.9918 38.3621 40.2608 38.1004 40.4499L37.8804 40.1299C38.1395 39.9387 38.3308 39.6696 38.4261 39.3619C38.5215 39.0543 38.516 38.7242 38.4104 38.4199Z" fill="#8ACFDF"/>
<path d="M37.8803 40.1299L38.1003 40.4499L37.9403 40.5699C36.4103 41.6799 34.5303 42.9199 33.1403 43.8099C32.619 44.1789 32.0087 44.4021 31.3724 44.4566C30.7361 44.5111 30.0967 44.3949 29.5203 44.1199L29.3003 43.7999C29.8752 44.074 30.5128 44.1898 31.1474 44.1353C31.782 44.0808 32.3905 43.858 32.9103 43.4899C34.3003 42.5999 36.1803 41.3599 37.7103 40.2499L37.8803 40.1299Z" fill="#8ACFDF"/>
</g>
<path d="M33.6301 34.9999C35.1985 35.8778 36.6934 36.881 38.1001 37.9999C38.7701 38.5499 38.5901 39.5999 37.7101 40.2299C36.1801 41.3399 34.3001 42.5799 32.9101 43.4699C32.3903 43.8381 31.7818 44.0609 31.1472 44.1153C30.5126 44.1698 29.875 44.054 29.3001 43.7799L23.1201 40.2499C21.8301 39.5099 21.7201 37.8399 22.8801 36.5399L26.0001 33.0799C26.2713 32.7676 26.627 32.5401 27.0243 32.4248C27.4216 32.3095 27.8438 32.3113 28.2401 32.4299C30.1037 33.1386 31.9063 33.9981 33.6301 34.9999Z" fill="#D4CED8"/>
<path d="M38.1001 38C36.6934 36.8811 35.1985 35.8778 33.6301 35C31.8982 34.0143 30.0889 33.1715 28.2201 32.48C27.8237 32.3613 27.4016 32.3595 27.0043 32.4748C26.607 32.5901 26.2513 32.8176 25.9801 33.13L22.8801 36.61C22.4143 37.1081 22.1321 37.75 22.0801 38.43C27.4601 38.23 32.8901 38.18 38.2901 38.28C38.2431 38.1765 38.1789 38.0818 38.1001 38Z" fill="#E9E9E9"/>
</g>
<path d="M25.9102 33.3899L26.1302 33.6999L23.1702 37.0199L22.9502 36.7199L25.9102 33.3899Z" fill="#1C1C20"/>
<mask id="mask18_369_6261" style="mask-type:luminance" maskUnits="userSpaceOnUse" x="22" y="36" width="2" height="4">
<path d="M22.74 39.9999L22.53 39.6899C22.2389 39.2195 22.1215 38.662 22.1982 38.1141C22.2749 37.5662 22.5409 37.0623 22.95 36.6899L23.17 36.9899C22.7602 37.3638 22.4931 37.8686 22.4147 38.4177C22.3362 38.9669 22.4513 39.5263 22.74 39.9999Z" fill="white"/>
</mask>
<g mask="url(#mask18_369_6261)">
<path d="M22.9999 36.72L23.2199 37.02C22.8124 37.3932 22.5469 37.8961 22.4685 38.4431C22.3901 38.9901 22.5037 39.5473 22.7899 40.02L22.5799 39.71C22.2887 39.2395 22.1713 38.682 22.248 38.1341C22.3247 37.5862 22.5907 37.0824 22.9999 36.71V36.72Z" fill="#191925"/>
</g>
<mask id="mask19_369_6261" style="mask-type:luminance" maskUnits="userSpaceOnUse" x="21" y="40" width="2" height="2">
<path d="M22.1101 40.3901L21.8901 40.0801C22.1031 40.38 22.3797 40.6293 22.7001 40.8101L22.9201 41.1101C22.6002 40.933 22.3235 40.6871 22.1101 40.3901Z" fill="white"/>
</mask>
<g mask="url(#mask19_369_6261)">
<path d="M22.7001 40.8101L22.9201 41.1101C22.6002 40.933 22.3235 40.6871 22.1101 40.3901L21.8901 40.0801C22.1031 40.38 22.3797 40.6293 22.7001 40.8101Z" fill="#191925"/>
</g>
<mask id="mask20_369_6261" style="mask-type:luminance" maskUnits="userSpaceOnUse" x="25" y="32" width="13" height="7">
<path d="M37.7002 38.33L37.9202 38.64C37.8581 38.5595 37.7877 38.4857 37.7102 38.42C36.3703 37.3269 34.9421 36.3469 33.4402 35.49C31.7846 34.5458 30.0557 33.7365 28.2702 33.07C27.8907 32.9571 27.4867 32.9566 27.107 33.0684C26.7272 33.1802 26.3879 33.3995 26.1302 33.7L25.9102 33.39C26.1699 33.0923 26.5097 32.8756 26.8891 32.7657C27.2685 32.6558 27.6716 32.6573 28.0502 32.77C29.8362 33.4313 31.5653 34.2373 33.2202 35.18C34.7254 36.0403 36.157 37.0236 37.5002 38.12C37.5791 38.1772 37.6468 38.2484 37.7002 38.33Z" fill="white"/>
</mask>
<g mask="url(#mask20_369_6261)">
<path d="M37.7002 38.33L37.9202 38.64C37.8581 38.5595 37.7877 38.4857 37.7102 38.42C36.3703 37.3269 34.9421 36.3469 33.4402 35.49C31.7846 34.5458 30.0557 33.7365 28.2702 33.07C27.8907 32.9571 27.4867 32.9566 27.107 33.0684C26.7272 33.1802 26.3879 33.3995 26.1302 33.7L25.9102 33.39C26.1699 33.0923 26.5097 32.8756 26.8891 32.7657C27.2685 32.6558 27.6716 32.6573 28.0502 32.77C29.8362 33.4313 31.5653 34.2373 33.2202 35.18C34.7254 36.0403 36.157 37.0236 37.5002 38.12C37.5791 38.1772 37.6468 38.2484 37.7002 38.33Z" fill="#191925"/>
</g>
<path d="M28.6002 44.19L28.8202 44.4901L22.9202 41.1101L22.7002 40.8L28.6002 44.19Z" fill="#17181C"/>
<mask id="mask21_369_6261" style="mask-type:luminance" maskUnits="userSpaceOnUse" x="38" y="37" width="1" height="2">
<path d="M38.3301 37.9299L38.5501 38.2299C38.6916 38.4316 38.781 38.6653 38.8101 38.9099L38.6001 38.6099C38.5676 38.3645 38.4748 38.1308 38.3301 37.9299Z" fill="white"/>
</mask>
<g mask="url(#mask21_369_6261)">
<path d="M38.3301 37.9299L38.5501 38.2299C38.6916 38.4316 38.781 38.6653 38.8101 38.9099L38.6001 38.6099C38.5676 38.3645 38.4748 38.1308 38.3301 37.9299Z" fill="#191925"/>
</g>
<mask id="mask22_369_6261" style="mask-type:luminance" maskUnits="userSpaceOnUse" x="28" y="40" width="11" height="5">
<path d="M37.8601 40.3999L38.0801 40.7099C37.9701 40.8143 37.8532 40.9112 37.7301 40.9999C36.2301 42.0799 34.3901 43.2999 33.1001 44.1199C32.4834 44.5552 31.7622 44.8189 31.0102 44.8839C30.2581 44.9489 29.5023 44.813 28.8201 44.4899L28.6001 44.1799C29.283 44.5053 30.04 44.6434 30.7938 44.5801C31.5476 44.5169 32.271 44.2545 32.8901 43.8199C34.1701 42.9899 36.0201 41.8199 37.5201 40.6899C37.6423 40.6042 37.7562 40.5071 37.8601 40.3999Z" fill="white"/>
</mask>
<g mask="url(#mask22_369_6261)">
<path d="M37.8601 40.3999L38.0801 40.7099C37.9701 40.8143 37.8532 40.9112 37.7301 40.9999C36.2301 42.0799 34.3901 43.2999 33.1001 44.1199C32.4834 44.5552 31.7622 44.8189 31.0102 44.8839C30.2581 44.9489 29.5023 44.813 28.8201 44.4899L28.6001 44.1799C29.283 44.5053 30.04 44.6434 30.7938 44.5801C31.5476 44.5169 32.271 44.2545 32.8901 43.8199C34.1701 42.9899 36.0201 41.8199 37.5201 40.6899C37.6423 40.6042 37.7562 40.5071 37.8601 40.3999Z" fill="#191925"/>
</g>
<mask id="mask23_369_6261" style="mask-type:luminance" maskUnits="userSpaceOnUse" x="37" y="40" width="3" height="2">
<path d="M39.3004 41.2299L39.5204 41.5399C39.3398 41.3297 39.123 41.1536 38.8804 41.0199C38.6299 40.8788 38.3605 40.7744 38.0804 40.7099L37.8604 40.3999C38.1448 40.4655 38.4179 40.5733 38.6703 40.7199C38.9056 40.8561 39.1182 41.0281 39.3004 41.2299Z" fill="white"/>
</mask>
<g mask="url(#mask23_369_6261)">
<path d="M39.3004 41.2299L39.5204 41.5399C39.3398 41.3297 39.123 41.1536 38.8804 41.0199C38.6299 40.8788 38.3605 40.7744 38.0804 40.7099L37.8604 40.3999C38.1448 40.4655 38.4179 40.5733 38.6703 40.7199C38.9056 40.8561 39.1182 41.0281 39.3004 41.2299Z" fill="#191925"/>
</g>
<mask id="mask24_369_6261" style="mask-type:luminance" maskUnits="userSpaceOnUse" x="41" y="39" width="1" height="2">
<path d="M41 39.74L41.22 40.05C41.2947 40.1619 41.3615 40.2788 41.42 40.4L41.21 40.09C41.1497 39.9678 41.0794 39.8507 41 39.74Z" fill="white"/>
</mask>
<g mask="url(#mask24_369_6261)">
<path d="M41 39.74L41.22 40.05C41.2947 40.1619 41.3615 40.2788 41.42 40.4L41.21 40.09C41.1497 39.9678 41.0794 39.8507 41 39.74Z" fill="#191925"/>
</g>
<mask id="mask25_369_6261" style="mask-type:luminance" maskUnits="userSpaceOnUse" x="37" y="48" width="2" height="2">
<path d="M37.2603 49.06L37.0503 48.76C37.2625 49.0544 37.5353 49.2999 37.8503 49.48L38.0703 49.79C37.7499 49.6092 37.4733 49.36 37.2603 49.06Z" fill="white"/>
</mask>
<g mask="url(#mask25_369_6261)">
<path d="M37.8503 49.48L38.0703 49.79C37.7499 49.6092 37.4733 49.36 37.2603 49.06L37.0503 48.76C37.2625 49.0544 37.5353 49.2999 37.8503 49.48Z" fill="#191925"/>
</g>
<mask id="mask26_369_6261" style="mask-type:luminance" maskUnits="userSpaceOnUse" x="37" y="40" width="15" height="9">
<path d="M51.6803 46.4L51.9003 46.7C51.8449 46.6262 51.7811 46.5591 51.7103 46.5C50.2976 45.3195 48.7814 44.2686 47.1803 43.36C45.6293 42.4713 44.011 41.7056 42.3403 41.07C41.8848 40.9348 41.3967 40.9604 40.9579 41.1425C40.519 41.3246 40.1562 41.6521 39.9303 42.07C39.1703 43.52 38.3503 45.27 37.7803 46.56C37.6092 46.8937 37.5301 47.267 37.5512 47.6413C37.5723 48.0157 37.6928 48.3777 37.9003 48.69L37.6803 48.39C37.4729 48.0758 37.3525 47.7122 37.3315 47.3362C37.3104 46.9603 37.3893 46.5855 37.5603 46.25C38.1403 44.96 38.9503 43.25 39.7203 41.76C39.9458 41.3442 40.307 41.0182 40.7437 40.8362C41.1803 40.6543 41.6662 40.6274 42.1203 40.76C43.8027 41.3983 45.4341 42.1639 47.0003 43.05C48.5923 43.9681 50.1043 45.0184 51.5203 46.19C51.5833 46.2521 51.6372 46.3228 51.6803 46.4Z" fill="white"/>
</mask>
<g mask="url(#mask26_369_6261)">
<path d="M51.6803 46.4L51.9003 46.7C51.8449 46.6262 51.7811 46.5591 51.7103 46.5C50.2976 45.3195 48.7814 44.2686 47.1803 43.36C45.6293 42.4713 44.011 41.7056 42.3403 41.07C41.8848 40.9348 41.3967 40.9604 40.9579 41.1425C40.519 41.3246 40.1562 41.6521 39.9303 42.07C39.1703 43.52 38.3503 45.27 37.7803 46.56C37.6092 46.8937 37.5301 47.267 37.5512 47.6413C37.5723 48.0157 37.6928 48.3777 37.9003 48.69L37.6803 48.39C37.4729 48.0758 37.3525 47.7122 37.3315 47.3362C37.3104 46.9603 37.3893 46.5855 37.5603 46.25C38.1403 44.96 38.9503 43.25 39.7203 41.76C39.9458 41.3442 40.307 41.0182 40.7437 40.8362C41.1803 40.6543 41.6662 40.6274 42.1203 40.76C43.8027 41.3983 45.4341 42.1639 47.0003 43.05C48.5923 43.9681 50.1043 45.0184 51.5203 46.19C51.5939 46.2499 51.658 46.3208 51.7103 46.4H51.6803Z" fill="#191925"/>
</g>
<mask id="mask27_369_6261" style="mask-type:luminance" maskUnits="userSpaceOnUse" x="52" y="46" width="1" height="2">
<path d="M52.3203 46L52.5303 46.3C52.7221 46.5676 52.8205 46.8909 52.8103 47.22L52.5903 46.92C52.6012 46.5923 52.5066 46.2698 52.3203 46Z" fill="white"/>
</mask>
<g mask="url(#mask27_369_6261)">
<path d="M52.3203 46L52.5303 46.3C52.7221 46.5676 52.8205 46.8909 52.8103 47.22L52.5903 46.92C52.6012 46.5923 52.5066 46.2698 52.3203 46Z" fill="#191925"/>
</g>
<path d="M43.7601 52.86L43.9701 53.17L38.0701 49.79L37.8501 49.48L43.7601 52.86Z" fill="#17181C"/>
<mask id="mask28_369_6261" style="mask-type:luminance" maskUnits="userSpaceOnUse" x="51" y="46" width="2" height="3">
<path d="M52.5902 46.9199L52.8102 47.2199C52.7781 47.7449 52.5662 48.2428 52.2102 48.6299L51.9902 48.3299C52.3498 47.9451 52.5622 47.4458 52.5902 46.9199Z" fill="white"/>
</mask>
<g mask="url(#mask28_369_6261)">
<path d="M52.5902 46.9199L52.8102 47.2199C52.7781 47.7449 52.5662 48.2428 52.2102 48.6299L51.9902 48.3299C52.3498 47.9451 52.5622 47.4458 52.5902 46.9199Z" fill="#191925"/>
</g>
<path d="M51.9903 48.3301L52.2003 48.6301L49.2503 51.9501L49.0303 51.6501L51.9903 48.3301Z" fill="#1C1C20"/>
<path d="M52.5902 46.92C52.5622 47.4459 52.3497 47.9452 51.9902 48.33L48.9902 51.65C48.3615 52.3955 47.5077 52.9166 46.5572 53.1348C45.6067 53.353 44.6111 53.2566 43.7202 52.86L37.8102 49.48C37.2355 49.1611 36.8087 48.6294 36.6218 47.9993C36.4348 47.3691 36.5024 46.6908 36.8102 46.11C37.3602 44.87 38.2002 43.11 38.9802 41.58C39.0502 41.46 39.1302 41.34 39.2102 41.23C39.028 41.0282 38.8155 40.8562 38.5802 40.72C38.3277 40.5734 38.0547 40.4656 37.7702 40.4C37.6663 40.5072 37.5524 40.6043 37.4302 40.69C35.9302 41.78 34.0802 42.99 32.8002 43.82C32.1811 44.2546 31.4577 44.517 30.7039 44.5802C29.9501 44.6435 29.1931 44.5054 28.5102 44.18L22.6102 40.81C21.0802 39.93 20.9502 37.96 22.3302 36.41L25.3302 33.09C25.7189 32.65 26.2256 32.3308 26.7902 32.17C27.3133 31.9996 27.877 31.9996 28.4002 32.17C30.215 32.8438 31.971 33.6666 33.6502 34.63C35.1781 35.5121 36.6327 36.5153 38.0002 37.63C38.3056 37.8799 38.5027 38.2382 38.5502 38.63C39.1022 38.6371 39.6443 38.7778 40.1302 39.04C40.5636 39.2879 40.9122 39.6608 41.1302 40.11C41.574 40.0159 42.0355 40.0506 42.4602 40.21C44.1583 40.8535 45.8034 41.6293 47.3802 42.53C49.0082 43.4587 50.5509 44.5295 51.9902 45.73C52.1751 45.8687 52.3255 46.0483 52.4296 46.2547C52.5337 46.4611 52.5887 46.6888 52.5902 46.92ZM37.1302 40.25C37.9702 39.65 38.1302 38.64 37.5002 38.12C36.157 37.0237 34.7255 36.0403 33.2202 35.18C31.5653 34.2373 29.8362 33.4313 28.0502 32.77C27.6716 32.6573 27.2686 32.6558 26.8891 32.7657C26.5097 32.8756 26.1699 33.0923 25.9102 33.39L22.9102 36.72C21.8002 37.97 21.9102 39.56 23.1402 40.27L29.0402 43.65C29.5922 43.9094 30.2029 44.0182 30.8106 43.9656C31.4182 43.9129 32.0011 43.7005 32.5002 43.35C33.8302 42.49 35.6302 41.35 37.0902 40.25H37.1302ZM48.4902 51.34L51.4902 48.02C51.6186 47.9046 51.7213 47.7636 51.7916 47.6059C51.8619 47.4483 51.8982 47.2776 51.8982 47.105C51.8982 46.9324 51.8619 46.7617 51.7916 46.6041C51.7213 46.4464 51.6186 46.3053 51.4902 46.19C50.0838 45.0198 48.5819 43.9695 47.0002 43.05C45.4437 42.1652 43.8224 41.3997 42.1502 40.76C41.6961 40.6273 41.2103 40.6542 40.7736 40.8362C40.3369 41.0181 39.9757 41.3442 39.7502 41.76C38.9802 43.22 38.1702 44.96 37.5902 46.25C37.3319 46.7129 37.2679 47.2593 37.4123 47.7693C37.5567 48.2794 37.8976 48.7112 38.3602 48.97L44.2702 52.35C44.9912 52.6669 45.7957 52.7408 46.5623 52.5604C47.329 52.38 48.0162 51.9552 48.5202 51.35L48.4902 51.34Z" fill="#2F2F36"/>
<mask id="mask29_369_6261" style="mask-type:luminance" maskUnits="userSpaceOnUse" x="43" y="51" width="7" height="3">
<path d="M49 51.6499L49.22 51.9599C48.5908 52.6893 47.746 53.1996 46.8076 53.4171C45.8692 53.6347 44.886 53.5481 44 53.1699L43.79 52.8599C44.6737 53.2421 45.6566 53.3307 46.5943 53.113C47.5321 52.8952 48.3753 52.3824 49 51.6499Z" fill="white"/>
</mask>
<g mask="url(#mask29_369_6261)">
<path d="M49 51.6499L49.22 51.9599C48.5908 52.6893 47.746 53.1996 46.8076 53.4171C45.8692 53.6347 44.886 53.5481 44 53.1699L43.79 52.8599C44.6737 53.2421 45.6566 53.3307 46.5943 53.113C47.5321 52.8952 48.3753 52.3824 49 51.6499Z" fill="#191925"/>
</g>
<g style="mix-blend-mode:multiply" opacity="0.2">
<path d="M18.9999 26.8999L11.8799 38.3399H14.9799L26.4999 31.8999L18.9999 26.8999Z" fill="#502C87"/>
</g>
<path d="M0.120117 27.71L0.130117 31.9L11.8901 38.34L11.8801 34.15L0.120117 27.71Z" fill="#8B95C0"/>
<path d="M11.8799 34.15L11.8899 38.34L23.7299 31.9L23.7199 27.71L11.8799 34.15Z" fill="#C9CCD7"/>
<path d="M0.120117 27.71L11.8801 34.15L23.7201 27.71L11.9601 21.26L0.120117 27.71Z" fill="#9FA6C0"/>
<path d="M6.83 23.55C8.64823 23.022 10.3872 22.2517 12 21.26L23.76 27.71L11.88 34.15C11.88 34.15 6.51 30.67 4.4 28.94C2.74904 27.445 1.27295 25.7676 0 23.94C0 23.94 4.76 24.16 6.83 23.55Z" fill="#E4E6F0"/>
<path d="M8.31995 26.8399L7.74995 26.7499L7.31995 26.6799L6.99995 26.6099C6.92668 26.5928 6.85605 26.5659 6.78995 26.5299C6.74415 26.5143 6.70319 26.487 6.67108 26.4508C6.63897 26.4145 6.61679 26.3706 6.60672 26.3233C6.59664 26.2759 6.59902 26.2268 6.6136 26.1806C6.62819 26.1345 6.65449 26.0929 6.68995 26.0599C6.77818 25.9454 6.88261 25.8444 6.99995 25.7599C7.17559 25.6346 7.35933 25.521 7.54995 25.4199C7.63799 25.3634 7.73186 25.3164 7.82995 25.2799L8.13995 25.1399L8.05995 25.0699L7.99995 24.9999H7.93995L7.78995 24.8899V24.8399V24.7899H7.87995H8.01995L8.16995 24.8599L8.30995 24.9399L8.43995 25.0099C8.46634 25.0153 8.49355 25.0153 8.51995 25.0099L9.20995 24.7899L9.87995 24.6399C10.0686 24.6101 10.259 24.5934 10.4499 24.5899C10.5845 24.585 10.7182 24.6124 10.8399 24.6699C10.8664 24.6799 10.8902 24.6959 10.9093 24.7168C10.9284 24.7376 10.9423 24.7627 10.9499 24.7899C10.9599 24.8119 10.965 24.8358 10.965 24.8599C10.965 24.8841 10.9599 24.9079 10.9499 24.9299C10.9227 24.9889 10.8815 25.0404 10.8299 25.0799C10.771 25.1368 10.7035 25.184 10.6299 25.2199C10.5507 25.2627 10.4668 25.2962 10.3799 25.3199L10.0799 25.3999L9.71995 25.4699H9.33995H9.40995L9.49995 25.5299L9.61995 25.5999L9.74995 25.6699L9.85995 25.7399L9.94995 25.7899C9.94995 25.7899 9.94995 25.7899 9.94995 25.8499C9.9289 25.8829 9.89711 25.9077 9.85995 25.9199C9.80869 25.9513 9.75004 25.9686 9.68995 25.9699C9.64416 25.9827 9.59574 25.9827 9.54995 25.9699L8.73995 25.5299H8.44995H8.23995L7.99995 25.7299L7.87995 25.7799L7.75995 25.8399L7.64995 25.8999L7.54995 25.9499C7.49067 25.9861 7.43388 26.0262 7.37995 26.0699C7.37995 26.0699 7.31995 26.1399 7.31995 26.1699C7.31276 26.1856 7.30903 26.2027 7.30903 26.2199C7.30903 26.2372 7.31276 26.2542 7.31995 26.2699L7.42995 26.3499H7.55995H7.75995H8.01995H8.29995H8.58995C8.68301 26.3599 8.77688 26.3599 8.86995 26.3499L8.31995 26.8399ZM10.3199 25.0199H10.2699C10.2011 25.0017 10.1288 25.0017 10.0599 25.0199L9.70995 25.0999L9.28995 25.2199L8.84995 25.3699H8.90995H8.96995L9.32995 25.3199L9.69995 25.2599L10.0099 25.1799C10.1216 25.1419 10.2239 25.0806 10.3099 24.9999L10.3199 25.0199Z" fill="#35353F"/>
<path d="M10.6 26.8301C10.5516 26.9004 10.4945 26.9643 10.43 27.0201C10.3464 27.0892 10.2559 27.1495 10.16 27.2001C10.0722 27.252 9.97809 27.2924 9.87996 27.3201C9.77653 27.3606 9.66934 27.3908 9.55996 27.4101C9.4449 27.4365 9.32782 27.4533 9.20996 27.4601C9.09352 27.4703 8.9764 27.4703 8.85996 27.4601H8.52996C8.43228 27.4356 8.33817 27.3987 8.24996 27.3501C8.19322 27.3254 8.14193 27.2897 8.09903 27.245C8.05612 27.2004 8.02246 27.1478 7.99996 27.0901C7.98232 27.0543 7.97314 27.015 7.97314 26.9751C7.97314 26.9352 7.98232 26.8959 7.99996 26.8601C8.03616 26.7702 8.09467 26.6911 8.16996 26.6301C8.25917 26.5532 8.35639 26.4862 8.45996 26.4301C8.63162 26.3378 8.81265 26.264 8.99996 26.2101C9.17868 26.158 9.3638 26.131 9.54996 26.1301C9.73276 26.1103 9.91716 26.1103 10.1 26.1301C10.2758 26.1662 10.4446 26.2303 10.6 26.3201C10.7186 26.3786 10.8267 26.4563 10.92 26.5501C10.9842 26.6332 11.0379 26.7239 11.08 26.8201C11.1049 26.9185 11.1049 27.0217 11.08 27.1201L11.02 27.4201L10.69 27.5601C10.6954 27.5002 10.6954 27.44 10.69 27.3801C10.6847 27.3102 10.6847 27.24 10.69 27.1701C10.7004 27.0971 10.7004 27.0231 10.69 26.9501C10.6731 26.8924 10.6531 26.8356 10.63 26.7801L10.6 26.8301ZM8.72996 27.1401C8.79938 27.1529 8.87054 27.1529 8.93996 27.1401C9.03972 27.1499 9.1402 27.1499 9.23996 27.1401L9.58996 27.0401L9.89996 26.9001L10.07 26.7901C10.1081 26.762 10.1419 26.7283 10.17 26.6901C10.177 26.6761 10.1807 26.6607 10.1807 26.6451C10.1807 26.6295 10.177 26.6141 10.17 26.6001C10.1635 26.5816 10.153 26.5648 10.1391 26.5509C10.1253 26.5371 10.1085 26.5266 10.09 26.5201C10.0152 26.4842 9.93284 26.467 9.84996 26.4701H9.52996L9.17996 26.5501C9.06118 26.591 8.94719 26.6447 8.83996 26.7101C8.78489 26.7351 8.73423 26.7689 8.68996 26.8101C8.65228 26.8356 8.62139 26.87 8.59996 26.9101C8.59277 26.9258 8.58905 26.9428 8.58905 26.9601C8.58905 26.9774 8.59277 26.9944 8.59996 27.0101C8.61202 27.0393 8.62971 27.0657 8.65202 27.088C8.67433 27.1104 8.70081 27.128 8.72996 27.1401Z" fill="#35353F"/>
<path d="M13.47 29.6801H12.96H12.75H12.55H12.37L12.24 29.6301L12.16 29.5801C12.1312 29.551 12.1075 29.5172 12.09 29.4801C12.0748 29.4347 12.0748 29.3855 12.09 29.3401C12.0949 29.2726 12.1232 29.2089 12.17 29.1601H11.85H11.55C11.4555 29.1459 11.362 29.1259 11.27 29.1001C11.1923 29.0823 11.118 29.0519 11.05 29.0101C11.0103 28.9979 10.9737 28.9773 10.9426 28.9497C10.9116 28.9221 10.8868 28.8881 10.87 28.8501C10.8575 28.8235 10.8511 28.7945 10.8511 28.7651C10.8511 28.7357 10.8575 28.7067 10.87 28.6801C10.8959 28.6147 10.937 28.5564 10.99 28.5101C11.0548 28.4531 11.1251 28.4028 11.2 28.3601C11.2999 28.309 11.4036 28.2655 11.51 28.2301L11.89 28.1301L12.31 28.0601C12.4663 28.0447 12.6237 28.0447 12.78 28.0601C12.9298 28.0481 13.0803 28.0481 13.23 28.0601C13.3618 28.0868 13.4895 28.1305 13.61 28.1901C13.7821 28.096 13.9629 28.0189 14.15 27.9601L14.71 27.7701C14.9032 27.7073 15.1003 27.6572 15.3 27.6201C15.4847 27.5809 15.6718 27.5541 15.86 27.5401C16.0163 27.525 16.1737 27.525 16.33 27.5401C16.4518 27.5517 16.5705 27.5856 16.68 27.6401C16.7296 27.6661 16.7685 27.7085 16.79 27.7601C16.7994 27.7823 16.8042 27.8061 16.8042 27.8301C16.8042 27.8541 16.7994 27.878 16.79 27.9001C16.7485 27.9517 16.7016 27.9986 16.65 28.0401L16.44 28.1701L16.28 28.2601C16.0726 28.3657 15.8548 28.4494 15.63 28.5101L14.94 28.7001L14.23 28.8601C13.9774 28.9004 13.7271 28.9538 13.48 29.0201H13.39H13.27H13.15L13 29.0001C12.9587 29.0151 12.9211 29.039 12.89 29.0701C12.86 29.0851 12.8329 29.1055 12.81 29.1301C12.81 29.1301 12.81 29.1801 12.81 29.2001C12.81 29.2201 12.81 29.2001 12.81 29.2501H12.91H13.06H13.22H13.4H13.83L13.47 29.6801ZM13.25 28.2101C13.1105 28.1948 12.9696 28.1948 12.83 28.2101C12.6683 28.2115 12.5072 28.2317 12.35 28.2701L11.93 28.3801C11.8335 28.4081 11.7398 28.4449 11.65 28.4901H11.6C11.5953 28.5064 11.5953 28.5238 11.6 28.5401C11.5936 28.563 11.5936 28.5872 11.6 28.6101L11.7 28.6801H11.79H11.91H12.16H12.46L12.55 28.6201L12.74 28.5101L12.95 28.3901L13.1 28.3101L13.22 28.2401L13.25 28.2101ZM15.68 28.0001L15.93 27.8801L16.07 27.7801C16.07 27.7801 16.07 27.7801 16.07 27.7201C16.0012 27.7019 15.9288 27.7019 15.86 27.7201C15.7554 27.7371 15.6518 27.7605 15.55 27.7901L15.19 27.9101L14.8 28.0001L14.5 28.1301L14.31 28.2201L14.09 28.3201L13.91 28.4101L13.77 28.4901L13.67 28.5401L14.45 28.3501L14.77 28.2601L15.11 28.1601L15.43 28.0601L15.68 28.0001Z" fill="#35353F"/>
<path d="M15.8301 29.67C15.7847 29.7426 15.7272 29.8068 15.6601 29.86C15.5745 29.9294 15.4843 29.9928 15.3901 30.05L15.1101 30.17L14.7801 30.26H14.4401C14.3236 30.2702 14.2065 30.2702 14.0901 30.26C13.9807 30.276 13.8695 30.276 13.7601 30.26C13.6596 30.2388 13.5622 30.2052 13.4701 30.16C13.3711 30.1143 13.2901 30.0369 13.2401 29.94C13.2231 29.904 13.2144 29.8647 13.2144 29.825C13.2144 29.7852 13.2231 29.746 13.2401 29.71C13.2774 29.6207 13.3357 29.5418 13.4101 29.48C13.5045 29.4053 13.6048 29.3384 13.7101 29.28C13.8821 29.1812 14.0673 29.1071 14.2601 29.06C14.4363 29.0106 14.6174 28.9804 14.8001 28.97C14.9847 28.9663 15.1691 28.9831 15.3501 29.02C15.5273 29.0572 15.6988 29.1177 15.8601 29.2C15.9782 29.2587 16.0836 29.3403 16.1701 29.44C16.2434 29.5165 16.2982 29.6089 16.3301 29.71C16.3559 29.8083 16.3559 29.9117 16.3301 30.01L16.2701 30.3L15.9301 30.44C15.9459 30.3844 15.9459 30.3255 15.9301 30.27C15.9348 30.1967 15.9348 30.1232 15.9301 30.05C15.9413 29.9804 15.9413 29.9095 15.9301 29.84L15.8801 29.67H15.8301ZM14.0001 30C14.0689 30.0182 14.1413 30.0182 14.2101 30C14.3099 30.0085 14.4103 30.0085 14.5101 30C14.6297 29.978 14.7469 29.9445 14.8601 29.9C14.9663 29.8639 15.0699 29.8205 15.1701 29.77C15.2265 29.7381 15.2801 29.7013 15.3301 29.66C15.3684 29.632 15.4021 29.5983 15.4301 29.56C15.4424 29.5278 15.4424 29.4922 15.4301 29.46C15.4301 29.46 15.4301 29.41 15.3501 29.38C15.2735 29.3497 15.1923 29.3328 15.1101 29.33H14.7901C14.6712 29.3506 14.5541 29.3806 14.4401 29.42L14.0901 29.57L13.9401 29.67C13.9098 29.7003 13.883 29.7338 13.8601 29.77C13.8503 29.806 13.8503 29.844 13.8601 29.88C13.8905 29.9357 13.9403 29.9784 14.0001 30Z" fill="#35353F"/>
<g style="mix-blend-mode:multiply" opacity="0.3">
<path d="M85 29.8799L81.11 27.4999C81.2762 27.1628 81.3715 26.7953 81.39 26.4199L79.9 25.4199H75.9V25.4999V25.5599V25.6399C75.9033 25.6631 75.9033 25.6867 75.9 25.7099H75.82H75.45H75.37L75.04 25.8899C74.9329 25.9573 74.844 26.05 74.7812 26.1599C74.7184 26.2697 74.6836 26.3934 74.68 26.5199L73.86 26.9699L73.41 26.9999L73.27 26.9299H73.17H73.07H72.94H72.64H72.58L72.47 26.9799L72.14 27.1599C71.9856 27.258 71.8611 27.3966 71.78 27.5606C71.6989 27.7246 71.6643 27.9077 71.68 28.0899C71.6924 28.4802 71.7914 28.8627 71.97 29.2099L67.94 31.4999C67.9339 31.5124 67.9307 31.526 67.9307 31.5399C67.9307 31.5538 67.9339 31.5675 67.94 31.5799L72.04 29.5799C72.2875 29.9375 72.6122 30.2348 72.99 30.4499C73.1565 30.5668 73.3521 30.6352 73.5551 30.6475C73.7582 30.6599 73.9606 30.6157 74.14 30.5199L74.47 30.3399C74.6242 30.2397 74.7478 30.099 74.8272 29.9332C74.9066 29.7673 74.9387 29.5828 74.92 29.3999V29.2999L75.83 28.7999C75.944 28.8603 76.071 28.8919 76.2 28.8919C76.329 28.8919 76.4561 28.8603 76.57 28.7999L76.9 28.6199C77.0249 28.5388 77.1253 28.4252 77.1905 28.2913C77.2557 28.1574 77.2832 28.0083 77.27 27.8599C77.2746 27.8134 77.2746 27.7665 77.27 27.7199C77.27 27.7199 77.27 27.6599 77.27 27.6199C77.2739 27.6035 77.2739 27.5864 77.27 27.5699C77.2747 27.5401 77.2747 27.5097 77.27 27.4799C77.27 27.4799 77.27 27.4799 77.27 27.4199V27.3399C77.2744 27.3202 77.2744 27.2997 77.27 27.2799L78.12 27.7399V27.8499C78.1033 28.0312 78.1363 28.2136 78.2156 28.3775C78.2949 28.5414 78.4175 28.6806 78.57 28.7799L78.9 28.9599H78.85C79.0276 29.056 79.2285 29.1003 79.43 29.0879C79.6315 29.0756 79.8256 29.007 79.99 28.8899C80.3838 28.6733 80.7251 28.3729 80.99 28.0099L85.09 30.0099C85.0964 29.9958 85.0997 29.9804 85.0997 29.9649C85.0997 29.9494 85.0964 29.9341 85.09 29.9199C85.09 29.9199 85 29.8899 85 29.8799Z" fill="#CFD2E0"/>
</g>
<path d="M77.2001 24.0001L77.5301 24.1801C77.3867 24.1186 77.2303 24.0936 77.0749 24.1076C76.9196 24.1216 76.7701 24.174 76.6401 24.2601L76.3101 24.0801C76.4401 23.994 76.5896 23.9416 76.7449 23.9276C76.9003 23.9136 77.0567 23.9386 77.2001 24.0001Z" fill="#416DB4"/>
<mask id="mask30_369_6261" style="mask-type:luminance" maskUnits="userSpaceOnUse" x="76" y="23" width="2" height="2">
<path d="M77.2001 24.0001L77.5301 24.1801C77.3867 24.1186 77.2303 24.0936 77.0749 24.1076C76.9196 24.1216 76.7701 24.174 76.6401 24.2601L76.3101 24.0801C76.4401 23.994 76.5896 23.9416 76.7449 23.9276C76.9003 23.9136 77.0567 23.9386 77.2001 24.0001Z" fill="white"/>
</mask>
<g mask="url(#mask30_369_6261)">
<path d="M76.6401 24.2501L76.3101 24.0701C76.5264 23.9314 76.7878 23.8813 77.0401 23.9301L77.3701 24.1101C77.1178 24.0613 76.8564 24.1114 76.6401 24.2501Z" fill="#416DB4"/>
<path d="M77.37 24.1102L77 23.9302C77.0567 23.9395 77.1111 23.9599 77.16 23.9902L77.49 24.1702C77.4411 24.1399 77.3867 24.1195 77.33 24.1102H77.37Z" fill="#416DB4"/>
</g>
<path d="M75.7599 27.0001L75.4299 26.8201C75.3068 26.7401 75.2082 26.6278 75.1447 26.4955C75.0812 26.3633 75.0553 26.2161 75.0699 26.0701C75.1023 25.662 75.2318 25.2677 75.4475 24.9198C75.6632 24.5719 75.9588 24.2806 76.3099 24.0701L76.6399 24.2501C76.2877 24.4593 75.9912 24.7503 75.7754 25.0985C75.5595 25.4466 75.4307 25.8416 75.3999 26.2501C75.3853 26.3961 75.4112 26.5433 75.4747 26.6755C75.5382 26.8078 75.6368 26.9201 75.7599 27.0001Z" fill="#325EA9"/>
<mask id="mask31_369_6261" style="mask-type:luminance" maskUnits="userSpaceOnUse" x="75" y="24" width="2" height="3">
<path d="M75.7599 27.0001L75.4299 26.8201C75.3068 26.7401 75.2082 26.6278 75.1447 26.4955C75.0812 26.3633 75.0553 26.2161 75.0699 26.0701C75.1023 25.662 75.2318 25.2677 75.4475 24.9198C75.6632 24.5719 75.9588 24.2806 76.3099 24.0701L76.6399 24.2501C76.2877 24.4593 75.9912 24.7503 75.7754 25.0985C75.5595 25.4466 75.4307 25.8416 75.3999 26.2501C75.3853 26.3961 75.4112 26.5433 75.4747 26.6755C75.5382 26.8078 75.6368 26.9201 75.7599 27.0001Z" fill="white"/>
</mask>
<g mask="url(#mask31_369_6261)">
<path d="M75.7599 27L75.4299 26.82C75.3068 26.74 75.2082 26.6278 75.1447 26.4955C75.0812 26.3632 75.0553 26.216 75.0699 26.07C75.0879 25.6912 75.2014 25.3232 75.3999 25L75.7299 25.18C75.5266 25.5119 75.4129 25.891 75.3999 26.28C75.3853 26.426 75.4112 26.5732 75.4747 26.7055C75.5382 26.8378 75.6368 26.95 75.7599 27.03V27Z" fill="#416DB4"/>
<path d="M75.7299 25.1801L75.3999 25.0001C75.6147 24.6143 75.9289 24.2932 76.3099 24.0701L76.6399 24.2501C76.2589 24.4732 75.9447 24.7943 75.7299 25.1801Z" fill="#416DB4"/>
</g>
<path d="M76.6399 24.25C77.3299 23.88 77.8899 24.18 77.8899 24.92C77.8599 25.3287 77.7314 25.724 77.5155 26.0723C77.2996 26.4205 77.0026 26.7114 76.6499 26.92C75.9599 27.3 75.3999 27 75.3999 26.25C75.4308 25.8416 75.5596 25.4466 75.7754 25.0984C75.9912 24.7503 76.2878 24.4593 76.6399 24.25Z" fill="#1F4B9B"/>
<path d="M77.4002 24.53L79.4002 25.62C79.2881 25.5694 79.1649 25.5483 79.0424 25.5588C78.9198 25.5693 78.802 25.6111 78.7002 25.68L76.7002 24.6C76.8023 24.532 76.9194 24.49 77.0415 24.4778C77.1635 24.4656 77.2867 24.4836 77.4002 24.53Z" fill="#416DB4"/>
<mask id="mask32_369_6261" style="mask-type:luminance" maskUnits="userSpaceOnUse" x="76" y="24" width="4" height="2">
<path d="M77.4002 24.53L79.4002 25.62C79.2881 25.5694 79.1649 25.5483 79.0424 25.5588C78.9198 25.5693 78.802 25.6111 78.7002 25.68L76.7002 24.6C76.8023 24.532 76.9194 24.49 77.0415 24.4778C77.1635 24.4656 77.2867 24.4836 77.4002 24.53Z" fill="white"/>
</mask>
<g mask="url(#mask32_369_6261)">
<path d="M78.6704 25.68L76.6704 24.6C76.8392 24.4913 77.0433 24.4519 77.2404 24.49L79.2404 25.57C79.0401 25.5324 78.833 25.5716 78.6604 25.68H78.6704Z" fill="#325EA9"/>
<path d="M79.2505 25.57L77.2505 24.49H77.3805L79.3805 25.58L79.2605 25.53L79.2505 25.57Z" fill="#325EA9"/>
</g>
<path d="M78.0002 27.8701L76.0002 26.7901C75.9022 26.728 75.8233 26.64 75.7721 26.5359C75.721 26.4318 75.6995 26.3156 75.7102 26.2001C75.7323 25.8717 75.8352 25.5539 76.0097 25.2748C76.1841 24.9957 76.4247 24.7639 76.7102 24.6001L78.7102 25.6801C78.4247 25.8439 78.1841 26.0757 78.0097 26.3548C77.8352 26.6339 77.7323 26.9517 77.7102 27.2801C77.7006 27.3955 77.7226 27.5113 77.7736 27.6152C77.8247 27.7191 77.903 27.8072 78.0002 27.8701Z" fill="#416DB4"/>
<mask id="mask33_369_6261" style="mask-type:luminance" maskUnits="userSpaceOnUse" x="75" y="24" width="4" height="4">
<path d="M78.0002 27.8701L76.0002 26.7901C75.9022 26.728 75.8233 26.64 75.7721 26.5359C75.721 26.4318 75.6995 26.3156 75.7102 26.2001C75.7323 25.8717 75.8352 25.5539 76.0097 25.2748C76.1841 24.9957 76.4247 24.7639 76.7102 24.6001L78.7102 25.6801C78.4247 25.8439 78.1841 26.0757 78.0097 26.3548C77.8352 26.6339 77.7323 26.9517 77.7102 27.2801C77.7006 27.3955 77.7226 27.5113 77.7736 27.6152C77.8247 27.7191 77.903 27.8072 78.0002 27.8701Z" fill="white"/>
</mask>
<g mask="url(#mask33_369_6261)">
<path d="M78.0002 27.8701L76.0002 26.7901C75.9022 26.728 75.8233 26.64 75.7721 26.5359C75.721 26.4318 75.6995 26.3156 75.7102 26.2001C75.722 25.8928 75.8114 25.5935 75.9702 25.3301L77.9702 26.4101C77.8098 26.6722 77.7234 26.9728 77.7202 27.2801C77.7096 27.3945 77.73 27.5097 77.7793 27.6135C77.8285 27.7173 77.9048 27.8059 78.0002 27.8701Z" fill="#325EA9"/>
<path d="M78 26.4101L76 25.3301C76.1725 25.0283 76.4206 24.7767 76.72 24.6001L78.72 25.6801C78.4234 25.8602 78.176 26.111 78 26.4101Z" fill="#325EA9"/>
</g>
<path d="M78.6704 25.6799C79.2204 25.3899 79.6704 25.6199 79.6704 26.2099C79.6482 26.5383 79.5454 26.8562 79.3709 27.1353C79.1965 27.4144 78.9559 27.6461 78.6704 27.8099C78.1304 28.0999 77.6704 27.8599 77.6704 27.2799C77.6926 26.9516 77.7954 26.6337 77.9699 26.3546C78.1443 26.0755 78.3849 25.8438 78.6704 25.6799Z" fill="#416DB4"/>
<path d="M80.0004 25L80.3304 25.18C80.1526 25.1045 79.9586 25.0749 79.7663 25.0942C79.574 25.1134 79.3897 25.1807 79.2304 25.29L78.9004 25.11C79.0597 25.0007 79.244 24.9334 79.4363 24.9142C79.6286 24.8949 79.8226 24.9245 80.0004 25Z" fill="#416DB4"/>
<mask id="mask34_369_6261" style="mask-type:luminance" maskUnits="userSpaceOnUse" x="78" y="24" width="3" height="2">
<path d="M80.0004 25L80.3304 25.18C80.1526 25.1045 79.9586 25.0749 79.7663 25.0942C79.574 25.1134 79.3897 25.1807 79.2304 25.29L78.9004 25.11C79.0597 25.0007 79.244 24.9334 79.4363 24.9142C79.6286 24.8949 79.8226 24.9245 80.0004 25Z" fill="white"/>
</mask>
<g mask="url(#mask34_369_6261)">
<path d="M79.2304 25.3101L78.9004 25.1301C79.1705 24.9584 79.4952 24.8942 79.8104 24.9501L80.1404 25.1301C79.8252 25.0742 79.5005 25.1384 79.2304 25.3101Z" fill="#416DB4"/>
<path d="M80.1405 25.13L79.8105 25H80.0005L80.3306 25.18L80.1405 25.11V25.13Z" fill="#416DB4"/>
</g>
<path d="M78.1402 28.7499L77.8102 28.5699C77.6576 28.4705 77.5351 28.3314 77.4558 28.1675C77.3765 28.0036 77.3434 27.8212 77.3602 27.6399C77.3938 27.1279 77.5516 26.6318 77.82 26.1945C78.0883 25.7572 78.459 25.3918 78.9002 25.1299L79.2302 25.3099C78.7902 25.5731 78.4203 25.9388 78.1522 26.3759C77.884 26.8129 77.7255 27.3083 77.6902 27.8199C77.6734 28.0012 77.7065 28.1836 77.7858 28.3475C77.8651 28.5114 77.9876 28.6505 78.1402 28.7499Z" fill="#416DB4"/>
<mask id="mask35_369_6261" style="mask-type:luminance" maskUnits="userSpaceOnUse" x="77" y="25" width="3" height="4">
<path d="M78.1402 28.7499L77.8102 28.5699C77.6576 28.4705 77.5351 28.3314 77.4558 28.1675C77.3765 28.0036 77.3434 27.8212 77.3602 27.6399C77.3938 27.1279 77.5516 26.6318 77.82 26.1945C78.0883 25.7572 78.459 25.3918 78.9002 25.1299L79.2302 25.3099C78.7902 25.5731 78.4203 25.9388 78.1522 26.3759C77.884 26.8129 77.7255 27.3083 77.6902 27.8199C77.6734 28.0012 77.7065 28.1836 77.7858 28.3475C77.8651 28.5114 77.9876 28.6505 78.1402 28.7499Z" fill="white"/>
</mask>
<g mask="url(#mask35_369_6261)">
<path d="M78.1402 28.7498L77.8102 28.5698C77.6576 28.4704 77.5351 28.3313 77.4558 28.1674C77.3765 28.0035 77.3434 27.8211 77.3602 27.6398C77.3799 27.1591 77.5209 26.6912 77.7702 26.2798L78.1002 26.4598C77.8509 26.8712 77.7099 27.3391 77.6902 27.8198C77.6734 28.0011 77.7065 28.1835 77.7858 28.3474C77.8651 28.5113 77.9876 28.6504 78.1402 28.7498Z" fill="#416DB4"/>
<path d="M78.1 26.4599L77.77 26.2799C78.0347 25.8006 78.4255 25.4029 78.9 25.1299L79.23 25.3099C78.7555 25.5829 78.3647 25.9806 78.1 26.4599Z" fill="#416DB4"/>
</g>
<path d="M79.2304 25.31C80.0804 24.84 80.7804 25.21 80.7804 26.14C80.7451 26.6516 80.5866 27.147 80.3185 27.584C80.0503 28.0211 79.6805 28.3868 79.2404 28.65C78.3904 29.12 77.7004 28.74 77.6904 27.82C77.7257 27.3085 77.8842 26.8131 78.1524 26.376C78.4205 25.939 78.7904 25.5733 79.2304 25.31Z" fill="#1F4B9B"/>
<mask id="mask36_369_6261" style="mask-type:luminance" maskUnits="userSpaceOnUse" x="79" y="26" width="6" height="4">
<path d="M79.5899 26.7L84.3699 29.64L79.3999 26.72C79.427 26.7002 79.4588 26.6879 79.4922 26.6844C79.5256 26.6809 79.5593 26.6863 79.5899 26.7Z" fill="white"/>
</mask>
<g mask="url(#mask36_369_6261)">
<path d="M84.3399 29.65L79.3999 26.72C79.4484 26.7024 79.5014 26.7024 79.5499 26.72L84.3699 29.67L84.3399 29.65Z" fill="#ACAFBC"/>
<path d="M84.3698 29.6399L79.5498 26.6899L84.3298 29.6299L84.3698 29.6399Z" fill="#8B8D96"/>
</g>
<mask id="mask37_369_6261" style="mask-type:luminance" maskUnits="userSpaceOnUse" x="79" y="26" width="6" height="4">
<path d="M84.2999 29.76L79.2199 27.3C79.193 27.2834 79.1712 27.2596 79.1571 27.2313C79.143 27.2031 79.137 27.1714 79.1399 27.14C79.1474 27.0545 79.1749 26.9721 79.2201 26.8991C79.2652 26.8262 79.3268 26.7649 79.3999 26.72L84.3399 29.65C84.3237 29.6569 84.3097 29.6679 84.2991 29.6819C84.2886 29.696 84.282 29.7125 84.2799 29.73C84.2799 29.73 84.2899 29.76 84.2999 29.76Z" fill="white"/>
</mask>
<g mask="url(#mask37_369_6261)">
<path d="M84.2999 29.7599L79.2199 27.2999C79.193 27.2833 79.1712 27.2595 79.1571 27.2313C79.143 27.203 79.137 27.1714 79.1399 27.1399C79.1459 27.059 79.1698 26.9805 79.2099 26.9099L84.2999 29.6899V29.7599Z" fill="#8B8D96"/>
<path d="M84.3 29.69L79.21 26.91C79.2572 26.8324 79.3224 26.7673 79.4 26.72L84.34 29.65L84.3 29.69Z" fill="#ACAFBC"/>
</g>
<path d="M84.3398 29.6499C84.3398 29.6499 84.3398 29.7099 84.3398 29.7299H84.2798C84.2819 29.7125 84.2885 29.6959 84.2991 29.6819C84.3096 29.6678 84.3236 29.6568 84.3398 29.6499Z" fill="#A1A2AD"/>
<path d="M74.5102 25.6001L74.1802 25.7801C74.3226 25.7199 74.4779 25.6966 74.6317 25.7124C74.7855 25.7281 74.9329 25.7823 75.0602 25.8701L75.3902 25.6901C75.2629 25.6023 75.1155 25.5481 74.9617 25.5324C74.8079 25.5166 74.6526 25.5399 74.5102 25.6001Z" fill="#ED6B5A"/>
<mask id="mask38_369_6261" style="mask-type:luminance" maskUnits="userSpaceOnUse" x="74" y="25" width="2" height="1">
<path d="M74.5102 25.6001L74.1802 25.7801C74.3226 25.7199 74.4779 25.6966 74.6317 25.7124C74.7855 25.7281 74.9329 25.7823 75.0602 25.8701L75.3902 25.6901C75.2629 25.6023 75.1155 25.5481 74.9617 25.5324C74.8079 25.5166 74.6526 25.5399 74.5102 25.6001Z" fill="white"/>
</mask>
<g mask="url(#mask38_369_6261)">
<path d="M75.0601 25.8702L75.3901 25.6902C75.1752 25.548 74.9137 25.4943 74.6601 25.5402L74.3301 25.7202C74.5836 25.6743 74.8452 25.728 75.0601 25.8702Z" fill="#ED6B5A"/>
<path d="M74.3302 25.7203L74.6602 25.5403L74.5102 25.6003L74.1802 25.7803L74.3302 25.7203Z" fill="#ED6B5A"/>
</g>
<path d="M75.9401 28.65L76.2701 28.47C76.3949 28.3888 76.4953 28.2752 76.5605 28.1413C76.6257 28.0074 76.6532 27.8583 76.6401 27.71C76.6081 27.3006 76.4778 26.905 76.2602 26.5568C76.0425 26.2086 75.744 25.9181 75.3901 25.71L75.0601 25.89C75.414 26.0981 75.7125 26.3886 75.9302 26.7368C76.1478 27.085 76.2781 27.4806 76.3101 27.89C76.3255 28.0386 76.299 28.1885 76.2336 28.3228C76.1682 28.4571 76.0665 28.5705 75.9401 28.65Z" fill="#A2241E"/>
<mask id="mask39_369_6261" style="mask-type:luminance" maskUnits="userSpaceOnUse" x="75" y="25" width="2" height="4">
<path d="M75.9401 28.65L76.2701 28.47C76.3949 28.3888 76.4953 28.2752 76.5605 28.1413C76.6257 28.0074 76.6532 27.8583 76.6401 27.71C76.6081 27.3006 76.4778 26.905 76.2602 26.5568C76.0425 26.2086 75.744 25.9181 75.3901 25.71L75.0601 25.89C75.414 26.0981 75.7125 26.3886 75.9302 26.7368C76.1478 27.085 76.2781 27.4806 76.3101 27.89C76.3255 28.0386 76.299 28.1885 76.2336 28.3228C76.1682 28.4571 76.0665 28.5705 75.9401 28.65Z" fill="white"/>
</mask>
<g mask="url(#mask39_369_6261)">
<path d="M75.9399 28.6499L76.2699 28.4699C76.3948 28.3887 76.4952 28.2751 76.5604 28.1412C76.6256 28.0073 76.6531 27.8582 76.6399 27.7099C76.6235 27.3245 76.51 26.9496 76.3099 26.6199L75.9999 26.7999C76.2 27.1296 76.3135 27.5045 76.3299 27.8899C76.3454 28.0385 76.3189 28.1884 76.2535 28.3227C76.1881 28.457 76.0864 28.5704 75.9599 28.6499H75.9399Z" fill="#ED6B5A"/>
<path d="M76.0001 26.7999L76.3301 26.6199C76.1118 26.2335 75.7942 25.9124 75.4101 25.6899L75.0801 25.8699C75.4663 26.0896 75.7846 26.4114 76.0001 26.7999Z" fill="#ED6B5A"/>
</g>
<path d="M75.0601 25.87C74.3801 25.49 73.8201 25.79 73.8101 26.54C73.8452 26.9485 73.9769 27.3428 74.1942 27.6905C74.4115 28.0382 74.7083 28.3294 75.0601 28.54C75.7401 28.91 76.3001 28.61 76.3101 27.86C76.2766 27.4524 76.1455 27.0588 75.928 26.7124C75.7104 26.3661 75.4127 26.0771 75.0601 25.87Z" fill="#D83E28"/>
<path d="M74.3101 26.15L72.3101 27.23C72.4228 27.1821 72.5455 27.1625 72.6675 27.173C72.7895 27.1834 72.9072 27.2236 73.0101 27.29L75.0101 26.21C74.909 26.1392 74.7911 26.0963 74.6681 26.0858C74.5452 26.0753 74.4217 26.0974 74.3101 26.15Z" fill="#ED6B5A"/>
<mask id="mask40_369_6261" style="mask-type:luminance" maskUnits="userSpaceOnUse" x="72" y="26" width="4" height="2">
<path d="M74.3101 26.15L72.3101 27.23C72.4228 27.1821 72.5455 27.1625 72.6675 27.173C72.7895 27.1834 72.9072 27.2236 73.0101 27.29L75.0101 26.21C74.909 26.1392 74.7911 26.0963 74.6681 26.0858C74.5452 26.0753 74.4217 26.0974 74.3101 26.15Z" fill="white"/>
</mask>
<g mask="url(#mask40_369_6261)">
<path d="M72.9997 27.2899L74.9997 26.2099C74.8291 26.1058 74.6267 26.0667 74.4297 26.0999L72.4297 27.1799C72.6267 27.1467 72.8291 27.1858 72.9997 27.2899Z" fill="#A2241E"/>
<path d="M72.4598 27.1799L74.4598 26.0999H74.3398L72.3398 27.1799L72.4698 27.1299L72.4598 27.1799Z" fill="#A2241E"/>
</g>
<path d="M73.72 29.48L75.72 28.4C75.8161 28.3366 75.8931 28.2481 75.9424 28.1441C75.9918 28.0401 76.0117 27.9245 76 27.81C75.9778 27.4816 75.875 27.1637 75.7005 26.8846C75.5261 26.6055 75.2855 26.3738 75 26.21L73 27.29C73.2855 27.4538 73.5261 27.6855 73.7005 27.9646C73.875 28.2437 73.9778 28.5616 74 28.89C74.0128 29.0046 73.9934 29.1206 73.944 29.2248C73.8945 29.329 73.8169 29.4174 73.72 29.48Z" fill="#ED6B5A"/>
<mask id="mask41_369_6261" style="mask-type:luminance" maskUnits="userSpaceOnUse" x="73" y="26" width="4" height="4">
<path d="M73.72 29.48L75.72 28.4C75.8161 28.3366 75.8931 28.2481 75.9424 28.1441C75.9918 28.0401 76.0117 27.9245 76 27.81C75.9778 27.4816 75.875 27.1637 75.7005 26.8846C75.5261 26.6055 75.2855 26.3738 75 26.21L73 27.29C73.2855 27.4538 73.5261 27.6855 73.7005 27.9646C73.875 28.2437 73.9778 28.5616 74 28.89C74.0128 29.0046 73.9934 29.1206 73.944 29.2248C73.8945 29.329 73.8169 29.4174 73.72 29.48Z" fill="white"/>
</mask>
<g mask="url(#mask41_369_6261)">
<path d="M73.72 29.4799L75.72 28.4C75.8161 28.3366 75.893 28.2481 75.9424 28.1441C75.9917 28.04 76.0117 27.9245 76 27.8099C75.9896 27.5055 75.9 27.2091 75.74 26.95L73.74 28.03C73.9 28.2891 73.9896 28.5855 74 28.8899C74.0118 29.0056 73.9909 29.1222 73.9396 29.2266C73.8883 29.3309 73.8087 29.4187 73.71 29.4799H73.72Z" fill="#A2241E"/>
<path d="M73.7498 27.9999L75.7498 26.9199C75.5787 26.6145 75.3304 26.3593 75.0298 26.1799L73.0298 27.2599C73.3304 27.4393 73.5787 27.6945 73.7498 27.9999Z" fill="#A2241E"/>
</g>
<path d="M73 27.29C72.46 27 72 27.24 72 27.82C72.0222 28.1484 72.125 28.4662 72.2995 28.7453C72.4739 29.0244 72.7145 29.2561 73 29.42C73.55 29.72 74 29.48 74 28.89C73.9778 28.5616 73.875 28.2437 73.7005 27.9646C73.5261 27.6855 73.2855 27.4538 73 27.29Z" fill="#ED6B5A"/>
<path d="M71.7001 26.6399L71.3701 26.8199C71.5469 26.742 71.7406 26.7103 71.933 26.7278C72.1255 26.7453 72.3103 26.8114 72.4701 26.9199L72.8001 26.7399C72.6414 26.6287 72.4564 26.5609 72.2634 26.5434C72.0705 26.5258 71.8762 26.5591 71.7001 26.6399Z" fill="#ED6B5A"/>
<mask id="mask42_369_6261" style="mask-type:luminance" maskUnits="userSpaceOnUse" x="71" y="26" width="2" height="1">
<path d="M71.7001 26.6399L71.3701 26.8199C71.5469 26.742 71.7406 26.7103 71.933 26.7278C72.1255 26.7453 72.3103 26.8114 72.4701 26.9199L72.8001 26.7399C72.6414 26.6287 72.4564 26.5609 72.2634 26.5434C72.0705 26.5258 71.8762 26.5591 71.7001 26.6399Z" fill="white"/>
</mask>
<g mask="url(#mask42_369_6261)">
<path d="M72.4703 26.9199L72.8003 26.7399C72.5336 26.5688 72.2123 26.5046 71.9003 26.5599L71.5703 26.7399C71.8822 26.6903 72.2015 26.7541 72.4703 26.9199Z" fill="#ED6B5A"/>
<path d="M71.5701 26.7398L71.9001 26.5598C71.8297 26.576 71.7623 26.603 71.7001 26.6398L71.3701 26.8198C71.4323 26.783 71.4997 26.756 71.5701 26.7398Z" fill="#ED6B5A"/>
</g>
<path d="M73.5597 30.37L73.8897 30.19C74.0439 30.0898 74.1675 29.9491 74.2469 29.7832C74.3262 29.6174 74.3584 29.4329 74.3397 29.25C74.3044 28.7385 74.1459 28.243 73.8778 27.806C73.6096 27.3689 73.2398 27.0032 72.7997 26.74L72.4697 26.92C72.9079 27.1844 73.2758 27.5506 73.5422 27.9876C73.8085 28.4246 73.9655 28.9194 73.9997 29.43C74.0194 29.6119 73.9888 29.7958 73.9112 29.9615C73.8336 30.1273 73.7121 30.2686 73.5597 30.37Z" fill="#ED6B5A"/>
<mask id="mask43_369_6261" style="mask-type:luminance" maskUnits="userSpaceOnUse" x="72" y="26" width="3" height="5">
<path d="M73.5597 30.37L73.8897 30.19C74.0439 30.0898 74.1675 29.9491 74.2469 29.7832C74.3262 29.6174 74.3584 29.4329 74.3397 29.25C74.3044 28.7385 74.1459 28.243 73.8778 27.806C73.6096 27.3689 73.2398 27.0032 72.7997 26.74L72.4697 26.92C72.9079 27.1844 73.2758 27.5506 73.5422 27.9876C73.8085 28.4246 73.9655 28.9194 73.9997 29.43C74.0194 29.6119 73.9888 29.7958 73.9112 29.9615C73.8336 30.1273 73.7121 30.2686 73.5597 30.37Z" fill="white"/>
</mask>
<g mask="url(#mask43_369_6261)">
<path d="M73.5598 30.3699L73.8898 30.1899C74.044 30.0897 74.1675 29.949 74.2469 29.7831C74.3263 29.6173 74.3585 29.4328 74.3398 29.2499C74.3251 28.7684 74.1836 28.2993 73.9298 27.8899L73.5998 28.0699C73.8501 28.4803 73.9881 28.9493 73.9998 29.4299C74.0185 29.6128 73.9863 29.7973 73.9069 29.9631C73.8275 30.129 73.704 30.2697 73.5498 30.3699H73.5598Z" fill="#ED6B5A"/>
<path d="M73.5997 28.07L73.9297 27.89C73.6651 27.4107 73.2743 27.013 72.7997 26.74L72.4697 26.92C72.9443 27.193 73.335 27.5907 73.5997 28.07Z" fill="#ED6B5A"/>
</g>
<path d="M72.4699 26.92C71.6199 26.45 70.9299 26.83 70.9199 27.75C70.9545 28.2631 71.1126 28.7602 71.3807 29.199C71.6489 29.6378 72.0191 30.0052 72.4599 30.27C73.3099 30.73 74.0099 30.36 74.0099 29.43C73.9746 28.9185 73.8161 28.4231 73.548 27.986C73.2798 27.549 72.91 27.1833 72.4699 26.92Z" fill="#D83E28"/>
<mask id="mask44_369_6261" style="mask-type:luminance" maskUnits="userSpaceOnUse" x="67" y="28" width="6" height="4">
<path d="M72.1196 28.3101L67.3296 31.3101L72.2596 28.3801C72.2422 28.3596 72.2208 28.3428 72.1967 28.3308C72.1727 28.3188 72.1464 28.3117 72.1196 28.3101Z" fill="white"/>
</mask>
<g mask="url(#mask44_369_6261)">
<path d="M67.3694 31.26L72.2994 28.33C72.2511 28.3115 72.1977 28.3115 72.1494 28.33L67.3394 31.28L67.3694 31.26Z" fill="#ACAFBC"/>
<path d="M67.3394 31.25L72.1494 28.3L67.3594 31.3L67.3394 31.25Z" fill="#8B8D96"/>
</g>
<mask id="mask45_369_6261" style="mask-type:luminance" maskUnits="userSpaceOnUse" x="67" y="28" width="6" height="4">
<path d="M67.3996 31.3801L72.4896 28.9101C72.5147 28.8922 72.5344 28.8679 72.5467 28.8398C72.5591 28.8116 72.5635 28.7806 72.5596 28.7501C72.5536 28.6642 72.5268 28.5811 72.4815 28.5079C72.4362 28.4348 72.3738 28.3737 72.2996 28.3301L67.3696 31.2601C67.376 31.2742 67.3792 31.2896 67.3792 31.3051C67.3792 31.3206 67.376 31.3359 67.3696 31.3501L67.3996 31.3801Z" fill="white"/>
</mask>
<g mask="url(#mask45_369_6261)">
<path d="M67.3994 31.38L72.4894 28.91C72.5145 28.8922 72.5342 28.8679 72.5465 28.8397C72.5589 28.8115 72.5633 28.7805 72.5594 28.75C72.5595 28.6712 72.535 28.5943 72.4894 28.53L67.4094 31.3C67.4104 31.3167 67.4104 31.3334 67.4094 31.35L67.3994 31.38Z" fill="#8B8D96"/>
<path d="M67.4096 31.3001L72.4896 28.5301C72.4513 28.4435 72.3842 28.3728 72.2996 28.3301L67.3696 31.2601L67.4096 31.3001Z" fill="#ACAFBC"/>
</g>
<path d="M67.3698 31.26H67.3198C67.3199 31.2767 67.3247 31.293 67.3335 31.3071C67.3423 31.3212 67.3549 31.3326 67.3698 31.34C67.3799 31.3143 67.3799 31.2857 67.3698 31.26Z" fill="#A1A2AD"/>
<g style="mix-blend-mode:multiply" opacity="0.3">
<path d="M46.5899 35.31H53.2699L75.1199 22.13L42.8999 2.21997L38.9399 27.99L46.5899 35.31Z" fill="#CFD2E0"/>
</g>
<path d="M41.7999 7.13989L20.6599 18.8399L20.6499 21.2399L46.5899 35.3299V9.73989L41.7999 7.13989Z" fill="#E94844"/>
<path d="M67.7498 21.23L46.5898 9.73999V35.33L67.7398 23.63V22.43L67.7498 21.83V21.23Z" fill="#E5342C"/>
<path d="M65.1298 21.94L62.0898 19.65L63.5198 19.01L68.2798 21.37L65.1098 22.98L65.1298 21.94Z" fill="#FAF8FC"/>
<path d="M65.1299 21.54L65.1099 23.36L46.3599 33.65L46.3699 31.84L65.1299 21.54Z" fill="#C9CCD7"/>
<path d="M46.3702 31.84L46.3602 33.65L20.4102 19.57L20.4302 17.75L46.3702 31.84Z" fill="#DAD0D0"/>
<path d="M65.1302 21.54L46.3702 31.84L20.4302 17.75L39.1802 7.45996L65.1302 21.54Z" fill="#E8E2E1"/>
<path d="M63.8102 21.09L43.1802 29.96L18.2002 17.8L37.8602 7L63.8102 21.09Z" fill="#E8E2E1"/>
<path d="M65.1201 19.5801L65.1101 21.3901L46.3501 31.6901L46.3701 29.8701L65.1201 19.5801Z" fill="#C9CCD7"/>
<path d="M46.3702 29.87L46.3502 31.69L20.4102 17.6L20.4202 15.79L46.3702 29.87Z" fill="#DAD0D0"/>
<path d="M41.2202 28.11L20.4102 17.24L20.4202 16.48L41.2202 28.11Z" fill="#C9CCD7"/>
<path d="M65.1199 19.58L46.3699 29.87L20.4199 15.79L39.1699 5.48999L65.1199 19.58Z" fill="#E8E2E1"/>
<path d="M65.1098 22.9799L50.5498 30.3899L65.1298 21.9399L65.1098 22.9799Z" fill="#FAF8FC"/>
<path d="M48.1899 27.7499V28.6699L21.4199 14.0999V13.1799L48.1899 27.7499Z" fill="#518167"/>
<path d="M66.6299 17.66L47.6499 28.06L21.4199 13.18L40.3999 2.78003L66.6299 17.66Z" fill="#212229"/>
<path d="M65.6298 16.23V17.99L47.5298 27.91L47.5398 26.15L65.6298 16.23Z" fill="#E7C3A4"/>
<path d="M48.0801 25.84L48.0701 27.6L22.5601 13.71L22.5701 11.95L48.0801 25.84Z" fill="#DAC0A9"/>
<path d="M65.6298 16.23L47.5398 26.15L22.5698 11.95L40.6598 2.03003L65.6298 16.23Z" fill="#948273"/>
<path d="M49.4599 25.2101L67.1699 15.5001V14.5701L49.9999 23.9801L48.1899 24.9701V25.9001V28.6701L49.9999 27.6801L67.1699 18.2701V17.3501L49.4599 27.0701V25.2101Z" fill="#2F2F38"/>
<path d="M48.1899 24.9699V28.6699L21.4199 14.0999V10.3999L48.1899 24.9699Z" fill="#35353F"/>
<path d="M67.1699 14.57L48.1899 24.97L21.4199 10.4L40.3999 0L67.1699 14.57Z" fill="#3C3C45"/>
<path d="M51.4399 24.7699L52.9999 23.9399C52.9999 23.9399 55.0899 24.9399 54.5599 26.4199L53.8899 25.8699L53.3699 26.9299C53.3699 26.9299 52.7299 24.8099 51.4799 24.7699H51.4399Z" fill="#416DB4"/>
<g style="mix-blend-mode:multiply" opacity="0.2">
<path d="M48.2201 35.8399L49.0701 35.3699C49.1128 35.2476 49.1979 35.1447 49.3101 35.0799L52.3101 33.4299L69.3101 24.0899C69.3101 24.0899 69.3101 24.0899 69.3801 24.0899H69.4701L73.0001 23.1699L74.0001 22.9299C74.0801 22.9299 74.1101 22.9299 74.1201 22.9899C74.1301 23.0499 74.1201 23.0499 74.1201 23.0599C74.1201 23.0699 74.1201 23.1299 74.1201 23.1399L73.3901 23.8199L70.9401 26.1099L70.8801 26.1799H70.8201L53.6901 35.6599L50.6901 37.2999C50.5549 37.3514 50.4054 37.3514 50.2701 37.2999L49.4301 37.7599C49.3311 37.805 49.2221 37.8241 49.1137 37.8153C49.0052 37.8066 48.9007 37.7703 48.8101 37.7099C48.5656 37.5629 48.3604 37.3587 48.2124 37.1148C48.0643 36.8709 47.9777 36.5947 47.9601 36.3099C47.9577 36.2155 47.9805 36.1222 48.0262 36.0396C48.0719 35.9569 48.1389 35.888 48.2201 35.8399Z" fill="#502C87"/>
</g>
<path d="M71.52 23.52L72.52 23.27C72.6 23.27 72.62 23.27 72.63 23.34C72.64 23.41 72.63 23.39 72.63 23.4C72.63 23.41 72.63 23.47 72.63 23.48L71.94 24.13C71.94 24.13 71.94 24.08 71.94 24.05C71.9448 24.0102 71.9448 23.9699 71.94 23.93C71.9436 23.9035 71.9436 23.8766 71.94 23.85L71.88 23.78L71.77 23.7H71.66L71.52 23.52Z" fill="#2A292A"/>
<path d="M71.5101 23.52L68.1001 24.37C68.2065 24.3247 68.3225 24.3064 68.4377 24.3169C68.5528 24.3274 68.6636 24.3662 68.7601 24.43L71.7101 23.54C71.6802 23.5224 71.6468 23.5115 71.6123 23.508C71.5778 23.5046 71.5429 23.5086 71.5101 23.52Z" fill="#8B95C0"/>
<mask id="mask46_369_6261" style="mask-type:luminance" maskUnits="userSpaceOnUse" x="68" y="23" width="4" height="2">
<path d="M71.5101 23.52L68.1001 24.37C68.2065 24.3247 68.3225 24.3064 68.4377 24.3169C68.5528 24.3274 68.6636 24.3662 68.7601 24.43L71.7101 23.54C71.6802 23.5224 71.6468 23.5115 71.6123 23.508C71.5778 23.5046 71.5429 23.5086 71.5101 23.52Z" fill="white"/>
</mask>
<g mask="url(#mask46_369_6261)">
<path d="M68.76 24.43L71.71 23.54L68.71 24.42L68.76 24.43Z" fill="#E0DDE1"/>
<path d="M68.7299 24.42L71.7299 23.54H71.6299L68.4399 24.35C68.549 24.3618 68.6546 24.3958 68.7499 24.45L68.7299 24.42Z" fill="#8B95C0"/>
<path d="M68.4202 24.32L71.6102 23.51C71.6102 23.51 71.6102 23.51 71.5402 23.51L68.1802 24.34C68.2588 24.3192 68.3415 24.3192 68.4202 24.34V24.32Z" fill="#8B95C0"/>
<path d="M68.1801 24.34L71.5401 23.51L68.1001 24.37H68.1801V24.34Z" fill="#8B95C0"/>
</g>
<path d="M69.41 26.49L71.91 24.16C71.938 24.1439 71.9611 24.1205 71.977 24.0924C71.9928 24.0642 72.0008 24.0323 72 24C71.9941 23.9078 71.9655 23.8184 71.9166 23.7398C71.8678 23.6613 71.8002 23.5961 71.72 23.55L68.77 24.4401C69.0326 24.6002 69.2531 24.8208 69.4131 25.0835C69.5731 25.3462 69.6681 25.6433 69.69 25.9501C69.6957 26.0568 69.6728 26.1632 69.6235 26.2582C69.5743 26.3531 69.5006 26.4332 69.41 26.49Z" fill="#8B95C0"/>
<mask id="mask47_369_6261" style="mask-type:luminance" maskUnits="userSpaceOnUse" x="68" y="23" width="4" height="4">
<path d="M69.41 26.49L71.91 24.16C71.938 24.1439 71.9611 24.1205 71.977 24.0924C71.9928 24.0642 72.0008 24.0323 72 24C71.9941 23.9078 71.9655 23.8184 71.9166 23.7398C71.8678 23.6613 71.8002 23.5961 71.72 23.55L68.77 24.4401C69.0326 24.6002 69.2531 24.8208 69.4131 25.0835C69.5731 25.3462 69.6681 25.6433 69.69 25.9501C69.6957 26.0568 69.6728 26.1632 69.6235 26.2582C69.5743 26.3531 69.5006 26.4332 69.41 26.49Z" fill="white"/>
</mask>
<g mask="url(#mask47_369_6261)">
<path d="M69.4104 26.4902L71.9104 24.1602C71.9384 24.144 71.9615 24.1207 71.9773 24.0925C71.9932 24.0643 72.0011 24.0325 72.0004 24.0002C72.0047 23.9737 72.0047 23.9467 72.0004 23.9202L69.6704 25.6802C69.6802 25.7699 69.6802 25.8604 69.6704 25.9502C69.679 26.0576 69.6584 26.1654 69.6109 26.2622C69.5634 26.359 69.4907 26.4412 69.4004 26.5002L69.4104 26.4902Z" fill="#8B95C0"/>
<path d="M69.6503 25.6701L72.0003 23.9101V23.8101L69.5903 25.3401C69.6404 25.4451 69.6773 25.556 69.7003 25.6701H69.6503Z" fill="#C3C7D8"/>
<path d="M69.5403 25.34L72.0003 23.81L71.9403 23.71L69.3403 25C69.4224 25.1107 69.4897 25.2318 69.5403 25.36V25.34Z" fill="#F8EEEA"/>
<path d="M69.3402 25.0001L71.8903 23.7301C71.8432 23.6611 71.7818 23.6031 71.7103 23.5601L68.7603 24.4501C68.9928 24.5871 69.1911 24.7751 69.3402 25.0001Z" fill="#C3C7D8"/>
</g>
<path d="M68.7601 24.4299C68.2501 24.1499 67.8301 24.3799 67.8301 24.9299C67.8494 25.236 67.9434 25.5327 68.1037 25.7941C68.2641 26.0556 68.486 26.2739 68.7501 26.4299C69.2601 26.7099 69.6801 26.4899 69.6801 25.9399C69.6581 25.6331 69.5632 25.336 69.4032 25.0733C69.2431 24.8106 69.0227 24.59 68.7601 24.4299Z" fill="#E0DDE1"/>
<path d="M68.1001 24.3699L51.8101 33.3099C51.9158 33.2618 52.0323 33.2421 52.148 33.2526C52.2637 33.2631 52.3747 33.3035 52.4701 33.3699L68.7601 24.4299C68.6636 24.3662 68.5528 24.3273 68.4376 24.3168C68.3224 24.3064 68.2065 24.3246 68.1001 24.3699Z" fill="#62525D"/>
<mask id="mask48_369_6261" style="mask-type:luminance" maskUnits="userSpaceOnUse" x="51" y="24" width="18" height="10">
<path d="M68.1001 24.3699L51.8101 33.3099C51.9158 33.2618 52.0323 33.2421 52.148 33.2526C52.2637 33.2631 52.3747 33.3035 52.4701 33.3699L68.7601 24.4299C68.6636 24.3662 68.5528 24.3273 68.4376 24.3168C68.3224 24.3064 68.2065 24.3246 68.1001 24.3699Z" fill="white"/>
</mask>
<g mask="url(#mask48_369_6261)">
<path d="M52.4699 33.3699L68.7599 24.4299L52.4399 33.3499L52.4699 33.3699Z" fill="#8F757E"/>
<path d="M52.4399 33.3498L68.7399 24.4198C68.641 24.3653 68.5322 24.3313 68.4199 24.3198L52.1299 33.2498C52.238 33.266 52.3427 33.2998 52.4399 33.3498Z" fill="#62525D"/>
<path d="M52.1301 33.2499L68.4201 24.3199C68.3414 24.3 68.2589 24.3 68.1801 24.3199L51.8901 33.2699C51.9694 33.2542 52.0509 33.2542 52.1301 33.2699V33.2499Z" fill="#62525D"/>
<path d="M51.8901 33.2698L68.1801 24.3398H68.1001L51.8101 33.3098H51.8901V33.2698Z" fill="#62525D"/>
</g>
<path d="M53.1202 35.4299L69.4102 26.4999C69.5013 26.4394 69.5744 26.3554 69.6219 26.2569C69.6694 26.1584 69.6895 26.0489 69.6802 25.9399C69.6608 25.6325 69.5668 25.3344 69.4066 25.0714C69.2463 24.8083 69.0245 24.5882 68.7602 24.4299L52.4702 33.3699C52.7343 33.5259 52.9562 33.7442 53.1165 34.0056C53.2769 34.2671 53.3709 34.5638 53.3902 34.8699C53.403 34.9793 53.3844 35.09 53.3366 35.1892C53.2888 35.2883 53.2137 35.3718 53.1202 35.4299Z" fill="#62525D"/>
<mask id="mask49_369_6261" style="mask-type:luminance" maskUnits="userSpaceOnUse" x="52" y="24" width="18" height="12">
<path d="M53.1202 35.4299L69.4102 26.4999C69.5013 26.4394 69.5744 26.3554 69.6219 26.2569C69.6694 26.1584 69.6895 26.0489 69.6802 25.9399C69.6608 25.6325 69.5668 25.3344 69.4066 25.0714C69.2463 24.8083 69.0245 24.5882 68.7602 24.4299L52.4702 33.3699C52.7343 33.5259 52.9562 33.7442 53.1165 34.0056C53.2769 34.2671 53.3709 34.5638 53.3902 34.8699C53.403 34.9793 53.3844 35.09 53.3366 35.1892C53.2888 35.2883 53.2137 35.3718 53.1202 35.4299Z" fill="white"/>
</mask>
<g mask="url(#mask49_369_6261)">
<path d="M53.1203 35.4299L69.4103 26.4999C69.5014 26.4394 69.5745 26.3554 69.622 26.2569C69.6695 26.1584 69.6897 26.0489 69.6803 25.9399C69.6902 25.8502 69.6902 25.7597 69.6803 25.6699L53.3603 34.5999C53.3702 34.6897 53.3702 34.7802 53.3603 34.8699C53.3731 34.9793 53.3545 35.09 53.3067 35.1892C53.2589 35.2883 53.1838 35.3718 53.0903 35.4299H53.1203Z" fill="#4B3D47"/>
<path d="M53.36 34.5998L69.65 25.6698C69.6259 25.554 69.5925 25.4403 69.55 25.3298L53.25 34.2698C53.3001 34.3749 53.337 34.4857 53.36 34.5998Z" fill="#4B3D47"/>
<path d="M53.2501 34.27L69.5501 25.33C69.4932 25.208 69.4263 25.0909 69.3501 24.98L53.0601 33.91C53.1311 34.0257 53.1946 34.146 53.2501 34.27Z" fill="#62525D"/>
<path d="M53.0602 33.91L69.3502 25C69.1974 24.7746 68.9957 24.5866 68.7602 24.45L52.4702 33.3699C52.7032 33.5058 52.9043 33.6899 53.0602 33.91Z" fill="#8F757E"/>
</g>
<path d="M52.47 33.3699C51.96 33.0899 51.54 33.3099 51.54 33.8699C51.5611 34.1756 51.6557 34.4716 51.8159 34.7328C51.9761 34.994 52.1971 35.2126 52.46 35.3699C52.97 35.6499 53.39 35.4199 53.39 34.8699C53.3707 34.5638 53.2767 34.2671 53.1164 34.0056C52.956 33.7442 52.7341 33.5259 52.47 33.3699Z" fill="#8F757E"/>
<path d="M51.8099 33.2999L48.9399 34.8799C49.0457 34.8318 49.1622 34.8121 49.2779 34.8226C49.3936 34.8331 49.5046 34.8735 49.5999 34.9399L52.4699 33.3699C52.3743 33.3045 52.264 33.2639 52.1488 33.2517C52.0336 33.2395 51.9172 33.256 51.8099 33.2999Z" fill="#4B3D47"/>
<mask id="mask50_369_6261" style="mask-type:luminance" maskUnits="userSpaceOnUse" x="48" y="33" width="5" height="2">
<path d="M51.8099 33.2999L48.9399 34.8799C49.0457 34.8318 49.1622 34.8121 49.2779 34.8226C49.3936 34.8331 49.5046 34.8735 49.5999 34.9399L52.4699 33.3699C52.3743 33.3045 52.264 33.2639 52.1488 33.2517C52.0336 33.2395 51.9172 33.256 51.8099 33.2999Z" fill="white"/>
</mask>
<g mask="url(#mask50_369_6261)">
<path d="M49.6001 34.9401L52.4701 33.3701L49.5801 34.9201L49.6001 34.9401Z" fill="#4B3D47"/>
<path d="M49.5798 34.92L52.4398 33.35C52.3426 33.2999 52.2379 33.2662 52.1298 33.25L49.2598 34.82C49.371 34.8363 49.479 34.8701 49.5798 34.92Z" fill="#2A292A"/>
<path d="M49.26 34.82L52.13 33.25C52.0508 33.2344 51.9692 33.2344 51.89 33.25L49 34.84C49.0793 34.8246 49.1607 34.8246 49.24 34.84L49.26 34.82Z" fill="#2A292A"/>
<path d="M48.9999 34.84L51.8699 33.27H51.7899L48.9199 34.85H48.9999V34.84Z" fill="#4B3D47"/>
</g>
<path d="M50.2501 36.9999L53.1201 35.4299C53.2136 35.3718 53.2887 35.2883 53.3365 35.1891C53.3843 35.0899 53.4029 34.9792 53.3901 34.8699C53.3707 34.5638 53.2768 34.267 53.1164 34.0056C52.9561 33.7441 52.7342 33.5259 52.4701 33.3699L49.6001 34.9399C49.8653 35.0945 50.0882 35.3125 50.2487 35.5742C50.4092 35.8359 50.5025 36.1333 50.5201 36.4399C50.5329 36.5492 50.5143 36.6599 50.4665 36.7591C50.4187 36.8583 50.3436 36.9418 50.2501 36.9999Z" fill="#4B3D47"/>
<mask id="mask51_369_6261" style="mask-type:luminance" maskUnits="userSpaceOnUse" x="49" y="33" width="5" height="4">
<path d="M50.2501 36.9999L53.1201 35.4299C53.2136 35.3718 53.2887 35.2883 53.3365 35.1891C53.3843 35.0899 53.4029 34.9792 53.3901 34.8699C53.3707 34.5638 53.2768 34.267 53.1164 34.0056C52.9561 33.7441 52.7342 33.5259 52.4701 33.3699L49.6001 34.9399C49.8653 35.0945 50.0882 35.3125 50.2487 35.5742C50.4092 35.8359 50.5025 36.1333 50.5201 36.4399C50.5329 36.5492 50.5143 36.6599 50.4665 36.7591C50.4187 36.8583 50.3436 36.9418 50.2501 36.9999Z" fill="white"/>
</mask>
<g mask="url(#mask51_369_6261)">
<path d="M50.25 36.9999L53.12 35.4299C53.2135 35.3718 53.2885 35.2883 53.3363 35.1891C53.3842 35.0899 53.4028 34.9792 53.39 34.8699C53.3992 34.7834 53.3992 34.6963 53.39 34.6099L50.5 36.1699C50.5 36.2699 50.5 36.3599 50.5 36.4399C50.5128 36.5492 50.4942 36.6599 50.4464 36.7591C50.3985 36.8583 50.3235 36.9418 50.23 36.9999H50.25Z" fill="#2A292A"/>
<path d="M50.5001 36.1698L53.3601 34.6098C53.3387 34.4921 53.3017 34.3777 53.2501 34.2698L50.3901 35.8398C50.4357 35.9466 50.4725 36.057 50.5001 36.1698Z" fill="#2A292A"/>
<path d="M50.3899 35.8399L53.2499 34.2699C53.1965 34.1481 53.133 34.0311 53.0599 33.9199L50.1899 35.4899C50.2699 35.5985 50.337 35.7159 50.3899 35.8399Z" fill="#62525D"/>
<path d="M50.1901 35.4899L53.0601 33.9199C52.9073 33.6945 52.7056 33.5065 52.4701 33.3699L49.6001 34.9399C49.8378 35.0735 50.0401 35.2621 50.1901 35.4899Z" fill="#62525D"/>
</g>
<path d="M49.5999 34.94C49.0899 34.66 48.6799 34.88 48.6699 35.44C48.6912 35.7468 48.787 36.0438 48.9491 36.3052C49.1112 36.5666 49.3346 36.7845 49.5999 36.94C50.1099 37.22 50.5199 36.99 50.5199 36.44C50.5023 36.1334 50.4091 35.836 50.2485 35.5743C50.088 35.3126 49.8652 35.0946 49.5999 34.94Z" fill="#4B3D47"/>
<path d="M48.9102 35.05L47.9102 35.6C48.0013 35.5527 48.1025 35.528 48.2052 35.528C48.3078 35.528 48.409 35.5527 48.5002 35.6L49.5002 35.05C49.4105 34.9982 49.3087 34.9709 49.2052 34.9709C49.1016 34.9709 48.9998 34.9982 48.9102 35.05Z" fill="#F29395"/>
<mask id="mask52_369_6261" style="mask-type:luminance" maskUnits="userSpaceOnUse" x="47" y="34" width="3" height="2">
<path d="M48.9102 35.05L47.9102 35.6C48.0013 35.5527 48.1025 35.528 48.2052 35.528C48.3078 35.528 48.409 35.5527 48.5002 35.6L49.5002 35.05C49.4105 34.9982 49.3087 34.9709 49.2052 34.9709C49.1016 34.9709 48.9998 34.9982 48.9102 35.05Z" fill="white"/>
</mask>
<g mask="url(#mask52_369_6261)">
<path d="M48.4902 35.6501L49.4902 35.1001L48.4902 35.6401V35.6501Z" fill="#F29395"/>
<path d="M48.4699 35.64L49.4699 35.09C49.3834 35.0421 49.2882 35.0115 49.1899 35L48.1899 35.55C48.2876 35.5644 48.3822 35.5948 48.4699 35.64Z" fill="#F29395"/>
<path d="M48.19 35.55L49.19 35C49.1273 34.9876 49.0627 34.9876 49 35L48 35.55C48.0725 35.5346 48.1475 35.5346 48.22 35.55H48.19Z" fill="#F29395"/>
<path d="M48.0002 35.5701L49.0002 35.0001C48.9775 34.9925 48.9529 34.9925 48.9302 35.0001L47.9302 35.5501H48.0002V35.5701Z" fill="#F29395"/>
</g>
<path d="M49.0697 37.4801L50.0697 36.9301C50.1512 36.8787 50.2168 36.8056 50.2592 36.7191C50.3016 36.6326 50.3191 36.536 50.3097 36.4401C50.2935 36.1666 50.2102 35.9013 50.0672 35.6677C49.9241 35.434 49.7259 35.2391 49.4897 35.1001L48.4897 35.6501C48.7249 35.7926 48.9222 35.9897 49.065 36.2247C49.2077 36.4598 49.2917 36.7257 49.3097 37.0001C49.3131 37.0938 49.2929 37.1869 49.251 37.2707C49.2091 37.3546 49.1467 37.4266 49.0697 37.4801Z" fill="#F29395"/>
<mask id="mask53_369_6261" style="mask-type:luminance" maskUnits="userSpaceOnUse" x="48" y="35" width="3" height="3">
<path d="M49.0697 37.4801L50.0697 36.9301C50.1512 36.8787 50.2168 36.8056 50.2592 36.7191C50.3016 36.6326 50.3191 36.536 50.3097 36.4401C50.2935 36.1666 50.2102 35.9013 50.0672 35.6677C49.9241 35.434 49.7259 35.2391 49.4897 35.1001L48.4897 35.6501C48.7249 35.7926 48.9222 35.9897 49.065 36.2247C49.2077 36.4598 49.2917 36.7257 49.3097 37.0001C49.3131 37.0938 49.2929 37.1869 49.251 37.2707C49.2091 37.3546 49.1467 37.4266 49.0697 37.4801Z" fill="white"/>
</mask>
<g mask="url(#mask53_369_6261)">
<path d="M49.0698 37.4802L50.0698 36.9302C50.1513 36.8788 50.2169 36.8057 50.2593 36.7192C50.3016 36.6327 50.3191 36.5361 50.3098 36.4402C50.3148 36.3603 50.3148 36.2801 50.3098 36.2002L49.3098 36.7502C49.3195 36.8299 49.3195 36.9105 49.3098 36.9902C49.3149 37.0856 49.2955 37.1806 49.2535 37.2664C49.2115 37.3522 49.1483 37.4258 49.0698 37.4802Z" fill="#F29395"/>
<path d="M49.2797 36.7501L50.2797 36.2001C50.2554 36.0973 50.222 35.9969 50.1797 35.9001L49.1797 36.4601C49.2277 36.5511 49.2615 36.6489 49.2797 36.7501Z" fill="#F29395"/>
<path d="M49.1798 36.4601L50.1798 35.9001C50.1291 35.7936 50.0723 35.6901 50.0098 35.5901L49.0098 36.1401C49.08 36.239 49.1371 36.3466 49.1798 36.4601Z" fill="#F6B1B4"/>
<path d="M48.9997 36.1401L49.9997 35.5901C49.8616 35.3894 49.6806 35.222 49.4697 35.1001L48.4697 35.6501C48.6774 35.7727 48.855 35.9401 48.9897 36.1401H48.9997Z" fill="#F6B1B4"/>
</g>
<path d="M48.4899 35.6499C48.0299 35.4099 47.6699 35.6499 47.6699 36.0999C47.6867 36.3707 47.7693 36.6334 47.9104 36.8651C48.0515 37.0968 48.247 37.2907 48.4799 37.4299C48.9299 37.6699 49.2999 37.4299 49.3099 36.9899C49.2903 36.7173 49.2056 36.4533 49.0629 36.2202C48.9202 35.987 48.7238 35.7915 48.4899 35.6499Z" fill="#ED6F72"/>
<g style="mix-blend-mode:multiply" opacity="0.2">
<path d="M71.6698 38.6201L62.8798 43.4401H60.5698L62.8298 33.8101L71.6698 38.6201Z" fill="#502C87"/>
</g>
<path d="M69.3598 35.49L69.3498 38.62L60.5698 43.44L60.5798 40.31L69.3598 35.49Z" fill="#8B95C0"/>
<path d="M60.58 40.31L60.57 43.44L51.73 38.62L51.74 35.49L60.58 40.31Z" fill="#D2D6E6"/>
<path d="M69.3597 35.4899L60.5797 40.3099L51.7397 35.4899L60.5197 30.6799L69.3597 35.4899Z" fill="#9FA6C0"/>
<path d="M64.3502 32.3899C63.0029 31.9936 61.7148 31.4185 60.5202 30.6799L51.7402 35.4899L60.5802 40.3099C60.5802 40.3099 64.5802 37.6999 66.1602 36.4099C67.3939 35.2908 68.4975 34.0362 69.4502 32.6699C67.7451 32.7692 66.0342 32.6753 64.3502 32.3899Z" fill="#EFF0F5"/>
<path d="M57.66 35.0001L57.58 35.1601L57.5 35.2901C57.485 35.3257 57.4608 35.3567 57.43 35.3801C57.4119 35.4055 57.3879 35.4261 57.36 35.4401C57.2949 35.4731 57.223 35.4903 57.15 35.4901C57.0639 35.5042 56.9761 35.5042 56.89 35.4901C56.7878 35.4679 56.6875 35.4379 56.59 35.4001C56.4738 35.353 56.3603 35.2996 56.25 35.2401L56.11 35.1601L56 35.0001C56 35.0001 56 35.0001 55.94 35.0001H55.88H55.77H55.71H55.63H55.68H55.75H55.83H55.9L55.68 34.7901L55.53 34.6001C55.5011 34.5477 55.4841 34.4897 55.48 34.4301C55.4812 34.4047 55.4892 34.3801 55.5033 34.359C55.5174 34.3378 55.537 34.3209 55.56 34.3101H55.67H55.82H55.97C56.0199 34.3214 56.0674 34.3417 56.11 34.3701L56.21 34.4401L56.29 34.5301L56.35 34.6301C56.3539 34.67 56.3539 34.7102 56.35 34.7501H56.41H56.48H56.55H56.62H56.67H56.73H56.8H56.85L56.42 34.9901C56.4143 35.0164 56.4143 35.0437 56.42 35.0701C56.42 35.0701 56.42 35.1301 56.42 35.1501C56.4595 35.1824 56.5033 35.2093 56.55 35.2301H56.61H56.67H56.72L56.84 35.2801H56.94H57.03C57.0557 35.2901 57.0843 35.2901 57.11 35.2801C57.11 35.2801 57.11 35.2801 57.16 35.2201C57.1619 35.1968 57.1619 35.1734 57.16 35.1501V35.0701C57.1553 35.0402 57.1553 35.0099 57.16 34.9801V34.9001L57.66 35.0001ZM55.86 34.4101H55.75C55.75 34.4101 55.75 34.4101 55.75 34.4701C55.7688 34.5064 55.7923 34.54 55.82 34.5701L55.95 34.7001L56.09 34.8201C56.0883 34.7834 56.0883 34.7467 56.09 34.7101L56.02 34.6101C55.999 34.5751 55.9757 34.5417 55.95 34.5101L55.86 34.4101Z" fill="#35353F"/>
<path d="M57.6502 34.3299L57.8402 34.3799C57.9036 34.3981 57.9642 34.425 58.0202 34.4599L58.1402 34.5399L58.2302 34.6299C58.2509 34.6646 58.2677 34.7015 58.2802 34.7399C58.2902 34.7725 58.2902 34.8074 58.2802 34.8399C58.2866 34.873 58.2866 34.9069 58.2802 34.9399L58.1702 35.0199C58.1024 35.058 58.0275 35.0819 57.9502 35.0899H57.7202L57.4602 34.9999C57.3902 34.9779 57.323 34.9477 57.2602 34.9099C57.1769 34.8717 57.1021 34.8173 57.0402 34.7499C56.9936 34.7078 56.962 34.6516 56.9502 34.5899C56.9326 34.538 56.9326 34.4818 56.9502 34.4299C57.0014 34.3703 57.0623 34.3196 57.1302 34.2799C57.2051 34.238 57.2861 34.2076 57.3702 34.1899H57.6302H58.0002H58.2902L58.4302 34.2899H57.8302H57.6602L57.6502 34.3299ZM57.9602 34.8799C57.9648 34.8689 57.9672 34.857 57.9672 34.8449C57.9672 34.8329 57.9648 34.821 57.9602 34.8099C57.9669 34.7837 57.9669 34.7562 57.9602 34.7299L57.8602 34.6199L57.7202 34.5299L57.6202 34.4799H57.5102H57.4202H57.3402C57.3402 34.4799 57.2902 34.4799 57.2902 34.5499C57.2825 34.5828 57.2825 34.6171 57.2902 34.6499L57.3802 34.7499L57.5302 34.8499H57.6302C57.6633 34.8543 57.697 34.8543 57.7302 34.8499H57.8302L57.9602 34.8799Z" fill="#35353F"/>
<path d="M60.4799 33.48C60.4823 33.53 60.4823 33.58 60.4799 33.63V33.7L60.4299 33.76H60.3799H60.2799H59.9999H59.8199C59.8247 33.7898 59.8247 33.8202 59.8199 33.85C59.8316 33.8789 59.8316 33.9111 59.8199 33.94C59.8071 33.972 59.7903 34.0022 59.7699 34.03L59.6799 34.09C59.6275 34.1045 59.5722 34.1045 59.5199 34.09H59.2999H59.1299L58.9999 34.16C58.9528 34.1359 58.9091 34.1056 58.8699 34.07C58.8318 34.0408 58.801 34.0032 58.7799 33.96C58.7529 33.9223 58.7295 33.8821 58.7099 33.84C58.6806 33.7992 58.6648 33.7502 58.6648 33.7C58.6648 33.6498 58.6806 33.6008 58.7099 33.56C58.7451 33.5185 58.7854 33.4815 58.8299 33.45C58.7448 33.4099 58.6671 33.3558 58.5999 33.29L58.4199 33.13C58.3612 33.0787 58.3076 33.0217 58.2599 32.96C58.227 32.9065 58.2002 32.8495 58.1799 32.79C58.1646 32.7446 58.1646 32.6954 58.1799 32.65C58.2024 32.6074 58.2373 32.5725 58.2799 32.55C58.319 32.5383 58.3607 32.5383 58.3999 32.55C58.4431 32.545 58.4867 32.545 58.5299 32.55H58.6699L58.8099 32.62H58.8899C58.9848 32.6708 59.0695 32.7386 59.1399 32.82L59.3299 33.02C59.391 33.0837 59.4447 33.1542 59.4899 33.23L59.6399 33.45H59.7099H59.7799H59.9999C60.0052 33.4338 60.0052 33.4163 59.9999 33.4V33.27L60.4799 33.48ZM58.9999 33.55C58.9869 33.589 58.9869 33.6311 58.9999 33.67C59.0026 33.7223 59.0239 33.772 59.0599 33.81L59.1699 33.94L59.2799 34.02H59.4299C59.4559 34.0284 59.4839 34.0284 59.5099 34.02C59.4971 33.988 59.4803 33.9578 59.4599 33.93H59.3999H59.2899L59.1699 33.87H59.0899H59.0199L58.9999 33.55ZM58.7599 32.83L58.6399 32.76C58.6069 32.7535 58.5729 32.7535 58.5399 32.76H58.4899C58.4899 32.76 58.4899 32.76 58.4899 32.83C58.5083 32.8635 58.5319 32.8939 58.5599 32.92L58.6799 33.02C58.7185 33.0619 58.7622 33.0989 58.8099 33.13L58.9399 33.22L59.0299 33.28L59.1299 33.34L59.2199 33.39H59.2899H59.3399L59.1499 33.16L59.0599 33.07L58.9999 33L58.8999 32.9L58.7599 32.83Z" fill="#35353F"/>
<path d="M60.4698 32.79L60.6598 32.84L60.8398 32.92C60.899 32.9328 60.9541 32.9603 60.9998 33C61.0375 33.0255 61.0684 33.0598 61.0898 33.1C61.1161 33.1276 61.1336 33.1624 61.1398 33.2C61.1498 33.2326 61.1498 33.2674 61.1398 33.3C61.1434 33.3332 61.1434 33.3668 61.1398 33.4C61.1095 33.4345 61.072 33.4618 61.0298 33.48C60.9657 33.5181 60.894 33.542 60.8198 33.55C60.7435 33.56 60.6662 33.56 60.5898 33.55C60.5135 33.5603 60.4361 33.5603 60.3598 33.55L60.1598 33.47C60.0776 33.4259 60.0032 33.3685 59.9398 33.3C59.8958 33.2573 59.8675 33.2009 59.8598 33.14C59.8423 33.0881 59.8423 33.0319 59.8598 32.98C59.9111 32.9204 59.9719 32.8697 60.0398 32.83L60.2798 32.74H60.5498H61.1398L61.2798 32.84H60.6698H60.5098L60.4698 32.79ZM60.7798 33.34C60.7798 33.34 60.7798 33.34 60.7798 33.28C60.7884 33.2506 60.7884 33.2194 60.7798 33.19C60.7517 33.1518 60.718 33.1181 60.6798 33.09C60.638 33.0531 60.5908 33.0227 60.5398 33H60.4398H60.3398H60.2398H60.1598C60.1545 33.0109 60.1518 33.0229 60.1518 33.035C60.1518 33.0471 60.1545 33.0591 60.1598 33.07C60.1532 33.0858 60.1498 33.1028 60.1498 33.12C60.1498 33.1372 60.1532 33.1541 60.1598 33.17C60.1841 33.208 60.2145 33.2418 60.2498 33.27C60.2967 33.3078 60.3469 33.3412 60.3998 33.37L60.4998 33.42H60.5998C60.6651 33.4394 60.7346 33.4394 60.7998 33.42L60.7798 33.34Z" fill="#35353F"/>
</g>
<defs>
<clipPath id="clip0_369_6261">
<rect width="85" height="55" fill="white"/>
</clipPath>
</defs>
</svg>
