<svg width="115" height="60" viewBox="0 0 115 60" fill="none" xmlns="http://www.w3.org/2000/svg">
<g clip-path="url(#clip0_369_7285)">
<path fill-rule="evenodd" clip-rule="evenodd" d="M29.8766 39.6V45.48L40.6106 57.0133L38.6924 58.8533L29.8766 49.5067V58.2H27.4066V49.5067L18.5908 58.8533L16.6594 57.0133L27.4066 45.48V39.6H0V36.9867H2.57512V2.93333H27.4066V0H29.8766V2.93333H54.695V36.9867H57.3752V39.6H29.8766Z" fill="#6D6D6B"/>
<path d="M52.12 5.54669H5.16357V36.9867H52.12V5.54669Z" fill="white"/>
<path d="M49.0978 7.50665H8.15869V35.0266H49.0978V7.50665Z" fill="#6FCAF3"/>
<path d="M95.9102 5.3333C96.7172 5.29878 97.5096 5.55896 98.1437 6.06664C98.4331 6.25716 98.6711 6.51784 98.8362 6.82512C99.0014 7.13241 99.0885 7.47661 99.0897 7.82664V20.2266C99.0885 20.5767 99.0014 20.9209 98.8362 21.2282C98.6711 21.5354 98.4331 21.7961 98.1437 21.9866C97.5096 22.4943 96.7172 22.7545 95.9102 22.72C95.0996 22.7518 94.3039 22.4921 93.6636 21.9866C93.37 21.7963 93.126 21.5369 92.9522 21.2306C92.7784 20.9242 92.6799 20.5798 92.665 20.2266V7.83997C92.6799 7.48677 92.7784 7.14241 92.9522 6.83605C93.126 6.52968 93.37 6.27033 93.6636 6.07997C94.3021 5.56973 95.098 5.30523 95.9102 5.3333Z" fill="#6FCAF3"/>
<path d="M75.2563 5.44001L83.5992 9.33335L92.0865 13.1467C92.5201 13.4 92.704 13.84 92.4544 14.1867C92.3411 14.2806 92.2177 14.3611 92.0865 14.4267L83.5992 18.2533L75.1906 22.08C74.979 22.1731 74.7436 22.1949 74.5189 22.1421C74.2942 22.0893 74.0922 21.9647 73.9425 21.7867C73.8242 21.6933 73.8242 21.5867 73.8242 21.44V6.02668C73.8242 5.64001 74.1921 5.34668 74.6913 5.34668C74.8829 5.35277 75.0728 5.38415 75.2563 5.44001Z" fill="#6D6D6B"/>
<path d="M68.0435 52.8133H70.566V55.08H64.9691C64.7851 55.08 64.4961 54.9333 64.4961 54.72V26.24C64.518 26.1249 64.5758 26.02 64.661 25.9407C64.7462 25.8615 64.8542 25.8122 64.9691 25.8H107.445C107.721 25.8 107.997 26.0267 107.997 26.24V29.9867H104.831V28.4533C104.827 28.3531 104.786 28.2581 104.715 28.1885C104.644 28.1188 104.549 28.0799 104.45 28.08H68.0435C67.9459 28.08 67.8523 28.1193 67.7833 28.1893C67.7143 28.2593 67.6756 28.3543 67.6756 28.4533V52.52C67.6756 52.7333 67.8595 52.8133 68.0435 52.8133Z" fill="#737371"/>
<path d="M114.54 30.6667H72.0638C71.7748 30.6667 71.5908 30.8134 71.5908 31.04V59.56C71.5976 59.6814 71.6508 59.7954 71.7392 59.8776C71.8275 59.9598 71.944 60.0037 72.0638 60H114.54C114.653 59.9872 114.76 59.9374 114.842 59.858C114.925 59.7786 114.981 59.6741 115 59.56V31.0934C115 30.8667 114.724 30.72 114.54 30.72V30.6667Z" fill="#737371"/>
<path d="M79.8022 54.2L83.8226 47.16L88.6838 50.9067L94.1887 44L101.467 50.1734L108.089 39.52L109.403 54.2H79.8022Z" fill="#6FCAF3"/>
<path d="M82.4167 37.6266C83.163 37.5357 83.9147 37.7461 84.5095 38.2126C85.1043 38.679 85.4946 39.3641 85.5961 40.12C85.5961 41.4533 84.1903 42.5333 82.4167 42.5333C81.6966 42.6102 80.9751 42.4021 80.4024 41.9526C79.8297 41.503 79.45 40.8466 79.3423 40.12C79.4314 39.3788 79.8032 38.7026 80.378 38.2364C80.9527 37.7703 81.6846 37.5514 82.4167 37.6266Z" fill="#6FCAF3"/>
</g>
<defs>
<clipPath id="clip0_369_7285">
<rect width="115" height="60" fill="white"/>
</clipPath>
</defs>
</svg>
