<svg width="105" height="115" viewBox="0 0 105 115" fill="none" xmlns="http://www.w3.org/2000/svg">
<g clip-path="url(#clip0_369_7426)">
<path d="M63.5799 17C64.5799 16.47 65.3699 16.91 65.3799 18L65.4899 52.67C65.4479 53.2646 65.2622 53.84 64.9486 54.3469C64.6351 54.8538 64.2031 55.277 63.6899 55.58L5.51986 87.13C4.51986 87.66 3.71986 87.23 3.70986 86.13L3.60986 51.45C3.6586 50.8638 3.84641 50.2976 4.15771 49.7985C4.46901 49.2994 4.89484 48.8817 5.39986 48.58L63.5799 17Z" fill="#80D0F5"/>
<path d="M105 77.6C105.004 77.6399 105.004 77.6801 105 77.72C105 77.72 105 77.79 105 77.83C105.004 77.8632 105.004 77.8968 105 77.93V78.05V78.14C105.004 78.1799 105.004 78.2201 105 78.26L104.94 78.34C104.92 78.3922 104.889 78.4398 104.85 78.48L104.78 78.56C104.738 78.6204 104.688 78.6743 104.63 78.72L104.54 78.8L104.44 78.89L104.31 78.98L104.18 79.07L103.98 79.19L81.5401 91.26V90L76.6201 87.31L83.7201 83.44V83L84.1801 83.25L93.8201 77.98V74.77L89.3001 72.32L88.3001 72.89V71.76L86.7901 70.94L83.7901 69.31L78.5701 66.47L77.2601 67.18V65.76L72.7001 63.31L71.7001 63.86V62.76L67.1901 60.31L62.5101 62.86V63.86L61.6101 63.37L56.9401 65.92V66.92L56.0001 66.38L51.3201 68.93V69.93L50.4301 69.44L45.8001 72V73L44.9101 72.52L40.2301 75V76L39.3401 75.52L34.6601 78V79L33.7601 78.51L29.1001 81.07V82.07L28.2101 81.59L23.5301 84.1V85.1L22.6301 84.62L18.0001 87.13V90.3L20.6101 91.72L19.5001 92.32V91.22L15.0001 88.77L10.3301 91.32V94.49L14.8301 96.94L15.8301 96.38V97.48L20.3401 99.93L21.3401 99.38V100.49L25.8501 102.94L26.8501 102.39V103.49L31.3601 105.93L32.3601 105.37V106.5L36.9301 109L46.8401 103.6V102.97L47.4201 103.28L54.7301 99.28V98.56L55.4001 98.92L58.0701 97.46V98.67L63.0001 101.32L44.8101 111.19L44.2301 111.45H44.0601C43.9267 111.5 43.7896 111.541 43.6501 111.57L43.2901 111.65C43.1152 111.69 42.9382 111.72 42.7601 111.74H42.6501C42.4201 111.74 42.1901 111.74 41.9601 111.74H41.8501C41.6201 111.74 41.4001 111.74 41.1701 111.74H41.0001C40.7801 111.74 40.5601 111.68 40.3501 111.64H40.2201C40.0205 111.594 39.8235 111.537 39.6301 111.47H39.5601C39.3431 111.393 39.1325 111.299 38.9301 111.19L5.00006 92.67C4.67823 92.5376 4.39794 92.321 4.18857 92.043C3.9792 91.7651 3.84846 91.4359 3.81006 91.09C3.81006 92.15 3.81006 93.2 3.81006 94.25C3.84809 94.5948 3.97882 94.9228 4.18835 95.1993C4.39788 95.4757 4.67838 95.6902 5.00006 95.82L39.0001 114.35C39.1941 114.46 39.3984 114.55 39.6101 114.62H39.6801L40.1001 114.75H40.2701H40.4001H40.5201L40.9301 114.81H41.1601H41.3301H41.7301H42.1601H42.6101H42.7501H43.1201H43.2801L43.6401 114.73H43.8601L44.0501 114.66H44.2201C44.4186 114.585 44.6123 114.499 44.8001 114.4L103.8 82.4L103.94 82.32H104.01L104.14 82.23L104.27 82.14L104.37 82.05V82C104.43 82 104.48 81.89 104.53 81.84C104.569 81.7998 104.6 81.7522 104.62 81.7V81.64C104.644 81.5987 104.664 81.5551 104.68 81.51C104.684 81.4868 104.684 81.4632 104.68 81.44C104.68 81.44 104.68 81.35 104.68 81.32C104.684 81.2934 104.684 81.2665 104.68 81.24C104.685 81.2001 104.685 81.1598 104.68 81.12C104.68 81.12 104.68 81.06 104.68 81.03C105 79.7 105 78.65 105 77.6Z" fill="#1D1D1C"/>
<path d="M103.81 76L69.8699 57.5C68.9618 57.0701 67.9696 56.8472 66.9649 56.8472C65.9602 56.8472 64.968 57.0701 64.0599 57.5L5.05989 89.5C3.44989 90.37 3.43989 91.79 5.05989 92.67L38.9999 111.19C39.9099 111.619 40.9037 111.842 41.9099 111.842C42.9161 111.842 43.9099 111.619 44.8199 111.19L103.82 79.19C105.39 78.32 105.4 76.89 103.81 76Z" fill="#424241"/>
<path d="M64.8099 67.61L69.3199 70.06L64.6399 72.61L60.1299 70.16L64.8099 67.61Z" fill="#FDFDFD"/>
<path d="M72.0101 69.7L76.5201 72.15L71.8401 74.7L67.3301 72.25L72.0101 69.7Z" fill="#FDFDFD"/>
<path d="M78.5198 66.47L83.7498 69.31L86.7498 70.94L88.2598 71.76L80.3698 76.06L75.8598 73.61L78.2798 72.29L73.0498 69.45L78.5198 66.47Z" fill="#FDFDFD"/>
<path d="M66.7498 72.57L71.2598 75.02L66.5798 77.56L62.0698 75.11L66.7498 72.57Z" fill="#FDFDFD"/>
<path d="M89.3002 72.32L93.8102 74.78L84.1702 80.03L79.6602 77.58L89.3002 72.32Z" fill="#FDFDFD"/>
<path d="M79.2001 77.83L83.7101 80.28L76.4001 84.26L71.8901 81.81L79.2001 77.83Z" fill="#FDFDFD"/>
<path d="M64.7901 79.64L69.3001 82.1L64.6301 84.64L60.1201 82.19L64.7901 79.64Z" fill="#FDFDFD"/>
<path d="M67.1702 60.31L71.6802 62.76L67.0102 65.31L62.4902 62.86L67.1702 60.31Z" fill="#FDFDFD"/>
<path d="M61.6002 63.34L66.1202 65.79L61.4402 68.34L56.9302 65.89L61.6002 63.34Z" fill="#FDFDFD"/>
<path d="M72.7002 63.31L77.2102 65.76L69.9702 69.71L65.4502 67.26L72.7002 63.31Z" fill="#FDFDFD"/>
<path d="M56.0399 66.38L60.5499 68.83L55.8799 71.38L51.3599 68.93L56.0399 66.38Z" fill="#FDFDFD"/>
<path d="M50.4698 69.41L54.9798 71.87L50.3098 74.41L45.7998 71.96L50.4698 69.41Z" fill="#FDFDFD"/>
<path d="M59.4801 70.51L64.0001 72.96L59.3201 75.51L54.8101 73.06L59.4801 70.51Z" fill="#FDFDFD"/>
<path d="M44.91 72.45L49.42 74.9L44.74 77.45L40.23 75L44.91 72.45Z" fill="#FDFDFD"/>
<path d="M54.16 73.41L58.68 75.86L54 78.41L49.48 75.96L54.16 73.41Z" fill="#FDFDFD"/>
<path d="M75.2501 73.94L79.7601 76.39L75.0901 78.94L70.5801 76.49L75.2501 73.94Z" fill="#FDFDFD"/>
<path d="M39.3402 75.48L43.8502 77.93L39.1702 80.48L34.6602 78.03L39.3402 75.48Z" fill="#FDFDFD"/>
<path d="M61.4801 75.43L66.0001 77.88L61.3301 80.43L56.8101 77.98L61.4801 75.43Z" fill="#FDFDFD"/>
<path d="M48.8399 76.32L53.3499 78.76L48.6799 81.31L44.1699 78.86L48.8399 76.32Z" fill="#FDFDFD"/>
<path d="M69.9901 76.81L74.5001 79.26L69.8301 81.81L65.3101 79.36L69.9901 76.81Z" fill="#FDFDFD"/>
<path d="M56.2198 78.3L60.7398 80.75L56.0598 83.3L51.5498 80.85L56.2198 78.3Z" fill="#FDFDFD"/>
<path d="M33.7698 78.51L38.2898 80.97L33.6098 83.51L29.0898 81.07L33.7698 78.51Z" fill="#FDFDFD"/>
<path d="M43.5198 79.21L48.0298 81.66L43.3698 84.22L38.8398 81.76L43.5198 79.21Z" fill="#FDFDFD"/>
<path d="M50.97 81.17L55.48 83.62L50.8 86.17L46.29 83.72L50.97 81.17Z" fill="#FDFDFD"/>
<path d="M28.2098 81.55L32.7198 84L28.0398 86.55L23.5298 84.1L28.2098 81.55Z" fill="#FDFDFD"/>
<path d="M38.1998 82.12L42.7098 84.56L38.0398 87.11L33.5298 84.67L38.1998 82.12Z" fill="#FDFDFD"/>
<path d="M59.3502 82.61L63.8702 85.06L59.1902 87.61L54.6802 85.16L59.3502 82.61Z" fill="#FDFDFD"/>
<path d="M45.6998 84.03L50.2198 86.48L45.5498 89.03L41.0298 86.59L45.6998 84.03Z" fill="#FDFDFD"/>
<path d="M22.6402 84.59L27.1602 87.04L22.4802 89.59L17.9702 87.14L22.6402 84.59Z" fill="#FDFDFD"/>
<path d="M32.8802 85.02L37.3902 87.47L32.7202 90.02L28.2002 87.57L32.8802 85.02Z" fill="#FDFDFD"/>
<path d="M54.16 85.44L58.67 87.9L53.99 90.44L49.48 87.99L54.16 85.44Z" fill="#FDFDFD"/>
<path d="M40.45 86.9L44.96 89.36L40.28 91.91L35.77 89.45L40.45 86.9Z" fill="#FDFDFD"/>
<path d="M48.9002 88.31L53.4102 90.76L48.7302 93.31L44.2202 90.86L48.9002 88.31Z" fill="#FDFDFD"/>
<path d="M14.96 88.77L19.47 91.22L14.8 93.78L10.29 91.32L14.96 88.77Z" fill="#FDFDFD"/>
<path d="M35.1898 89.77L39.6998 92.22L35.0298 94.77L30.5098 92.32L35.1898 89.77Z" fill="#FDFDFD"/>
<path d="M71.4101 82.08L75.9301 84.53L55.3901 95.72L50.8701 93.28L71.4101 82.08Z" fill="#FDFDFD"/>
<path d="M43.69 91.15L48.2 93.6L43.53 96.15L39.02 93.7L43.69 91.15Z" fill="#FDFDFD"/>
<path d="M27.3201 88.05L31.8401 90.5L20.3201 96.77L15.8101 94.32L27.3201 88.05Z" fill="#FDFDFD"/>
<path d="M74.8801 86.36L81.5301 90L64.7201 99.11L58.0601 95.48L74.8801 86.36Z" fill="#FDFDFD"/>
<path d="M29.9098 92.65L34.4198 95.1L25.8498 99.78L21.3398 97.32L29.9098 92.65Z" fill="#FDFDFD"/>
<path d="M50.2099 93.64L54.7199 96.09L47.4199 100.07L42.8999 97.62L50.2099 93.64Z" fill="#FDFDFD"/>
<path d="M38.3699 94.05L42.8899 96.5L31.3699 102.78L26.8599 100.32L38.3699 94.05Z" fill="#FDFDFD"/>
<path d="M42.3202 97.94L46.8302 100.39L36.9302 105.79L32.4102 103.34L42.3202 97.94Z" fill="#FDFDFD"/>
<path d="M65.74 14.13L65.64 14.08L64.81 13.62L64 13.17C63.6651 13.0251 63.2992 12.9665 62.9358 12.9997C62.5724 13.0329 62.2231 13.1568 61.92 13.36L2.92 45.36C2.08443 45.8505 1.38153 46.5379 0.872566 47.3624C0.363607 48.1868 0.0640456 49.1232 0 50.09L0.11 87C0.0901777 87.3388 0.162448 87.6767 0.319143 87.9778C0.475837 88.2788 0.711111 88.5319 1 88.71L3 89.84C2.70977 89.656 2.47652 89.3949 2.32639 89.0858C2.17625 88.7767 2.11518 88.4319 2.15 88.09L2.08 51.22C2.14909 50.2545 2.45074 49.3201 2.9592 48.4965C3.46766 47.6728 4.16785 46.9844 5 46.49L64 14.49C64.3001 14.2842 64.6479 14.1586 65.0102 14.1254C65.3726 14.0921 65.7375 14.1522 66.07 14.3L65.74 14.13Z" fill="#424241"/>
<path d="M64.0001 14.5C65.6001 13.62 66.9201 14.33 66.9301 16.06L67.0001 52.93C66.9321 53.8946 66.6319 54.8284 66.1253 55.6519C65.6186 56.4755 64.9204 57.1644 64.0901 57.66L5.09008 89.66C3.49008 90.53 2.17008 89.82 2.17008 88.09L2.08008 51.22C2.14917 50.2545 2.45081 49.3201 2.95928 48.4965C3.46774 47.6728 4.16793 46.9844 5.00008 46.49L64.0001 14.5ZM64.6901 52.65L64.5901 18.88C64.5901 17.88 63.7901 17.42 62.8301 17.94L6.17008 48.67C5.66976 48.9658 5.24897 49.3789 4.94407 49.8737C4.63917 50.3685 4.45933 50.9301 4.42008 51.51L4.52008 85.27C4.52008 86.27 5.32008 86.72 6.28008 86.2L62.9201 55.48C63.4191 55.1852 63.839 54.7736 64.1438 54.2807C64.4487 53.7877 64.6292 53.2281 64.6701 52.65H64.6901Z" fill="#1D1D1C"/>
<path d="M10.7999 76.52L9.23986 75.67L9.10986 33.74L10.6699 34.59L10.7999 76.52Z" fill="#B4B4B4"/>
<path d="M10.6699 34.59L9.10986 33.74L38.3799 17.87L39.9399 18.72L10.6699 34.59Z" fill="#DADADA"/>
<path d="M39.9399 18.72L40.0599 60.64L10.7999 76.52L10.6699 34.59L39.9399 18.72Z" fill="#E9EFF2"/>
<path d="M32.5001 58.65L30.9401 57.8L30.8101 15.87L32.3701 16.73L32.5001 58.65Z" fill="#B4B4B4"/>
<path d="M32.3701 16.73L30.8101 15.87L60.0801 0L61.6401 0.85L32.3701 16.73Z" fill="#F8F9FC"/>
<path d="M61.6401 0.849976L61.7601 42.77L32.5001 58.65L32.3701 16.73L61.6401 0.849976Z" fill="#E9EFF2"/>
<path d="M24.3301 73.77L22.7701 72.91L22.6401 30.99L24.2101 31.84L24.3301 73.77Z" fill="#B4B4B4"/>
<path d="M24.2101 31.84L22.6401 30.99L51.9101 15.12L53.4701 15.97L24.2101 31.84Z" fill="#DADADA"/>
<path d="M53.47 15.97L53.6 57.89L24.33 73.77L24.21 31.84L53.47 15.97Z" fill="#F8F9FC"/>
<path d="M26.1201 53.22V55.95L47.5701 44.32V41.59L26.1201 53.22Z" fill="#082C44"/>
<path d="M26.1201 60.76L47.5701 49.13V46.4L26.1201 58.03V60.76Z" fill="#082C44"/>
<path d="M26.1201 65.57L47.5701 53.94V51.2L26.1201 62.83V65.57Z" fill="#082C44"/>
<path d="M49.1699 40.72V43.45L51.6599 42.1V39.37L49.1699 40.72Z" fill="#082C44"/>
<path d="M49.1699 45.53V48.26L51.6599 46.91V44.18L49.1699 45.53Z" fill="#082C44"/>
<path d="M49.1699 50.34V53.07L51.6599 51.72V48.98L49.1699 50.34Z" fill="#082C44"/>
<path d="M26.1201 43.6V46.34L47.5701 34.71V31.97L26.1201 43.6Z" fill="#082C44"/>
<path d="M26.1201 51.15L47.5701 39.52V36.78L26.1201 48.41V51.15Z" fill="#082C44"/>
<path d="M49.1699 31.11V33.84L51.6599 32.49V29.75L49.1699 31.11Z" fill="#082C44"/>
<path d="M49.1699 35.91V38.65L51.6599 37.3V34.56L49.1699 35.91Z" fill="#082C44"/>
<path d="M31 31.88L34.92 29.75V31.06L33.6 31.77V36L32.27 36.72V32.49L31 33.18V31.88Z" fill="#F2513F"/>
<path d="M35.1899 30.88C35.1921 30.4597 35.3135 30.0486 35.5401 29.6945C35.7667 29.3405 36.0891 29.058 36.4699 28.88C36.4699 28.88 37.9199 28.1 38.7299 27.78V29L36.8799 30C36.7628 30.0493 36.6652 30.1357 36.6019 30.2459C36.5387 30.3561 36.5134 30.4841 36.5299 30.61V31L38.3799 30.08V31.28L36.5299 32.36V32.69C36.5299 33.08 36.7499 32.95 36.9499 32.84L38.7299 31.84V33.05C38.0199 33.54 36.5399 34.37 36.5399 34.37C36.0899 34.62 35.1899 35.02 35.1899 33.87V30.88Z" fill="#F2513F"/>
<path d="M39.0801 28.93C39.0936 28.4723 39.2274 28.0262 39.4678 27.6365C39.7083 27.2469 40.0471 26.9273 40.4501 26.71C41.0917 26.26 41.8208 25.95 42.5901 25.8V26.93C42.1401 27.12 41.3801 27.5 40.9301 27.75C40.4801 28 40.4201 28.04 40.4201 28.36V28.44C40.4201 28.67 40.4201 28.78 40.8301 28.57L41.4801 28.22C42.5301 27.65 42.7701 28.51 42.7701 29.11V29.36C42.7997 29.8575 42.6829 30.3529 42.4341 30.7847C42.1853 31.2166 41.8154 31.5661 41.3701 31.79C40.73 32.2362 40.005 32.5459 39.2401 32.7V31.56C39.5101 31.45 40.3801 31.03 41.0301 30.68C41.3201 30.52 41.4301 30.38 41.4301 30.15V30C41.4301 29.78 41.3701 29.71 41.0701 29.87L40.4501 30.21C39.1301 30.92 39.0801 29.71 39.0801 29.36V28.93Z" fill="#F2513F"/>
<path d="M42.8701 25.44L46.7901 23.31V24.62L45.4801 25.33V29.51L44.1401 30.23V26.06L42.8701 26.74V25.44Z" fill="#F2513F"/>
</g>
<defs>
<clipPath id="clip0_369_7426">
<rect width="105" height="115" fill="white"/>
</clipPath>
</defs>
</svg>
