<svg width="40" height="40" viewBox="0 0 40 40" fill="none" xmlns="http://www.w3.org/2000/svg">
<g clip-path="url(#clip0_369_42305)">
<path d="M19.994 39.9881C16.0396 39.9881 12.174 38.8154 8.88595 36.6185C5.59795 34.4215 3.03527 31.2989 1.52196 27.6454C0.00866304 23.992 -0.387285 19.9719 0.384189 16.0934C1.15566 12.2149 3.05991 8.65234 5.85613 5.85613C8.65234 3.05991 12.2149 1.15566 16.0934 0.384189C19.9719 -0.387285 23.992 0.00866304 27.6454 1.52196C31.2989 3.03527 34.4215 5.59795 36.6185 8.88595C38.8154 12.174 39.9881 16.0396 39.9881 19.994C39.9802 25.2944 37.8711 30.3753 34.1232 34.1232C30.3753 37.8711 25.2944 39.9802 19.994 39.9881ZM19.994 2.14862C16.4634 2.1498 13.0123 3.19792 10.0773 5.16044C7.14236 7.12296 4.85523 9.91173 3.5052 13.1741C2.15516 16.4365 1.80284 20.0259 2.4928 23.4885C3.18276 26.9511 4.884 30.1313 7.38139 32.6271C9.87879 35.1228 13.0602 36.8219 16.5232 37.5096C19.9863 38.1972 23.5755 37.8425 26.837 36.4903C30.0984 35.138 32.8857 32.849 34.8462 29.9127C36.8068 26.9764 37.8526 23.5247 37.8514 19.994C37.8443 15.2613 35.9602 10.7245 32.6125 7.37906C29.2648 4.03359 24.7268 2.15257 19.994 2.14862Z" fill="white"/>
<path fill-rule="evenodd" clip-rule="evenodd" d="M16.8641 20.0956V31.6862C16.8641 31.7653 16.8955 31.8412 16.9515 31.8972C17.0074 31.9532 17.0834 31.9846 17.1625 31.9846H21.4866C21.5657 31.9846 21.6416 31.9532 21.6976 31.8972C21.7536 31.8412 21.785 31.7653 21.785 31.6862V19.9046H24.8945C24.9697 19.9049 25.0422 19.8767 25.0975 19.8258C25.1528 19.7749 25.1869 19.705 25.1929 19.6301L25.4914 16.0789C25.4951 16.0375 25.4901 15.9958 25.4768 15.9564C25.4635 15.9171 25.4421 15.8809 25.414 15.8503C25.386 15.8197 25.3518 15.7953 25.3137 15.7786C25.2756 15.762 25.2345 15.7534 25.1929 15.7536H21.785V13.235C21.785 12.9516 21.8976 12.6799 22.0979 12.4795C22.2983 12.2792 22.57 12.1666 22.8533 12.1666H25.2467C25.3258 12.1666 25.4017 12.1352 25.4577 12.0792C25.5136 12.0233 25.5451 11.9474 25.5451 11.8682V8.31405C25.5451 8.2349 25.5136 8.159 25.4577 8.10303C25.4017 8.04707 25.3258 8.01563 25.2467 8.01563H21.1882C20.6208 8.01484 20.0589 8.12586 19.5345 8.34233C19.0102 8.55879 18.5336 8.87647 18.132 9.27721C17.7304 9.67794 17.4118 10.1539 17.1942 10.6778C16.9766 11.2018 16.8645 11.7634 16.8641 12.3308V15.7536H14.7125C14.6333 15.7536 14.5574 15.7851 14.5015 15.841C14.4455 15.897 14.4141 15.9729 14.4141 16.052V19.6032C14.4141 19.6824 14.4455 19.7583 14.5015 19.8142C14.5574 19.8702 14.6333 19.9016 14.7125 19.9016H16.8641V20.0956Z" fill="white"/>
</g>
<defs>
<clipPath id="clip0_369_42305">
<rect width="40" height="40" fill="white"/>
</clipPath>
</defs>
</svg>
