<svg width="40" height="40" viewBox="0 0 40 40" fill="none" xmlns="http://www.w3.org/2000/svg">
<g clip-path="url(#clip0_369_42309)">
<path d="M19.9986 40.0001C16.0427 40.0001 12.1756 38.827 8.88634 36.6292C5.59711 34.4314 3.03347 31.3076 1.5196 27.6528C0.00573667 23.998 -0.39036 19.9764 0.381403 16.0965C1.15316 12.2166 3.05812 8.65264 5.85538 5.85538C8.65264 3.05812 12.2166 1.15316 16.0965 0.381403C19.9764 -0.39036 23.998 0.00573667 27.6528 1.5196C31.3076 3.03347 34.4314 5.59711 36.6292 8.88634C38.827 12.1756 40.0001 16.0427 40.0001 19.9986C39.9945 25.3016 37.8854 30.3858 34.1356 34.1356C30.3858 37.8854 25.3016 39.9945 19.9986 40.0001ZM19.9986 1.90141C16.4186 1.90141 12.919 2.96304 9.94235 4.95205C6.96573 6.94106 4.64579 9.76809 3.27591 13.0756C1.90604 16.3832 1.54778 20.0227 2.24642 23.5339C2.94506 27.045 4.66923 30.2702 7.20089 32.8014C9.73254 35.3326 12.958 37.0563 16.4693 37.7543C19.9805 38.4524 23.62 38.0935 26.9273 36.7231C30.2346 35.3527 33.0613 33.0323 35.0498 30.0553C37.0383 27.0784 38.0993 23.5786 38.0988 19.9986C38.0932 15.2001 36.1843 10.5998 32.791 7.20704C29.3977 3.81428 24.7971 1.90618 19.9986 1.90141ZM26.7328 11.8856C26.4409 11.8898 26.1567 11.9801 25.9159 12.1454C25.6752 12.3106 25.4887 12.5433 25.3798 12.8142C25.271 13.0851 25.2446 13.3822 25.3041 13.668C25.3636 13.9539 25.5063 14.2158 25.7142 14.4208C25.9221 14.6258 26.1859 14.7647 26.4726 14.8202C26.7593 14.8756 27.0559 14.8451 27.3253 14.7324C27.5947 14.6198 27.8247 14.43 27.9865 14.1869C28.1483 13.9439 28.2346 13.6584 28.2347 13.3665C28.2351 13.1701 28.1964 12.9756 28.1208 12.7944C28.0452 12.6132 27.9343 12.4488 27.7944 12.3109C27.6546 12.1731 27.4887 12.0645 27.3064 11.9914C27.1242 11.9184 26.9292 11.8824 26.7328 11.8856ZM20.1638 13.784C18.9339 13.784 17.7317 14.1487 16.7091 14.832C15.6866 15.5154 14.8897 16.4866 14.4192 17.6229C13.9487 18.7592 13.8257 20.0095 14.0659 21.2157C14.306 22.4219 14.8985 23.5297 15.7683 24.3992C16.6382 25.2686 17.7463 25.8605 18.9526 26.1001C20.1589 26.3397 21.4092 26.2161 22.5452 25.7451C23.6813 25.274 24.6522 24.4766 25.335 23.4537C26.0178 22.4308 26.382 21.2284 26.3814 19.9986C26.379 18.3506 25.7231 16.7708 24.5575 15.6058C23.3919 14.4407 21.8118 13.7856 20.1638 13.784ZM20.1638 23.9965C19.3767 23.9965 18.6072 23.7633 17.9526 23.3263C17.2979 22.8893 16.7874 22.2681 16.4855 21.5412C16.1837 20.8143 16.1039 20.0143 16.2564 19.2421C16.4088 18.4699 16.7867 17.7602 17.3422 17.2026C17.8977 16.645 18.606 16.2645 19.3776 16.1091C20.1492 15.9537 20.9496 16.0305 21.6776 16.3296C22.4056 16.6288 23.0287 17.1369 23.4681 17.7899C23.9076 18.4429 24.1437 19.2115 24.1467 19.9986C24.1451 21.0544 23.7249 22.0666 22.9784 22.8131C22.2318 23.5597 21.2196 23.9799 20.1638 23.9815V23.9965ZM32.7071 14.8473C32.7091 13.8504 32.5145 12.863 32.1344 11.9414C31.7543 11.0199 31.1961 10.1824 30.492 9.47678C29.7878 8.7712 28.9514 8.21142 28.0306 7.82949C27.1098 7.44756 26.1227 7.25096 25.1259 7.25097H15.1176C13.1066 7.25097 11.178 8.04961 9.75576 9.47129C8.33352 10.893 7.53411 12.8213 7.53331 14.8323V24.8405C7.53134 25.8378 7.72605 26.8256 8.10632 27.7475C8.48658 28.6694 9.04492 29.5073 9.74938 30.2131C10.4538 30.919 11.2906 31.479 12.2117 31.8611C13.1329 32.2432 14.1204 32.4398 15.1176 32.4398H25.1259C26.123 32.4398 27.1103 32.2431 28.0313 31.861C28.9522 31.4789 29.7888 30.9188 30.493 30.2129C31.1972 29.507 31.7553 28.6692 32.1352 27.7473C32.5152 26.8254 32.7095 25.8376 32.7071 24.8405V14.8473ZM30.3372 24.8405C30.3341 26.2203 29.7835 27.5424 28.8064 28.5167C27.8294 29.4909 26.5057 30.0377 25.1259 30.0369H15.1176C13.7389 30.0361 12.4167 29.4886 11.4409 28.5146C10.4651 27.5405 9.91541 26.2193 9.91223 24.8405V14.8323C9.91223 13.4517 10.4606 12.1277 11.4368 11.1515C12.413 10.1753 13.7371 9.62688 15.1176 9.62688H25.1259C25.8098 9.62648 26.4872 9.76081 27.1193 10.0222C27.7513 10.2836 28.3257 10.6669 28.8096 11.1503C29.2935 11.6336 29.6775 12.2076 29.9396 12.8393C30.2017 13.4711 30.3369 14.1483 30.3372 14.8323V24.8405Z" fill="white"/>
</g>
<defs>
<clipPath id="clip0_369_42309">
<rect width="40" height="40" fill="white"/>
</clipPath>
</defs>
</svg>
