<svg width="40" height="40" viewBox="0 0 40 40" fill="none" xmlns="http://www.w3.org/2000/svg">
<g clip-path="url(#clip0_369_42312)">
<path d="M19.994 39.9881C16.0396 39.9881 12.174 38.8154 8.88595 36.6185C5.59795 34.4215 3.03527 31.2989 1.52196 27.6454C0.00866304 23.992 -0.387285 19.9719 0.384189 16.0934C1.15566 12.2149 3.05991 8.65234 5.85613 5.85613C8.65234 3.05991 12.2149 1.15566 16.0934 0.384189C19.9719 -0.387285 23.992 0.00866304 27.6454 1.52196C31.2989 3.03527 34.4215 5.59795 36.6185 8.88595C38.8154 12.174 39.9881 16.0396 39.9881 19.994C39.9802 25.2944 37.8711 30.3753 34.1232 34.1232C30.3753 37.8711 25.2944 39.9802 19.994 39.9881ZM19.994 2.14862C16.4634 2.1498 13.0123 3.19792 10.0773 5.16044C7.14236 7.12296 4.85523 9.91173 3.5052 13.1741C2.15516 16.4365 1.80284 20.0259 2.4928 23.4885C3.18276 26.9511 4.884 30.1313 7.38139 32.6271C9.87879 35.1228 13.0602 36.8219 16.5232 37.5096C19.9863 38.1972 23.5755 37.8425 26.837 36.4903C30.0984 35.138 32.8857 32.849 34.8462 29.9127C36.8068 26.9764 37.8526 23.5247 37.8514 19.994C37.8443 15.2613 35.9602 10.7245 32.6125 7.37906C29.2648 4.03359 24.7268 2.15257 19.994 2.14862Z" fill="white"/>
<path d="M31.9758 16.9683C31.9762 16.2938 31.8436 15.6257 31.5856 15.0025C31.3277 14.3792 30.9494 13.8129 30.4724 13.3359C29.9954 12.8589 29.4291 12.4806 28.8058 12.2227C28.1826 11.9647 27.5145 11.8321 26.84 11.8325H13.5186C12.844 11.8321 12.176 11.9647 11.5528 12.2227C10.9295 12.4806 10.3632 12.8589 9.88618 13.3359C9.4092 13.8129 9.03091 14.3792 8.77296 15.0025C8.515 15.6257 8.38242 16.2938 8.38282 16.9683V23.2112C8.38203 23.886 8.51431 24.5543 8.7721 25.178C9.02988 25.8016 9.4081 26.3683 9.88512 26.8456C10.3621 27.3229 10.9286 27.7014 11.5521 27.9596C12.1755 28.2177 12.8438 28.3504 13.5186 28.35H26.84C27.5145 28.3504 28.1826 28.2178 28.8058 27.9598C29.4291 27.7019 29.9954 27.3236 30.4724 26.8466C30.9494 26.3696 31.3277 25.8033 31.5856 25.18C31.8436 24.5568 31.9762 23.8887 31.9758 23.2142V16.9683ZM23.5753 20.4031L18.2575 23.3186C18.0277 23.444 17.8188 23.2769 17.8188 23.0202V17.031C17.8188 16.7654 18.0337 16.5983 18.2634 16.7326L23.6141 19.7973C23.6656 19.8312 23.7073 19.8781 23.7349 19.9332C23.7624 19.9884 23.7748 20.0499 23.7709 20.1115C23.767 20.173 23.7468 20.2324 23.7124 20.2837C23.6781 20.3349 23.6308 20.3761 23.5753 20.4031Z" fill="white"/>
</g>
<defs>
<clipPath id="clip0_369_42312">
<rect width="40" height="40" fill="white"/>
</clipPath>
</defs>
</svg>
