<svg width="115" height="60" viewBox="0 0 115 60" fill="none" xmlns="http://www.w3.org/2000/svg">
<g clip-path="url(#clip0_369_7276)">
<path fill-rule="evenodd" clip-rule="evenodd" d="M61.7503 -1.36703e-06H4.02034C3.49613 -0.0106431 2.97511 0.0849594 2.48777 0.281208C2.00043 0.477457 1.55656 0.770408 1.18217 1.14291C0.807777 1.51541 0.510379 1.95997 0.307388 2.45056C0.104398 2.94115 -0.000104793 3.46791 7.88538e-08 4V56.1067C0.0275493 57.1629 0.4658 58.1652 1.21906 58.8947C1.97231 59.6241 2.97937 60.0215 4.02034 60H61.7503C62.2755 60.0269 62.8007 59.9468 63.2949 59.7645C63.7892 59.5822 64.2425 59.3014 64.6281 58.9386C65.0138 58.5758 65.324 58.1383 65.5405 57.6519C65.7571 57.1656 65.8755 56.6402 65.8888 56.1067V4C65.8895 3.45745 65.7814 2.92043 65.5711 2.42162C65.3608 1.9228 65.0528 1.47262 64.6656 1.09844C64.2785 0.724272 63.8204 0.433936 63.3192 0.245099C62.818 0.0562618 62.2842 -0.0271293 61.7503 -1.36703e-06Z" fill="#6D6D6B"/>
<path d="M43.212 4.01331H37.0107V9.73331H43.212V4.01331Z" fill="white"/>
<path d="M26.776 4.01331H20.5747V9.73331H26.776V4.01331Z" fill="white"/>
<path d="M10.3532 4.01331H4.02051V9.73331H10.3532V4.01331Z" fill="white"/>
<path d="M61.7242 13.5067H4.02051V56.1067H61.7242V13.5067Z" fill="white"/>
<path fill-rule="evenodd" clip-rule="evenodd" d="M59.7795 9.73331H53.4468V4.01331H59.7795V5.71997V9.73331Z" fill="white"/>
<path fill-rule="evenodd" clip-rule="evenodd" d="M44.8018 39.7333V23.5867C44.7647 23.0984 44.5401 22.6445 44.1764 22.3228C43.8127 22.001 43.3389 21.8372 42.8573 21.8667H27.5905C27.3584 21.8541 27.1262 21.889 26.9077 21.9693C26.6892 22.0496 26.4888 22.1737 26.3184 22.3341C26.1481 22.4946 26.0112 22.6881 25.916 22.9033C25.8209 23.1185 25.7693 23.3509 25.7643 23.5867V37.9067C24.925 37.7407 24.0663 37.7002 23.2155 37.7867C20.1674 38.1333 17.9601 40.4533 18.3411 43.12C18.7221 45.7867 21.5075 47.4667 24.4373 47.12C25.7479 47.0557 26.9903 46.5082 27.9313 45.5802C28.8724 44.6523 29.4473 43.4076 29.5481 42.08V25.3333H40.9917V35.52C40.1937 35.3092 39.3607 35.2728 38.5479 35.4133C37.875 35.4306 37.212 35.5823 36.5968 35.8597C35.9816 36.1371 35.4264 36.5349 34.9627 37.0302C34.4991 37.5255 34.1361 38.1086 33.8946 38.7463C33.6532 39.384 33.5379 40.0637 33.5553 40.7467C33.9232 43.2667 36.7217 45.1067 39.6515 44.7467C40.9742 44.7222 42.2391 44.1925 43.1937 43.2632C44.1484 42.3339 44.7226 41.0734 44.8018 39.7333Z" fill="#6FCAF3"/>
<path d="M76.8463 7.92001L95.3451 18L113.975 28.08C114.21 28.1909 114.419 28.3525 114.586 28.5534C114.754 28.7543 114.876 28.9898 114.945 29.2436C115.014 29.4973 115.027 29.7632 114.985 30.0227C114.942 30.2823 114.844 30.5293 114.698 30.7467L113.975 31.44L95.3451 41.4667L95.2269 41.5867L76.5967 51.6667C76.1507 51.8963 75.6375 51.9526 75.1535 51.8249C74.6695 51.6972 74.2482 51.3943 73.969 50.9733C73.7677 50.7118 73.6445 50.3971 73.6143 50.0667V9.41334C73.6546 8.89459 73.8927 8.41223 74.2778 8.06868C74.6629 7.72513 75.1648 7.54744 75.677 7.57334C76.1088 7.56584 76.5334 7.68631 76.8988 7.92001H76.8463Z" fill="#6D6D6B"/>
</g>
<defs>
<clipPath id="clip0_369_7276">
<rect width="115" height="60" fill="white"/>
</clipPath>
</defs>
</svg>
