<svg width="120" height="115" viewBox="0 0 120 115" fill="none" xmlns="http://www.w3.org/2000/svg">
<g clip-path="url(#clip0_369_5415)">
<path opacity="0.1" d="M0.509766 88.42L45.2498 115L120 70.89L75.2598 44.31L0.509766 88.42Z" fill="black"/>
<path d="M10.3102 85.52C10.8002 87.39 42.1302 104.43 42.1302 104.43C44.1302 105.63 48.2202 105.43 50.2702 104.24C64.4402 95.88 105.81 71.24 105.81 71.24C107.81 70.03 108.48 66.92 106.46 65.72L73.8202 47.37C73.8202 47.37 5.68017 68.07 10.3102 85.52Z" fill="#303739"/>
<path d="M10.0801 84.06L42.1301 103.06C44.1301 104.27 48.2201 104.06 50.2701 102.88C64.4401 94.51 106.18 69.61 106.18 69.61C108.18 68.4 108.24 66.45 106.18 65.25L73.8201 46L10.0801 84.06Z" fill="#6E8074"/>
<path d="M1.63006 38.44C1.63006 38.19 1.70006 37.95 1.75006 37.7C1.75006 37.63 1.75006 37.56 1.80006 37.48C1.87006 37.23 1.94006 36.97 2.03006 36.73C2.05095 36.6919 2.06771 36.6517 2.08006 36.61C2.17006 36.4 2.26006 36.2 2.37006 36C2.48006 35.8 2.48006 35.81 2.53006 35.72C2.62524 35.5549 2.72871 35.3947 2.84006 35.24C2.87649 35.1991 2.90992 35.1557 2.94006 35.11C3.09041 34.9218 3.25417 34.7446 3.43006 34.58L3.55006 34.47C3.73025 34.2978 3.92423 34.1406 4.13006 34L60.4101 0.83C60.6226 0.710109 60.8472 0.612908 61.0801 0.54C61.1487 0.515412 61.2188 0.495368 61.2901 0.48C61.3947 0.450375 61.5018 0.430292 61.6101 0.42H62.0801C62.2114 0.430206 62.3417 0.450262 62.4701 0.48L60.8701 0.08L60.6001 0H60.1301H60.0001L59.7001 0.05H59.5501H59.4701C59.2397 0.121173 59.0183 0.218473 58.8101 0.34L2.54006 33.64C2.32672 33.7629 2.12867 33.9106 1.95006 34.08L1.84006 34.17C1.658 34.3387 1.49073 34.5227 1.34006 34.72L1.26006 34.82C1.19446 34.8992 1.13433 34.9827 1.08006 35.07C1.0242 35.1532 0.974079 35.24 0.930056 35.33C0.880056 35.42 0.820056 35.5 0.770056 35.6C0.720056 35.7 0.720056 35.68 0.700056 35.73C0.613245 35.8987 0.536445 36.0723 0.470056 36.25V36.32C0.400056 36.51 0.330056 36.7 0.270056 36.9C0.274727 36.9632 0.274727 37.0268 0.270056 37.09C0.270056 37.15 0.270056 37.21 0.270056 37.27C0.265387 37.3466 0.265387 37.4234 0.270056 37.5C0.270056 37.67 0.270056 37.85 0.200056 38.02C0.130056 38.19 0.200056 38.08 0.200056 38.11C0.200056 38.37 0.200056 38.63 0.200056 38.88C0.200056 38.88 0.200056 38.88 0.200056 38.94C0.213176 39.276 0.253306 39.6104 0.320056 39.94L10.3101 85.52L11.6601 86.33L1.73006 40.33C1.6617 40.0004 1.61825 39.6661 1.60006 39.33C1.58506 39.0502 1.58506 38.7698 1.60006 38.49C1.60006 38.49 1.63006 38.46 1.63006 38.44Z" fill="#303739"/>
<path d="M60.4101 0.829978C62.2601 -0.260022 64.1801 0.829978 64.7001 3.17998L73.8201 46L11.3301 84.8L1.73012 40.35C1.46678 39.1728 1.55371 37.9443 1.98017 36.8159C2.40664 35.6876 3.154 34.7087 4.13012 34L60.4101 0.829978Z" fill="#414B4C"/>
<path d="M3.91992 41.6L63.4499 6.88L71.3399 43.69L12.5999 80.51L3.91992 41.6Z" fill="#5BC5F7"/>
<path opacity="0.1" d="M64.6899 3.19L12.8999 83.82L73.8199 46.03L64.6899 3.19Z" fill="white"/>
<path d="M57.2798 68.22L59.8298 69.73L62.1698 68.34L59.6298 66.84L57.2798 68.22Z" fill="#2A352D"/>
<path d="M76.02 57.16L78.57 58.67L80.9 57.29L78.36 55.78L76.02 57.16Z" fill="#2A352D"/>
<path d="M65.3101 63.48L67.8601 64.99L70.2001 63.61L67.6601 62.1L65.3101 63.48Z" fill="#2A352D"/>
<path d="M72.3999 67.69L74.9499 69.2L77.2899 67.82L74.7499 66.31L72.3999 67.69Z" fill="#2A352D"/>
<path d="M95.0001 63.29L38.2501 96.78L19.3101 85.53L76.0601 52L95.0001 63.29ZM51.7301 87.1L78.1601 71.5L75.6201 70L49.1901 85.59L51.7301 87.1ZM68.5301 65.78L66.1801 67.16L68.7301 68.68L71.0801 67.3L68.5301 65.78ZM76.7601 63.94L79.1101 62.56L76.5501 61L74.2101 62.38L76.7601 63.9V63.94ZM44.6501 82.94L47.0001 81.51L44.4401 80L42.1001 81.38L44.6501 82.89V82.94ZM52.4701 75.3L50.1301 76.69L52.6801 78.2L55.0001 76.77L52.4501 75.25L52.4701 75.3ZM36.6201 87.63L39.0001 86.25L36.4401 84.73L34.1001 86.11L36.6501 87.63H36.6201ZM63.0501 72L60.5001 70.52L58.1501 71.9L60.7001 73.42L63.0501 72ZM63.1701 68.91L60.8201 70.29L63.3801 71.81L65.7201 70.42L63.1701 68.91ZM31.2701 90.79L33.6101 89.4L31.0601 87.89L28.7201 89.27L31.2701 90.79ZM79.4301 62.36L81.7801 61L79.2301 59.48L76.8801 60.87L79.4301 62.38V62.36ZM55.1401 73.68L52.8001 75.06L55.3501 76.58L57.6901 75.19L55.1401 73.68ZM71.4101 67.1L73.7501 65.72L71.2001 64.2L68.8501 65.58L71.4101 67.1ZM47.1101 78.41L44.7701 79.8L47.3201 81.31L49.6701 79.93L47.1101 78.41ZM39.3001 86.05L41.6401 84.67L39.0901 83.15L36.7401 84.54L39.3001 86.05ZM43.7001 91.84L46.0501 90.45L43.5101 88.94L41.1601 90.33L43.7001 91.84ZM80.3001 66L82.6501 64.62L80.1001 63.15L77.7601 64.53L80.3001 66ZM56.0001 77.36L53.6501 78.74L56.2001 80.26L58.5401 78.87L56.0001 77.36ZM65.0001 63.68L62.6601 65.06L65.2001 66.57L67.5501 65.19L65.0001 63.68ZM73.2301 61.83L75.5801 60.45L73.0001 58.94L70.6601 60.32L73.2001 61.83H73.2301ZM61.7001 74L64.2501 75.51L66.5901 74.13L64.0001 72.63L61.7001 74ZM59.5001 69.91L57.0001 68.41L54.6101 69.8L57.1601 71.31L59.5001 69.92V69.91ZM72.0701 67.91L69.7301 69.29L72.2801 70.8L74.6201 69.42L72.0701 67.91ZM83.8401 68.17L86.1901 66.78L83.6501 65.27L81.3001 66.64L83.8401 68.15V68.17ZM48.9301 73.17L46.5801 74.55L49.1301 76.07L51.4701 74.68L48.9301 73.17ZM40.1601 89.73L42.5101 88.35L40.0001 86.84L37.6601 88.22L40.2001 89.73H40.1601ZM48.1601 84.99L50.5001 83.61L48.0001 82.1L45.6601 83.48L48.1901 85L48.1601 84.99ZM41.1001 80.78L43.4401 79.4L40.9001 77.89L38.5601 79.27L41.1001 80.78ZM33.1001 85.52L35.4501 84.14L32.9001 82.63L30.5301 84L33.0701 85.51L33.1001 85.52ZM59.6301 66.83L57.2801 68.22L59.8301 69.73L62.1701 68.35L59.6301 66.83ZM42.8401 88.16L45.1801 86.77L42.6401 85.26L40.2901 86.64L42.8401 88.16ZM35.7501 83.94L38.0901 82.56L35.5501 81.05L33.2001 82.43L35.7501 83.94ZM58.6901 75.79L56.3501 77.17L58.8901 78.68L61.2301 77.29L58.6901 75.79ZM67.8601 65L70.2001 63.62L67.6601 62.1L65.3101 63.48L67.8601 65ZM51.6001 71.57L49.2601 73L51.8001 74.52L54.1401 73.13L51.6001 71.57ZM75.0001 69.2L77.3401 67.82L74.8001 66.31L72.4001 67.69L75.0001 69.2ZM66.7701 71.05L64.4301 72.43L66.9701 73.94L69.3101 72.56L66.7701 71.05ZM78.5401 71.31L80.8801 69.92L78.3401 68.41L75.9401 69.8L78.4901 71.31H78.5401ZM50.6601 80.52L48.3201 81.91L50.8701 83.42L53.2101 82L50.6601 80.49V80.52ZM43.5701 76.31L41.2301 77.69L43.7701 79.21L46.1201 77.82L43.5701 76.31ZM38.3501 95L40.6901 93.61L38.1501 92.1L35.8101 93.48L38.3501 95ZM86.5201 66.57L88.8601 65.19L86.3201 63.68L84.0001 65.06L86.5501 66.57H86.5201ZM83.0001 64.47L85.3501 63.08L82.8001 61.57L80.4301 63L83.0001 64.47ZM34.8101 92.89L37.1501 91.51L34.6101 90L32.2601 91.38L34.8101 92.89ZM75.8801 60.25L78.2301 58.87L75.6901 57.36L73.3401 58.74L75.8801 60.25ZM46.3801 90.25L48.7201 88.87L46.1801 87.35L43.8301 88.74L46.3801 90.25ZM27.7201 88.68L30.0601 87.3L27.5201 85.79L25.1701 87.17L27.7201 88.68ZM82.1101 60.78L84.4501 59.4L81.9001 57.88L79.5601 59.26L82.1101 60.78ZM49.7901 76.84L47.4501 78.22L50.0001 79.73L52.3401 78.35L49.7901 76.84ZM42.0001 84.47L44.3301 83.09L41.7801 81.57L39.4201 83L42.0001 84.47ZM74.1101 65.47L76.4401 64.09L73.8901 62.57L71.5301 64L74.0901 65.52L74.1101 65.47ZM65.8601 67.31L63.5301 68.69L66.0801 70.2L68.4201 68.83L65.8601 67.31ZM34.0001 89.21L36.3301 87.83L33.7801 86.31L31.4001 87.69L34.0001 89.21ZM60.4201 73.61L57.8201 72.1L55.4801 73.48L58.0001 75L60.3401 73.62L60.4201 73.61ZM30.4001 87.1L32.7401 85.72L30.1901 84.21L27.8601 85.59L30.4001 87.1ZM85.6601 62.88L88.0001 61.51L85.4501 60L83.1101 61.38L85.6601 62.89V62.88ZM37.4901 91.31L39.8301 89.93L37.2801 88.42L34.9401 89.8L37.4901 91.31ZM69.3901 69.47L67.0601 70.85L69.6001 72.36L71.9401 71L69.3901 69.49V69.47ZM70.5401 63.41L72.8801 62L70.3301 60.49L68.0001 61.9L70.5501 63.41H70.5401ZM62.3001 65.26L60.0001 66.63L62.5501 68.15L64.8901 66.77L62.3001 65.26ZM49.0601 88.68L51.3901 87.3L48.8501 85.79L46.5101 87.16L49.0601 88.68ZM89.2001 65L91.5401 63.62L89.0001 62.1L86.6601 63.48L89.2001 65ZM45.5201 86.57L47.8501 85.19L45.3101 83.68L43.0001 85.06L45.5501 86.57H45.5201ZM77.6301 67.62L80.0001 66.24L77.4501 64.73L75.1201 66.11L77.6601 67.62H77.6301ZM38.4301 82.36L40.7601 81L38.2201 79.49L35.8801 80.87L38.4301 82.38V82.36ZM41.0301 93.36L43.3701 92L40.8201 90.49L38.4901 91.9L41.0001 93.41L41.0301 93.36ZM46.2501 74.68L43.9101 76.06L46.4601 77.57L48.7901 76.19L46.2501 74.68ZM81.1701 69.68L83.5101 68.3L81.0001 66.84L78.6701 68.21L81.2101 69.73L81.1701 69.68ZM56.8201 71.51L54.2701 70L51.9401 71.38L54.4801 72.89L56.8201 71.52V71.51ZM59.0001 75.59L61.5401 77.1L63.8801 75.72L61.3401 74.21L59.0001 75.59ZM78.5701 58.67L80.9001 57.29L78.3601 55.78L76.0001 57.16L78.5501 58.67H78.5701ZM53.3401 78.94L51.0001 80.32L53.5501 81.83L55.8801 80.46L53.3401 78.94ZM55.7501 65.58L53.4001 67L55.1701 68L57.5201 66.61L55.7501 65.61V65.58ZM38.7501 75.58L36.4601 77L38.2301 78L40.5701 76.62L38.8001 75.62L38.7501 75.58ZM71.7501 56.1L69.4101 57.48L71.1801 58.48L73.5301 57.1L71.7501 56.1ZM62.0001 61.9L59.6601 63.28L61.4301 64.28L63.7601 63L62.0001 61.9ZM65.5701 59.79L63.2201 61.18L64.9901 62.18L67.3401 60.8L65.5701 59.74V59.79ZM29.0001 81.38L26.6601 82.76L28.4301 83.76L30.7701 82.38L29.0001 81.38ZM25.4301 83.48L23.0801 84.87L24.8501 85.87L27.2001 84.49L25.4301 83.43V83.48ZM34.6701 80.12L37.0001 78.74L35.2301 77.74L32.8901 79.12L34.6601 80.17L34.6701 80.12ZM74.8001 56.44L77.1401 55.06L75.3701 54L73.0001 55.38L74.7701 56.44H74.8001ZM52.1701 67.69L49.8401 69.07L51.6101 70.12L53.9401 68.74L52.1701 67.74V67.69Z" fill="#485950"/>
<path d="M73.0303 55.38L74.8003 56.44L77.1403 55.06L75.3703 54.01L73.0303 55.38Z" fill="#2A352D"/>
<path d="M69.46 57.49L71.23 58.54L73.58 57.16L71.8 56.11L69.46 57.49Z" fill="#2A352D"/>
<path d="M73.3398 58.74L75.8898 60.25L78.2299 58.87L75.6898 57.36L73.3398 58.74Z" fill="#2A352D"/>
<path d="M79.5601 59.26L82.1101 60.78L84.4501 59.4L81.9001 57.88L79.5601 59.26Z" fill="#2A352D"/>
<path d="M70.6699 60.32L73.2099 61.83L75.5599 60.45L73.0099 58.94L70.6699 60.32Z" fill="#2A352D"/>
<path d="M63.21 61.18L64.98 62.23L67.33 60.85L65.56 59.79L63.21 61.18Z" fill="#2A352D"/>
<path d="M76.8799 60.85L79.4399 62.36L81.7799 60.98L79.2299 59.46L76.8799 60.85Z" fill="#2A352D"/>
<path d="M83.1099 61.37L85.6599 62.88L87.9899 61.51L85.4499 59.99L83.1099 61.37Z" fill="#2A352D"/>
<path d="M67.9902 61.9L70.5402 63.41L72.8802 62.03L70.3302 60.52L67.9902 61.9Z" fill="#2A352D"/>
<path d="M74.21 62.42L76.76 63.94L79.11 62.56L76.55 61.04L74.21 62.42Z" fill="#2A352D"/>
<path d="M59.6499 63.28L61.4199 64.33L63.7699 62.95L61.9899 61.9L59.6499 63.28Z" fill="#2A352D"/>
<path d="M80.4302 62.96L82.9702 64.47L85.3202 63.08L82.7702 61.57L80.4302 62.96Z" fill="#2A352D"/>
<path d="M86.6602 63.48L89.2001 64.99L91.5402 63.61L88.9902 62.1L86.6602 63.48Z" fill="#2A352D"/>
<path d="M71.5303 64L74.0903 65.52L76.4203 64.14L73.8703 62.62L71.5303 64Z" fill="#2A352D"/>
<path d="M77.7603 64.53L80.3003 66.04L82.6503 64.66L80.1003 63.15L77.7603 64.53Z" fill="#2A352D"/>
<path d="M62.6401 65.06L65.1901 66.57L67.5301 65.19L64.9801 63.67L62.6401 65.06Z" fill="#2A352D"/>
<path d="M68.8501 65.58L71.4101 67.1L73.7501 65.72L71.2001 64.2L68.8501 65.58Z" fill="#2A352D"/>
<path d="M75.0898 66.11L77.6298 67.62L79.9698 66.24L77.4198 64.73L75.0898 66.11Z" fill="#2A352D"/>
<path d="M53.3999 66.97L55.1699 68.02L57.5199 66.64L55.7399 65.58L53.3999 66.97Z" fill="#2A352D"/>
<path d="M59.9702 66.64L62.5102 68.15L64.8502 66.77L62.3002 65.26L59.9702 66.64Z" fill="#2A352D"/>
<path d="M66.1802 67.16L68.7302 68.68L71.0802 67.3L68.5302 65.78L66.1802 67.16Z" fill="#2A352D"/>
<path d="M78.6299 68.21L81.1699 69.73L83.5099 68.34L80.9599 66.84L78.6299 68.21Z" fill="#2A352D"/>
<path d="M49.8398 69.07L51.6098 70.12L53.9398 68.74L52.1698 67.69L49.8398 69.07Z" fill="#2A352D"/>
<path d="M63.5103 68.74L66.0603 70.25L68.4003 68.88L65.8403 67.36L63.5103 68.74Z" fill="#2A352D"/>
<path d="M69.73 69.27L72.28 70.78L74.62 69.4L72.07 67.89L69.73 69.27Z" fill="#2A352D"/>
<path d="M54.6099 69.8L57.1599 71.31L59.4999 69.92L56.9599 68.41L54.6099 69.8Z" fill="#2A352D"/>
<path d="M75.9399 69.8L78.4899 71.31L80.8299 69.92L78.2899 68.41L75.9399 69.8Z" fill="#2A352D"/>
<path d="M67.0601 70.85L69.6001 72.36L71.9401 70.98L69.3901 69.47L67.0601 70.85Z" fill="#2A352D"/>
<path d="M51.9399 71.37L54.4799 72.89L56.8199 71.51L54.2699 69.99L51.9399 71.37Z" fill="#2A352D"/>
<path d="M58.1499 71.9L60.6999 73.42L63.0499 72.03L60.4999 70.52L58.1499 71.9Z" fill="#2A352D"/>
<path d="M64.3799 72.43L66.9199 73.94L69.2599 72.56L66.7199 71.05L64.3799 72.43Z" fill="#2A352D"/>
<path d="M49.2603 72.95L51.8003 74.47L54.1503 73.08L51.6003 71.57L49.2603 72.95Z" fill="#2A352D"/>
<path d="M55.48 73.48L58.03 74.99L60.37 73.61L57.82 72.1L55.48 73.48Z" fill="#2A352D"/>
<path d="M61.7002 74.01L64.2502 75.52L66.5902 74.14L64.0402 72.63L61.7002 74.01Z" fill="#2A352D"/>
<path d="M46.5801 74.53L49.1301 76.05L51.4701 74.66L48.9301 73.15L46.5801 74.53Z" fill="#2A352D"/>
<path d="M52.8003 75.06L55.3503 76.58L57.6903 75.19L55.1403 73.68L52.8003 75.06Z" fill="#2A352D"/>
<path d="M59.0303 75.58L61.5703 77.1L63.9103 75.72L61.3703 74.21L59.0303 75.58Z" fill="#2A352D"/>
<path d="M43.9102 76.11L46.4502 77.62L48.7902 76.24L46.2402 74.73L43.9102 76.11Z" fill="#2A352D"/>
<path d="M36.46 76.97L38.23 78.02L40.57 76.64L38.8 75.58L36.46 76.97Z" fill="#2A352D"/>
<path d="M50.1299 76.64L52.6799 78.15L55.0199 76.77L52.4699 75.25L50.1299 76.64Z" fill="#2A352D"/>
<path d="M56.3501 77.17L58.8901 78.68L61.2301 77.3L58.6901 75.78L56.3501 77.17Z" fill="#2A352D"/>
<path d="M41.23 77.69L43.77 79.21L46.12 77.82L43.57 76.31L41.23 77.69Z" fill="#2A352D"/>
<path d="M47.4502 78.22L50.0002 79.73L52.3402 78.35L49.7902 76.83L47.4502 78.22Z" fill="#2A352D"/>
<path d="M32.8901 79.07L34.6601 80.12L37.0001 78.75L35.2301 77.69L32.8901 79.07Z" fill="#2A352D"/>
<path d="M53.6699 78.75L56.2199 80.26L58.5599 78.87L56.0199 77.36L53.6699 78.75Z" fill="#2A352D"/>
<path d="M38.5601 79.27L41.1001 80.78L43.4501 79.4L40.9001 77.89L38.5601 79.27Z" fill="#2A352D"/>
<path d="M44.77 79.8L47.32 81.31L49.67 79.93L47.11 78.41L44.77 79.8Z" fill="#2A352D"/>
<path d="M51 80.32L53.55 81.83L55.88 80.46L53.34 78.94L51 80.32Z" fill="#2A352D"/>
<path d="M35.8799 80.85L38.4299 82.36L40.7599 80.98L38.2199 79.47L35.8799 80.85Z" fill="#2A352D"/>
<path d="M42.1001 81.38L44.6501 82.89L46.9901 81.51L44.4401 79.99L42.1001 81.38Z" fill="#2A352D"/>
<path d="M48.3198 81.91L50.8698 83.42L53.2098 82.03L50.6598 80.52L48.3198 81.91Z" fill="#2A352D"/>
<path d="M26.6401 82.76L28.4201 83.81L30.7601 82.43L28.9901 81.38L26.6401 82.76Z" fill="#2A352D"/>
<path d="M33.2002 82.43L35.7502 83.94L38.0902 82.56L35.5502 81.05L33.2002 82.43Z" fill="#2A352D"/>
<path d="M39.4199 82.95L41.9799 84.47L44.3099 83.09L41.7599 81.57L39.4199 82.95Z" fill="#2A352D"/>
<path d="M30.5303 84.01L33.0703 85.52L35.4203 84.14L32.8703 82.63L30.5303 84.01Z" fill="#2A352D"/>
<path d="M23.0698 84.87L24.8398 85.92L27.1898 84.53L25.4198 83.48L23.0698 84.87Z" fill="#2A352D"/>
<path d="M36.7402 84.53L39.3002 86.05L41.6402 84.67L39.0902 83.15L36.7402 84.53Z" fill="#2A352D"/>
<path d="M42.9702 85.06L45.5202 86.57L47.8502 85.19L45.3102 83.68L42.9702 85.06Z" fill="#2A352D"/>
<path d="M27.8599 85.59L30.3999 87.1L32.7399 85.72L30.1899 84.21L27.8599 85.59Z" fill="#2A352D"/>
<path d="M49.1899 85.59L51.7299 87.1L78.1599 71.5L75.6099 69.99L49.1899 85.59Z" fill="#2A352D"/>
<path d="M34.0698 86.11L36.6198 87.63L38.9698 86.25L36.4098 84.73L34.0698 86.11Z" fill="#2A352D"/>
<path d="M40.29 86.64L42.84 88.16L45.18 86.77L42.64 85.26L40.29 86.64Z" fill="#2A352D"/>
<path d="M25.1699 87.17L27.7199 88.68L30.0599 87.3L27.5199 85.79L25.1699 87.17Z" fill="#2A352D"/>
<path d="M46.5103 87.17L49.0603 88.68L51.4003 87.3L48.8503 85.79L46.5103 87.17Z" fill="#2A352D"/>
<path d="M31.3999 87.69L33.9499 89.21L36.2799 87.83L33.7299 86.31L31.3999 87.69Z" fill="#2A352D"/>
<path d="M37.6201 88.22L40.1601 89.73L42.5101 88.35L39.9601 86.84L37.6201 88.22Z" fill="#2A352D"/>
<path d="M43.8301 88.75L46.3801 90.26L48.7201 88.88L46.1801 87.36L43.8301 88.75Z" fill="#2A352D"/>
<path d="M28.7202 89.27L31.2702 90.79L33.6102 89.41L31.0602 87.89L28.7202 89.27Z" fill="#2A352D"/>
<path d="M34.9399 89.8L37.4899 91.31L39.8299 89.93L37.2799 88.42L34.9399 89.8Z" fill="#2A352D"/>
<path d="M41.1602 90.33L43.7002 91.83L46.0502 90.45L43.5102 88.94L41.1602 90.33Z" fill="#2A352D"/>
<path d="M32.2603 91.38L34.8103 92.89L37.1503 91.51L34.6103 90L32.2603 91.38Z" fill="#2A352D"/>
<path d="M38.48 91.9L41.03 93.42L43.37 92.03L40.82 90.52L38.48 91.9Z" fill="#2A352D"/>
<path d="M35.8101 93.48L38.3501 95L40.6901 93.61L38.1501 92.1L35.8101 93.48Z" fill="#2A352D"/>
<path d="M60.8301 70.32L63.3801 71.84L65.7201 70.45L63.1701 68.94L60.8301 70.32Z" fill="#2A352D"/>
<path d="M45.6499 83.48L48.1899 84.99L50.5299 83.61L47.9899 82.1L45.6499 83.48Z" fill="#2A352D"/>
<path d="M81.2998 66.64L83.8398 68.15L86.1898 66.77L83.6398 65.25L81.2998 66.64Z" fill="#2A352D"/>
<path d="M83.9702 65.06L86.5202 66.57L88.8602 65.19L86.3202 63.67L83.9702 65.06Z" fill="#2A352D"/>
<path d="M64.6501 82.57C64.47 82.6348 64.3143 82.7537 64.2043 82.9102C64.0942 83.0668 64.0352 83.2536 64.0352 83.445C64.0352 83.6364 64.0942 83.8231 64.2043 83.9797C64.3143 84.1363 64.47 84.2551 64.6501 84.32L70.0001 87.48C70.4626 87.7235 70.9774 87.8507 71.5001 87.8507C72.0228 87.8507 72.5376 87.7235 73.0001 87.48L80.2401 83.21C80.4202 83.1451 80.5758 83.0263 80.6859 82.8697C80.7959 82.7131 80.855 82.5264 80.855 82.335C80.855 82.1436 80.7959 81.9568 80.6859 81.8002C80.5758 81.6437 80.4202 81.5248 80.2401 81.46L74.8401 78.3C74.3781 78.0548 73.8631 77.9266 73.3401 77.9266C72.8171 77.9266 72.3021 78.0548 71.8401 78.3L64.6501 82.57Z" fill="#2A352D"/>
<path d="M64.6501 82.83C64.47 82.8948 64.3143 83.0137 64.2043 83.1702C64.0942 83.3268 64.0352 83.5136 64.0352 83.705C64.0352 83.8964 64.0942 84.0831 64.2043 84.2397C64.3143 84.3963 64.47 84.5151 64.6501 84.58L70.0001 87.74C70.461 87.9886 70.9764 88.1187 71.5001 88.1187C72.0237 88.1187 72.5392 87.9886 73.0001 87.74L80.2401 83.47C80.4202 83.4051 80.5758 83.2863 80.6859 83.1297C80.7959 82.9731 80.855 82.7864 80.855 82.595C80.855 82.4036 80.7959 82.2168 80.6859 82.0602C80.5758 81.9037 80.4202 81.7848 80.2401 81.72L74.9201 78.56C74.4581 78.3148 73.9431 78.1866 73.4201 78.1866C72.8971 78.1866 72.3821 78.3148 71.9201 78.56L64.6501 82.83Z" fill="#3E4D45"/>
<path d="M102.39 78.27L95.73 86.24L96.95 84.49L102.39 78.27Z" fill="#AAC6C3"/>
<path d="M102.39 78.27L96.9498 84.49L93.3198 79.88L102.39 78.27Z" fill="#DBDCDD"/>
<path d="M66.4798 102.59L96.9498 84.49L95.7298 86.24L65.2598 104.35L66.4798 102.59Z" fill="#AAC6C3"/>
<path d="M65.27 99.41L95.75 81.31L96.95 84.49L66.48 102.59L65.27 99.41Z" fill="#E6E6E6"/>
<path d="M62.8501 97.97L93.3201 79.88L95.7501 81.31L65.2701 99.41L62.8501 97.97Z" fill="white"/>
<path d="M65.2701 99.41L66.4801 102.59L65.2601 104.35L62.8301 102.91L61.6201 99.73L62.8501 97.97L65.2701 99.41Z" fill="#E6E6E6"/>
<path d="M64.59 100.61L65.12 102.01L64.59 102.79L63.51 102.15L62.98 100.75L63.52 99.97L64.59 100.61Z" fill="#565858"/>
<path d="M102.39 78.27L95.7498 81.31L93.3198 79.88L102.39 78.27Z" fill="#F4F4F4"/>
<path d="M101.02 78.9L102.39 78.27L100.54 78.6L101.02 78.9Z" fill="#5A5C5D"/>
<path d="M101.02 78.9L101.3 79.58L102.39 78.27L101.02 78.9Z" fill="#6D6F70"/>
<g opacity="0.1">
<path d="M26.4399 76.81L60.8299 96.65L96.0299 75.65L60.5799 55.17L26.4399 76.81Z" fill="black"/>
</g>
<path d="M94.1202 35.41C94.1202 35.29 94.1202 35.16 94.1202 35.03C94.1251 34.9701 94.1251 34.9099 94.1202 34.85V34.78C94.1152 34.7334 94.1152 34.6865 94.1202 34.64C94.1202 34.52 94.1202 34.39 94.1202 34.25L94.0002 33.86C94.0002 33.73 94.0002 33.6 93.9302 33.47C93.8602 33.34 93.8802 33.2 93.8502 33.06V32.91C93.8502 32.91 93.8502 32.91 93.8502 32.83C93.8455 32.7701 93.8455 32.7099 93.8502 32.65C93.8502 32.51 93.7802 32.37 93.7402 32.23L93.6502 31.93C93.6545 31.9068 93.6545 31.8831 93.6502 31.86C93.6502 31.86 93.6502 31.86 93.6502 31.81C93.6502 31.76 93.5602 31.53 93.5202 31.4C93.4802 31.27 93.4302 31.13 93.3802 30.99C93.3758 30.9668 93.3758 30.9431 93.3802 30.92V30.86L93.2902 30.6L93.1402 30.22L93.0202 29.95C93.0202 29.95 93.0202 29.95 93.0202 29.9C93.0202 29.85 93.0202 29.9 93.0202 29.84L92.8502 29.46L92.6502 29.04V28.98V28.91C92.6502 28.79 92.5402 28.68 92.4802 28.56C92.4202 28.44 92.3202 28.28 92.2502 28.14C92.2131 28.0822 92.1797 28.022 92.1502 27.96V27.87C92.0802 27.74 92.0002 27.63 91.9302 27.51C91.8602 27.39 91.7302 27.17 91.6202 27.01L91.5702 26.93C91.4202 26.69 91.2502 26.46 91.0902 26.23L90.7502 25.76L90.4502 25.39L90.1502 25.03L89.8502 24.69V24.64L89.8002 24.58L89.5802 24.35L88.8302 24L88.7302 23.9L88.6602 23.83C88.6602 23.78 88.5502 23.73 88.5002 23.67L88.1502 23.37L88.0002 23.23L87.9402 23.17L87.8202 23.07L87.4802 22.81L87.2102 22.61H87.1602L86.8302 22.39L86.5002 22.19L86.4302 22.14L86.1502 22L85.8402 21.83L85.6202 21.72H85.5502L85.2402 21.59C85.1403 21.5414 85.0367 21.5013 84.9302 21.47H84.8802L84.6702 21.4L84.3502 21.31H84.2002H84.1302H84.0302L83.6902 21.25H83.4902H83.3502C83.2304 21.24 83.11 21.24 82.9902 21.25H82.5002L82.0602 21.32L81.8702 21.37L81.5202 21.47H81.4202C81.2521 21.5398 81.0884 21.62 80.9302 21.71L77.4302 23.79C77.593 23.6927 77.7636 23.6091 77.9402 23.54H78.0002C78.1574 23.4841 78.3176 23.4374 78.4802 23.4H78.5902C78.7813 23.3613 78.9753 23.3379 79.1702 23.33H79.2902C79.4867 23.3201 79.6836 23.3201 79.8802 23.33H79.9502C80.1688 23.3494 80.3859 23.3828 80.6002 23.43H80.6602C80.8902 23.4806 81.1172 23.5441 81.3402 23.62C81.5702 23.7 81.8202 23.8 82.0702 23.91H82.1302C82.3802 24.03 82.6302 24.17 82.8902 24.32C83.1502 24.47 83.4102 24.64 83.6602 24.82H83.7202C83.9502 24.99 84.1802 25.16 84.4002 25.35L84.5002 25.43C84.7202 25.61 84.9402 25.81 85.1502 26.01L85.2302 26.09C85.4502 26.3 85.6702 26.52 85.8802 26.75C86.1002 26.99 86.3202 27.25 86.5302 27.51C86.7402 27.77 86.9402 28.03 87.1402 28.3V28.38C87.3102 28.62 87.4802 28.86 87.6402 29.11C87.8002 29.36 87.8502 29.45 87.9502 29.62C88.0502 29.79 88.1202 29.9 88.2002 30.04L88.3302 30.27C88.4602 30.5 88.5902 30.74 88.7102 30.98V31.07C88.8602 31.37 89.0002 31.68 89.1302 31.99C89.2602 32.29 89.3902 32.6 89.5002 32.91C89.6202 33.23 89.7202 33.54 89.8102 33.91C89.8284 33.9021 89.8482 33.8982 89.8681 33.8986C89.888 33.8989 89.9075 33.9035 89.9255 33.912C89.9435 33.9205 89.9595 33.9328 89.9723 33.9479C89.9852 33.9631 89.9947 33.9808 90.0002 34C90.0902 34.31 90.1702 34.61 90.2402 34.91C90.2402 34.91 90.2402 34.97 90.2402 34.99C90.3102 35.31 90.3702 35.62 90.4202 35.99C90.4202 36.31 90.5002 36.62 90.5302 36.93C90.5253 36.9531 90.5253 36.9769 90.5302 37C90.5302 37.31 90.5302 37.62 90.5302 37.92C90.5456 38.2098 90.5456 38.5002 90.5302 38.79C90.5343 38.8131 90.5343 38.8368 90.5302 38.86C90.5302 39.12 90.4702 39.36 90.4302 39.6C90.4302 39.6 90.4302 39.66 90.4302 39.69C90.4302 39.92 90.3302 40.14 90.2602 40.36V40.47C90.1902 40.67 90.1202 40.86 90.0402 41.05C89.9477 41.2508 89.8407 41.4446 89.7202 41.63C89.7221 41.6533 89.7221 41.6767 89.7202 41.7C89.6202 41.84 89.5202 41.98 89.4102 42.11L89.3002 42.24L89.0002 42.53L88.8802 42.64C88.7385 42.7578 88.588 42.8648 88.4302 42.96L91.9302 40.88C92.088 40.7848 92.2385 40.6778 92.3802 40.56L92.5002 40.45L92.8002 40.16L92.9102 40.03C93.0214 39.8995 93.1249 39.7626 93.2202 39.62C93.2221 39.5967 93.2221 39.5733 93.2202 39.55C93.332 39.3768 93.4322 39.1964 93.5202 39.01V38.95L93.6702 38.58L93.7302 38.38C93.7343 38.3434 93.7343 38.3065 93.7302 38.27C93.7302 38.27 93.7302 38.2 93.7302 38.16C93.7302 38.12 93.8002 37.9 93.8302 37.76V37.6C93.8351 37.5735 93.8351 37.5464 93.8302 37.52C93.8302 37.47 93.8302 37.42 93.8302 37.37C93.8302 37.32 93.8302 37.12 93.8302 36.99C93.8356 36.9167 93.8356 36.8432 93.8302 36.77C93.8302 36.77 93.8302 36.72 93.8302 36.7C93.8302 36.68 93.8302 36.64 93.8302 36.61C93.8302 36.58 93.8302 36.36 93.8302 36.24C93.8302 36.12 93.8302 35.98 93.8302 35.85V35.47L94.1202 35.41Z" fill="#D25400"/>
<path d="M82.9 24.17C87.18 26.69 90.64 32.82 90.62 37.85C90.6 42.88 87.13 44.85 82.85 42.38C78.57 39.91 75.11 33.73 75.13 28.7C75.15 23.67 78.62 21.64 82.9 24.17Z" fill="#E27124"/>
<path d="M84.3402 28.63C84.3402 22.25 82.1102 17.76 78.5502 15.63L69.2002 10.09C72.7602 12.2 75.0002 16.7 75.0002 23.07V28.4V29.78L84.3502 35.34V34L84.3402 28.63Z" fill="#C3C5C5"/>
<path d="M84.3398 28.63V33.96V35.34L85.5698 34.61V27.93C85.5698 19.08 81.5698 13.66 75.5698 12.84V14.48C80.7898 15.53 84.3198 20.57 84.3398 28.63Z" fill="#C8D2DB"/>
<path d="M91.23 40.49C91.23 40.33 91.23 40.16 91.23 40C91.2345 39.9268 91.2345 39.8533 91.23 39.78V39.69C91.23 39.63 91.23 39.57 91.23 39.52C91.23 39.47 91.23 39.19 91.23 39.03C91.23 38.87 91.23 38.69 91.16 38.52L91 38C91 37.83 90.94 37.65 90.9 37.48C90.86 37.31 90.9 37.36 90.9 37.29V37.19C90.8881 37.1124 90.8714 37.0356 90.85 36.96C90.85 36.78 90.76 36.6 90.72 36.43C90.68 36.26 90.64 36.18 90.61 36.05V35.97C90.6159 35.9471 90.6159 35.923 90.61 35.9C90.61 35.73 90.51 35.55 90.45 35.38C90.39 35.21 90.34 35.04 90.28 34.87C90.2837 34.8401 90.2837 34.8099 90.28 34.78C90.2843 34.7569 90.2843 34.7331 90.28 34.71L90.16 34.38L89.97 33.9L89.82 33.55V33.47C89.75 33.31 89.68 33.15 89.6 32.99C89.52 32.83 89.44 32.64 89.35 32.46C89.3551 32.437 89.3551 32.4131 89.35 32.39C89.3517 32.36 89.3517 32.33 89.35 32.3C89.28 32.15 89.2 32 89.13 31.86C89.06 31.72 88.93 31.5 88.84 31.32C88.7962 31.2522 88.7562 31.1821 88.72 31.11C88.6462 31.1217 88.5707 31.118 88.4984 31.0991C88.4261 31.0802 88.3585 31.0464 88.3 31L88 30.5C87.87 30.29 87.75 30.08 87.62 29.88L87.55 29.77C87.36 29.47 87.15 29.18 86.95 28.89C86.81 28.7 86.67 28.5 86.52 28.31C86.37 28.12 86.27 28 86.14 27.84C86.01 27.68 85.9 27.53 85.77 27.39L85.39 26.96L85.33 26.9L85.26 26.82L85 26.51L84.59 26.09L84.45 26L84.36 25.91L84.15 25.72C84.01 25.58 83.86 25.46 83.72 25.33L83.52 25.16L83.44 25.1L83.28 24.97L82.86 24.63L82.52 24.39H82.45L82 24L81.58 23.75L81.49 23.69L81.18 23.51L80.78 23.3L80.5 23.17H80.41L80 23L79.61 22.85H79.54H79.48L79.22 22.76L78.82 22.65H78.62H78.54H78.42L78 22.39H77.75H77.57H77.11H76.6C76.4119 22.4061 76.225 22.4328 76.04 22.47L75.8 22.54C75.65 22.54 75.5 22.61 75.36 22.66L75.23 22.72C75.0173 22.7997 74.8129 22.9002 74.62 23.02L70.21 25.64C70.4163 25.5135 70.6339 25.4064 70.86 25.32H70.93C71.13 25.2467 71.33 25.1867 71.53 25.14H71.67C71.9112 25.0947 72.155 25.0646 72.4 25.05H72.55C72.7962 25.0302 73.0437 25.0302 73.29 25.05H73.38C73.6557 25.0711 73.9297 25.1112 74.2 25.17H74.28C74.56 25.24 74.85 25.32 75.14 25.42C75.4527 25.5278 75.7597 25.6513 76.06 25.79H76.14C76.46 25.9433 76.7933 26.1133 77.14 26.3C77.4839 26.4926 77.8177 26.7029 78.14 26.93L78.22 26.99C78.5147 27.195 78.7984 27.4153 79.07 27.65L79.2 27.75C79.48 27.98 79.75 28.22 80.01 28.48L80.12 28.58C80.4 28.84 80.67 29.12 80.93 29.41V29.46C81.22 29.77 81.49 30.09 81.76 30.46C82.02 30.78 82.28 31.12 82.53 31.46L82.59 31.56C82.8 31.85 83.01 32.16 83.21 32.47L83.61 33.12C83.72 33.3 83.83 33.47 83.92 33.64L84.08 33.93C84.25 34.23 84.41 34.53 84.56 34.84L84.62 34.95C84.81 35.33 84.98 35.71 85.15 36.1V36.17C85.31 36.55 85.46 36.94 85.6 37.33C85.7466 37.73 85.8766 38.13 85.99 38.53V38.61C86.0966 38.99 86.1966 39.37 86.29 39.75C86.2853 39.7832 86.2853 39.8168 86.29 39.85C86.38 40.25 86.46 40.65 86.52 41.04C86.58 41.43 86.62 41.83 86.66 42.21V42.31C86.66 42.7 86.66 43.09 86.66 43.46C86.66 43.83 86.66 44.21 86.66 44.56C86.66 44.56 86.66 44.62 86.66 44.65C86.66 44.97 86.58 45.29 86.53 45.59V45.7C86.47 45.9867 86.4 46.2667 86.32 46.54C86.32 46.54 86.32 46.63 86.32 46.68C86.24 46.93 86.14 47.18 86.04 47.41V47.47C85.9241 47.7206 85.7939 47.9644 85.65 48.2L85.59 48.28C85.47 48.46 85.34 48.63 85.21 48.8L85.06 48.96C84.9442 49.0907 84.8207 49.2143 84.69 49.33L84.54 49.46C84.3753 49.6548 84.1947 49.8354 84 50L88.41 47.38C88.6102 47.2582 88.8008 47.1211 88.98 46.97L89.13 46.84L89.5 46.47L89.65 46.31C89.78 46.15 89.91 45.97 90.03 45.79L90.09 45.71C90.2251 45.49 90.3486 45.263 90.46 45.03V44.96C90.53 44.81 90.59 44.65 90.66 44.49L90.73 44.24C90.7342 44.1934 90.7342 44.1466 90.73 44.1C90.7344 44.0535 90.7344 44.0066 90.73 43.96C90.78 43.8 90.82 43.63 90.86 43.45C90.8657 43.3868 90.8657 43.3232 90.86 43.26C90.8647 43.2235 90.8647 43.1865 90.86 43.15C90.8646 43.0901 90.8646 43.0299 90.86 42.97C90.86 42.81 90.86 42.65 90.93 42.49V42.21C90.9251 42.1802 90.9251 42.1498 90.93 42.12C90.93 42.12 90.93 42.05 90.93 42.01V41.54C90.93 41.38 90.93 41.22 90.93 41.06C91.24 40.79 91.24 40.64 91.23 40.49Z" fill="#C02F1C"/>
<path d="M77.1001 26.32C82.4901 29.5 86.8501 37.22 86.8301 43.55C86.8101 49.88 82.4301 52.44 77.0401 49.26C71.6501 46.08 67.2901 38.37 67.3101 32C67.3301 25.63 71.7101 23.14 77.1001 26.32Z" fill="#781E11"/>
<path d="M79.1802 82.14L87.5802 77.15L87.7002 36.02L79.2902 41.01L79.1802 82.14Z" fill="#ED8001"/>
<path d="M79.2903 41.01L87.7003 36.02L60.9903 20.26L59.7403 21V21.7L54.5303 24.84L53.9003 24.47L52.5903 25.25L79.2903 41.01Z" fill="#FACD00"/>
<path d="M52.5902 25.25L52.4702 66.38L79.1802 82.14L79.2902 41.01L52.5902 25.25Z" fill="#FCA922"/>
<path d="M54.5298 24.84L79.2898 39.38L85.1298 36.02L59.7398 21.7L54.5298 24.84Z" fill="#E7E8E9"/>
<path d="M59.7402 21V21.7L84.4202 36.43L85.1302 36.02L59.7402 21Z" fill="#FCA922"/>
<path d="M68.8301 87.18L77.2301 82.18L77.3501 41.05L68.9401 46.05L68.8301 87.18Z" fill="#4B6E21"/>
<path d="M68.9402 46.05L77.3502 41.05L50.6402 25.29L49.3902 26.04V26.74L44.1802 29.88L43.5502 29.5L42.2402 30.29L68.9402 46.05Z" fill="#80B134"/>
<path d="M42.2401 30.29L42.1201 71.42L68.8301 87.18L68.9401 46.05L42.2401 30.29Z" fill="#5B7F2A"/>
<path d="M44.1802 29.88L68.9402 44.42L74.7802 41.05L49.3902 26.74L44.1802 29.88Z" fill="#E7E8E9"/>
<path d="M49.3901 26.04V26.74L74.0701 41.46L74.7801 41.05L49.3901 26.04Z" fill="#5B7F2A"/>
<path d="M58.0298 92.37L66.4298 87.38L66.5498 46.24L58.1398 51.24L58.0298 92.37Z" fill="#0F9AD6"/>
<path d="M58.1397 51.24L66.5497 46.24L39.8397 30.49L38.5897 31.23V31.93L33.3797 35.07L32.7497 34.7L31.4297 35.48L58.1397 51.24Z" fill="#1FA6F3"/>
<path d="M31.4298 35.48L31.3198 76.61L58.0298 92.37L58.1398 51.24L31.4298 35.48Z" fill="#32BCF9"/>
<path d="M33.3799 35.07L58.1399 49.62L63.9799 46.24L38.5899 31.93L33.3799 35.07Z" fill="#E7E8E9"/>
<path d="M38.5898 31.23V31.93L63.2698 46.66L63.9798 46.24L38.5898 31.23Z" fill="#32BCF9"/>
<path d="M53.2599 61.9C53.2599 61.74 53.2599 61.57 53.2599 61.41C53.2644 61.3367 53.2644 61.2633 53.2599 61.19V61.1C53.2599 61.04 53.2599 60.98 53.2599 60.93C53.2599 60.88 53.2599 60.6 53.2099 60.44C53.1599 60.28 53.2099 60.1 53.1399 59.93L52.9999 59.43C52.9999 59.26 52.9399 59.08 52.8999 58.91C52.8599 58.74 52.8999 58.78 52.8999 58.72V58.62C52.9046 58.5434 52.9046 58.4666 52.8999 58.39C52.8999 58.21 52.8099 58.03 52.7599 57.86C52.7099 57.69 52.6899 57.61 52.6599 57.48V57.4C52.6659 57.377 52.6659 57.3529 52.6599 57.33C52.6599 57.16 52.5599 56.98 52.4999 56.81C52.4399 56.64 52.3899 56.47 52.3299 56.3V56.21C52.3343 56.1869 52.3343 56.1631 52.3299 56.14L51.9999 55.81L51.8099 55.33L51.6299 55V54.92C51.5599 54.76 51.4899 54.6 51.4099 54.44C51.3299 54.28 51.2499 54.08 51.1599 53.91C51.1651 53.8869 51.1651 53.863 51.1599 53.84C51.1617 53.81 51.1617 53.78 51.1599 53.75L50.9399 53.31C50.8399 53.13 50.7399 52.95 50.6499 52.77C50.5599 52.59 50.5699 52.63 50.5199 52.56L50.4599 52.43L50.1799 51.98C50.0499 51.77 49.9299 51.56 49.7899 51.36L49.7299 51.25C49.5399 50.95 49.3299 50.66 49.1299 50.37C48.9899 50.18 48.8499 49.98 48.6999 49.79C48.5499 49.6 48.4499 49.47 48.3199 49.32C48.2046 49.1636 48.0811 49.0134 47.9499 48.87L47.5699 48.44L47.5099 48.37L47.4399 48.3L46.9999 47.92L46.5899 47.5L46.4599 47.38L46.3699 47.29L46.1599 47.1C46.0199 46.96 45.8699 46.83 45.7299 46.71L45.5299 46.54L45.4499 46.48L45.2899 46.35L44.8799 46L44.5499 45.76H44.4799L44.0699 45.48L43.6499 45.23L43.5599 45.17L43.2499 44.99L42.8499 44.78L42.5699 44.65H42.4799L41.9999 44.36L41.6099 44.21H41.5399H41.4799L41.2199 44.12L40.8199 44.01H40.6199H40.5399H40.4199L39.9999 43.8H39.7499H39.5999H39.1399H38.6299C38.4419 43.8161 38.2549 43.8428 38.0699 43.88L37.8299 43.95C37.6799 43.95 37.5299 44.02 37.3899 44.07L37.2599 44.13C37.0493 44.2104 36.8453 44.3074 36.6499 44.42L32.1899 47C32.3928 46.8735 32.6071 46.7664 32.8299 46.68H32.9099C33.1066 46.6095 33.3069 46.5494 33.5099 46.5H33.6499C33.8903 46.4497 34.1345 46.4196 34.3799 46.41H34.5299C34.7762 46.3902 35.0237 46.3902 35.2699 46.41H35.3599C35.6357 46.431 35.9097 46.4711 36.1799 46.53H36.2599C36.5399 46.6 36.8299 46.68 37.1199 46.78H37.1699C37.4833 46.886 37.7904 47.0095 38.0899 47.15H38.1699C38.4899 47.2967 38.8233 47.4667 39.1699 47.66C39.5139 47.8526 39.8477 48.0629 40.1699 48.29H40.2499C40.5399 48.5 40.8199 48.72 41.0999 48.95L41.2299 49.06C41.5099 49.29 41.7799 49.53 42.0399 49.79L42.1499 49.89C42.4299 50.15 42.6999 50.43 42.9599 50.72C43.2499 51.03 43.5199 51.35 43.7899 51.72C44.0499 52.04 44.3099 52.38 44.5599 52.72L44.6199 52.81C44.8299 53.11 45.0399 53.42 45.2399 53.73L45.6399 54.38C45.7499 54.56 45.8599 54.73 45.9499 54.9L46.1099 55.19C46.2799 55.49 46.4399 55.79 46.5899 56.1L46.6499 56.21C46.8299 56.59 47.0099 56.97 47.1799 57.36V57.43C47.3399 57.81 47.4899 58.2 47.6299 58.59C47.7766 58.99 47.9066 59.39 48.0199 59.79V59.87C48.1266 60.25 48.2266 60.63 48.3199 61.01C48.3153 61.0432 48.3153 61.0768 48.3199 61.11C48.4099 61.51 48.4799 61.91 48.5499 62.3C48.6099 62.69 48.6499 63.09 48.6899 63.47V63.57C48.6899 63.96 48.6899 64.34 48.6899 64.72C48.6899 65.1 48.6899 65.47 48.6899 65.82C48.6899 65.82 48.6899 65.88 48.6899 65.91C48.6899 66.23 48.6099 66.55 48.5599 66.85V66.96C48.4999 67.2467 48.4299 67.5267 48.3499 67.8C48.3499 67.8 48.3499 67.89 48.3499 67.94C48.2599 68.19 48.1699 68.43 48.0699 68.66V68.73C47.9499 68.98 47.8199 69.23 47.6799 69.46L47.6199 69.54C47.4999 69.72 47.3699 69.89 47.2399 70.06L47.0899 70.22C46.9742 70.3507 46.8507 70.4743 46.7199 70.59L46.5699 70.72C46.3907 70.8711 46.2002 71.0081 45.9999 71.13L50.4099 68.51C50.6102 68.3881 50.8007 68.2511 50.9799 68.1L51.1299 67.97C51.2599 67.85 51.3799 67.73 51.4999 67.6L51.6499 67.44C51.7799 67.27 51.9099 67.1 52.0299 66.92L52.0899 66.84C52.2251 66.62 52.3486 66.393 52.4599 66.16V66.09C52.5299 65.94 52.5899 65.78 52.6499 65.62C52.6811 65.5382 52.7078 65.4547 52.7299 65.37C52.751 65.325 52.7678 65.2781 52.7799 65.23C52.7799 65.23 52.7799 65.14 52.7799 65.09C52.7799 65.04 52.9999 65 52.9999 64.77C53.0046 64.7067 53.0046 64.6432 52.9999 64.58C53.0047 64.5435 53.0047 64.5065 52.9999 64.47C52.9999 64.41 52.9999 64.35 52.9999 64.29C52.9999 64.23 52.9999 63.97 53.0699 63.81V63.53V63.44C53.065 63.4035 53.065 63.3665 53.0699 63.33V62.86C53.0699 62.7 53.0699 62.54 53.0699 62.38C53.2699 62.19 53.2699 62 53.2599 61.9Z" fill="#C02F1C"/>
<path d="M39.1299 47.73C44.5199 50.91 48.8799 58.63 48.8599 64.96C48.8399 71.29 44.4599 73.85 39.0699 70.67C33.6799 67.49 29.3199 59.78 29.3399 53.44C29.3599 47.1 33.7399 44.55 39.1299 47.73Z" fill="#781E11"/>
<path d="M67.14 14.29L67.53 14.12L68.53 13.75L68.71 13.68L69.85 13.32L70.56 13.14L70.81 13.08C71.12 13.01 71.44 12.95 71.75 12.9H71.88L72.65 12.8H72.9H73.44C73.8496 12.775 74.2604 12.775 74.67 12.8H74.8C75.14 12.8 75.48 12.87 75.8 12.92H76.06C76.4222 12.9773 76.7798 13.0608 77.13 13.17C77.4705 13.269 77.8045 13.3892 78.13 13.53L78.37 13.63C78.6535 13.7559 78.9305 13.8961 79.2 14.05L79.41 14.16L72.8 10.27L69.92 8.55998L69.73 8.46998C69.4967 8.33664 69.2566 8.21664 69.01 8.10998L68.86 7.99998H68.73C68.42 7.86998 68.1 7.74998 67.73 7.64998C67.39 7.54998 67.04 7.46998 66.73 7.39998C66.6868 7.40564 66.6431 7.40564 66.6 7.39998H66.42C66.12 7.39998 65.81 7.31998 65.5 7.28998H65.33H65.27C64.87 7.28998 64.47 7.28998 64.06 7.28998H63.94H63.56H63.26L62.49 7.37998H62.38L61.45 7.55998L61.09 7.64998L60.54 7.77998C60.16 7.87998 59.78 7.99998 59.39 8.13998L59.21 8.20998C58.88 8.32998 58.55 8.44998 58.21 8.58998H58.12L57.94 8.66998L56.87 9.16998L56.53 9.33998C56.09 9.56998 55.64 9.80998 55.19 10.08C54.74 10.35 54.08 10.77 53.53 11.14L53.28 11.31C52.75 11.68 52.23 12.07 51.71 12.48L51.45 12.69C50.9233 13.11 50.4033 13.55 49.89 14.01L49.81 14.08C49.3 14.54 48.81 15.01 48.32 15.51L48.2 15.62L48.12 15.69C47.4 16.43 46.69 17.2 46 18.01L45.91 18.11L45.79 18.26C45.26 18.88 44.79 19.52 44.25 20.18C44.25 20.18 44.25 20.18 44.2 20.23L44.09 20.39C43.68 20.94 43.28 21.49 42.89 22.06L42.8 22.18V22.23C42.43 22.77 42.07 23.32 41.72 23.87L41.61 24.03L41.46 24.29C41.18 24.74 40.91 25.2 40.64 25.66L40.53 25.85C40.5264 25.8765 40.5264 25.9034 40.53 25.93C40.22 26.46 39.93 27 39.65 27.54C39.65 27.54 39.65 27.62 39.58 27.67C39.51 27.72 39.5 27.84 39.45 27.92C39.23 28.36 39 28.81 38.79 29.26L38.67 29.5L38.61 29.63C38.35 30.19 38.09 30.76 37.85 31.32L37.79 31.45C37.58 31.96 37.37 32.45 37.18 32.99L37.07 33.25C37.07 33.32 37.07 33.39 37 33.47C36.78 34.06 36.57 34.65 36.37 35.25C36.37 35.25 36.37 35.31 36.37 35.34C36.16 35.96 35.98 36.58 35.81 37.21L35.74 37.43V37.56C35.55 38.28 35.38 39 35.22 39.72C35.22 39.72 35.22 39.83 35.22 39.89C35.22 39.95 35.22 40.06 35.17 40.15C35.11 40.44 35.06 40.73 35.01 41.03C34.96 41.33 34.94 41.39 34.91 41.57C34.88 41.75 34.82 42.19 34.78 42.49L34.72 42.86C34.7248 42.8898 34.7248 42.9202 34.72 42.95C34.6466 43.5833 34.5866 44.2033 34.54 44.81C34.54 44.94 34.54 45.06 34.54 45.18C34.54 45.8 34.48 46.43 34.48 47.05V53.73L43.83 59.28V52.7C43.83 52.09 43.83 51.47 43.88 50.85V50.45C43.88 49.85 43.98 49.24 44.05 48.63C44.05 48.45 44.1 48.27 44.13 48.08L44.25 47.24C44.25 47.05 44.32 46.86 44.35 46.66C44.38 46.46 44.46 46.1 44.51 45.82C44.56 45.54 44.57 45.51 44.61 45.36C44.76 44.64 44.93 43.92 45.12 43.21C45.12 43.09 45.19 42.98 45.22 42.87C45.3933 42.2633 45.5733 41.6533 45.76 41.04L45.82 40.85C46.02 40.26 46.23 39.66 46.45 39.06C46.45 38.92 46.56 38.78 46.61 38.65C46.8 38.15 47 37.65 47.2 37.16L47.32 36.88C47.55 36.33 47.8 35.78 48.05 35.24C48.12 35.1 48.18 34.96 48.25 34.83C48.47 34.37 48.69 33.92 48.92 33.47C48.98 33.36 49.03 33.25 49.09 33.15C49.37 32.6 49.67 32.05 49.98 31.51L50.13 31.25L50.96 29.86L51.21 29.46C51.56 28.91 51.91 28.38 52.27 27.84L52.44 27.6C52.82 27.05 53.21 26.5 53.61 25.97L53.76 25.77C54.27 25.1 54.76 24.45 55.33 23.82L55.5 23.61C56.19 22.81 56.91 22.03 57.64 21.29L57.86 21.07C58.3266 20.6033 58.8066 20.1433 59.3 19.69L59.42 19.58C59.92 19.13 60.42 18.7 60.95 18.29L61.25 18.05C61.75 17.65 62.25 17.27 62.79 16.91L63.07 16.72C63.61 16.35 64.16 15.99 64.72 15.66C65.28 15.33 65.61 15.16 66.05 14.93L66.41 14.75C66.49 14.59 66.82 14.43 67.14 14.29Z" fill="#E6E7EC"/>
<path d="M64.4698 15.66C52.8898 22.49 43.4698 39.11 43.5498 52.66V59.34L44.7798 58.62V57.27V51.97C44.7798 39.13 53.5998 23.45 64.5298 16.97C68.5898 14.57 72.3798 13.79 75.5298 14.41V12.84C72.2698 12.41 68.4998 13.28 64.4698 15.66Z" fill="#C8D2DB"/>
<path d="M46.2601 63.53C46.2601 63.4 46.2601 63.27 46.2601 63.14C46.2601 63.01 46.2601 63.03 46.2601 62.97C46.2601 62.91 46.2601 62.97 46.2601 62.89C46.2601 62.81 46.2601 62.8 46.2601 62.76C46.2601 62.72 46.2601 62.5 46.2601 62.37L46.2001 61.97L46.1401 61.59C46.1401 61.45 46.0801 61.31 46.0601 61.18C46.0556 61.1301 46.0556 61.0799 46.0601 61.03C46.0601 61.03 46.0601 60.97 46.0601 60.95C46.0601 60.93 46.0601 60.82 46.0601 60.76C46.0601 60.7 45.9901 60.48 45.9501 60.34C45.9101 60.2 45.9501 60.14 45.8701 60.04C45.8641 60.0171 45.8641 59.993 45.8701 59.97V59.92C45.8701 59.79 45.7901 59.65 45.7401 59.51L45.6101 59.11V59.04C45.6057 59.0203 45.6057 58.9998 45.6101 58.98C45.6101 58.89 45.5401 58.8 45.5101 58.72L45.3601 58.33C45.3601 58.24 45.2801 58.15 45.2501 58.06V58C45.2001 57.87 45.1401 57.74 45.0801 57.61C45.0201 57.48 44.9501 57.33 44.8801 57.19V57.13V57.06L44.7001 56.72C44.6301 56.57 44.5501 56.43 44.4701 56.29C44.4424 56.2302 44.4089 56.1732 44.3701 56.12C44.3736 56.0868 44.3736 56.0533 44.3701 56.02L44.1501 55.66L43.8501 55.17L43.3501 55C43.2001 54.77 43.0401 54.53 42.8701 54.3C42.7601 54.14 42.6501 53.99 42.5301 53.84L42.2301 53.46L41.9301 53.1L41.6301 52.76V52.71L41.5701 52.65L41.3501 52.42L41.0001 52.1L40.8901 52L40.8201 51.94L40.6601 51.78L40.3201 51.47L40.1501 51.34L40.0901 51.29L39.9701 51.19L39.6301 50.92L39.3701 50.73H39.3101L38.9801 50.51L38.6601 50.31H38.5801L38.3401 50.17L38.0001 49.89L37.7801 49.79H37.7101L37.4101 49.66L37.0001 49.49H36.9501L36.7401 49.42C36.6367 49.3795 36.5295 49.3494 36.4201 49.33H36.2701H36.2001H36.1101H35.7701H35.5701H34.6601C34.5001 49.33 34.3601 49.33 34.2101 49.39H34.0201L33.6701 49.49H33.5701C33.402 49.5599 33.2383 49.64 33.0801 49.73L29.5801 51.81C29.7463 51.7127 29.9202 51.6291 30.1001 51.56H30.1601C30.3148 51.497 30.4757 51.4501 30.6401 51.42H30.7401C30.9311 51.3787 31.125 51.3519 31.3201 51.34H31.4401C31.6301 51.34 31.8301 51.34 32.0301 51.34H32.1001C32.3189 51.3629 32.536 51.3996 32.7501 51.45H32.8101C33.0435 51.5041 33.2739 51.5709 33.5001 51.65C33.7401 51.73 33.9801 51.84 34.2301 51.95H34.2901C34.5401 52.07 34.8001 52.2 35.0501 52.35C35.3001 52.5 35.5701 52.67 35.8201 52.85H35.8801C36.1101 53.01 36.3401 53.19 36.5601 53.37L36.6701 53.46C36.8801 53.64 37.1001 53.83 37.3101 54.03L37.3901 54.11C37.6101 54.32 37.8301 54.54 38.0401 54.77C38.2601 55.02 38.4801 55.27 38.6901 55.53C38.9001 55.79 39.1101 56.05 39.3101 56.33V56.4C39.4901 56.64 39.6501 56.88 39.8101 57.13L40.1301 57.65C40.2101 57.78 40.3001 57.92 40.3701 58.06L40.5001 58.29C40.6301 58.53 40.7601 58.77 40.8801 59.01L40.9301 59.1C41.0701 59.4 41.2201 59.7 41.3501 60.01C41.4801 60.32 41.6001 60.62 41.7101 60.93V60.98C41.8201 61.29 41.9201 61.61 42.0201 61.92C42.0142 61.943 42.0142 61.9671 42.0201 61.99C42.1101 62.29 42.1801 62.59 42.2501 62.89C42.2548 62.9198 42.2548 62.9502 42.2501 62.98C42.3201 63.29 42.3801 63.61 42.4301 63.92C42.4301 64.23 42.5201 64.54 42.5401 64.85C42.5401 64.85 42.5401 64.85 42.5401 64.93C42.5401 65.24 42.5401 65.54 42.5401 65.84C42.5555 66.1298 42.5555 66.4202 42.5401 66.71V66.78C42.5401 67.04 42.4801 67.29 42.4301 67.53C42.4301 67.53 42.4301 67.59 42.4301 67.62C42.3885 67.8427 42.3351 68.063 42.2701 68.28V68.39C42.2001 68.59 42.1301 68.79 42.0501 68.97C41.9501 69.17 41.8501 69.37 41.7401 69.55L41.6901 69.61C41.6006 69.7541 41.5003 69.8912 41.3901 70.02L41.2701 70.15C41.1786 70.2549 41.0818 70.355 40.9801 70.45L40.8501 70.55C40.7109 70.6711 40.5602 70.7783 40.4001 70.87L44.0001 69C44.1602 68.9083 44.3109 68.8011 44.4501 68.68C44.4921 68.6492 44.5322 68.6158 44.5701 68.58C44.6798 68.4903 44.7803 68.3897 44.8701 68.28L44.9901 68.16L45.2901 67.75C45.3008 67.723 45.318 67.699 45.3401 67.68C45.4468 67.5056 45.5436 67.3253 45.6301 67.14C45.6904 67.0177 45.7405 66.8906 45.7801 66.76C45.8078 66.6984 45.8312 66.6349 45.8501 66.57C45.8458 66.5301 45.8458 66.4899 45.8501 66.45V66.35C45.8501 66.21 45.9201 66.08 45.9501 65.94V65.79C45.9548 65.7602 45.9548 65.7298 45.9501 65.7V65.55C45.9501 65.43 45.9501 65.3 45.9501 65.17V64.96V64.88C45.9549 64.8502 45.9549 64.8198 45.9501 64.79V64.42V63.66L46.2601 63.53Z" fill="#D25400"/>
<path d="M34.9999 52.28C39.2799 54.81 42.7399 60.94 42.7199 65.96C42.6999 70.98 39.2699 73 34.9999 70.49C30.7299 67.98 27.2599 61.84 27.2799 56.82C27.2999 51.8 30.7599 49.76 34.9999 52.28Z" fill="#E27124"/>
</g>
<defs>
<clipPath id="clip0_369_5415">
<rect width="120" height="115" fill="white"/>
</clipPath>
</defs>
</svg>
