<svg width="113" height="100" viewBox="0 0 113 100" fill="none" xmlns="http://www.w3.org/2000/svg">
<g clip-path="url(#clip0_369_5553)">
<path d="M92.7598 39.59H85.4099L81.8898 21.78L78.4398 39.59H71.1198L63.9398 11.36H71.2898L74.9198 27.69L78.3298 11.36H85.5499L88.7798 28L92.5898 11.38H95.6599V0L56.4998 11L17.3398 0V9.54H25.3398V21.54L34.9998 9.54H44.1998L31.8398 24.82L44.1998 41.42H34.9998L25.2998 27.9V41.42H17.3698L38.9998 47.51L42.0998 43.35C42.8782 44.2239 43.7893 44.9697 44.7998 45.56C45.8338 46.1527 47.0081 46.4566 48.1998 46.44C48.9698 46.4604 49.7348 46.3101 50.4398 46C51.0741 45.7175 51.6352 45.2933 52.0798 44.76C52.5255 44.2222 52.8649 43.6046 53.0798 42.94C53.3164 42.2205 53.4346 41.4674 53.4298 40.71V16.88H62.9998V40.18C63.0324 42.2012 62.6934 44.2112 61.9998 46.11C61.3594 47.8274 60.3606 49.3886 59.0698 50.69C58.4626 51.2908 57.792 51.8239 57.0698 52.28L95.6599 41.41V28.22L92.7598 39.59Z" fill="white"/>
<path d="M20.53 88.7299H33.46V99.9999H28.09V93.1499H2.1V88.7299H15.26V85.4699H0V80.9999H35.75V85.4699H20.53V88.7299ZM2.44 78.1799V62.6299H7.61V66.2199H28.19V62.6299H33.36V78.1799H2.44ZM28.19 70.3499H7.61V73.9999H28.19V70.3499Z" fill="white"/>
<path d="M74.3699 93.0498V98.1998H38.6299V93.0498H74.3699ZM48.5999 83.2598C45.8514 85.0632 42.6468 86.0481 39.3599 86.0998V80.8498C41.8922 80.8047 44.3443 79.9535 46.3599 78.4198C48.744 76.6626 50.7164 74.4069 52.1399 71.8098C53.766 68.9412 54.8411 65.7937 55.3099 62.5298L60.7299 63.4498C60.2873 66.1269 59.5182 68.7397 58.4399 71.2298L73.9299 81.8198L71.1099 86.2498L56.1099 75.5998C54.1974 78.6721 51.6337 81.2869 48.5999 83.2598Z" fill="white"/>
<path d="M97.78 84.4002H110.78V93.5402H84.81V96.0002H111.24V99.5402H79.59V90.3302H105.59V87.9002H79.49V84.4002H92.49V81.4002H77.25V77.3502H113V81.4402H97.78V84.4002ZM79.64 73.8502V69.8502H105.34V66.7602H79.64V62.6802H110.64V76.0902H105.37V73.8502H79.64Z" fill="white"/>
</g>
<defs>
<clipPath id="clip0_369_5553">
<rect width="113" height="100" fill="white"/>
</clipPath>
</defs>
</svg>
