<svg width="115" height="35" viewBox="0 0 115 35" fill="none" xmlns="http://www.w3.org/2000/svg">
<g clip-path="url(#clip0_369_5579)">
<path d="M50.48 26.51H45.56L43.2 14.58L40.89 26.51H36L31.2 7.61H36.12L38.55 18.54L40.82 7.61H45.65L47.82 18.73L50.36 7.61H52.42V0L26.21 7.38L0 0V6.38H5.32V14.38L11.83 6.38H18L9.7 16.61L18 27.73H11.83L5.32 18.73V27.78H0L14.47 31.86L16.57 29C17.0921 29.585 17.7029 30.0845 18.38 30.48C19.0701 30.8766 19.8541 31.0804 20.65 31.07C21.1665 31.0758 21.6781 30.97 22.15 30.76C22.571 30.5638 22.9458 30.281 23.25 29.93C23.5451 29.5687 23.7691 29.1547 23.91 28.71C24.0737 28.227 24.1548 27.7199 24.15 27.21V11.3H30.58V26.89C30.599 28.2536 30.3685 29.6092 29.9 30.89C29.4585 32.0436 28.7768 33.09 27.9 33.96C27.5023 34.3531 27.063 34.7018 26.59 35L52.42 27.72V18.89L50.48 26.51Z" fill="white"/>
<path d="M67.1398 21.36H73.8298V27.2H71.0498V23.65H57.5998V21.36H64.4098V19.68H56.5098V17.36H74.9998V19.68H67.1398V21.36ZM57.7698 15.9V7.9H60.4498V9.71H71.0998V7.85H73.7798V15.9H57.7698ZM71.0998 11.85H60.4498V13.74H71.0998V11.85Z" fill="white"/>
<path d="M95 23.6V26.27H76.5V23.6H95ZM81.67 18.53C80.2471 19.4686 78.5845 19.9788 76.88 20V17.29C78.2034 17.262 79.4829 16.8098 80.53 16C81.7666 15.0915 82.7904 13.9244 83.53 12.58C84.3632 11.1007 84.9158 9.48015 85.16 7.8L87.96 8.28C87.7335 9.65699 87.3372 11.0006 86.78 12.28L94.78 17.77L93.32 20.06L85.57 14.55C84.5801 16.1486 83.2482 17.5079 81.67 18.53Z" fill="white"/>
<path d="M107.12 19.12H113.84V23.85H100.41V25.11H114.09V27H97.71V22.19H111.14V20.93H97.66V19.12H104.4V17.59H96.5V15.47H115V17.59H107.12V19.12ZM97.73 13.66V11.57H111V10H97.73V7.88H113.73V14.82H111V13.66H97.73Z" fill="white"/>
</g>
<defs>
<clipPath id="clip0_369_5579">
<rect width="115" height="35" fill="white"/>
</clipPath>
</defs>
</svg>
