<svg width="115" height="115" viewBox="0 0 115 115" fill="none" xmlns="http://www.w3.org/2000/svg">
<g clip-path="url(#clip0_369_7295)">
<g style="mix-blend-mode:multiply" opacity="0.3">
<path d="M0 89.59L43.06 115L115 72.83L71.94 47.42L0 89.59Z" fill="#92BAEB"/>
</g>
<path d="M80.6699 59.31L88.1899 54.87L88.2899 18.31L80.7699 22.75L80.6699 59.31Z" fill="#ED8001"/>
<path d="M80.7701 22.75L88.2901 18.31L64.4001 4.29999L63.2701 4.96999V5.58999L58.6101 8.37999L58.0501 8.04999L56.8701 8.73999L80.7701 22.75Z" fill="#FACD00"/>
<path d="M56.87 8.73999L56.77 45.3L80.67 59.31L80.77 22.75L56.87 8.73999Z" fill="#FCA922"/>
<path d="M58.6099 8.38003L80.7699 21.3L85.9999 18.31L63.2699 5.59003L58.6099 8.38003Z" fill="#E7E8E9"/>
<path d="M63.27 4.96997V5.58997L85.35 18.68L86 18.31L63.27 4.96997Z" fill="#FCA922"/>
<path d="M71.4097 63.9L78.9297 59.46L79.0297 22.9L71.5097 27.34L71.4097 63.9Z" fill="#4B6E21"/>
<path d="M71.5099 27.34L79.0299 22.9L55.1299 8.90002L54.0099 9.56003V10.18L49.3499 12.97L48.7899 12.64L47.6099 13.34L71.5099 27.34Z" fill="#80B134"/>
<path d="M47.6098 13.34L47.5098 49.89L71.4098 63.9L71.5098 27.34L47.6098 13.34Z" fill="#5B7F2A"/>
<path d="M49.3501 12.97L71.5101 25.9L76.7301 22.9L54.0101 10.18L49.3501 12.97Z" fill="#E7E8E9"/>
<path d="M54.0098 9.56V10.18L76.0898 23.27L76.7298 22.9L54.0098 9.56Z" fill="#5B7F2A"/>
<path d="M25.8198 74.58V77.04L37.5798 83.97L37.5698 81.52L25.8198 74.58Z" fill="#A9B5C4"/>
<path d="M37.5698 81.52L37.5798 83.97L65.4398 67.65L65.4198 65.19L37.5698 81.52Z" fill="#C3C5C5"/>
<path d="M25.8198 74.58L37.5698 81.52L65.4198 65.19L53.6698 58.26L25.8198 74.58Z" fill="#E6E7EC"/>
<path opacity="0.5" d="M25.8198 74.58L65.4198 65.19L53.6698 58.26L25.8198 74.58Z" fill="#939599"/>
<path d="M36.67 76.95L34.58 75.72L34.52 53.66L36.61 54.89L36.67 76.95Z" fill="#A9B5C4"/>
<path d="M36.61 54.89L34.52 53.66L53.45 42.56L55.53 43.8L36.61 54.89Z" fill="#C0C5D1"/>
<path d="M55.5299 43.8L55.5999 65.86L36.6699 76.95L36.6099 54.89L55.5299 43.8Z" fill="#D5DFE6"/>
<path d="M17.62 76.8L15.6 76.23L6.95996 32.95L8.97996 33.52L17.62 76.8Z" fill="#C8D2DB"/>
<path d="M8.97996 33.52L6.95996 32.95L63.17 0L65.19 0.57L8.97996 33.52Z" fill="#E1EAEF"/>
<path d="M65.19 0.570007L73.84 43.85L17.62 76.8L8.97998 33.52L65.19 0.570007Z" fill="#D5DFE6"/>
<path d="M63.6801 4.02002L71.3601 43L19.3101 73.58L11.3301 34.09L63.6801 4.02002Z" fill="#5BC5F7"/>
<path d="M16.39 33.52L16.81 35.67L13.94 37.36L13.5 35.18L16.39 33.52Z" fill="#F5F3F2"/>
<path d="M17.6898 39.08L18.1198 41.23L15.2398 42.92L14.7998 40.74L17.6898 39.08Z" fill="#F5F3F2"/>
<path d="M18.85 45.06L19.27 47.22L16.4 48.9L15.96 46.73L18.85 45.06Z" fill="#F5F3F2"/>
<path d="M19.8102 50.52L20.2302 52.67L17.3602 54.36L16.9102 52.18L19.8102 50.52Z" fill="#F5F3F2"/>
<path d="M29.77 93.79L29.78 97.05L48.34 108L48.33 104.74L29.77 93.79Z" fill="#C8D2DB"/>
<path d="M48.3301 104.74L48.3401 108L104.29 75.2L104.28 71.94L48.3301 104.74Z" fill="#C3C5C5"/>
<path d="M29.77 93.79L48.33 104.74L104.28 71.94L85.72 60.98L29.77 93.79Z" fill="#E6E7EC"/>
<path d="M36.5498 93.52L38.2498 94.53L40.3898 93.27L38.6898 92.26L36.5498 93.52Z" fill="#A8AAAA"/>
<path d="M39.6899 91.69L41.3899 92.7L43.5299 91.44L41.8299 90.44L39.6899 91.69Z" fill="#A8AAAA"/>
<path d="M43.0498 89.84L44.7498 90.84L46.8998 89.58L45.1998 88.58L43.0498 89.84Z" fill="#A8AAAA"/>
<path d="M46.1899 88.01L47.8899 89.02L50.0399 87.76L48.3399 86.76L46.1899 88.01Z" fill="#A8AAAA"/>
<path d="M49.27 86.22L50.97 87.23L53.11 85.97L51.41 84.97L49.27 86.22Z" fill="#A8AAAA"/>
<path d="M52.4102 84.4L54.1102 85.41L56.2502 84.15L54.5502 83.14L52.4102 84.4Z" fill="#A8AAAA"/>
<path d="M55.77 82.54L57.47 83.55L59.62 82.29L57.91 81.29L55.77 82.54Z" fill="#A8AAAA"/>
<path d="M58.9102 80.72L60.6102 81.72L62.7602 80.47L61.0602 79.46L58.9102 80.72Z" fill="#A8AAAA"/>
<path d="M61.8599 79.13L63.5599 80.13L65.6999 78.87L63.9999 77.87L61.8599 79.13Z" fill="#A8AAAA"/>
<path d="M65 77.3L66.7 78.31L68.84 77.05L67.14 76.05L65 77.3Z" fill="#A8AAAA"/>
<path d="M68.3701 75.44L70.0701 76.45L72.2101 75.19L70.5101 74.19L68.3701 75.44Z" fill="#A8AAAA"/>
<path d="M71.5 73.62L73.21 74.62L75.35 73.36L73.65 72.36L71.5 73.62Z" fill="#A8AAAA"/>
<path d="M74.5801 71.83L76.2801 72.84L78.4201 71.58L76.7201 70.58L74.5801 71.83Z" fill="#A8AAAA"/>
<path d="M77.7202 70.01L79.4202 71.01L81.5602 69.76L79.8602 68.75L77.7202 70.01Z" fill="#A8AAAA"/>
<path d="M81.0801 68.15L82.7901 69.15L84.9201 67.9L83.2201 66.89L81.0801 68.15Z" fill="#A8AAAA"/>
<path d="M84.2202 66.32L85.9202 67.33L88.0702 66.07L86.3702 65.07L84.2202 66.32Z" fill="#A8AAAA"/>
<path d="M39.9199 95.45L41.6199 96.45L43.7699 95.19L42.0599 94.19L39.9199 95.45Z" fill="#A8AAAA"/>
<path d="M43.0601 93.62L44.7601 94.63L46.9101 93.37L45.2001 92.36L43.0601 93.62Z" fill="#A8AAAA"/>
<path d="M46.4302 91.77L48.1302 92.77L50.2702 91.51L48.5702 90.51L46.4302 91.77Z" fill="#A8AAAA"/>
<path d="M49.5698 89.94L51.2698 90.94L53.4198 89.68L51.7098 88.68L49.5698 89.94Z" fill="#A8AAAA"/>
<path d="M52.6401 88.15L54.3401 89.15L56.4901 87.9L54.7801 86.89L52.6401 88.15Z" fill="#A8AAAA"/>
<path d="M55.7798 86.33L57.4798 87.33L59.6298 86.08L57.9298 85.07L55.7798 86.33Z" fill="#A8AAAA"/>
<path d="M59.1499 84.47L60.8499 85.47L62.9899 84.22L61.2899 83.21L59.1499 84.47Z" fill="#A8AAAA"/>
<path d="M62.29 82.64L63.99 83.65L66.13 82.39L64.43 81.39L62.29 82.64Z" fill="#A8AAAA"/>
<path d="M65.23 81.05L66.93 82.05L69.08 80.8L67.37 79.8L65.23 81.05Z" fill="#A8AAAA"/>
<path d="M68.3701 79.22L70.0701 80.23L72.2201 78.98L70.5201 77.97L68.3701 79.22Z" fill="#A8AAAA"/>
<path d="M71.7402 77.37L73.4402 78.37L75.5802 77.11L73.8802 76.11L71.7402 77.37Z" fill="#A8AAAA"/>
<path d="M74.8799 75.54L76.5799 76.55L78.7199 75.29L77.0199 74.29L74.8799 75.54Z" fill="#A8AAAA"/>
<path d="M77.9502 73.76L79.6502 74.76L81.8002 73.5L80.1002 72.5L77.9502 73.76Z" fill="#A8AAAA"/>
<path d="M81.0898 71.93L82.7898 72.93L84.9398 71.68L83.2398 70.67L81.0898 71.93Z" fill="#A8AAAA"/>
<path d="M84.46 70.07L86.16 71.08L88.31 69.82L86.6 68.82L84.46 70.07Z" fill="#A8AAAA"/>
<path d="M87.6001 68.25L89.3101 69.25L91.4401 68L89.7401 66.99L87.6001 68.25Z" fill="#A8AAAA"/>
<path d="M43.0801 97.49L44.7801 98.49L46.9301 97.24L45.2201 96.23L43.0801 97.49Z" fill="#A8AAAA"/>
<path d="M46.2202 95.66L47.9202 96.67L50.0702 95.41L48.3602 94.41L46.2202 95.66Z" fill="#A8AAAA"/>
<path d="M49.5898 93.81L51.2898 94.81L53.4298 93.55L51.7298 92.55L49.5898 93.81Z" fill="#A8AAAA"/>
<path d="M52.73 91.98L54.43 92.99L56.57 91.73L54.87 90.72L52.73 91.98Z" fill="#A8AAAA"/>
<path d="M55.7998 90.19L57.4998 91.2L59.6498 89.94L57.9398 88.94L55.7998 90.19Z" fill="#A8AAAA"/>
<path d="M58.9399 88.37L60.6399 89.37L62.7899 88.12L61.0799 87.11L58.9399 88.37Z" fill="#A8AAAA"/>
<path d="M62.3101 86.51L64.0101 87.51L66.1501 86.26L64.4501 85.25L62.3101 86.51Z" fill="#A8AAAA"/>
<path d="M65.4399 84.69L67.1499 85.69L69.2899 84.43L67.5899 83.43L65.4399 84.69Z" fill="#A8AAAA"/>
<path d="M68.3901 83.09L70.0901 84.1L72.2301 82.84L70.5301 81.84L68.3901 83.09Z" fill="#A8AAAA"/>
<path d="M71.5298 81.27L73.2298 82.27L75.3798 81.02L73.6698 80.01L71.5298 81.27Z" fill="#A8AAAA"/>
<path d="M74.8999 79.41L76.5999 80.42L78.7399 79.16L77.0399 78.16L74.8999 79.41Z" fill="#A8AAAA"/>
<path d="M78.04 77.59L79.74 78.59L81.88 77.33L80.18 76.33L78.04 77.59Z" fill="#A8AAAA"/>
<path d="M81.1099 75.8L82.8199 76.8L84.9599 75.55L83.2499 74.54L81.1099 75.8Z" fill="#A8AAAA"/>
<path d="M84.25 73.97L85.95 74.98L88.1 73.72L86.39 72.72L84.25 73.97Z" fill="#A8AAAA"/>
<path d="M87.6201 72.12L89.3201 73.12L91.4601 71.86L89.7601 70.86L87.6201 72.12Z" fill="#A8AAAA"/>
<path d="M90.75 70.29L92.46 71.3L94.6 70.04L92.9 69.04L90.75 70.29Z" fill="#A8AAAA"/>
<path d="M45.98 99.42L47.68 100.42L49.83 99.16L48.12 98.16L45.98 99.42Z" fill="#A8AAAA"/>
<path d="M49.1201 97.59L50.8201 98.6L52.9601 97.34L51.2601 96.34L49.1201 97.59Z" fill="#A8AAAA"/>
<path d="M52.48 95.73L54.19 96.73L56.33 95.48L54.63 94.48L52.48 95.73Z" fill="#A8AAAA"/>
<path d="M55.6299 93.91L57.3299 94.91L59.4699 93.65L57.7699 92.65L55.6299 93.91Z" fill="#A8AAAA"/>
<path d="M58.7002 92.12L60.4002 93.12L62.5402 91.87L60.8402 90.86L58.7002 92.12Z" fill="#A8AAAA"/>
<path d="M61.8398 90.3L63.5398 91.3L65.6898 90.04L63.9798 89.04L61.8398 90.3Z" fill="#A8AAAA"/>
<path d="M65.2002 88.44L66.9102 89.44L69.0502 88.19L67.3502 87.18L65.2002 88.44Z" fill="#A8AAAA"/>
<path d="M68.3398 86.61L70.0398 87.61L72.1898 86.36L70.4898 85.36L68.3398 86.61Z" fill="#A8AAAA"/>
<path d="M71.29 85.02L72.99 86.03L75.13 84.77L73.43 83.76L71.29 85.02Z" fill="#A8AAAA"/>
<path d="M74.4199 83.19L76.1299 84.2L78.2799 82.94L76.5699 81.94L74.4199 83.19Z" fill="#A8AAAA"/>
<path d="M77.79 81.34L79.5 82.34L81.64 81.08L79.94 80.08L77.79 81.34Z" fill="#A8AAAA"/>
<path d="M80.9399 79.51L82.6399 80.52L84.7799 79.26L83.0799 78.26L80.9399 79.51Z" fill="#A8AAAA"/>
<path d="M84.0098 77.73L85.7098 78.73L87.8598 77.47L86.1498 76.47L84.0098 77.73Z" fill="#A8AAAA"/>
<path d="M87.1499 75.9L88.8499 76.9L90.9999 75.65L89.2899 74.64L87.1499 75.9Z" fill="#A8AAAA"/>
<path d="M90.52 74.05L92.22 75.05L94.36 73.79L92.66 72.78L90.52 74.05Z" fill="#A8AAAA"/>
<path d="M93.6602 72.22L95.3602 73.22L97.5002 71.97L95.8002 70.96L93.6602 72.22Z" fill="#A8AAAA"/>
<path d="M28.6702 64.22L27.0102 63.69L21.4702 32.41L23.1302 32.94L28.6702 64.22Z" fill="#67190F"/>
<path d="M23.1302 32.94L21.4702 32.41L57.4902 11.29L59.1502 11.82L23.1302 32.94Z" fill="#902315"/>
<path d="M59.1504 11.82L64.6904 43.11L28.6704 64.22L23.1304 32.94L59.1504 11.82Z" fill="#A72918"/>
<path d="M41.35 22.26L24 32.4L28.63 34.71C28.63 34.71 41.34 27.67 41.35 22.26Z" fill="#ADB7BC"/>
<path d="M41.35 22.26C41.35 22.26 36.74 30.72 24 32.4L29.73 63.58C29.73 63.58 41.08 62.58 46.65 53.66L41.35 22.26Z" fill="#D5DFE6"/>
<path d="M41.3501 22.26L57.5001 12.79C57.5001 12.79 55.6701 23.33 41.3501 22.26Z" fill="#ADB7BC"/>
<path d="M41.3501 22.26C41.3501 22.26 54.0001 21.37 57.5001 12.79L62.6401 44.31C62.6401 44.31 60.4301 52.18 46.6401 53.66L41.3501 22.26Z" fill="#E6E7EC"/>
<path d="M28 37C32.6777 36.6071 37.0546 34.5324 40.32 31.16L40.54 32.45C37.3505 35.9169 32.9746 38.0584 28.28 38.45L28 37Z" fill="#E6E7EC"/>
<path d="M29.0898 40.9C33.7702 40.5059 38.1498 38.4316 41.4198 35.06L41.6398 36.35C38.442 39.8112 34.0653 41.9513 29.3698 42.35L29.0898 40.9Z" fill="#E6E7EC"/>
<path d="M30 44.52C34.6777 44.1271 39.0546 42.0524 42.32 38.68L42.54 40C39.3445 43.4643 34.9665 45.6052 30.27 46L30 44.52Z" fill="#E6E7EC"/>
<path d="M30.8398 49C35.5171 48.6053 39.8934 46.5309 43.1598 43.16L43.3798 44.45C40.182 47.9112 35.8053 50.0513 31.1098 50.45L30.8398 49Z" fill="#E6E7EC"/>
<path d="M44.2998 28.62C48.9775 28.2272 53.3544 26.1524 56.6198 22.78L56.8398 24.07C53.6419 27.5312 49.2653 29.6714 44.5698 30.07L44.2998 28.62Z" fill="#D5DFE6"/>
<path d="M45.3999 32.57C50.0776 32.1771 54.4545 30.1024 57.7199 26.73L57.9399 28C54.7444 31.4643 50.3664 33.6051 45.6699 34L45.3999 32.57Z" fill="#D5DFE6"/>
<path d="M46.3101 36.19C50.9873 35.7953 55.3636 33.7209 58.6301 30.35L58.8501 31.64C55.6522 35.1012 51.2755 37.2413 46.5801 37.64L46.3101 36.19Z" fill="#D5DFE6"/>
<path d="M47.1499 40.62C51.8244 40.2257 56.1976 38.151 59.4599 34.78L59.6899 36.07C56.4944 39.5344 52.1164 41.6752 47.4199 42.07L47.1499 40.62Z" fill="#D5DFE6"/>
<path d="M24.04 32.41L29.77 63.58L30.84 63.41L25.07 32.25L24.04 32.41Z" fill="#ADB7BC"/>
<g opacity="0.2">
<path d="M77.5702 33.15C77.5702 40.15 66.7202 56.35 59.9102 56.35C53.1002 56.35 47.9102 54.23 47.9102 47.26C47.9102 40.29 58.4302 20.53 65.2402 20.53C68.5484 20.5696 71.7055 21.9211 74.0176 24.2876C76.3297 26.6541 77.6075 29.8418 77.5702 33.15Z" fill="#33ADE3"/>
</g>
<path d="M82.6099 28.48L80.1999 27.05L80.1299 19.17L82.5299 20.59L82.6099 28.48Z" fill="#B54C04"/>
<path d="M101 9.61L101.23 9.51L101.57 9.4L101.73 9.35H101.92H102.13H102.26H102.6H102.91C103.006 9.3627 103.099 9.38619 103.19 9.42H103.25C103.341 9.44974 103.428 9.49001 103.51 9.54L101.1 8.11L101 8H100.94H100.88H100.8H100.6H100.36H99.9599H99.8299H99.6999H99.5499H99.3599H99.1999L98.8599 8.12H98.7699L98.6299 8.19C98.588 8.20593 98.5478 8.22604 98.5099 8.25C98.3725 8.31209 98.239 8.38221 98.1099 8.46L80.1099 19.17L82.5099 20.59L100.51 9.88L100.92 9.67L101 9.61Z" fill="#E27124"/>
<path d="M100.51 9.88001C102.71 8.59001 104.51 9.31001 104.51 11.47C104.51 13.63 102.78 16.47 100.6 17.77L82.6 28.47L82.52 20.59L100.51 9.88001Z" fill="#D25400"/>
<path d="M78.1202 30L75.7202 28.57L75.6602 23.21L78.0702 24.64L78.1202 30Z" fill="#452617"/>
<path d="M78.0702 24.64L75.6602 23.21L80.1502 20.53L82.5502 21.95L78.0702 24.64Z" fill="#414042"/>
<path d="M82.5503 21.95L82.6203 27.32L78.1203 30L78.0703 24.64L82.5503 21.95Z" fill="#303030"/>
<path d="M75.3 34.16C75.3 33.99 75.36 33.81 75.38 33.63C75.4 33.45 75.38 33.47 75.38 33.4V33.34C75.38 32.96 75.46 32.59 75.49 32.22C75.49 32.15 75.49 32.08 75.49 32.01C75.49 31.63 75.49 31.26 75.49 30.89C75.49 26.89 74.07 24.01 71.81 22.67L69.4 21.25C71.66 22.58 73.07 25.43 73.08 29.46C73.08 29.84 73.08 30.21 73.08 30.59C73.0849 30.6599 73.0849 30.7301 73.08 30.8C73.08 31.17 73.02 31.54 72.97 31.92V32.2L72.88 32.74C72.88 32.85 72.88 32.96 72.88 33.07C72.88 33.18 72.81 33.42 72.78 33.6L72.72 33.86C72.63 34.28 72.53 34.72 72.41 35.15L72.35 35.36C72.25 35.74 72.13 36.11 72.01 36.49C71.89 36.8567 71.76 37.2167 71.62 37.57L71.53 37.83C71.41 38.14 71.28 38.45 71.15 38.76V38.86C71.01 39.2 70.85 39.53 70.7 39.86L70.58 40.11L70.19 40.89L70.08 41.11C69.91 41.44 69.73 41.76 69.55 42.11L69.45 42.28C69.29 42.56 69.12 42.83 68.95 43.11L68.81 43.34C68.6 43.67 68.39 43.99 68.17 44.34L68.07 44.49C67.85 44.81 67.62 45.13 67.38 45.43L67.27 45.59C66.97 45.97 66.67 46.35 66.35 46.72L66.21 46.88C66.03 47.1 65.84 47.31 65.65 47.52L65.59 47.58C65.38 47.81 65.17 48.03 64.95 48.25L64.81 48.39C64.53 48.67 64.24 48.94 63.95 49.2L63.87 49.27C63.57 49.54 63.26 49.8 62.95 50.05L62.77 50.19C62.4566 50.43 62.1466 50.66 61.84 50.88L61.67 50.99C61.34 51.21 61.01 51.43 60.67 51.62C60.33 51.81 60.13 51.92 59.87 52.06L59.64 52.17L59.04 52.45L58.82 52.55L58.27 52.76L58.13 52.81L57.45 53.02L57.06 53.12H56.87L56.3 53.23C56.01 53.23 55.73 53.3 55.46 53.31H54.56H54.44C54.249 53.3009 54.0587 53.2809 53.87 53.25H53.69C53.4833 53.21 53.2733 53.16 53.06 53.1C52.86 53.04 52.67 52.97 52.49 52.9L52.32 52.83L51.87 52.6L51.71 52.52L54 53.91H54.07H54.15L54.61 54.14H54.7H54.77L55.34 54.34C55.5466 54.4 55.7566 54.45 55.97 54.49H56.05H56.15L56.71 54.56H56.84C57.08 54.56 57.32 54.56 57.57 54.56H57.64H57.74C58.01 54.56 58.29 54.56 58.58 54.48L59.15 54.37H59.32L59.7 54.28L60.38 54.07L60.54 54.01L61.07 53.81H61.15L61.3 53.74L61.88 53.47L62.12 53.35C62.38 53.21 62.65 53.07 62.92 52.91C63.19 52.75 63.58 52.5 63.92 52.28L64.09 52.17L65.02 51.48L65.2 51.34C65.51 51.09 65.82 50.84 66.11 50.57L66.2 50.49C66.49 50.23 66.78 49.96 67.06 49.68L67.15 49.6V49.54C67.37 49.32 67.58 49.1 67.79 48.87L67.85 48.81C68.04 48.6 68.23 48.39 68.41 48.17L68.48 48.1L68.55 48.01C68.8633 47.6433 69.1733 47.2633 69.48 46.87L69.54 46.78C69.78 46.46 70.02 46.14 70.25 45.78C70.2756 45.7484 70.299 45.7149 70.32 45.68V45.63C70.54 45.32 70.75 44.99 70.96 44.63L71.02 44.55C71.02 44.55 71.02 44.45 71.1 44.41C71.27 44.13 71.44 43.86 71.6 43.58L71.67 43.46V43.41C71.85 43.1 72.02 42.78 72.19 42.46V42.38L72.27 42.23L72.66 41.45C72.66 41.45 72.66 41.35 72.74 41.29C72.7362 41.2601 72.7362 41.2299 72.74 41.2C72.9 40.87 73.04 40.54 73.19 40.2V40.12C73.32 39.81 73.45 39.5 73.56 39.19L73.62 39.05C73.6226 39.0134 73.6226 38.9766 73.62 38.94C73.76 38.57 73.88 38.22 74 37.86C74.12 37.48 74.24 37.11 74.34 36.74C74.34 36.74 74.34 36.64 74.34 36.6C74.34 36.56 74.34 36.6 74.34 36.52C74.46 36.09 74.56 35.66 74.65 35.23V35.12C74.6453 35.0701 74.6453 35.0199 74.65 34.97C74.65 34.8 74.71 34.62 74.75 34.44C74.79 34.26 75.29 34.27 75.3 34.16Z" fill="#414042"/>
<path d="M64.2299 18.68L64.9899 18.32L65.2699 18.21C65.5099 18.1 65.7499 18.01 65.9899 17.92L66.1599 17.86L67.0399 17.59L67.5399 17.46L67.7799 17.4L68.5099 17.26L69.1799 17.18H69.3999H69.8699H70.8699C71.1199 17.18 71.3699 17.23 71.6099 17.27H71.8299C72.1033 17.318 72.3737 17.3814 72.6399 17.46C72.8911 17.5333 73.1381 17.6201 73.3799 17.72L73.5799 17.81C73.7799 17.9033 73.9799 18.0034 74.1799 18.11L74.3699 18.21L71.9999 16.82L71.9099 16.77L71.8099 16.72C71.6161 16.6081 71.4157 16.5079 71.2099 16.42L71.0999 16.36H71.0099C70.7687 16.2585 70.5216 16.1717 70.2699 16.1C70.0099 16.0267 69.7399 15.9667 69.4599 15.92H69.3699H69.2399C68.9999 15.92 68.7499 15.85 68.4999 15.83H67.3099H67.0099H66.7799L66.1499 15.9H66.0699C65.8399 15.9 65.5999 15.98 65.3699 16.03L65.1199 16.09L64.6699 16.2C64.3799 16.27 64.0799 16.37 63.7899 16.47L63.6199 16.53L62.8999 16.81H62.8099L62.6299 16.89C62.3699 17 62.1199 17.12 61.8599 17.25L61.5599 17.4C61.2199 17.57 60.8799 17.75 60.5599 17.96L59.7899 18.43L59.5399 18.6L58.9999 19C58.8992 19.0643 58.8024 19.1344 58.7099 19.21L58.2299 19.56L57.9399 19.78L57.4599 20.16C57.3688 20.2279 57.2819 20.3014 57.1999 20.38C57.0099 20.53 56.8299 20.68 56.6599 20.84L56.4599 21L55.7399 21.67L55.6299 21.78L55.1299 22.26L54.9999 22.3C54.7199 22.58 54.4499 22.86 54.1799 23.15L54.1099 23.23C53.8599 23.5 53.6199 23.78 53.3699 24.06L53.2999 24.14L53.2199 24.24C52.8099 24.72 52.4099 25.24 52.0199 25.72L51.9299 25.84C51.6299 26.25 51.3199 26.66 51.0299 27.08L50.9399 27.21V27.26C50.6599 27.67 50.3899 28.09 50.1199 28.51C50.0991 28.5506 50.0721 28.5877 50.0399 28.62L49.9299 28.82C49.7199 29.15 49.5099 29.49 49.3099 29.82C49.2769 29.8822 49.2402 29.9423 49.1999 30V30.07C48.9699 30.47 48.7499 30.87 48.5299 31.28C48.5263 31.3133 48.5263 31.3468 48.5299 31.38L48.4199 31.6C48.2465 31.92 48.0865 32.2533 47.9399 32.6L47.8299 32.82L47.7699 32.95C47.5699 33.37 47.3799 33.79 47.1999 34.21C47.1999 34.21 47.1999 34.3 47.1999 34.35C47.0399 34.73 46.8799 35.11 46.7399 35.48C46.7399 35.55 46.6799 35.62 46.6599 35.68L46.5999 35.85C46.4299 36.3 46.2699 36.75 46.1199 37.21V37.3C45.9699 37.76 45.8299 38.23 45.6999 38.7C45.6999 38.76 45.6999 38.82 45.6499 38.88C45.5999 38.94 45.6499 39 45.6499 39.06C45.6499 39.12 45.5799 39.32 45.5499 39.45L45.3999 40.05L45.3099 40.46C45.3099 40.56 45.3099 40.67 45.2399 40.77C45.2446 40.8433 45.2446 40.9168 45.2399 40.99L45.1199 41.62C45.1199 41.78 45.0599 41.93 45.0399 42.08C45.0199 42.23 44.9699 42.52 44.9399 42.74C44.9099 42.96 44.9399 42.95 44.9399 43.05C44.9399 43.15 44.9399 43.14 44.9399 43.18C44.9454 43.2833 44.9454 43.3868 44.9399 43.49L44.8799 44.12C44.8799 44.23 44.8799 44.34 44.8799 44.45C44.8799 44.56 44.8799 44.88 44.8799 45.09C44.8799 45.3 44.8799 45.28 44.8799 45.36C44.8799 45.67 44.8799 45.97 44.8799 46.27C44.8799 51.46 46.6999 55.11 49.5999 56.83L52.0099 58.25C49.0999 56.53 47.2999 52.88 47.2899 47.69C47.2899 47.39 47.2899 47.09 47.2899 46.79C47.2849 46.7001 47.2849 46.6099 47.2899 46.52C47.2899 46.3 47.2899 46.08 47.2899 45.87C47.2899 45.66 47.2899 45.65 47.2899 45.54C47.2899 45.43 47.2899 45.13 47.3599 44.92V44.6L47.4199 44.17C47.4199 43.95 47.4799 43.72 47.5199 43.5C47.5599 43.28 47.5199 43.2 47.5999 43.05L47.7199 42.41C47.7199 42.23 47.7899 42.06 47.8299 41.89L47.9199 41.47L48.0699 40.88L48.1699 40.48C48.1699 40.36 48.2399 40.24 48.2699 40.12C48.4032 39.6533 48.5432 39.1833 48.6899 38.71C48.6955 38.6736 48.6955 38.6365 48.6899 38.6C48.8399 38.15 48.9999 37.69 49.1699 37.24C49.1699 37.12 49.2599 37 49.3099 36.88C49.4599 36.49 49.6099 36.11 49.7699 35.74L49.8399 35.56C50.0199 35.14 50.2099 34.72 50.4099 34.3L50.5699 33.96C50.7299 33.63 50.8899 33.31 51.0599 32.96C51.1099 32.86 51.1699 32.76 51.2199 32.65C51.4299 32.24 51.6599 31.84 51.8899 31.44L52.0299 31.19C52.2299 30.85 52.4399 30.51 52.6499 30.19C52.7099 30.08 52.7799 29.98 52.8399 29.88C53.1099 29.46 53.3799 29.04 53.6599 28.64C53.6599 28.57 53.7499 28.51 53.7899 28.45L54.6899 27.2C54.6899 27.2 54.7699 27.1 54.8099 27.05C55.1999 26.55 55.5999 26.05 56.0099 25.57L56.1599 25.39C56.4099 25.11 56.6499 24.82 56.9099 24.55L56.9699 24.48C57.2399 24.19 57.5099 23.91 57.7899 23.63L58.3499 23.07L58.4799 22.95L59.1899 22.29L59.3799 22.13L59.9199 21.67L60.1899 21.45L60.6699 21.07L60.9599 20.85L61.4399 20.5L61.7199 20.29L62.2499 19.94L62.4999 19.78C62.7499 19.61 63.0099 19.45 63.2699 19.3C63.5299 19.15 63.9599 18.91 64.2699 18.74L64.2299 18.68Z" fill="#414042"/>
<path d="M62.9001 19.39C71.9001 14.14 79.1301 18.39 79.1601 28.79C79.1901 39.19 72.0001 51.94 63.0001 57.19C54.0001 62.44 46.7801 58.19 46.7501 47.78C46.7201 37.37 54.0001 24.63 62.9001 19.39ZM63.0001 53C70.0001 48.92 75.6001 39 75.5801 30.88C75.5601 22.76 69.8901 19.46 62.9101 23.55C55.9301 27.64 50.3101 37.55 50.3401 45.68C50.3701 53.81 56.0001 57.1 63.0001 53Z" fill="#6B6C70"/>
</g>
<defs>
<clipPath id="clip0_369_7295">
<rect width="115" height="115" fill="white"/>
</clipPath>
</defs>
</svg>
