<svg width="115" height="60" viewBox="0 0 115 60" fill="none" xmlns="http://www.w3.org/2000/svg">
<g clip-path="url(#clip0_369_7261)">
<path fill-rule="evenodd" clip-rule="evenodd" d="M20.811 52.2H24.0431V48.2267H33.6341V52.2H36.8661V56.16H33.6341H24.0431H20.811V52.2Z" fill="#6D6D6B"/>
<path d="M16.0551 8.85333H0V60H16.0551V8.85333Z" fill="#6FCAF3"/>
<path d="M12.8362 12.8134H3.14014V16.7734H12.8362V12.8134Z" fill="white"/>
<path fill-rule="evenodd" clip-rule="evenodd" d="M4.75599 42.76C4.26987 42.76 3.79689 42.2934 3.79689 41.4267C3.77129 41.1421 3.85786 40.8589 4.03762 40.639C4.21738 40.4191 4.4757 40.2804 4.75599 40.2534C5.32094 40.2534 5.70195 40.72 5.70195 41.4267C5.70195 42.1334 5.32094 42.76 4.75599 42.76Z" fill="white"/>
<path fill-rule="evenodd" clip-rule="evenodd" d="M4.75599 48.2267C4.52215 48.2049 4.29484 48.1366 4.08704 48.0256C3.87924 47.9146 3.69503 47.7632 3.54495 47.5799C3.39486 47.3966 3.28185 47.1852 3.21236 46.9575C3.14287 46.7299 3.11827 46.4906 3.13997 46.2533C3.11264 45.7764 3.264 45.3065 3.56372 44.9381C3.86343 44.5696 4.28932 44.3298 4.75599 44.2667C5.23928 44.3076 5.68789 44.5379 6.00672 44.9087C6.32555 45.2796 6.48956 45.7618 6.46397 46.2533C6.48364 46.4976 6.45467 46.7434 6.3788 46.976C6.30293 47.2087 6.1817 47.4235 6.02233 47.6076C5.86297 47.7917 5.66873 47.9414 5.45117 48.0477C5.23362 48.1541 4.9972 48.215 4.75599 48.2267Z" fill="white"/>
<path d="M12.8362 18.64H3.14014V22.6H12.8362V18.64Z" fill="white"/>
<path fill-rule="evenodd" clip-rule="evenodd" d="M5.89893 0.93335H51.4102V44.2667H19.1949V36.4667H48.0993V4.89335H5.89893V0.93335Z" fill="#6D6D6B"/>
<path fill-rule="evenodd" clip-rule="evenodd" d="M28.9045 42.2933C29.3712 42.2302 29.7971 41.9904 30.0968 41.6219C30.3965 41.2535 30.5479 40.7836 30.5206 40.3067C30.5499 40.0737 30.53 39.8372 30.4622 39.6127C30.3944 39.3882 30.2803 39.1809 30.1274 39.0046C29.9745 38.8284 29.7863 38.6872 29.5755 38.5905C29.3646 38.4938 29.1359 38.4438 28.9045 38.4438C28.6732 38.4438 28.4444 38.4938 28.2336 38.5905C28.0228 38.6872 27.8346 38.8284 27.6817 39.0046C27.5288 39.1809 27.4147 39.3882 27.3469 39.6127C27.2791 39.8372 27.2592 40.0737 27.2885 40.3067C27.2612 40.7836 27.4126 41.2535 27.7123 41.6219C28.012 41.9904 28.4379 42.2302 28.9045 42.2933Z" fill="white"/>
<path fill-rule="evenodd" clip-rule="evenodd" d="M96.1072 30.3067V52.7067C96.1175 53.3515 96.379 53.9659 96.8345 54.4156C97.2899 54.8654 97.9023 55.1138 98.5377 55.1067H103.07V27.8933H98.5377C98.2181 27.8845 97.8999 27.9401 97.6015 28.0569C97.3032 28.1737 97.0306 28.3494 96.7997 28.5739C96.5687 28.7983 96.384 29.0671 96.2561 29.3645C96.1282 29.6619 96.0597 29.9822 96.0546 30.3067H96.1072ZM60.3577 55.1067H65.6919V28.1333C65.6919 16.5333 73.1544 7.12 84.4666 7.12C95.7787 7.12 103.123 16.5333 103.123 28.1333V55.1067H108.444C109.325 55.1071 110.196 54.9279 111.008 54.5796C111.819 54.2313 112.552 53.7211 113.165 53.0792C113.778 52.4374 114.257 51.6771 114.575 50.8435C114.892 50.0098 115.041 49.1199 115.013 48.2267V34.3333C115.021 32.8257 114.553 31.3552 113.679 30.1366C112.804 28.9179 111.568 28.0151 110.152 27.56C109.916 12.28 99.4968 0 84.4534 0C69.41 0 58.8862 12.28 58.6628 27.56C57.2589 28.0267 56.0375 28.9345 55.1755 30.1521C54.3134 31.3697 53.8553 32.8341 53.8673 34.3333V48.2267C53.8427 50.0221 54.5203 51.7543 55.7515 53.0438C56.9828 54.3333 58.6674 55.0751 60.4365 55.1067H60.3577ZM65.6919 27.8933V55.1067H70.3297C70.6487 55.1173 70.9666 55.0634 71.2649 54.9481C71.5632 54.8327 71.8358 54.6583 72.067 54.4349C72.2981 54.2115 72.4831 53.9436 72.6112 53.6469C72.7392 53.3502 72.8078 53.0306 72.8128 52.7067V30.3067C72.8078 29.9822 72.7393 29.6619 72.6114 29.3645C72.4835 29.0671 72.2987 28.7983 72.0678 28.5739C71.8368 28.3494 71.5643 28.1737 71.2659 28.0569C70.9676 27.9401 70.6494 27.8845 70.3297 27.8933H65.6919Z" fill="#6D6D6B"/>
</g>
<defs>
<clipPath id="clip0_369_7261">
<rect width="115" height="60" fill="white"/>
</clipPath>
</defs>
</svg>
